<?xml version="1.0" encoding="utf-8"?>
<!-- Generator: Adobe Illustrator 24.3.0, SVG Export Plug-In . SVG Version: 6.00 Build 0)  -->
<svg version="1.1" id="layer" xmlns="http://www.w3.org/2000/svg" xmlns:xlink="http://www.w3.org/1999/xlink" x="0px" y="0px"
	 viewBox="0 0 86.13 55.66" style="enable-background:new 0 0 86.13 55.66;" xml:space="preserve">
<style type="text/css">
	.st0{display:none;}
	.st1{display:inline;fill:#FFE6BB;}
	.st2{display:inline;}
	.st3{fill:#FDC345;}
	.st4{fill:#FFD788;}
	.st5{display:inline;fill:#1E2323;}
	.st6{fill:#C95B3D;}
	.st7{fill:#343D18;}
	.st8{display:inline;fill:#475429;}
	.st9{display:inline;fill:#31381C;}
	.st10{display:inline;fill:#313A1C;}
	.st11{display:none;fill:#242D0F;}
	.st12{display:none;fill:#FFFFFF;}
	.st13{display:none;fill:#D9F6FF;}
	.st14{fill:#D9F6FF;}
	.st15{display:inline;fill:#36421A;}
	.st16{fill:#363838;}
	.st17{fill:#A5A5A5;}
	.st18{fill:#59698B;}
	.st19{fill:#465572;}
	.st20{display:inline;fill:#59698B;}
	.st21{display:inline;fill:#A5A5A5;}
	.st22{display:inline;fill:#A0A5AA;}
	.st23{display:inline;fill:#B5B5B5;}
	.st24{display:inline;fill:#FFFFFF;}
	.st25{display:inline;fill:#233F3E;}
	.st26{display:inline;fill:#258E88;}
	.st27{fill:#5B6B8D;}
	.st28{fill:#B5B5B5;}
	.st29{display:inline;fill:#F7F7D2;}
	.st30{display:inline;fill:#5B6B8D;}
	.st31{display:inline;fill:#465572;}
	.st32{fill:#89847D;}
	.st33{fill:#968B77;}
	.st34{fill:#A59E92;}
	.st35{fill:#847863;}
	.st36{display:inline;fill:#89847D;}
	.st37{display:inline;fill:#986435;}
	.st38{display:inline;fill:#B37E52;}
	.st39{display:inline;fill:#8C562A;}
	.st40{display:inline;fill:#969289;}
	.st41{display:inline;fill:#A59E92;}
	.st42{display:inline;fill:#81AC41;}
	.st43{fill:#D3986C;}
	.st44{fill:#233F3E;}
	.st45{fill:#258E88;}
	.st46{fill:#F7F7D2;}
	.st47{fill:#626868;}
	.st48{fill:#999999;}
	.st49{fill:#707676;}
	.st50{fill:#A0A5AA;}
	.st51{fill:#523D38;}
	.st52{fill:#4B9694;}
	.st53{display:inline;fill:#626868;}
	.st54{display:inline;fill:#3A3442;}
	.st55{display:inline;fill:#4F4957;}
	.st56{display:inline;fill:#BFBFBF;}
	.st57{fill:#FFFFFF;}
	.st58{display:inline;fill:#D1D1D1;}
	.st59{display:inline;fill:#484351;}
	.st60{display:inline;fill:#403B49;}
</style>
<g class="st0">
	<polygon class="st1" points="-201.49,-42.67 -198.56,-23.49 -192.3,-41.85 -194.05,-22.53 -183.58,-38.86 -189.9,-20.52 
		-175.82,-33.87 -186.35,-17.57 -169.48,-27.17 -183.61,-13.86 -164.94,-19.14 -181.84,-9.6 -162.44,-10.26 -181.14,-5.05 
		-162.14,-1.04 -181.54,-0.45 -164.06,7.98 -183.04,3.91 -168.08,16.28 -185.53,7.79 -173.97,23.38 -188.89,10.96 -181.39,28.86 
		-192.9,13.23 -189.91,32.41 -197.34,14.48 -199.02,33.81 -201.95,14.63 -208.21,33 -206.46,13.67 -216.94,30 -210.61,11.66 
		-224.69,25.01 -214.16,8.71 -231.03,18.31 -216.9,5 -235.57,10.28 -218.67,0.75 -238.07,1.4 -219.38,-3.81 -238.37,-7.81 
		-218.97,-8.41 -236.45,-16.84 -217.47,-12.77 -232.43,-25.14 -214.98,-16.65 -226.54,-32.24 -211.63,-19.82 -219.12,-37.72 
		-207.61,-22.09 -210.61,-41.26 -203.17,-23.34 	"/>
	<g class="st2">
		<circle class="st3" cx="-200.26" cy="-4.43" r="16.45"/>
		<path class="st4" d="M-197.79-9.16c5.17,0,9.72,2.61,12.42,6.59c0.08-0.61,0.12-1.23,0.12-1.86c0-8.29-6.72-15.01-15.01-15.01
			c-8.29,0-15.01,6.72-15.01,15.01c0,3.12,0.95,6.02,2.59,8.42C-211.76-3.42-205.45-9.16-197.79-9.16z"/>
	</g>
</g>
<g>
	<g class="st0">
		<polygon class="st5" points="-57.67,84.56 -72.82,84.56 -86.69,92.31 -86.69,93.86 -85.58,93.86 -85.58,94.63 -85.58,117.74 
			-93.54,121.01 -93.54,121.99 -92.44,121.99 -92.44,122.53 -92.44,138.72 -93.39,138.72 -93.39,140.62 -71.06,140.62 
			-47.42,140.62 -43.29,140.62 -43.29,140.63 -27.61,140.63 -27.61,140.62 -25.08,140.62 -25.08,138.72 -25.85,138.72 -25.85,94.78 
			-25.85,93.57 -23.18,95.11 -23.18,93.27 -47.98,78.96 		"/>
		<path class="st5" d="M-131.89,138.77h-1.58v-0.78h-0.8v-23.62h0.64v-0.94h0.07l-7.5-13h-17.69v-5.68h-0.13v-0.24h0.73v-0.04
			l-1.04-0.6l-1.04,0.6v0.04h0.68v0.24h-0.16v5.68h-0.97v-3.94h-0.13v-0.24h0.73v-0.04l-1.04-0.6l-1.04,0.6v0.04h0.68v0.24h-0.16
			v3.94h-32.45l-7.48,12.96h-0.01v0.02l-0.01,0.02h0.01v0.94h0.98v0.9v24.4h-0.93v0.96h70.3v-0.96h-0.65V138.77z M-159.35,94.51
			h0.24v0.24h-0.24V94.51z M-161.27,96.25h0.24v0.24h-0.24V96.25z"/>
		<path class="st5" d="M-296.58,138.77h-0.89v-0.78h-0.45v-23.62h0.36v-0.94h0.04l-4.24-13h-10v-5.68h-0.08v-0.24h0.41v-0.04
			l-0.59-0.6l-0.59,0.6v0.04h0.39v0.24h-0.09v5.68h-0.55v-3.94h-0.08v-0.24h0.41v-0.04l-0.59-0.6l-0.59,0.6v0.04h0.39v0.24h-0.09
			v3.94h-18.35l-4.23,12.96h-0.01v0.02l-0.01,0.02h0.01v0.94h0.55v0.9v24.4h-0.53v0.96h39.74v-0.96h-0.37V138.77z M-312.1,94.51
			h0.13v0.24h-0.13V94.51z M-313.19,96.25h0.13v0.24h-0.13V96.25z"/>
		<polygon class="st5" points="-251.76,81.36 -251.76,81.36 -251.77,81.36 -287.36,93.48 -287.36,95.11 -285.47,95.11 
			-285.47,96.01 -285.47,109.38 -300.93,114.64 -300.93,115.91 -299.58,115.91 -299.58,116.98 -299.58,139.25 -301.38,139.25 
			-301.38,140.61 -216.99,140.61 -216.99,139.25 -218.17,139.25 -218.17,115.68 -217.26,115.68 -217.26,114.39 -218.17,114.39 
			-218.17,96.01 -218.17,95.11 -216.18,95.11 -216.18,93.48 -251.76,81.37 		"/>
		<polygon class="st5" points="53.62,81.36 53.62,81.36 53.61,81.36 30.47,93.48 30.47,95.11 31.7,95.11 31.7,96.01 31.7,109.38 
			21.65,114.64 21.65,115.91 22.53,115.91 22.53,116.98 22.53,139.25 21.36,139.25 21.36,140.61 76.23,140.61 76.23,139.25 
			75.46,139.25 75.46,115.68 76.05,115.68 76.05,114.39 75.46,114.39 75.46,96.01 75.46,95.11 76.75,95.11 76.75,93.48 53.62,81.37 
					"/>
		<polygon class="st5" points="-265.66,114.12 -264.05,114.12 -264.05,112.25 -287.35,98.58 -310.65,112.25 -310.65,114.12 
			-309.04,114.12 -309.04,139.75 -309.83,139.75 -309.83,140.64 -285.52,140.64 -285.52,140.78 -262.45,140.78 -262.45,139.06 
			-265.66,139.06 		"/>
		<polygon class="st5" points="51.92,139.21 51.92,115.44 51.92,113.77 53.29,113.77 53.29,112.59 53.26,112.59 46.97,92.91 
			6.43,92.91 -0.57,112.59 -0.6,112.59 -0.6,113.77 0.82,113.77 0.82,115.44 0.82,139.21 -0.58,139.21 -0.58,140.45 54.06,140.45 
			54.06,139.21 		"/>
	</g>
	<g>
		<g class="st0">
			<g class="st2">
				<rect x="55.76" y="112.86" class="st6" width="2.85" height="24.83"/>
				<path class="st7" d="M45.93,111.32c-0.13-0.37-0.21-0.77-0.21-1.19c0-1.35,0.77-2.52,1.89-3.11c-0.84-0.97-1.35-2.23-1.35-3.61
					c0-3.05,2.47-5.51,5.51-5.51c0.02,0,0.04,0,0.06,0c0-0.05,0-0.11,0-0.17c0-2.14,1.74-3.88,3.88-3.88c2.09,0,3.79,1.66,3.87,3.73
					c0.6-0.22,1.24-0.34,1.91-0.34c3.05,0,5.51,2.47,5.51,5.51c0,0.51-0.07,1.01-0.2,1.48c1.5,0.39,2.6,1.76,2.6,3.38
					c0,0.44-0.08,0.85-0.23,1.24c1.84,1.11,3.06,3.12,3.06,5.42c0,0.05,0.09,3.12-3.13,3.27c-0.2,2.67-2.43,4.77-5.15,4.77h-0.01
					c-0.76,1.95-2.65,3.34-4.88,3.34h-2.7c-2.22,0-4.12-1.39-4.88-3.34c-2.71-0.03-4.91-2.14-5.09-4.81
					C44.14,116.95,44.94,111.84,45.93,111.32z"/>
			</g>
			<path class="st8" d="M68.39,113.08L68.39,113.08c0-2.73-2.1-4.95-4.77-5.16c-0.15-3.22-3.22-3.13-3.27-3.13
				c-2.3,0-4.32,1.23-5.42,3.06c-0.38-0.15-0.8-0.23-1.24-0.23c-1.62,0-2.99,1.11-3.38,2.6c-0.47-0.13-0.97-0.2-1.48-0.2
				c-1.1,0-2.13,0.33-2.99,0.89c-0.06-0.25-0.1-0.52-0.1-0.79c0-1.35,0.77-2.52,1.89-3.11c-0.84-0.97-1.35-2.23-1.35-3.61
				c0-3.05,2.47-5.51,5.51-5.51c0.02,0,0.04,0,0.06,0c0-0.05,0-0.11,0-0.17c0-2.14,1.74-3.88,3.88-3.88c2.09,0,3.79,1.66,3.87,3.73
				c0.6-0.22,1.24-0.34,1.91-0.34c3.05,0,5.51,2.47,5.51,5.51c0,0.51-0.07,1.01-0.2,1.48c1.5,0.39,2.6,1.76,2.6,3.38
				c0,0.44-0.08,0.85-0.23,1.24c1.84,1.11,3.06,3.12,3.06,5.42c0,0.03,0.03,1.27-0.75,2.21C71.05,114.93,69.89,113.66,68.39,113.08z
				"/>
		</g>
		<g class="st0">
			<g class="st2">
				<rect x="-22.61" y="106.23" class="st6" width="3.61" height="31.47"/>
				<path class="st7" d="M-35.07,104.27c-0.17-0.47-0.26-0.97-0.26-1.5c0-1.71,0.97-3.2,2.4-3.94c-1.06-1.23-1.71-2.82-1.71-4.57
					c0-3.86,3.13-6.99,6.99-6.99c0.02,0,0.05,0,0.07,0c0-0.07-0.01-0.14-0.01-0.21c0-2.71,2.2-4.91,4.91-4.91
					c2.65,0,4.81,2.1,4.91,4.72c0.76-0.28,1.57-0.43,2.43-0.43c3.86,0,6.99,3.13,6.99,6.99c0,0.65-0.09,1.28-0.26,1.87
					c1.9,0.5,3.3,2.23,3.3,4.28c0,0.55-0.1,1.08-0.29,1.57c2.33,1.41,3.88,3.96,3.88,6.87c0,0.07,0.11,3.96-3.96,4.15
					c-0.26,3.38-3.08,6.05-6.53,6.05h-0.01c-0.96,2.48-3.36,4.23-6.18,4.23h-3.42c-2.82,0-5.22-1.76-6.18-4.24
					c-3.43-0.04-6.23-2.72-6.45-6.1C-37.35,111.4-36.33,104.93-35.07,104.27z"/>
			</g>
			<path class="st9" d="M-6.61,106.5L-6.61,106.5c0-3.46-2.67-6.28-6.05-6.53c-0.19-4.08-4.08-3.96-4.15-3.96
				c-2.92,0-5.47,1.56-6.88,3.88c-0.49-0.18-1.01-0.29-1.57-0.29c-2.06,0-3.78,1.4-4.28,3.3c-0.6-0.17-1.23-0.26-1.88-0.26
				c-1.4,0-2.7,0.42-3.79,1.12c-0.07-0.32-0.13-0.65-0.13-1c0-1.71,0.97-3.2,2.4-3.94c-1.06-1.23-1.71-2.82-1.71-4.57
				c0-3.86,3.13-6.99,6.99-6.99c0.02,0,0.05,0,0.07,0c0-0.07-0.01-0.14-0.01-0.21c0-2.71,2.2-4.91,4.91-4.91
				c2.65,0,4.81,2.1,4.91,4.72c0.76-0.28,1.57-0.43,2.43-0.43c3.86,0,6.99,3.13,6.99,6.99c0,0.65-0.09,1.28-0.26,1.87
				c1.9,0.5,3.3,2.23,3.3,4.28c0,0.55-0.1,1.08-0.29,1.57c2.33,1.41,3.88,3.96,3.88,6.87c0,0.04,0.04,1.6-0.95,2.8
				C-3.23,108.84-4.7,107.24-6.61,106.5z"/>
		</g>
		<g class="st0">
			<g class="st2">
				<rect x="-156.69" y="123.94" class="st6" width="1.58" height="13.76"/>
				<path class="st7" d="M-162.14,123.08c-0.07-0.21-0.11-0.43-0.11-0.66c0-0.75,0.43-1.4,1.05-1.72c-0.46-0.54-0.75-1.23-0.75-2
					c0-1.69,1.37-3.05,3.05-3.05c0.01,0,0.02,0,0.03,0c0-0.03,0-0.06,0-0.09c0-1.19,0.96-2.15,2.15-2.15c1.16,0,2.1,0.92,2.15,2.06
					c0.33-0.12,0.69-0.19,1.06-0.19c1.69,0,3.05,1.37,3.05,3.05c0,0.28-0.04,0.56-0.11,0.82c0.83,0.22,1.44,0.97,1.44,1.87
					c0,0.24-0.04,0.47-0.12,0.68c1.02,0.61,1.7,1.73,1.7,3.01c0,0.03,0.05,1.73-1.73,1.81c-0.11,1.48-1.35,2.65-2.85,2.65h0
					c-0.42,1.08-1.47,1.85-2.7,1.85h-1.49c-1.23,0-2.28-0.77-2.7-1.85c-1.5-0.02-2.72-1.19-2.82-2.67
					C-163.13,126.2-162.69,123.37-162.14,123.08z"/>
			</g>
			<path class="st9" d="M-149.7,124.06L-149.7,124.06c0-1.51-1.17-2.74-2.65-2.86c-0.08-1.78-1.79-1.73-1.81-1.73
				c-1.28,0-2.39,0.68-3.01,1.7c-0.21-0.08-0.44-0.12-0.68-0.12c-0.9,0-1.65,0.61-1.87,1.44c-0.26-0.07-0.54-0.11-0.82-0.11
				c-0.61,0-1.18,0.18-1.66,0.49c-0.03-0.14-0.06-0.29-0.06-0.44c0-0.75,0.43-1.4,1.05-1.72c-0.46-0.54-0.75-1.23-0.75-2
				c0-1.69,1.37-3.05,3.05-3.05c0.01,0,0.02,0,0.03,0c0-0.03,0-0.06,0-0.09c0-1.19,0.96-2.15,2.15-2.15c1.16,0,2.1,0.92,2.15,2.06
				c0.33-0.12,0.69-0.19,1.06-0.19c1.69,0,3.05,1.37,3.05,3.05c0,0.28-0.04,0.56-0.11,0.82c0.83,0.22,1.44,0.97,1.44,1.87
				c0,0.24-0.04,0.47-0.12,0.68c1.02,0.61,1.7,1.73,1.7,3.01c0,0.02,0.02,0.7-0.41,1.22C-148.22,125.08-148.86,124.38-149.7,124.06z
				"/>
		</g>
		<g class="st0">
			<g class="st2">
				<rect x="-314.74" y="117.33" class="st6" width="2.33" height="20.36"/>
				<path class="st7" d="M-322.8,116.06c-0.11-0.3-0.17-0.63-0.17-0.97c0-1.11,0.63-2.07,1.55-2.55c-0.69-0.79-1.11-1.83-1.11-2.96
					c0-2.5,2.02-4.52,4.52-4.52c0.02,0,0.03,0,0.05,0c0-0.04,0-0.09,0-0.14c0-1.76,1.42-3.18,3.18-3.18c1.71,0,3.11,1.36,3.18,3.06
					c0.49-0.18,1.02-0.28,1.57-0.28c2.5,0,4.52,2.02,4.52,4.52c0,0.42-0.06,0.83-0.17,1.21c1.23,0.32,2.14,1.44,2.14,2.77
					c0,0.36-0.07,0.7-0.18,1.01c1.51,0.91,2.51,2.56,2.51,4.45c0,0.04,0.07,2.56-2.57,2.69c-0.17,2.19-1.99,3.92-4.22,3.92h0
					c-0.62,1.6-2.18,2.74-4,2.74h-2.21c-1.82,0-3.38-1.14-4-2.74c-2.22-0.03-4.03-1.76-4.18-3.95
					C-324.27,120.68-323.61,116.49-322.8,116.06z"/>
			</g>
			<path class="st9" d="M-304.38,117.51L-304.38,117.51c0-2.24-1.73-4.06-3.92-4.23c-0.12-2.64-2.64-2.57-2.69-2.57
				c-1.89,0-3.54,1.01-4.45,2.51c-0.32-0.12-0.66-0.18-1.01-0.18c-1.33,0-2.45,0.91-2.77,2.14c-0.39-0.11-0.79-0.17-1.21-0.17
				c-0.91,0-1.75,0.27-2.45,0.73c-0.05-0.21-0.08-0.42-0.08-0.65c0-1.11,0.63-2.07,1.55-2.55c-0.69-0.79-1.11-1.83-1.11-2.96
				c0-2.5,2.02-4.52,4.52-4.52c0.02,0,0.03,0,0.05,0c0-0.04,0-0.09,0-0.14c0-1.76,1.42-3.18,3.18-3.18c1.71,0,3.11,1.36,3.18,3.06
				c0.49-0.18,1.02-0.28,1.57-0.28c2.5,0,4.52,2.02,4.52,4.52c0,0.42-0.06,0.83-0.17,1.21c1.23,0.32,2.14,1.44,2.14,2.77
				c0,0.36-0.07,0.7-0.18,1.01c1.51,0.91,2.51,2.56,2.51,4.45c0,0.03,0.03,1.04-0.61,1.81
				C-302.19,119.02-303.15,117.99-304.38,117.51z"/>
		</g>
		<g class="st0">
			<g class="st2">
				<rect x="-247.66" y="113.75" class="st6" width="2.7" height="23.55"/>
				<path class="st7" d="M-256.98,112.28c-0.13-0.35-0.2-0.73-0.2-1.12c0-1.28,0.73-2.39,1.8-2.95c-0.8-0.92-1.28-2.11-1.28-3.42
					c0-2.89,2.34-5.23,5.23-5.23c0.02,0,0.04,0,0.06,0c0-0.05,0-0.1,0-0.16c0-2.03,1.65-3.68,3.68-3.68c1.98,0,3.6,1.57,3.67,3.53
					c0.57-0.21,1.18-0.32,1.82-0.32c2.89,0,5.23,2.34,5.23,5.23c0,0.49-0.07,0.96-0.19,1.4c1.42,0.37,2.47,1.67,2.47,3.21
					c0,0.41-0.08,0.81-0.21,1.17c1.74,1.05,2.91,2.96,2.91,5.15c0,0.05,0.08,2.96-2.97,3.11c-0.19,2.53-2.3,4.53-4.89,4.53h-0.01
					c-0.72,1.85-2.52,3.17-4.62,3.17h-2.56c-2.11,0-3.91-1.32-4.63-3.17c-2.57-0.03-4.66-2.03-4.83-4.57
					C-258.69,117.62-257.92,112.78-256.98,112.28z"/>
			</g>
			<path class="st9" d="M-235.68,113.95L-235.68,113.95c0-2.59-2-4.7-4.53-4.89c-0.14-3.05-3.06-2.97-3.11-2.97
				c-2.18,0-4.09,1.16-5.15,2.91c-0.36-0.14-0.76-0.21-1.17-0.21c-1.54,0-2.83,1.05-3.21,2.47c-0.45-0.12-0.92-0.19-1.4-0.19
				c-1.05,0-2.02,0.31-2.84,0.84c-0.06-0.24-0.1-0.49-0.1-0.75c0-1.28,0.73-2.39,1.8-2.95c-0.8-0.92-1.28-2.11-1.28-3.42
				c0-2.89,2.34-5.23,5.23-5.23c0.02,0,0.04,0,0.06,0c0-0.05,0-0.1,0-0.16c0-2.03,1.65-3.68,3.68-3.68c1.98,0,3.6,1.57,3.67,3.53
				c0.57-0.21,1.18-0.32,1.82-0.32c2.89,0,5.23,2.34,5.23,5.23c0,0.49-0.07,0.96-0.19,1.4c1.42,0.37,2.47,1.67,2.47,3.21
				c0,0.41-0.08,0.81-0.21,1.17c1.74,1.05,2.91,2.96,2.91,5.15c0,0.03,0.03,1.2-0.71,2.1C-233.15,115.7-234.25,114.51-235.68,113.95
				z"/>
		</g>
		<g class="st0">
			<g class="st2">
				<rect x="-170.02" y="114.4" class="st6" width="2.67" height="23.29"/>
				<path class="st7" d="M-158.13,112.95c0.13-0.35,0.19-0.72,0.19-1.11c0-1.27-0.72-2.37-1.78-2.91c0.79-0.91,1.26-2.09,1.26-3.39
					c0-2.86-2.32-5.17-5.17-5.17c-0.02,0-0.04,0-0.06,0c0-0.05,0-0.1,0-0.15c0-2.01-1.63-3.64-3.64-3.64c-1.96,0-3.56,1.55-3.63,3.5
					c-0.56-0.21-1.16-0.32-1.8-0.32c-2.86,0-5.17,2.32-5.17,5.17c0,0.48,0.07,0.95,0.19,1.39c-1.41,0.37-2.44,1.65-2.44,3.17
					c0,0.41,0.08,0.8,0.21,1.16c-1.72,1.04-2.87,2.93-2.87,5.09c0,0.05-0.08,2.93,2.93,3.07c0.19,2.5,2.28,4.48,4.83,4.48h0.01
					c0.71,1.83,2.49,3.13,4.57,3.13h2.53c2.09,0,3.86-1.3,4.57-3.14c2.54-0.03,4.61-2.01,4.78-4.52
					C-156.44,118.23-157.2,113.45-158.13,112.95z"/>
			</g>
			<path class="st10" d="M-179.19,114.6L-179.19,114.6c0-2.56,1.97-4.65,4.48-4.84c0.14-3.02,3.02-2.93,3.07-2.93
				c2.16,0,4.05,1.15,5.09,2.87c0.36-0.14,0.75-0.21,1.16-0.21c1.52,0,2.8,1.04,3.17,2.44c0.44-0.12,0.91-0.19,1.39-0.19
				c1.04,0,2,0.31,2.81,0.83c0.06-0.24,0.09-0.48,0.09-0.74c0-1.27-0.72-2.37-1.78-2.91c0.79-0.91,1.26-2.09,1.26-3.39
				c0-2.86-2.32-5.17-5.17-5.17c-0.02,0-0.04,0-0.06,0c0-0.05,0-0.1,0-0.15c0-2.01-1.63-3.64-3.64-3.64c-1.96,0-3.56,1.55-3.63,3.5
				c-0.56-0.21-1.16-0.32-1.8-0.32c-2.86,0-5.17,2.32-5.17,5.17c0,0.48,0.07,0.95,0.19,1.39c-1.41,0.37-2.44,1.65-2.44,3.17
				c0,0.41,0.08,0.8,0.21,1.16c-1.72,1.04-2.87,2.93-2.87,5.09c0,0.03-0.03,1.19,0.7,2.07C-181.69,116.34-180.6,115.15-179.19,114.6
				z"/>
		</g>
		<g class="st0">
			<g class="st2">
				<rect x="-223.78" y="107.45" class="st6" width="3.47" height="30.24"/>
				<path class="st7" d="M-208.35,105.57c0.16-0.45,0.25-0.94,0.25-1.44c0-1.65-0.94-3.08-2.31-3.78c1.02-1.18,1.64-2.71,1.64-4.4
					c0-3.71-3.01-6.72-6.72-6.72c-0.02,0-0.05,0-0.07,0c0-0.07,0.01-0.13,0.01-0.2c0-2.61-2.11-4.72-4.72-4.72
					c-2.55,0-4.62,2.02-4.72,4.54c-0.73-0.27-1.51-0.42-2.33-0.42c-3.71,0-6.72,3.01-6.72,6.72c0,0.62,0.09,1.23,0.25,1.8
					c-1.83,0.48-3.17,2.14-3.17,4.12c0,0.53,0.1,1.04,0.27,1.5c-2.24,1.35-3.73,3.8-3.73,6.61c0,0.06-0.11,3.81,3.81,3.99
					c0.25,3.25,2.96,5.82,6.27,5.82h0.01c0.93,2.38,3.23,4.07,5.94,4.07h3.29c2.71,0,5.02-1.69,5.94-4.07
					c3.3-0.04,5.98-2.61,6.2-5.86C-206.16,112.43-207.14,106.21-208.35,105.57z"/>
			</g>
			<path class="st10" d="M-235.7,107.71L-235.7,107.71c0-3.32,2.56-6.03,5.82-6.28c0.18-3.92,3.92-3.81,3.99-3.81
				c2.8,0,5.26,1.5,6.61,3.73c0.47-0.18,0.97-0.27,1.5-0.27c1.98,0,3.64,1.35,4.12,3.17c0.57-0.16,1.18-0.25,1.8-0.25
				c1.34,0,2.59,0.4,3.64,1.08c0.07-0.31,0.12-0.63,0.12-0.96c0-1.65-0.94-3.08-2.31-3.78c1.02-1.18,1.64-2.71,1.64-4.4
				c0-3.71-3.01-6.72-6.72-6.72c-0.02,0-0.05,0-0.07,0c0-0.07,0.01-0.13,0.01-0.2c0-2.61-2.11-4.72-4.72-4.72
				c-2.55,0-4.62,2.02-4.72,4.54c-0.73-0.27-1.51-0.42-2.33-0.42c-3.71,0-6.72,3.01-6.72,6.72c0,0.62,0.09,1.23,0.25,1.8
				c-1.83,0.48-3.17,2.14-3.17,4.12c0,0.53,0.1,1.04,0.27,1.5c-2.24,1.35-3.73,3.8-3.73,6.61c0,0.04-0.04,1.54,0.91,2.69
				C-238.94,109.96-237.53,108.43-235.7,107.71z"/>
		</g>
		<g class="st0">
			<g class="st2">
				<rect x="-79.31" y="107.45" class="st6" width="3.47" height="30.24"/>
				<path class="st7" d="M-63.88,105.57c0.16-0.45,0.25-0.94,0.25-1.44c0-1.65-0.94-3.08-2.31-3.78c1.02-1.18,1.64-2.71,1.64-4.4
					c0-3.71-3.01-6.72-6.72-6.72c-0.02,0-0.05,0-0.07,0c0-0.07,0.01-0.13,0.01-0.2c0-2.61-2.11-4.72-4.72-4.72
					c-2.55,0-4.62,2.02-4.72,4.54c-0.73-0.27-1.51-0.42-2.33-0.42c-3.71,0-6.72,3.01-6.72,6.72c0,0.62,0.09,1.23,0.25,1.8
					c-1.83,0.48-3.17,2.14-3.17,4.12c0,0.53,0.1,1.04,0.27,1.5c-2.24,1.35-3.73,3.8-3.73,6.61c0,0.06-0.11,3.81,3.81,3.99
					c0.25,3.25,2.96,5.82,6.27,5.82h0.01c0.93,2.38,3.23,4.07,5.94,4.07h3.29c2.71,0,5.02-1.69,5.94-4.07
					c3.3-0.04,5.98-2.61,6.2-5.86C-61.69,112.43-62.67,106.21-63.88,105.57z"/>
			</g>
			<path class="st10" d="M-91.23,107.71L-91.23,107.71c0-3.32,2.56-6.03,5.82-6.28c0.18-3.92,3.92-3.81,3.99-3.81
				c2.8,0,5.26,1.5,6.61,3.73c0.47-0.18,0.97-0.27,1.5-0.27c1.98,0,3.64,1.35,4.12,3.17c0.57-0.16,1.18-0.25,1.8-0.25
				c1.34,0,2.59,0.4,3.64,1.08c0.07-0.31,0.12-0.63,0.12-0.96c0-1.65-0.94-3.08-2.31-3.78c1.02-1.18,1.64-2.71,1.64-4.4
				c0-3.71-3.01-6.72-6.72-6.72c-0.02,0-0.05,0-0.07,0c0-0.07,0.01-0.13,0.01-0.2c0-2.61-2.11-4.72-4.72-4.72
				c-2.55,0-4.62,2.02-4.72,4.54c-0.73-0.27-1.51-0.42-2.33-0.42c-3.71,0-6.72,3.01-6.72,6.72c0,0.62,0.09,1.23,0.25,1.8
				c-1.83,0.48-3.17,2.14-3.17,4.12c0,0.53,0.1,1.04,0.27,1.5c-2.24,1.35-3.73,3.8-3.73,6.61c0,0.04-0.04,1.54,0.91,2.69
				C-94.47,109.96-93.06,108.43-91.23,107.71z"/>
		</g>
		<g class="st0">
			<g class="st2">
				<rect x="-45.31" y="113.83" class="st6" width="2.74" height="23.86"/>
				<path class="st7" d="M-33.13,112.35c0.13-0.36,0.2-0.74,0.2-1.14c0-1.3-0.74-2.43-1.82-2.98c0.81-0.93,1.3-2.14,1.3-3.47
					c0-2.93-2.37-5.3-5.3-5.3c-0.02,0-0.04,0-0.06,0c0-0.05,0-0.11,0-0.16c0-2.06-1.67-3.72-3.72-3.72c-2.01,0-3.65,1.59-3.72,3.58
					c-0.57-0.21-1.19-0.33-1.84-0.33c-2.93,0-5.3,2.37-5.3,5.3c0,0.49,0.07,0.97,0.19,1.42c-1.44,0.38-2.5,1.69-2.5,3.25
					c0,0.42,0.08,0.82,0.22,1.19c-1.76,1.07-2.94,3-2.94,5.21c0,0.05-0.08,3,3.01,3.15c0.19,2.57,2.33,4.59,4.95,4.59h0.01
					c0.73,1.88,2.55,3.21,4.69,3.21h2.59c2.14,0,3.96-1.33,4.69-3.21c2.6-0.03,4.72-2.06,4.89-4.63
					C-31.4,117.76-32.17,112.85-33.13,112.35z"/>
			</g>
			<path class="st10" d="M-54.71,114.04L-54.71,114.04c0-2.62,2.02-4.76,4.59-4.96c0.14-3.09,3.1-3.01,3.15-3.01
				c2.21,0,4.15,1.18,5.21,2.94c0.37-0.14,0.77-0.22,1.19-0.22c1.56,0,2.87,1.06,3.25,2.5c0.45-0.13,0.93-0.19,1.42-0.19
				c1.06,0,2.05,0.32,2.88,0.85c0.06-0.24,0.1-0.5,0.1-0.76c0-1.3-0.74-2.43-1.82-2.98c0.81-0.93,1.3-2.14,1.3-3.47
				c0-2.93-2.37-5.3-5.3-5.3c-0.02,0-0.04,0-0.06,0c0-0.05,0-0.11,0-0.16c0-2.06-1.67-3.72-3.72-3.72c-2.01,0-3.65,1.59-3.72,3.58
				c-0.57-0.21-1.19-0.33-1.84-0.33c-2.93,0-5.3,2.37-5.3,5.3c0,0.49,0.07,0.97,0.19,1.42c-1.44,0.38-2.5,1.69-2.5,3.25
				c0,0.42,0.08,0.82,0.22,1.19c-1.76,1.07-2.94,3-2.94,5.21c0,0.03-0.03,1.22,0.72,2.12C-57.27,115.82-56.15,114.6-54.71,114.04z"
				/>
		</g>
		<path class="st11" d="M46.55,137.92c0.24-3.59,3.23-6.44,6.89-6.44c2.14,0,4.05,0.97,5.31,2.5c1.08-1.03,2.54-1.66,4.15-1.66
			c1.55,0,2.96,0.59,4.03,1.55c0.94-2.1,3.04-3.57,5.49-3.57c3.32,0,6.01,2.69,6.01,6.01c0,0.56-0.08,1.1-0.22,1.61L46.55,137.92z"
			/>
		<path class="st11" d="M-93.63,138.65c0-0.05,0-0.11,0-0.16c0-1.63-0.87-3.05-2.17-3.83c0.1-0.27,0.16-0.57,0.16-0.87
			c0-1.15-0.78-2.11-1.84-2.39c0.09-0.33,0.14-0.68,0.14-1.05c0-2.15-1.75-3.9-3.9-3.9c-0.48,0-0.93,0.09-1.35,0.24
			c-0.06-1.46-1.26-2.63-2.74-2.63c-1.51,0-2.74,1.23-2.74,2.74c0,0.04,0,0.08,0,0.12c-0.01,0-0.03,0-0.04,0
			c-2.15,0-3.9,1.74-3.9,3.9c0,0.98,0.36,1.87,0.95,2.55c-0.79,0.41-1.34,1.24-1.34,2.2c0,0.29,0.05,0.58,0.15,0.84
			c-0.89,0.47-1.58,1.28-1.89,2.25H-93.63z"/>
		<path class="st11" d="M-167.44,138.65c0-0.05,0-0.11,0-0.16c0-1.63-0.87-3.05-2.17-3.83c0.1-0.27,0.16-0.57,0.16-0.87
			c0-1.15-0.78-2.11-1.84-2.39c0.09-0.33,0.14-0.68,0.14-1.05c0-2.15-1.74-3.9-3.9-3.9c-0.48,0-0.93,0.09-1.35,0.24
			c-0.06-1.46-1.26-2.63-2.74-2.63c-1.51,0-2.74,1.23-2.74,2.74c0,0.04,0,0.08,0,0.12c-0.01,0-0.03,0-0.04,0
			c-2.15,0-3.9,1.74-3.9,3.9c0,0.98,0.36,1.87,0.95,2.55c-0.79,0.41-1.34,1.24-1.34,2.2c0,0.29,0.05,0.58,0.15,0.84
			c-0.89,0.47-1.58,1.28-1.89,2.25H-167.44z"/>
		<path class="st11" d="M-80.21,138.65c0-0.04,0-0.08,0-0.13c0-1.29-0.69-2.43-1.72-3.05c0.08-0.22,0.13-0.45,0.13-0.69
			c0-0.91-0.62-1.68-1.46-1.9c0.07-0.26,0.11-0.54,0.11-0.83c0-1.71-1.39-3.1-3.1-3.1c-0.38,0-0.74,0.07-1.08,0.19
			c-0.04-1.16-1-2.09-2.18-2.09c-1.2,0-2.18,0.98-2.18,2.18c0,0.03,0,0.06,0,0.09c-0.01,0-0.02,0-0.03,0c-1.71,0-3.1,1.39-3.1,3.1
			c0,0.78,0.29,1.48,0.76,2.03c-0.63,0.33-1.06,0.99-1.06,1.75c0,0.23,0.04,0.46,0.12,0.67c-0.71,0.38-1.25,1.02-1.5,1.79H-80.21z"
			/>
		<path class="st11" d="M6.53,137.63c0,0.25-0.03,0.5-0.1,0.74H-9.66c-0.21-0.43-0.34-0.91-0.34-1.42c0-0.22,0.02-0.44,0.07-0.66
			c-0.63-0.51-1.04-1.29-1.04-2.16c0-1.53,1.24-2.77,2.77-2.77c0.03,0,0.07,0,0.1,0c0.31-0.79,0.88-1.45,1.61-1.87
			c-0.01-0.06-0.01-0.12-0.01-0.18c0-1.07,0.87-1.94,1.94-1.94c0.13,0,0.26,0.01,0.39,0.04c0.49-1.44,1.85-2.47,3.45-2.47
			c1.73,0,3.17,1.2,3.55,2.81c0.25-0.12,0.53-0.19,0.82-0.19c1.05,0,1.89,0.85,1.89,1.89c0,0.37-0.11,0.72-0.29,1.01
			c1.07,0.46,1.85,1.46,2.01,2.65c0.66,0.39,1.1,1.11,1.1,1.93c0,1.11-0.81,2.03-1.87,2.21C6.52,137.38,6.53,137.5,6.53,137.63z"/>
		<path class="st11" d="M62.79,132.36c0-2.17,1.76-3.93,3.93-3.93c0.05,0,0.09,0,0.14,0c0.43-1.13,1.25-2.06,2.29-2.65
			c-0.01-0.08-0.01-0.17-0.01-0.25c0-1.52,1.23-2.76,2.76-2.76c0.19,0,0.37,0.02,0.55,0.06c0.69-2.04,2.62-3.5,4.89-3.5
			c0.38,0,0.74,0.05,1.1,0.13v18.91H64.64c-0.3-0.6-0.48-1.29-0.48-2.01c0-0.32,0.03-0.63,0.1-0.93
			C63.36,134.71,62.79,133.6,62.79,132.36z"/>
		<path class="st11" d="M-249.16,137.63c0,0.25-0.04,0.5-0.1,0.74h-16.09c-0.21-0.43-0.33-0.91-0.33-1.42
			c0-0.22,0.02-0.44,0.07-0.66c-0.63-0.51-1.04-1.29-1.04-2.16c0-1.53,1.24-2.77,2.77-2.77c0.03,0,0.07,0,0.1,0
			c0.31-0.79,0.88-1.45,1.61-1.87c-0.01-0.06-0.01-0.12-0.01-0.18c0-1.07,0.87-1.94,1.94-1.94c0.13,0,0.26,0.01,0.39,0.04
			c0.49-1.44,1.85-2.47,3.45-2.47c1.73,0,3.17,1.2,3.55,2.81c0.25-0.12,0.53-0.19,0.82-0.19c1.05,0,1.89,0.85,1.89,1.89
			c0,0.37-0.11,0.72-0.29,1.01c1.07,0.46,1.85,1.46,2.01,2.65c0.66,0.39,1.1,1.11,1.1,1.93c0,1.11-0.81,2.03-1.87,2.21
			C-249.17,137.38-249.16,137.5-249.16,137.63z"/>
		<path class="st11" d="M-338.07,118.33c1.07-1.98,3.16-3.33,5.57-3.33c3.01,0,5.53,2.09,6.18,4.9c0.43-0.21,0.92-0.33,1.44-0.33
			c1.82,0,3.3,1.48,3.3,3.3c0,0.65-0.19,1.25-0.51,1.76c1.86,0.81,3.22,2.54,3.5,4.62c1.15,0.68,1.92,1.93,1.92,3.35
			c0,1.93-1.41,3.54-3.26,3.84c0.03,0.21,0.04,0.43,0.04,0.64c0,0.44-0.06,0.87-0.17,1.28h-18.01V118.33z"/>
		<path class="st11" d="M-304.69,137.63c0,0.25-0.04,0.5-0.1,0.74h-16.09c-0.21-0.43-0.34-0.91-0.34-1.42
			c0-0.22,0.02-0.44,0.07-0.66c-0.63-0.51-1.04-1.29-1.04-2.16c0-1.53,1.24-2.77,2.77-2.77c0.03,0,0.07,0,0.1,0
			c0.31-0.79,0.88-1.45,1.61-1.87c-0.01-0.06-0.01-0.12-0.01-0.18c0-1.07,0.87-1.94,1.94-1.94c0.13,0,0.26,0.01,0.39,0.04
			c0.49-1.44,1.85-2.47,3.45-2.47c1.73,0,3.17,1.2,3.55,2.81c0.25-0.12,0.53-0.19,0.82-0.19c1.05,0,1.89,0.85,1.89,1.89
			c0,0.37-0.11,0.72-0.29,1.01c1.07,0.46,1.85,1.46,2.01,2.65c0.66,0.39,1.1,1.11,1.1,1.93c0,1.11-0.81,2.03-1.87,2.21
			C-304.7,137.38-304.69,137.5-304.69,137.63z"/>
		<path class="st11" d="M-265.64,136.88c0,0.33-0.05,0.64-0.13,0.94h-20.62c-0.27-0.55-0.43-1.16-0.43-1.81
			c0-0.29,0.03-0.57,0.09-0.84c-0.81-0.65-1.33-1.65-1.33-2.77c0-1.96,1.59-3.55,3.55-3.55c0.04,0,0.08,0,0.13,0
			c0.39-1.02,1.13-1.86,2.07-2.39c-0.01-0.08-0.01-0.15-0.01-0.23c0-1.38,1.12-2.49,2.49-2.49c0.17,0,0.34,0.02,0.5,0.05
			c0.63-1.84,2.37-3.16,4.42-3.16c2.21,0,4.07,1.54,4.55,3.61c0.32-0.16,0.68-0.24,1.06-0.24c1.34,0,2.43,1.09,2.43,2.43
			c0,0.48-0.14,0.92-0.38,1.3c1.37,0.6,2.37,1.87,2.58,3.4c0.85,0.5,1.41,1.42,1.41,2.47c0,1.42-1.04,2.6-2.4,2.83
			C-265.65,136.56-265.64,136.72-265.64,136.88z"/>
		<path class="st12" d="M-30.04,48.79c0.64,0,1.26,0.06,1.87,0.17c1.23-5.71,6.31-9.99,12.38-9.99c0.14,0,0.29,0.01,0.43,0.01
			c1.94-3.05,5.35-5.08,9.23-5.08c3.25,0,6.17,1.42,8.17,3.67c1.29-0.33,2.64-0.51,4.02-0.51c7.46,0,13.74,5.06,15.59,11.94
			c0.69-0.14,1.41-0.22,2.14-0.22c5.77,0,10.45,4.68,10.45,10.45S29.58,69.69,23.8,69.69c-3.17,0-6.01-1.41-7.92-3.64
			c-2.72,2.08-6.12,3.32-9.81,3.32c-0.84,0-1.67-0.06-2.47-0.19c-2.33,2.09-5.4,3.36-8.77,3.36c-5.56,0-10.32-3.46-12.23-8.34
			c-1.06-0.14-2.08-0.4-3.05-0.79c-1.61,3.69-5.29,6.28-9.58,6.28c-5.77,0-10.45-4.68-10.45-10.45S-35.81,48.79-30.04,48.79z"/>
		<path class="st13" d="M33.48,23.84c0.31,0,0.62,0.03,0.92,0.08c0.61-2.81,3.1-4.91,6.09-4.91c0.07,0,0.14,0,0.21,0.01
			c0.95-1.5,2.63-2.5,4.54-2.5c1.6,0,3.03,0.7,4.02,1.81c0.63-0.16,1.3-0.25,1.98-0.25c3.67,0,6.76,2.49,7.67,5.87
			c0.34-0.07,0.69-0.11,1.05-0.11c2.84,0,5.14,2.3,5.14,5.14s-2.3,5.14-5.14,5.14c-1.56,0-2.96-0.7-3.9-1.79
			c-1.34,1.03-3.01,1.64-4.83,1.64c-0.41,0-0.82-0.03-1.22-0.09c-1.14,1.03-2.66,1.65-4.31,1.65c-2.74,0-5.08-1.7-6.02-4.1
			c-0.52-0.07-1.02-0.2-1.5-0.39c-0.79,1.82-2.6,3.09-4.71,3.09c-2.84,0-5.14-2.3-5.14-5.14S30.64,23.84,33.48,23.84z"/>
		<path class="st13" d="M-69.23,19.35c0.48,0,0.94,0.05,1.39,0.13c0.92-4.26,4.7-7.45,9.23-7.45c0.11,0,0.22,0,0.32,0.01
			c1.45-2.28,3.99-3.79,6.88-3.79c2.42,0,4.6,1.06,6.09,2.74c0.96-0.25,1.97-0.38,3-0.38c5.57,0,10.25,3.78,11.63,8.9
			c0.52-0.11,1.05-0.16,1.6-0.16c4.31,0,7.79,3.49,7.79,7.79s-3.49,7.79-7.79,7.79c-2.36,0-4.48-1.05-5.91-2.72
			c-2.03,1.55-4.56,2.48-7.32,2.48c-0.63,0-1.24-0.05-1.84-0.14c-1.74,1.56-4.03,2.5-6.54,2.5c-4.15,0-7.69-2.58-9.12-6.22
			c-0.79-0.1-1.55-0.3-2.27-0.59c-1.2,2.75-3.95,4.68-7.15,4.68c-4.31,0-7.79-3.49-7.79-7.79S-73.53,19.35-69.23,19.35z"/>
		<path class="st14" d="M16.08,22.2c0.64,0,1.26,0.06,1.87,0.17c1.23-5.71,6.31-9.99,12.38-9.99c0.14,0,0.29,0.01,0.43,0.01
			c1.94-3.05,5.35-5.08,9.23-5.08c3.25,0,6.17,1.42,8.17,3.67c1.29-0.33,2.64-0.51,4.02-0.51c7.46,0,13.74,5.06,15.59,11.94
			c0.69-0.14,1.41-0.22,2.14-0.22c5.77,0,10.45,4.68,10.45,10.45S75.7,43.11,69.93,43.11c-3.17,0-6.01-1.41-7.92-3.64
			c-2.72,2.08-6.12,3.32-9.81,3.32c-0.84,0-1.67-0.06-2.47-0.19c-2.33,2.09-5.4,3.36-8.77,3.36c-5.56,0-10.32-3.46-12.24-8.34
			c-1.06-0.14-2.08-0.4-3.05-0.79c-1.61,3.69-5.29,6.28-9.58,6.28c-5.77,0-10.45-4.68-10.45-10.45S10.31,22.2,16.08,22.2z"/>
		<path class="st12" d="M-282.04,20.47c0.44,0,0.87,0.04,1.29,0.12c0.85-3.94,4.35-6.89,8.54-6.89c0.1,0,0.2,0,0.3,0.01
			c1.34-2.1,3.68-3.5,6.36-3.5c2.24,0,4.25,0.98,5.63,2.53c0.89-0.23,1.82-0.35,2.77-0.35c5.14,0,9.47,3.49,10.75,8.23
			c0.48-0.1,0.97-0.15,1.48-0.15c3.98,0,7.2,3.23,7.2,7.2s-3.23,7.2-7.2,7.2c-2.19,0-4.14-0.97-5.46-2.51
			c-1.88,1.44-4.22,2.29-6.76,2.29c-0.58,0-1.15-0.04-1.71-0.13c-1.6,1.44-3.72,2.31-6.05,2.31c-3.84,0-7.11-2.38-8.43-5.75
			c-0.73-0.09-1.44-0.28-2.1-0.54c-1.11,2.55-3.65,4.33-6.61,4.33c-3.98,0-7.2-3.23-7.2-7.2S-286.01,20.47-282.04,20.47z"/>
		<g class="st0">
			<rect x="-338.07" y="137.69" class="st15" width="416.5" height="7.71"/>
			<rect x="-338.07" y="164.23" class="st15" width="416.5" height="7.71"/>
			<g class="st2">
				<rect x="-338.07" y="145.25" class="st16" width="416.5" height="19.9"/>
				<rect x="-338.07" y="145.25" class="st17" width="416.5" height="1.24"/>
				<rect x="-338.07" y="163.97" class="st17" width="416.5" height="1.24"/>
				<path class="st17" d="M65.03,153.34h13.41v1.24H65.03V153.34z M43.96,154.57h13.41v-1.24H43.96V154.57z M22.89,154.57h13.41
					v-1.24H22.89V154.57z M1.82,154.57h13.41v-1.24H1.82V154.57z M-19.25,154.57h13.41v-1.24h-13.41V154.57z M-40.32,154.57h13.41
					v-1.24h-13.41V154.57z M-61.39,154.57h13.41v-1.24h-13.41V154.57z M-82.46,154.57h13.41v-1.24h-13.41V154.57z M-103.53,154.57
					h13.41v-1.24h-13.41V154.57z M-124.6,154.57h13.41v-1.24h-13.41V154.57z M-145.67,154.57h13.41v-1.24h-13.41V154.57z
					 M-166.74,154.57h13.41v-1.24h-13.41V154.57z M-187.81,154.57h13.41v-1.24h-13.41V154.57z M-208.87,154.57h13.41v-1.24h-13.41
					V154.57z M-229.94,154.57h13.41v-1.24h-13.41V154.57z M-251.01,154.57h13.41v-1.24h-13.41V154.57z M-272.08,154.57h13.41v-1.24
					h-13.41V154.57z M-293.15,154.57h13.41v-1.24h-13.41V154.57z M-314.22,154.57h13.41v-1.24h-13.41V154.57z M-335.29,154.57h13.41
					v-1.24h-13.41V154.57z"/>
			</g>
		</g>
		<path class="st13" d="M-114.88,36.46c0.28,0,0.55,0.03,0.82,0.09c0.99-2.69,3.57-4.62,6.61-4.62c1.01,0,1.96,0.21,2.83,0.59
			c0.01-0.01,0.02-0.01,0.02-0.02c-0.05-0.27-0.08-0.55-0.08-0.83c0-2.5,2.03-4.53,4.53-4.53c1.91,0,3.54,1.18,4.21,2.86
			c0.35-0.05,0.71-0.09,1.08-0.09c3.31,0,6.11,2.21,7,5.23c0.71-0.44,1.55-0.7,2.44-0.7c2.57,0,4.66,2.09,4.66,4.66
			c0,2.57-2.09,4.66-4.66,4.66c-0.2,0-0.4-0.02-0.59-0.04c-0.66,1.22-1.95,2.06-3.44,2.06c-0.28,0-0.56-0.03-0.82-0.09
			c-0.78,0.97-1.99,1.6-3.33,1.6c-0.09,0-0.18-0.01-0.27-0.01c-1.25,1.25-2.98,2.03-4.9,2.03c-1.29,0-2.5-0.36-3.53-0.98
			c-0.59,0.45-1.33,0.72-2.13,0.72c-1.78,0-3.25-1.33-3.49-3.04c-1.92-0.13-3.63-1.02-4.82-2.38c-0.61,0.4-1.35,0.64-2.14,0.64
			c-2.16,0-3.9-1.75-3.9-3.9S-117.03,36.46-114.88,36.46z"/>
		<path class="st12" d="M-174.11,14.87c0.28,0,0.55,0.03,0.82,0.09c0.99-2.69,3.57-4.62,6.61-4.62c1.01,0,1.96,0.21,2.83,0.59
			c0.01-0.01,0.02-0.01,0.02-0.02c-0.05-0.27-0.08-0.55-0.08-0.83c0-2.5,2.03-4.53,4.53-4.53c1.91,0,3.54,1.18,4.21,2.86
			c0.35-0.05,0.71-0.09,1.08-0.09c3.31,0,6.1,2.21,7,5.23c0.71-0.44,1.55-0.7,2.44-0.7c2.57,0,4.66,2.09,4.66,4.66
			c0,2.57-2.09,4.66-4.66,4.66c-0.2,0-0.4-0.02-0.59-0.04c-0.66,1.22-1.95,2.06-3.44,2.06c-0.28,0-0.56-0.03-0.82-0.09
			c-0.78,0.97-1.99,1.6-3.33,1.6c-0.09,0-0.18-0.01-0.27-0.01c-1.25,1.25-2.98,2.03-4.9,2.03c-1.29,0-2.5-0.36-3.53-0.98
			c-0.59,0.45-1.33,0.72-2.13,0.72c-1.78,0-3.25-1.33-3.49-3.04c-1.92-0.13-3.63-1.02-4.82-2.38c-0.61,0.4-1.35,0.64-2.14,0.64
			c-2.16,0-3.9-1.75-3.9-3.9S-176.27,14.87-174.11,14.87z"/>
		<path class="st13" d="M-308.76,50.93c0.42,0,0.82,0.05,1.21,0.13c1.47-4,5.3-6.85,9.8-6.85c1.49,0,2.91,0.32,4.19,0.88
			c0.01-0.01,0.02-0.02,0.03-0.03c-0.07-0.4-0.12-0.81-0.12-1.23c0-3.71,3.01-6.72,6.72-6.72c2.83,0,5.25,1.76,6.24,4.24
			c0.52-0.08,1.05-0.13,1.6-0.13c4.91,0,9.05,3.27,10.38,7.76c1.05-0.65,2.29-1.03,3.62-1.03c3.82,0,6.91,3.09,6.91,6.91
			s-3.09,6.91-6.91,6.91c-0.3,0-0.59-0.03-0.88-0.06c-0.98,1.81-2.89,3.05-5.1,3.05c-0.42,0-0.82-0.05-1.22-0.13
			c-1.16,1.44-2.94,2.37-4.94,2.37c-0.13,0-0.26-0.01-0.39-0.02c-1.86,1.86-4.43,3.01-7.26,3.01c-1.92,0-3.7-0.53-5.24-1.45
			c-0.88,0.67-1.97,1.07-3.16,1.07c-2.65,0-4.83-1.97-5.17-4.52c-2.85-0.19-5.38-1.51-7.15-3.53c-0.91,0.6-2,0.95-3.17,0.95
			c-3.2,0-5.79-2.59-5.79-5.79C-314.54,53.52-311.95,50.93-308.76,50.93z"/>
	</g>
</g>
<g class="st0">
	<g class="st2">
		<path class="st18" d="M-209.65,117.57L-209.65,117.57l0-47.58c-0.41-0.14-0.73-0.46-0.88-0.86h2.7c-0.16,0.43-0.51,0.76-0.96,0.89
			v47.55l-1.16,3.8l-0.8-0.24L-209.65,117.57z"/>
		<polygon class="st19" points="-208.62,70.59 -208.62,70.65 -207.28,70.65 -207.28,70.18 -207.18,70.18 -207.18,71.63 
			-207.28,71.63 -207.28,70.74 -208.62,70.74 -208.62,70.98 -209.76,70.98 -209.76,70.59 		"/>
		<polygon class="st19" points="-208.62,94.17 -208.62,94.23 -207.28,94.23 -207.28,93.76 -207.18,93.76 -207.18,95.2 -207.28,95.2 
			-207.28,94.31 -208.62,94.31 -208.62,94.56 -209.76,94.56 -209.76,94.17 		"/>
		<polygon class="st19" points="-208.62,116.6 -208.62,116.66 -207.28,116.66 -207.28,116.19 -207.18,116.19 -207.18,117.63 
			-207.28,117.63 -207.28,116.75 -208.62,116.75 -208.62,116.99 -209.76,116.99 -209.76,116.6 		"/>
	</g>
	<polygon class="st20" points="-141.71,68.54 -141.71,67.44 -175.31,48.04 -208.91,67.44 -208.91,68.54 	"/>
	<polygon class="st21" points="-143.45,123.36 -143.45,68.44 -175.31,50.05 -207.17,68.44 -207.17,123.36 	"/>
	<polygon class="st22" points="-175.29,123.36 -143.45,123.36 -143.45,68.44 -175.29,50.05 	"/>
	<polygon class="st23" points="-175.29,50.06 -175.31,50.05 -207.17,68.44 -207.17,77.6 -175.31,59.21 -175.29,51.36 	"/>
	<polygon class="st24" points="-145.99,71.61 -170.85,57.26 -170.85,91.42 -145.99,91.42 	"/>
	<polygon class="st25" points="-169.98,90.55 -169.98,58.76 -146.85,72.11 -146.85,90.55 	"/>
	<polygon class="st26" points="-169.11,60.82 -146.85,73.67 -146.85,72.11 -169.98,58.76 -169.98,90.55 -169.11,90.55 	"/>
	<g class="st2">
		<polygon class="st19" points="-175.32,91.97 -207.23,91.97 -212.4,98.32 -175.32,98.32 		"/>
		<rect x="-212.39" y="98.31" class="st27" width="37.09" height="1.08"/>
		<rect x="-207.17" y="99.39" class="st28" width="31.87" height="1.08"/>
	</g>
	<rect x="-164.9" y="60.98" class="st24" width="0.93" height="29.97"/>
	<rect x="-152.75" y="68.42" class="st24" width="0.93" height="22.54"/>
	<rect x="-170.47" y="72.14" class="st24" width="24.41" height="0.93"/>
	<rect x="-170.85" y="97.39" class="st24" width="24.86" height="23.54"/>
	<rect x="-169.98" y="98.19" class="st29" width="23.12" height="21.87"/>
	<polygon class="st26" points="-169.11,99.21 -146.85,99.21 -146.85,98.19 -169.98,98.19 -169.98,120.06 -169.11,120.06 	"/>
	<rect x="-164.9" y="97.76" class="st24" width="0.93" height="22.71"/>
	<rect x="-152.75" y="97.92" class="st24" width="0.93" height="22.54"/>
	<rect x="-170.47" y="102.79" class="st24" width="24.41" height="0.93"/>
	<rect x="-202.96" y="72.36" class="st24" width="24.86" height="16.02"/>
	<polygon class="st25" points="-202.09,73.16 -202.09,87.51 -194.04,87.51 -193.94,91.43 -186.07,91.54 -185.8,87.51 -178.96,87.51 
		-178.96,73.16 	"/>
	<polygon class="st26" points="-201.22,74.18 -178.96,74.18 -178.96,73.16 -202.09,73.16 -202.09,87.51 -201.22,87.51 	"/>
	<rect x="-194.3" y="72.73" class="st24" width="0.93" height="19.24"/>
	<rect x="-186.38" y="72.94" class="st24" width="0.93" height="19.03"/>
	<rect x="-204.33" y="102.59" class="st24" width="8.16" height="16.02"/>
	<rect x="-203.54" y="103.46" class="st29" width="6.6" height="14.35"/>
	<rect x="-194.23" y="91.07" class="st24" width="8.16" height="0.93"/>
	<path class="st24" d="M-207.17,82.86v9.22h31.82v-9.22H-207.17z M-204.15,91.1h-2.27v-6.73h2.27V91.1z M-201.06,91.1h-2.27v-6.73
		h2.27V91.1z M-197.97,91.1h-2.27v-6.73h2.27V91.1z M-194.87,91.1h-2.27v-6.73h2.27V91.1z M-191.78,91.1h-2.27v-6.73h2.27V91.1z
		 M-188.69,91.1h-2.27v-6.73h2.27V91.1z M-185.6,91.1h-2.27v-6.73h2.27V91.1z M-182.5,91.1h-2.27v-6.73h2.27V91.1z M-179.41,91.1
		h-2.27v-6.73h2.27V91.1z M-176.32,91.1h-2.27v-6.73h2.27V91.1z"/>
	<polygon class="st26" points="-203.03,104.22 -196.94,104.22 -196.94,103.46 -203.54,103.46 -203.54,117.81 -203.03,117.81 	"/>
	<rect x="-194.21" y="102.59" class="st24" width="8.16" height="20.63"/>
	<rect x="-193.41" y="103.46" class="st29" width="6.6" height="18.96"/>
	<polygon class="st26" points="-192.91,104.22 -186.81,104.22 -186.81,103.46 -193.41,103.46 -193.41,122.42 -192.91,122.42 	"/>
	<rect x="-186.05" y="102.59" class="st24" width="8.16" height="20.63"/>
	<rect x="-185.25" y="103.46" class="st29" width="6.6" height="18.96"/>
	<polygon class="st26" points="-184.75,104.22 -178.65,104.22 -178.65,103.46 -185.25,103.46 -185.25,122.42 -184.75,122.42 	"/>
	<rect x="-193.83" y="118.37" class="st24" width="15.59" height="0.81"/>
	<rect x="-193.83" y="106.29" class="st24" width="15.59" height="0.81"/>
	<rect x="-208.69" y="123.32" class="st30" width="66.5" height="0.76"/>
	<rect x="-208.69" y="123.32" class="st31" width="32.93" height="0.76"/>
	<g class="st2">
		<path class="st18" d="M-140.99,117.57L-140.99,117.57l0-47.58c0.41-0.14,0.73-0.46,0.88-0.86h-2.7c0.16,0.43,0.51,0.76,0.96,0.89
			v47.55l1.16,3.8l0.8-0.24L-140.99,117.57z"/>
		<polygon class="st19" points="-142.01,70.59 -142.01,70.65 -143.35,70.65 -143.35,70.18 -143.46,70.18 -143.46,71.63 
			-143.35,71.63 -143.35,70.74 -142.01,70.74 -142.01,70.98 -140.87,70.98 -140.87,70.59 		"/>
		<polygon class="st19" points="-142.01,94.17 -142.01,94.23 -143.35,94.23 -143.35,93.76 -143.46,93.76 -143.46,95.2 -143.35,95.2 
			-143.35,94.31 -142.01,94.31 -142.01,94.56 -140.87,94.56 -140.87,94.17 		"/>
		<polygon class="st19" points="-142.01,116.6 -142.01,116.66 -143.35,116.66 -143.35,116.19 -143.46,116.19 -143.46,117.63 
			-143.35,117.63 -143.35,116.75 -142.01,116.75 -142.01,116.99 -140.87,116.99 -140.87,116.6 		"/>
	</g>
</g>
<g class="st0">
	<g class="st2">
		<rect x="-53.72" y="92.51" class="st32" width="28.51" height="31.83"/>
		<rect x="-49.04" y="105.97" class="st33" width="20.75" height="18.32"/>
		<rect x="-47.61" y="107.44" class="st34" width="17.89" height="1.45"/>
		<rect x="-47.61" y="109.55" class="st34" width="17.89" height="1.45"/>
		<rect x="-47.61" y="111.66" class="st34" width="17.89" height="1.45"/>
		<rect x="-47.61" y="113.77" class="st34" width="17.89" height="1.45"/>
		<rect x="-47.61" y="115.87" class="st34" width="17.89" height="1.45"/>
		<rect x="-47.61" y="117.98" class="st34" width="17.89" height="1.45"/>
		<rect x="-47.61" y="120.09" class="st34" width="17.89" height="1.45"/>
		<rect x="-47.61" y="122.2" class="st34" width="17.89" height="1.45"/>
		<polygon class="st35" points="-48.22,107.14 -28.29,107.14 -28.29,105.97 -49.04,105.97 -49.04,124.29 -48.22,124.29 		"/>
	</g>
	<rect x="-132.17" y="78.65" class="st36" width="17.09" height="44.36"/>
	<rect x="-121.74" y="98.55" class="st37" width="68.7" height="24.46"/>
	<polygon class="st36" points="-69.88,77.9 -69.88,67.65 -121.74,67.65 -121.74,98.91 -52.94,98.91 -52.94,77.9 	"/>
	<rect x="-121.74" y="98.55" class="st38" width="34.2" height="1.53"/>
	<polygon class="st39" points="-82.45,98.89 -87.55,98.89 -87.55,100.04 -121.74,100.04 -121.74,103.83 -80.89,108.31 	"/>
	<rect x="-121.74" y="67.65" class="st40" width="34.18" height="31.26"/>
	<polygon class="st41" points="-82.47,98.91 -87.5,98.91 -87.5,67.65 -86.51,67.65 	"/>
	<rect x="-134.28" y="121.98" class="st42" width="12.47" height="2.34"/>
	<rect x="-88.15" y="121.98" class="st42" width="38.49" height="2.34"/>
	<rect x="-27.53" y="121.98" class="st42" width="3.72" height="2.34"/>
	<rect x="-122.27" y="121.98" class="st21" width="35.42" height="2.34"/>
	<g class="st2">
		<rect x="-102.05" y="105.23" class="st43" width="5.19" height="16.7"/>
		<rect x="-101.41" y="105.94" class="st44" width="3.93" height="15.34"/>
		<polygon class="st45" points="-101,106.55 -97.47,106.55 -97.47,105.94 -101.41,105.94 -101.41,121.28 -101,121.28 		"/>
		<rect x="-96.86" y="105.23" class="st43" width="5.36" height="16.7"/>
		<rect x="-96.21" y="105.94" class="st44" width="4.1" height="15.34"/>
		<polygon class="st45" points="-95.8,106.55 -92.11,106.55 -92.11,105.94 -96.21,105.94 -96.21,121.28 -95.8,121.28 		"/>
		<rect x="-101.74" y="118.01" class="st43" width="9.96" height="0.66"/>
		<rect x="-101.74" y="108.23" class="st43" width="9.96" height="0.66"/>
	</g>
	<g class="st2">
		<rect x="-82.82" y="105.23" class="st43" width="4.57" height="13.11"/>
		<rect x="-82.12" y="105.93" class="st44" width="3.16" height="11.71"/>
		<polygon class="st45" points="-81.57,106.59 -78.95,106.59 -78.95,105.93 -82.12,105.93 -82.12,117.64 -81.57,117.64 		"/>
	</g>
	<g class="st2">
		<rect x="-82.82" y="78.19" class="st43" width="4.57" height="13.11"/>
		<rect x="-82.12" y="78.89" class="st44" width="3.16" height="11.71"/>
		<polygon class="st45" points="-81.57,79.54 -78.95,79.54 -78.95,78.89 -82.12,78.89 -82.12,90.6 -81.57,90.6 		"/>
	</g>
	<g class="st2">
		<rect x="-68.65" y="83.69" class="st43" width="13.11" height="4.57"/>
		<rect x="-67.95" y="84.39" class="st44" width="11.71" height="3.16"/>
		<polygon class="st45" points="-67.3,84.93 -67.3,87.55 -67.95,87.55 -67.95,84.39 -56.24,84.39 -56.24,84.93 		"/>
	</g>
	<g class="st2">
		<rect x="-49.05" y="98.79" class="st43" width="5.5" height="4.57"/>
		<rect x="-48.34" y="99.5" class="st44" width="4.1" height="3.16"/>
		<polygon class="st45" points="-47.69,100.04 -47.69,102.66 -48.34,102.66 -48.34,99.5 -44.25,99.5 -44.25,100.04 		"/>
	</g>
	<g class="st2">
		<rect x="-41.43" y="98.79" class="st43" width="5.5" height="4.57"/>
		<rect x="-40.73" y="99.5" class="st44" width="4.1" height="3.16"/>
		<polygon class="st45" points="-40.08,100.04 -40.08,102.66 -40.73,102.66 -40.73,99.5 -36.63,99.5 -36.63,100.04 		"/>
	</g>
	<g class="st2">
		<rect x="-33.82" y="98.79" class="st43" width="5.5" height="4.57"/>
		<rect x="-33.12" y="99.5" class="st44" width="4.1" height="3.16"/>
		<polygon class="st45" points="-32.47,100.04 -32.47,102.66 -33.12,102.66 -33.12,99.5 -29.02,99.5 -29.02,100.04 		"/>
	</g>
	<g class="st2">
		<rect x="-96.52" y="78.19" class="st43" width="4.57" height="13.11"/>
		<rect x="-95.81" y="78.89" class="st46" width="3.16" height="11.71"/>
		<polygon class="st45" points="-95.27,79.54 -92.65,79.54 -92.65,78.89 -95.81,78.89 -95.81,90.6 -95.27,90.6 		"/>
	</g>
	<g class="st2">
		<rect x="-103.54" y="78.19" class="st43" width="4.57" height="13.11"/>
		<rect x="-102.84" y="78.89" class="st46" width="3.16" height="11.71"/>
		<polygon class="st45" points="-102.3,79.54 -99.68,79.54 -99.68,78.89 -102.84,78.89 -102.84,90.6 -102.3,90.6 		"/>
	</g>
	<g class="st2">
		<rect x="-110.57" y="78.19" class="st43" width="4.57" height="13.11"/>
		<rect x="-109.86" y="78.89" class="st46" width="3.16" height="11.71"/>
		<polygon class="st45" points="-109.32,79.54 -106.7,79.54 -106.7,78.89 -109.86,78.89 -109.86,90.6 -109.32,90.6 		"/>
	</g>
	<g class="st2">
		<rect x="-117.59" y="78.19" class="st43" width="4.57" height="13.11"/>
		<rect x="-116.89" y="78.89" class="st46" width="3.16" height="11.71"/>
		<polygon class="st45" points="-116.35,79.54 -113.73,79.54 -113.73,78.89 -116.89,78.89 -116.89,90.6 -116.35,90.6 		"/>
	</g>
	<g class="st2">
		<rect x="-74.12" y="105.23" class="st43" width="4.57" height="13.11"/>
		<rect x="-73.42" y="105.93" class="st46" width="3.16" height="11.71"/>
		<polygon class="st45" points="-72.88,106.59 -70.26,106.59 -70.26,105.93 -73.42,105.93 -73.42,117.64 -72.88,117.64 		"/>
	</g>
	<g class="st2">
		<rect x="-65.43" y="105.23" class="st43" width="4.57" height="13.11"/>
		<rect x="-64.73" y="105.93" class="st44" width="3.16" height="11.71"/>
		<polygon class="st45" points="-64.19,106.59 -61.57,106.59 -61.57,105.93 -64.73,105.93 -64.73,117.64 -64.19,117.64 		"/>
	</g>
</g>
<g class="st0">
	<g class="st2">
		<polygon class="st47" points="97.37,88.59 97.37,87.73 39.58,59.31 -18.21,87.73 -18.21,88.59 		"/>
		<polygon class="st48" points="94.38,123.2 94.38,88.51 39.58,62.17 -15.22,88.51 -15.22,123.2 		"/>
		<rect x="-15.22" y="99.5" class="st49" width="109.61" height="23.71"/>
		<polygon class="st47" points="-14.5,100.05 -14.5,123.2 -9,123.2 -9,106.14 16.09,106.14 16.09,123.2 67.99,123.2 67.99,105.77 
			91.66,105.77 91.66,122.64 93.75,122.64 93.75,100.05 		"/>
		<polygon class="st50" points="90.64,123.2 94.38,123.2 94.38,99.5 61.52,99.5 61.52,103.24 90.64,103.24 		"/>
		<polygon class="st50" points="-11.49,123.2 -11.49,103.24 17.07,103.24 17.07,99.5 -15.22,99.5 -15.22,123.2 		"/>
		<g>
			<g>
				<polygon class="st51" points="15.47,75.88 -11.42,88.8 -11.42,97.61 15.47,97.61 				"/>
				<polygon class="st44" points="-10.8,96.98 -10.8,89.2 14.85,76.87 14.85,96.98 				"/>
			</g>
			<polygon class="st52" points="-10.2,90.09 14.85,78.05 14.85,76.87 -10.8,89.2 -10.8,96.98 -10.2,96.98 			"/>
			<polygon class="st51" points="7.09,97.35 7.09,80.16 6.43,80.49 6.43,97.35 			"/>
			<polygon class="st51" points="-2.46,84.71 -2.46,97.35 -1.8,97.35 -1.8,84.43 			"/>
			<polygon class="st51" points="-10.81,88.65 -11.03,89.31 15.25,89.31 15.25,88.65 			"/>
		</g>
		<g>
			<g>
				<polygon class="st51" points="64.15,75.88 91.04,88.8 91.04,97.61 64.15,97.61 				"/>
				<polygon class="st44" points="90.41,96.98 90.41,89.2 64.77,76.87 64.77,96.98 				"/>
				<polygon class="st52" points="65.42,78.41 90.41,90.43 90.41,89.2 64.77,76.87 64.77,96.98 65.42,96.98 				"/>
			</g>
			<polygon class="st51" points="72.53,97.35 72.53,80.16 73.19,80.49 73.19,97.35 			"/>
			<polygon class="st51" points="82.08,84.71 82.08,97.35 81.42,97.35 81.42,84.43 			"/>
			<polygon class="st51" points="90.43,88.65 90.65,89.31 64.36,89.31 64.36,88.65 			"/>
		</g>
		<polygon class="st28" points="94.38,90.38 94.38,88.51 39.58,62.17 -15.22,88.51 -15.22,90.38 39.58,64.04 		"/>
		<g>
			<rect x="15.47" y="74.63" class="st50" width="48.58" height="48.58"/>
			<rect x="20.45" y="79.61" class="st51" width="38.61" height="38.61"/>
			<rect x="21.07" y="80.23" class="st44" width="37.37" height="37.37"/>
			<polygon class="st52" points="21.8,81.37 58.44,81.37 58.44,80.23 21.07,80.23 21.07,117.6 21.8,117.6 			"/>
			<rect x="39.37" y="79.67" class="st51" width="0.66" height="38.17"/>
			<rect x="20.62" y="98.5" class="st51" width="38.17" height="0.66"/>
			<rect x="20.62" y="88.64" class="st51" width="38.17" height="0.66"/>
			<rect x="20.62" y="108.28" class="st51" width="38.17" height="0.66"/>
			<rect x="49.19" y="79.67" class="st51" width="0.66" height="38.17"/>
			<rect x="29.55" y="79.67" class="st51" width="0.66" height="38.17"/>
		</g>
		<rect x="-8.82" y="106.18" class="st51" width="24.08" height="12.04"/>
		<rect x="-8.2" y="106.8" class="st46" width="22.84" height="10.8"/>
		<polygon class="st52" points="-7.6,107.8 14.64,107.8 14.64,106.8 -8.2,106.8 -8.2,117.6 -7.6,117.6 		"/>
		<rect x="-1.31" y="106.51" class="st51" width="0.66" height="11.39"/>
		<rect x="7.2" y="106.51" class="st51" width="0.66" height="11.39"/>
		<g>
			<rect x="71.31" y="106.07" class="st51" width="15.36" height="16.92"/>
			<rect x="71.94" y="106.69" class="st46" width="14.12" height="15.67"/>
			<polygon class="st52" points="72.53,107.69 86.05,107.69 86.05,106.69 71.94,106.69 71.94,122.36 72.53,122.36 			"/>
			<rect x="78.29" y="106.4" class="st51" width="1.72" height="16.28"/>
		</g>
	</g>
	<rect x="-16.14" y="123.08" class="st53" width="111.47" height="1.59"/>
</g>
<g class="st0">
	<rect x="-301.76" y="69.43" class="st21" width="58.23" height="55.29"/>
	<rect x="-304.04" y="123.16" class="st54" width="60.51" height="1.73"/>
	<polygon class="st55" points="-246.66,70.85 -304.89,70.85 -284.7,55.78 -246.66,55.78 	"/>
	<polygon class="st54" points="-226.04,71.02 -226.04,68.86 -250.78,46.66 -275.53,68.86 -275.53,71.02 	"/>
	<polygon class="st56" points="-227.32,124.72 -274.25,124.72 -274.25,69.43 -250.78,48.38 -227.32,69.43 	"/>
	<g class="st2">
		<rect x="-268.8" y="75.67" class="st57" width="15.73" height="15.5"/>
		<rect x="-268.17" y="76.25" class="st46" width="14.47" height="14.29"/>
		<polygon class="st45" points="-267.54,76.99 -253.7,76.99 -253.7,76.25 -268.17,76.25 -268.17,90.54 -267.54,90.54 		"/>
		<rect x="-261.31" y="75.93" class="st57" width="0.68" height="14.9"/>
		<rect x="-268.53" y="79.58" class="st57" width="15.41" height="0.68"/>
	</g>
	<g class="st2">
		<rect x="-298.23" y="75.67" class="st57" width="15.73" height="15.5"/>
		<rect x="-297.61" y="76.25" class="st44" width="14.47" height="14.29"/>
		<polygon class="st45" points="-296.98,76.99 -283.13,76.99 -283.13,76.25 -297.61,76.25 -297.61,90.54 -296.98,90.54 		"/>
		<rect x="-290.74" y="75.93" class="st57" width="0.68" height="14.9"/>
		<rect x="-297.96" y="79.58" class="st57" width="15.41" height="0.68"/>
	</g>
	<g class="st2">
		<rect x="-256" y="56.04" class="st57" width="9.7" height="10.47"/>
		<rect x="-255.37" y="56.62" class="st46" width="8.44" height="9.26"/>
		<polygon class="st45" points="-254.74,57.36 -246.93,57.36 -246.93,56.62 -255.37,56.62 -255.37,65.89 -254.74,65.89 		"/>
	</g>
	<g class="st2">
		<rect x="-297.42" y="100.55" class="st57" width="4.68" height="17.87"/>
		<rect x="-296.87" y="101.06" class="st44" width="3.59" height="16.82"/>
		<polygon class="st45" points="-296.33,101.7 -293.29,101.7 -293.29,101.06 -296.87,101.06 -296.87,117.87 -296.33,117.87 		"/>
	</g>
	<g class="st2">
		<rect x="-280.68" y="100.55" class="st57" width="4.68" height="17.87"/>
		<rect x="-280.13" y="101.06" class="st44" width="3.59" height="16.82"/>
		<polygon class="st45" points="-279.58,101.7 -276.55,101.7 -276.55,101.06 -280.13,101.06 -280.13,117.87 -279.58,117.87 		"/>
	</g>
	<g class="st2">
		<rect x="-248.22" y="75.67" class="st57" width="15.73" height="15.5"/>
		<rect x="-247.59" y="76.25" class="st44" width="14.47" height="14.29"/>
		<polygon class="st45" points="-246.96,76.99 -233.11,76.99 -233.11,76.25 -247.59,76.25 -247.59,90.54 -246.96,90.54 		"/>
		<rect x="-240.72" y="75.93" class="st57" width="0.68" height="14.9"/>
		<rect x="-247.94" y="79.58" class="st57" width="15.41" height="0.68"/>
	</g>
	<g class="st2">
		<rect x="-268.8" y="100.2" class="st57" width="15.73" height="15.5"/>
		<rect x="-268.17" y="100.78" class="st44" width="14.47" height="14.29"/>
		<polygon class="st45" points="-267.54,101.52 -253.7,101.52 -253.7,100.78 -268.17,100.78 -268.17,115.07 -267.54,115.07 		"/>
		<rect x="-261.31" y="100.46" class="st57" width="0.68" height="14.9"/>
		<rect x="-268.53" y="104.11" class="st57" width="15.41" height="0.68"/>
	</g>
	<g class="st2">
		<rect x="-248.22" y="100.2" class="st57" width="15.73" height="15.5"/>
		<rect x="-247.59" y="100.78" class="st44" width="14.47" height="14.29"/>
		<polygon class="st45" points="-246.96,101.52 -233.11,101.52 -233.11,100.78 -247.59,100.78 -247.59,115.07 -246.96,115.07 		"/>
		<rect x="-240.72" y="100.46" class="st57" width="0.68" height="14.9"/>
		<rect x="-247.94" y="104.11" class="st57" width="15.41" height="0.68"/>
	</g>
	<rect x="-304.96" y="70.85" class="st54" width="30.73" height="1.07"/>
	<rect x="-274.39" y="122.61" class="st55" width="47.92" height="2.28"/>
	<polygon class="st55" points="-274.25,91.4 -302.62,91.4 -308.31,97.48 -274.25,97.48 	"/>
	<rect x="-308.38" y="97.48" class="st54" width="34.13" height="0.84"/>
	<rect x="-301.77" y="98.33" class="st58" width="27.52" height="0.84"/>
	<rect x="-301.77" y="71.94" class="st58" width="27.52" height="0.84"/>
	<g class="st2">
		<g>
			<rect x="-291.33" y="100.52" class="st57" width="8.7" height="17.98"/>
			<rect x="-290.91" y="100.91" class="st44" width="2.25" height="3.54"/>
			<rect x="-288.14" y="100.91" class="st44" width="2.3" height="3.54"/>
			<rect x="-285.33" y="100.91" class="st44" width="2.3" height="3.54"/>
			<rect x="-290.91" y="104.84" class="st44" width="2.25" height="2.05"/>
			<rect x="-288.14" y="104.84" class="st44" width="2.3" height="2.05"/>
			<rect x="-285.33" y="104.84" class="st44" width="2.3" height="2.05"/>
			<polygon class="st45" points="-290.56,101.46 -288.66,101.46 -288.66,100.91 -290.91,100.91 -290.91,104.45 -290.56,104.45 			
				"/>
			<polygon class="st45" points="-287.8,101.46 -285.84,101.46 -285.84,100.91 -288.14,100.91 -288.14,104.45 -287.8,104.45 			"/>
			<polygon class="st45" points="-284.98,101.46 -283.03,101.46 -283.03,100.91 -285.33,100.91 -285.33,104.45 -284.98,104.45 			
				"/>
			<polygon class="st45" points="-290.56,105.4 -288.66,105.4 -288.66,104.84 -290.91,104.84 -290.91,106.89 -290.56,106.89 			"/>
			<polygon class="st45" points="-287.8,105.4 -285.84,105.4 -285.84,104.84 -288.14,104.84 -288.14,106.89 -287.8,106.89 			"/>
			<polygon class="st45" points="-284.98,105.4 -283.03,105.4 -283.03,104.84 -285.33,104.84 -285.33,106.89 -284.98,106.89 			"/>
			<rect x="-290.91" y="107.33" class="st44" width="2.25" height="2.05"/>
			<rect x="-288.14" y="107.33" class="st44" width="2.3" height="2.05"/>
			<rect x="-285.33" y="107.33" class="st44" width="2.3" height="2.05"/>
			<polygon class="st45" points="-290.56,107.89 -288.66,107.89 -288.66,107.33 -290.91,107.33 -290.91,109.38 -290.56,109.38 			
				"/>
			<polygon class="st45" points="-287.8,107.89 -285.84,107.89 -285.84,107.33 -288.14,107.33 -288.14,109.38 -287.8,109.38 			"/>
			<polygon class="st45" points="-284.98,107.89 -283.03,107.89 -283.03,107.33 -285.33,107.33 -285.33,109.38 -284.98,109.38 			
				"/>
			<rect x="-290.91" y="109.82" class="st44" width="2.25" height="2.05"/>
			<rect x="-288.14" y="109.82" class="st44" width="2.3" height="2.05"/>
			<rect x="-285.33" y="109.82" class="st44" width="2.3" height="2.05"/>
			<polygon class="st45" points="-290.56,110.37 -288.66,110.37 -288.66,109.82 -290.91,109.82 -290.91,111.86 -290.56,111.86 			
				"/>
			<polygon class="st45" points="-287.8,110.37 -285.84,110.37 -285.84,109.82 -288.14,109.82 -288.14,111.86 -287.8,111.86 			"/>
			<polygon class="st45" points="-284.98,110.37 -283.03,110.37 -283.03,109.82 -285.33,109.82 -285.33,111.86 -284.98,111.86 			
				"/>
			<rect x="-290.91" y="112.32" class="st44" width="2.25" height="5.77"/>
			<rect x="-288.14" y="112.32" class="st44" width="2.3" height="5.77"/>
			<rect x="-285.33" y="112.32" class="st44" width="2.3" height="5.77"/>
			<polygon class="st45" points="-290.56,112.87 -288.66,112.87 -288.66,112.32 -290.91,112.32 -290.91,118.09 -290.56,118.09 			
				"/>
			<polygon class="st45" points="-287.8,112.87 -285.84,112.87 -285.84,112.32 -288.14,112.32 -288.14,118.09 -287.8,118.09 			"/>
			<polygon class="st45" points="-284.98,112.87 -283.03,112.87 -283.03,112.32 -285.33,112.32 -285.33,118.09 -284.98,118.09 			
				"/>
		</g>
	</g>
	<rect x="-297.57" y="118.63" class="st55" width="23.18" height="1.56"/>
	<rect x="-300.13" y="120.13" class="st59" width="25.74" height="1.56"/>
	<rect x="-302.53" y="121.66" class="st60" width="28.14" height="1.56"/>
	<polygon class="st58" points="-250.78,48.38 -274.25,69.43 -274.25,71.35 -250.78,50.3 -227.32,71.35 -227.32,69.43 	"/>
</g>
</svg>
