<?xml version="1.0" encoding="utf-8"?>
<!-- Generator: Adobe Illustrator 24.3.0, SVG Export Plug-In . SVG Version: 6.00 Build 0)  -->
<svg version="1.1" id="layer" xmlns="http://www.w3.org/2000/svg" xmlns:xlink="http://www.w3.org/1999/xlink" x="0px" y="0px"
	 viewBox="0 0 67.4 40.17" style="enable-background:new 0 0 67.4 40.17;" xml:space="preserve">
<style type="text/css">
	.st0{display:none;}
	.st1{display:inline;fill:#FFE6BB;}
	.st2{display:inline;}
	.st3{fill:#FDC345;}
	.st4{fill:#FFD788;}
	.st5{display:inline;fill:#1E2323;}
	.st6{fill:#C95B3D;}
	.st7{fill:#343D18;}
	.st8{display:inline;fill:#475429;}
	.st9{display:inline;fill:#31381C;}
	.st10{display:inline;fill:#313A1C;}
	.st11{display:none;fill:#242D0F;}
	.st12{display:none;fill:#FFFFFF;}
	.st13{display:none;fill:#D9F6FF;}
	.st14{fill:#FFFFFF;}
	.st15{display:inline;fill:#36421A;}
	.st16{fill:#363838;}
	.st17{fill:#A5A5A5;}
	.st18{fill:#59698B;}
	.st19{fill:#465572;}
	.st20{display:inline;fill:#59698B;}
	.st21{display:inline;fill:#A5A5A5;}
	.st22{display:inline;fill:#A0A5AA;}
	.st23{display:inline;fill:#B5B5B5;}
	.st24{display:inline;fill:#FFFFFF;}
	.st25{display:inline;fill:#233F3E;}
	.st26{display:inline;fill:#258E88;}
	.st27{fill:#5B6B8D;}
	.st28{fill:#B5B5B5;}
	.st29{display:inline;fill:#F7F7D2;}
	.st30{display:inline;fill:#5B6B8D;}
	.st31{display:inline;fill:#465572;}
	.st32{fill:#89847D;}
	.st33{fill:#968B77;}
	.st34{fill:#A59E92;}
	.st35{fill:#847863;}
	.st36{display:inline;fill:#89847D;}
	.st37{display:inline;fill:#986435;}
	.st38{display:inline;fill:#B37E52;}
	.st39{display:inline;fill:#8C562A;}
	.st40{display:inline;fill:#969289;}
	.st41{display:inline;fill:#A59E92;}
	.st42{display:inline;fill:#81AC41;}
	.st43{fill:#D3986C;}
	.st44{fill:#233F3E;}
	.st45{fill:#258E88;}
	.st46{fill:#F7F7D2;}
	.st47{fill:#626868;}
	.st48{fill:#999999;}
	.st49{fill:#707676;}
	.st50{fill:#A0A5AA;}
	.st51{fill:#523D38;}
	.st52{fill:#4B9694;}
	.st53{display:inline;fill:#626868;}
	.st54{display:inline;fill:#3A3442;}
	.st55{display:inline;fill:#4F4957;}
	.st56{display:inline;fill:#BFBFBF;}
	.st57{display:inline;fill:#D1D1D1;}
	.st58{display:inline;fill:#484351;}
	.st59{display:inline;fill:#403B49;}
</style>
<g class="st0">
	<polygon class="st1" points="-211.36,-47.01 -208.44,-27.82 -202.17,-46.19 -203.92,-26.87 -193.45,-43.2 -199.77,-24.86 
		-185.69,-38.21 -196.23,-21.91 -179.36,-31.51 -193.48,-18.2 -174.81,-23.48 -191.71,-13.94 -172.31,-14.6 -191.01,-9.39 
		-172.02,-5.38 -191.42,-4.79 -173.93,3.64 -192.91,-0.43 -177.96,11.94 -195.41,3.45 -183.85,19.04 -198.76,6.62 -191.26,24.52 
		-202.77,8.89 -199.78,28.07 -207.21,10.14 -208.89,29.47 -211.82,10.29 -218.08,28.66 -216.33,9.33 -226.81,25.67 -220.48,7.32 
		-234.56,20.67 -224.03,4.37 -240.9,13.97 -226.77,0.66 -245.45,5.94 -228.55,-3.59 -247.94,-2.93 -229.25,-8.15 -248.24,-12.15 
		-228.84,-12.75 -246.32,-21.18 -227.35,-17.11 -242.3,-29.48 -224.85,-20.99 -236.41,-36.57 -221.5,-24.15 -228.99,-42.06 
		-217.49,-26.43 -220.48,-45.6 -213.05,-27.68 	"/>
	<g class="st2">
		<circle class="st3" cx="-210.13" cy="-8.77" r="16.45"/>
		<path class="st4" d="M-207.66-13.5c5.17,0,9.72,2.61,12.42,6.59c0.08-0.61,0.12-1.23,0.12-1.86c0-8.29-6.72-15.01-15.01-15.01
			c-8.29,0-15.01,6.72-15.01,15.01c0,3.12,0.95,6.02,2.59,8.42C-221.64-7.76-215.32-13.5-207.66-13.5z"/>
	</g>
</g>
<g>
	<g class="st0">
		<polygon class="st5" points="-67.54,80.22 -82.69,80.22 -96.56,87.97 -96.56,89.52 -95.45,89.52 -95.45,90.29 -95.45,113.4 
			-103.42,116.67 -103.42,117.65 -102.31,117.65 -102.31,118.19 -102.31,134.38 -103.27,134.38 -103.27,136.28 -80.93,136.28 
			-57.29,136.28 -53.17,136.28 -53.17,136.29 -37.48,136.29 -37.48,136.28 -34.96,136.28 -34.96,134.38 -35.73,134.38 -35.73,90.44 
			-35.73,89.23 -33.05,90.77 -33.05,88.94 -57.85,74.62 		"/>
		<path class="st5" d="M-141.77,134.43h-1.58v-0.78h-0.8v-23.62h0.64v-0.94h0.07l-7.5-13h-17.69v-5.68h-0.13v-0.24h0.73v-0.04
			l-1.04-0.6l-1.04,0.6v0.04h0.68v0.24h-0.16v5.68h-0.97v-3.94h-0.13v-0.24h0.73v-0.04l-1.04-0.6l-1.04,0.6v0.04h0.68v0.24h-0.16
			v3.94h-32.45l-7.48,12.96h-0.01v0.02l-0.01,0.02h0.01v0.94h0.98v0.9v24.4h-0.93v0.96h70.3v-0.96h-0.65V134.43z M-169.23,90.17
			h0.24v0.24h-0.24V90.17z M-171.15,91.91h0.24v0.24h-0.24V91.91z"/>
		<path class="st5" d="M-306.45,134.43h-0.89v-0.78h-0.45v-23.62h0.36v-0.94h0.04l-4.24-13h-10v-5.68h-0.08v-0.24h0.41v-0.04
			l-0.59-0.6l-0.59,0.6v0.04h0.39v0.24h-0.09v5.68h-0.55v-3.94h-0.08v-0.24h0.41v-0.04l-0.59-0.6l-0.59,0.6v0.04h0.39v0.24h-0.09
			v3.94h-18.35l-4.23,12.96h-0.01v0.02l-0.01,0.02h0.01v0.94h0.55v0.9v24.4h-0.53v0.96h39.74v-0.96h-0.37V134.43z M-321.98,90.17
			h0.13v0.24h-0.13V90.17z M-323.06,91.91h0.13v0.24h-0.13V91.91z"/>
		<polygon class="st5" points="-261.63,77.02 -261.64,77.02 -261.64,77.02 -297.23,89.14 -297.23,90.77 -295.34,90.77 
			-295.34,91.67 -295.34,105.04 -310.8,110.31 -310.8,111.57 -309.45,111.57 -309.45,112.64 -309.45,134.91 -311.25,134.91 
			-311.25,136.27 -226.86,136.27 -226.86,134.91 -228.04,134.91 -228.04,111.34 -227.13,111.34 -227.13,110.05 -228.04,110.05 
			-228.04,91.67 -228.04,90.77 -226.05,90.77 -226.05,89.14 -261.63,77.03 		"/>
		<polygon class="st5" points="43.75,77.02 43.74,77.02 43.74,77.02 20.6,89.14 20.6,90.77 21.83,90.77 21.83,91.67 21.83,105.04 
			11.78,110.31 11.78,111.57 12.66,111.57 12.66,112.64 12.66,134.91 11.49,134.91 11.49,136.27 66.36,136.27 66.36,134.91 
			65.59,134.91 65.59,111.34 66.18,111.34 66.18,110.05 65.59,110.05 65.59,91.67 65.59,90.77 66.88,90.77 66.88,89.14 43.75,77.03 
					"/>
		<polygon class="st5" points="-275.53,109.78 -273.92,109.78 -273.92,107.91 -297.22,94.24 -320.53,107.91 -320.53,109.78 
			-318.91,109.78 -318.91,135.41 -319.7,135.41 -319.7,136.3 -295.39,136.3 -295.39,136.44 -272.32,136.44 -272.32,134.72 
			-275.53,134.72 		"/>
		<polygon class="st5" points="42.05,134.87 42.05,111.11 42.05,109.43 43.42,109.43 43.42,108.25 43.39,108.25 37.1,88.57 
			-3.44,88.57 -10.44,108.25 -10.48,108.25 -10.48,109.43 -9.05,109.43 -9.05,111.11 -9.05,134.87 -10.45,134.87 -10.45,136.11 
			44.19,136.11 44.19,134.87 		"/>
	</g>
	<g>
		<g class="st0">
			<g class="st2">
				<rect x="45.89" y="108.52" class="st6" width="2.85" height="24.83"/>
				<path class="st7" d="M36.06,106.98c-0.13-0.37-0.21-0.77-0.21-1.19c0-1.35,0.77-2.52,1.89-3.11c-0.84-0.97-1.35-2.23-1.35-3.61
					c0-3.05,2.47-5.51,5.51-5.51c0.02,0,0.04,0,0.06,0c0-0.05,0-0.11,0-0.17c0-2.14,1.74-3.88,3.88-3.88c2.09,0,3.79,1.66,3.87,3.73
					c0.6-0.22,1.24-0.34,1.91-0.34c3.05,0,5.51,2.47,5.51,5.51c0,0.51-0.07,1.01-0.2,1.48c1.5,0.39,2.6,1.76,2.6,3.38
					c0,0.44-0.08,0.85-0.23,1.24c1.84,1.11,3.06,3.12,3.06,5.42c0,0.05,0.09,3.12-3.13,3.27c-0.2,2.67-2.43,4.77-5.15,4.77H54.1
					c-0.76,1.95-2.65,3.34-4.88,3.34h-2.7c-2.22,0-4.12-1.39-4.88-3.34c-2.71-0.03-4.91-2.14-5.09-4.81
					C34.26,112.61,35.07,107.51,36.06,106.98z"/>
			</g>
			<path class="st8" d="M58.52,108.74L58.52,108.74c0-2.73-2.1-4.95-4.77-5.16c-0.15-3.22-3.22-3.13-3.27-3.13
				c-2.3,0-4.32,1.23-5.42,3.06c-0.38-0.15-0.8-0.23-1.24-0.23c-1.62,0-2.99,1.11-3.38,2.6c-0.47-0.13-0.97-0.2-1.48-0.2
				c-1.1,0-2.13,0.33-2.99,0.89c-0.06-0.25-0.1-0.52-0.1-0.79c0-1.35,0.77-2.52,1.89-3.11c-0.84-0.97-1.35-2.23-1.35-3.61
				c0-3.05,2.47-5.51,5.51-5.51c0.02,0,0.04,0,0.06,0c0-0.05,0-0.11,0-0.17c0-2.14,1.74-3.88,3.88-3.88c2.09,0,3.79,1.66,3.87,3.73
				c0.6-0.22,1.24-0.34,1.91-0.34c3.05,0,5.51,2.47,5.51,5.51c0,0.51-0.07,1.01-0.2,1.48c1.5,0.39,2.6,1.76,2.6,3.38
				c0,0.44-0.08,0.85-0.23,1.24c1.84,1.11,3.06,3.12,3.06,5.42c0,0.03,0.03,1.27-0.75,2.21C61.18,110.59,60.02,109.32,58.52,108.74z
				"/>
		</g>
		<g class="st0">
			<g class="st2">
				<rect x="-32.49" y="101.89" class="st6" width="3.61" height="31.47"/>
				<path class="st7" d="M-44.94,99.93c-0.17-0.47-0.26-0.97-0.26-1.5c0-1.71,0.97-3.2,2.4-3.94c-1.06-1.23-1.71-2.82-1.71-4.57
					c0-3.86,3.13-6.99,6.99-6.99c0.03,0,0.05,0,0.07,0c0-0.07-0.01-0.14-0.01-0.21c0-2.71,2.2-4.91,4.91-4.91
					c2.65,0,4.81,2.1,4.91,4.72c0.76-0.28,1.57-0.43,2.43-0.43c3.86,0,6.99,3.13,6.99,6.99c0,0.65-0.09,1.28-0.26,1.87
					c1.9,0.5,3.3,2.23,3.3,4.28c0,0.55-0.1,1.08-0.29,1.57c2.33,1.41,3.88,3.96,3.88,6.87c0,0.07,0.11,3.96-3.97,4.15
					c-0.26,3.38-3.08,6.05-6.53,6.05h-0.01c-0.96,2.48-3.36,4.23-6.18,4.23h-3.42c-2.82,0-5.22-1.76-6.18-4.24
					c-3.43-0.04-6.23-2.72-6.45-6.1C-47.22,107.06-46.2,100.59-44.94,99.93z"/>
			</g>
			<path class="st9" d="M-16.48,102.16L-16.48,102.16c0-3.46-2.67-6.28-6.05-6.53c-0.19-4.08-4.08-3.96-4.15-3.96
				c-2.92,0-5.47,1.56-6.88,3.88c-0.49-0.18-1.01-0.29-1.57-0.29c-2.06,0-3.78,1.4-4.28,3.3c-0.6-0.17-1.23-0.26-1.88-0.26
				c-1.4,0-2.7,0.42-3.79,1.12c-0.07-0.32-0.13-0.65-0.13-1c0-1.71,0.97-3.2,2.4-3.94c-1.06-1.23-1.71-2.82-1.71-4.57
				c0-3.86,3.13-6.99,6.99-6.99c0.03,0,0.05,0,0.07,0c0-0.07-0.01-0.14-0.01-0.21c0-2.71,2.2-4.91,4.91-4.91
				c2.65,0,4.81,2.1,4.91,4.72c0.76-0.28,1.57-0.43,2.43-0.43c3.86,0,6.99,3.13,6.99,6.99c0,0.65-0.09,1.28-0.26,1.87
				c1.9,0.5,3.3,2.23,3.3,4.28c0,0.55-0.1,1.08-0.29,1.57c2.33,1.41,3.88,3.96,3.88,6.87c0,0.04,0.04,1.6-0.95,2.8
				C-13.1,104.5-14.58,102.9-16.48,102.16z"/>
		</g>
		<g class="st0">
			<g class="st2">
				<rect x="-166.57" y="119.6" class="st6" width="1.58" height="13.76"/>
				<path class="st7" d="M-172.01,118.74c-0.07-0.21-0.11-0.43-0.11-0.66c0-0.75,0.43-1.4,1.05-1.72c-0.46-0.54-0.75-1.23-0.75-2
					c0-1.69,1.37-3.05,3.05-3.05c0.01,0,0.02,0,0.03,0c0-0.03,0-0.06,0-0.09c0-1.19,0.96-2.15,2.15-2.15c1.16,0,2.1,0.92,2.15,2.06
					c0.33-0.12,0.69-0.19,1.06-0.19c1.69,0,3.05,1.37,3.05,3.05c0,0.28-0.04,0.56-0.11,0.82c0.83,0.22,1.44,0.97,1.44,1.87
					c0,0.24-0.04,0.47-0.12,0.68c1.02,0.61,1.7,1.73,1.7,3.01c0,0.03,0.05,1.73-1.73,1.81c-0.11,1.48-1.35,2.65-2.85,2.65h0
					c-0.42,1.08-1.47,1.85-2.7,1.85h-1.49c-1.23,0-2.28-0.77-2.7-1.85c-1.5-0.02-2.72-1.19-2.82-2.67
					C-173.01,121.86-172.56,119.03-172.01,118.74z"/>
			</g>
			<path class="st9" d="M-159.57,119.72L-159.57,119.72c0-1.51-1.17-2.74-2.65-2.86c-0.08-1.78-1.79-1.73-1.81-1.73
				c-1.27,0-2.39,0.68-3.01,1.7c-0.21-0.08-0.44-0.12-0.68-0.12c-0.9,0-1.65,0.61-1.87,1.44c-0.26-0.07-0.54-0.11-0.82-0.11
				c-0.61,0-1.18,0.18-1.66,0.49c-0.03-0.14-0.06-0.29-0.06-0.44c0-0.75,0.43-1.4,1.05-1.72c-0.46-0.54-0.75-1.23-0.75-2
				c0-1.69,1.37-3.05,3.05-3.05c0.01,0,0.02,0,0.03,0c0-0.03,0-0.06,0-0.09c0-1.19,0.96-2.15,2.15-2.15c1.16,0,2.1,0.92,2.15,2.06
				c0.33-0.12,0.69-0.19,1.06-0.19c1.69,0,3.05,1.37,3.05,3.05c0,0.28-0.04,0.56-0.11,0.82c0.83,0.22,1.44,0.97,1.44,1.87
				c0,0.24-0.04,0.47-0.12,0.68c1.02,0.61,1.7,1.73,1.7,3.01c0,0.02,0.02,0.7-0.41,1.22C-158.09,120.74-158.74,120.04-159.57,119.72
				z"/>
		</g>
		<g class="st0">
			<g class="st2">
				<rect x="-324.61" y="112.99" class="st6" width="2.33" height="20.36"/>
				<path class="st7" d="M-332.67,111.72c-0.11-0.3-0.17-0.63-0.17-0.97c0-1.11,0.63-2.07,1.55-2.55c-0.69-0.79-1.11-1.83-1.11-2.96
					c0-2.5,2.02-4.52,4.52-4.52c0.02,0,0.03,0,0.05,0c0-0.04,0-0.09,0-0.14c0-1.76,1.42-3.18,3.18-3.18c1.71,0,3.11,1.36,3.18,3.06
					c0.49-0.18,1.02-0.28,1.57-0.28c2.5,0,4.52,2.02,4.52,4.52c0,0.42-0.06,0.83-0.17,1.21c1.23,0.32,2.14,1.44,2.14,2.77
					c0,0.36-0.07,0.7-0.18,1.01c1.51,0.91,2.51,2.56,2.51,4.45c0,0.04,0.07,2.56-2.57,2.69c-0.17,2.19-1.99,3.92-4.22,3.92h0
					c-0.62,1.6-2.18,2.74-4,2.74h-2.21c-1.82,0-3.38-1.14-4-2.74c-2.22-0.03-4.03-1.76-4.18-3.95
					C-334.15,116.34-333.48,112.15-332.67,111.72z"/>
			</g>
			<path class="st9" d="M-314.25,113.17L-314.25,113.17c0-2.24-1.73-4.06-3.92-4.23c-0.12-2.64-2.64-2.57-2.69-2.57
				c-1.89,0-3.54,1.01-4.45,2.51c-0.32-0.12-0.66-0.19-1.01-0.19c-1.33,0-2.45,0.91-2.77,2.14c-0.39-0.11-0.79-0.17-1.21-0.17
				c-0.91,0-1.75,0.27-2.45,0.73c-0.05-0.21-0.08-0.42-0.08-0.65c0-1.11,0.63-2.07,1.55-2.55c-0.69-0.79-1.11-1.83-1.11-2.96
				c0-2.5,2.02-4.52,4.52-4.52c0.02,0,0.03,0,0.05,0c0-0.04,0-0.09,0-0.14c0-1.76,1.42-3.18,3.18-3.18c1.71,0,3.11,1.36,3.18,3.06
				c0.49-0.18,1.02-0.28,1.57-0.28c2.5,0,4.52,2.02,4.52,4.52c0,0.42-0.06,0.83-0.17,1.21c1.23,0.32,2.14,1.44,2.14,2.77
				c0,0.36-0.07,0.7-0.18,1.01c1.51,0.91,2.51,2.56,2.51,4.45c0,0.03,0.03,1.04-0.61,1.81
				C-312.07,114.68-313.02,113.65-314.25,113.17z"/>
		</g>
		<g class="st0">
			<g class="st2">
				<rect x="-257.53" y="109.41" class="st6" width="2.7" height="23.55"/>
				<path class="st7" d="M-266.85,107.94c-0.13-0.35-0.2-0.73-0.2-1.12c0-1.28,0.73-2.39,1.8-2.95c-0.8-0.92-1.28-2.11-1.28-3.42
					c0-2.89,2.34-5.23,5.23-5.23c0.02,0,0.04,0,0.06,0c0-0.05,0-0.1,0-0.16c0-2.03,1.65-3.68,3.68-3.68c1.98,0,3.6,1.57,3.67,3.53
					c0.57-0.21,1.18-0.32,1.82-0.32c2.89,0,5.23,2.34,5.23,5.23c0,0.49-0.07,0.96-0.19,1.4c1.42,0.37,2.47,1.67,2.47,3.21
					c0,0.41-0.08,0.81-0.21,1.17c1.74,1.05,2.91,2.96,2.91,5.15c0,0.05,0.08,2.96-2.97,3.11c-0.19,2.53-2.3,4.53-4.89,4.53h-0.01
					c-0.72,1.85-2.52,3.17-4.62,3.17h-2.56c-2.11,0-3.91-1.32-4.63-3.17c-2.57-0.03-4.66-2.03-4.83-4.57
					C-268.56,113.28-267.79,108.44-266.85,107.94z"/>
			</g>
			<path class="st9" d="M-245.55,109.61L-245.55,109.61c0-2.59-2-4.7-4.53-4.89c-0.14-3.05-3.06-2.97-3.11-2.97
				c-2.18,0-4.09,1.16-5.15,2.91c-0.36-0.14-0.76-0.21-1.17-0.21c-1.54,0-2.83,1.05-3.21,2.47c-0.45-0.12-0.92-0.19-1.4-0.19
				c-1.05,0-2.02,0.31-2.84,0.84c-0.06-0.24-0.1-0.49-0.1-0.75c0-1.28,0.73-2.39,1.8-2.95c-0.8-0.92-1.28-2.11-1.28-3.42
				c0-2.89,2.34-5.23,5.23-5.23c0.02,0,0.04,0,0.06,0c0-0.05,0-0.1,0-0.16c0-2.03,1.65-3.68,3.68-3.68c1.98,0,3.6,1.57,3.67,3.53
				c0.57-0.21,1.18-0.32,1.82-0.32c2.89,0,5.23,2.34,5.23,5.23c0,0.49-0.07,0.96-0.19,1.4c1.42,0.37,2.47,1.67,2.47,3.21
				c0,0.41-0.08,0.81-0.21,1.17c1.74,1.05,2.91,2.96,2.91,5.15c0,0.03,0.03,1.2-0.71,2.1
				C-243.02,111.36-244.13,110.17-245.55,109.61z"/>
		</g>
		<g class="st0">
			<g class="st2">
				<rect x="-179.89" y="110.06" class="st6" width="2.67" height="23.29"/>
				<path class="st7" d="M-168,108.61c0.13-0.35,0.19-0.72,0.19-1.11c0-1.27-0.72-2.37-1.78-2.91c0.79-0.91,1.26-2.09,1.26-3.39
					c0-2.86-2.32-5.17-5.17-5.17c-0.02,0-0.04,0-0.06,0c0-0.05,0-0.1,0-0.16c0-2.01-1.63-3.64-3.64-3.64c-1.96,0-3.56,1.55-3.63,3.5
					c-0.56-0.21-1.16-0.32-1.8-0.32c-2.86,0-5.17,2.32-5.17,5.17c0,0.48,0.07,0.95,0.19,1.39c-1.41,0.37-2.44,1.65-2.44,3.17
					c0,0.41,0.08,0.8,0.21,1.16c-1.72,1.04-2.87,2.93-2.87,5.09c0,0.05-0.08,2.93,2.93,3.07c0.19,2.5,2.28,4.48,4.83,4.48h0.01
					c0.71,1.83,2.49,3.13,4.57,3.13h2.53c2.09,0,3.86-1.3,4.57-3.14c2.54-0.03,4.61-2.01,4.78-4.52
					C-166.31,113.89-167.07,109.11-168,108.61z"/>
			</g>
			<path class="st10" d="M-189.06,110.26L-189.06,110.26c0-2.56,1.97-4.65,4.48-4.84c0.14-3.02,3.02-2.93,3.07-2.93
				c2.16,0,4.05,1.15,5.09,2.87c0.36-0.14,0.75-0.21,1.16-0.21c1.52,0,2.8,1.04,3.17,2.44c0.44-0.12,0.91-0.19,1.39-0.19
				c1.04,0,2,0.31,2.81,0.83c0.06-0.24,0.09-0.48,0.09-0.74c0-1.27-0.72-2.37-1.78-2.91c0.79-0.91,1.26-2.09,1.26-3.39
				c0-2.86-2.32-5.17-5.17-5.17c-0.02,0-0.04,0-0.06,0c0-0.05,0-0.1,0-0.16c0-2.01-1.63-3.64-3.64-3.64c-1.96,0-3.56,1.55-3.63,3.5
				c-0.56-0.21-1.16-0.32-1.8-0.32c-2.86,0-5.17,2.32-5.17,5.17c0,0.48,0.07,0.95,0.19,1.39c-1.41,0.37-2.44,1.65-2.44,3.17
				c0,0.41,0.08,0.8,0.21,1.16c-1.72,1.04-2.87,2.93-2.87,5.09c0,0.03-0.03,1.19,0.7,2.07C-191.57,112-190.48,110.81-189.06,110.26z
				"/>
		</g>
		<g class="st0">
			<g class="st2">
				<rect x="-233.66" y="103.11" class="st6" width="3.47" height="30.24"/>
				<path class="st7" d="M-218.22,101.23c0.16-0.45,0.25-0.94,0.25-1.44c0-1.65-0.94-3.08-2.31-3.78c1.02-1.18,1.64-2.71,1.64-4.4
					c0-3.71-3.01-6.72-6.72-6.72c-0.02,0-0.05,0-0.07,0c0-0.07,0.01-0.13,0.01-0.2c0-2.61-2.11-4.72-4.72-4.72
					c-2.55,0-4.62,2.02-4.72,4.54c-0.73-0.27-1.51-0.42-2.33-0.42c-3.71,0-6.72,3.01-6.72,6.72c0,0.62,0.09,1.23,0.25,1.8
					c-1.83,0.48-3.17,2.14-3.17,4.12c0,0.53,0.1,1.04,0.27,1.5c-2.24,1.35-3.73,3.8-3.73,6.61c0,0.06-0.11,3.81,3.81,3.99
					c0.25,3.25,2.96,5.82,6.27,5.82h0.01c0.93,2.38,3.23,4.07,5.94,4.07h3.29c2.71,0,5.02-1.69,5.94-4.07
					c3.3-0.04,5.98-2.61,6.2-5.86C-216.03,108.09-217.01,101.87-218.22,101.23z"/>
			</g>
			<path class="st10" d="M-245.57,103.37L-245.57,103.37c0-3.32,2.56-6.03,5.82-6.28c0.18-3.92,3.92-3.81,3.99-3.81
				c2.8,0,5.26,1.5,6.61,3.73c0.47-0.18,0.97-0.27,1.5-0.27c1.98,0,3.64,1.35,4.12,3.17c0.57-0.16,1.18-0.25,1.8-0.25
				c1.34,0,2.59,0.4,3.64,1.08c0.07-0.31,0.12-0.63,0.12-0.96c0-1.65-0.94-3.08-2.31-3.78c1.02-1.18,1.64-2.71,1.64-4.4
				c0-3.71-3.01-6.72-6.72-6.72c-0.02,0-0.05,0-0.07,0c0-0.07,0.01-0.13,0.01-0.2c0-2.61-2.11-4.72-4.72-4.72
				c-2.55,0-4.62,2.02-4.72,4.54c-0.73-0.27-1.51-0.42-2.33-0.42c-3.71,0-6.72,3.01-6.72,6.72c0,0.62,0.09,1.23,0.25,1.8
				c-1.83,0.48-3.17,2.14-3.17,4.12c0,0.53,0.1,1.04,0.27,1.5c-2.24,1.35-3.73,3.8-3.73,6.61c0,0.04-0.04,1.54,0.91,2.69
				C-248.82,105.62-247.4,104.09-245.57,103.37z"/>
		</g>
		<g class="st0">
			<g class="st2">
				<rect x="-89.19" y="103.11" class="st6" width="3.47" height="30.24"/>
				<path class="st7" d="M-73.75,101.23c0.16-0.45,0.25-0.94,0.25-1.44c0-1.65-0.94-3.08-2.31-3.78c1.02-1.18,1.64-2.71,1.64-4.4
					c0-3.71-3.01-6.72-6.72-6.72c-0.02,0-0.05,0-0.07,0c0-0.07,0.01-0.13,0.01-0.2c0-2.61-2.11-4.72-4.72-4.72
					c-2.55,0-4.62,2.02-4.72,4.54c-0.73-0.27-1.51-0.42-2.33-0.42c-3.71,0-6.72,3.01-6.72,6.72c0,0.62,0.09,1.23,0.25,1.8
					c-1.83,0.48-3.17,2.14-3.17,4.12c0,0.53,0.1,1.04,0.27,1.5c-2.24,1.35-3.73,3.8-3.73,6.61c0,0.06-0.11,3.81,3.81,3.99
					c0.25,3.25,2.96,5.82,6.27,5.82h0.01c0.93,2.38,3.23,4.07,5.94,4.07h3.29c2.71,0,5.02-1.69,5.94-4.07
					c3.3-0.04,5.98-2.61,6.2-5.86C-71.56,108.09-72.54,101.87-73.75,101.23z"/>
			</g>
			<path class="st10" d="M-101.1,103.37L-101.1,103.37c0-3.32,2.56-6.03,5.82-6.28c0.18-3.92,3.92-3.81,3.99-3.81
				c2.8,0,5.26,1.5,6.61,3.73c0.47-0.18,0.97-0.27,1.5-0.27c1.98,0,3.64,1.35,4.12,3.17c0.57-0.16,1.18-0.25,1.8-0.25
				c1.34,0,2.59,0.4,3.64,1.08c0.07-0.31,0.12-0.63,0.12-0.96c0-1.65-0.94-3.08-2.31-3.78c1.02-1.18,1.64-2.71,1.64-4.4
				c0-3.71-3.01-6.72-6.72-6.72c-0.02,0-0.05,0-0.07,0c0-0.07,0.01-0.13,0.01-0.2c0-2.61-2.11-4.72-4.72-4.72
				c-2.55,0-4.62,2.02-4.72,4.54c-0.73-0.27-1.51-0.42-2.33-0.42c-3.71,0-6.72,3.01-6.72,6.72c0,0.62,0.09,1.23,0.25,1.8
				c-1.83,0.48-3.17,2.14-3.17,4.12c0,0.53,0.1,1.04,0.27,1.5c-2.24,1.35-3.73,3.8-3.73,6.61c0,0.04-0.04,1.54,0.91,2.69
				C-104.35,105.62-102.93,104.09-101.1,103.37z"/>
		</g>
		<g class="st0">
			<g class="st2">
				<rect x="-55.18" y="109.49" class="st6" width="2.74" height="23.86"/>
				<path class="st7" d="M-43,108.01c0.13-0.36,0.2-0.74,0.2-1.14c0-1.3-0.74-2.43-1.82-2.98c0.81-0.93,1.3-2.14,1.3-3.47
					c0-2.93-2.37-5.3-5.3-5.3c-0.02,0-0.04,0-0.06,0c0-0.05,0-0.11,0-0.16c0-2.06-1.67-3.72-3.72-3.72c-2.01,0-3.65,1.59-3.72,3.58
					c-0.57-0.21-1.19-0.33-1.84-0.33c-2.93,0-5.3,2.37-5.3,5.3c0,0.49,0.07,0.97,0.19,1.42c-1.44,0.38-2.5,1.69-2.5,3.25
					c0,0.42,0.08,0.82,0.22,1.19c-1.76,1.07-2.94,3-2.94,5.21c0,0.05-0.08,3,3.01,3.15c0.19,2.57,2.33,4.59,4.95,4.59h0.01
					c0.73,1.88,2.55,3.21,4.69,3.21h2.59c2.14,0,3.96-1.33,4.69-3.21c2.6-0.03,4.72-2.06,4.89-4.63
					C-41.27,113.42-42.05,108.51-43,108.01z"/>
			</g>
			<path class="st10" d="M-64.58,109.7L-64.58,109.7c0-2.62,2.02-4.76,4.59-4.96c0.14-3.09,3.1-3.01,3.15-3.01
				c2.21,0,4.15,1.18,5.21,2.94c0.37-0.14,0.77-0.22,1.19-0.22c1.56,0,2.87,1.06,3.25,2.5c0.45-0.13,0.93-0.19,1.42-0.19
				c1.06,0,2.05,0.32,2.88,0.85c0.06-0.24,0.1-0.5,0.1-0.76c0-1.3-0.74-2.43-1.82-2.98c0.81-0.93,1.3-2.14,1.3-3.47
				c0-2.93-2.37-5.3-5.3-5.3c-0.02,0-0.04,0-0.06,0c0-0.05,0-0.11,0-0.16c0-2.06-1.67-3.72-3.72-3.72c-2.01,0-3.65,1.59-3.72,3.58
				c-0.57-0.21-1.19-0.33-1.84-0.33c-2.93,0-5.3,2.37-5.3,5.3c0,0.49,0.07,0.97,0.19,1.42c-1.44,0.38-2.5,1.69-2.5,3.25
				c0,0.42,0.08,0.82,0.22,1.19c-1.76,1.07-2.94,3-2.94,5.21c0,0.03-0.03,1.22,0.72,2.12C-67.14,111.48-66.03,110.26-64.58,109.7z"
				/>
		</g>
		<path class="st11" d="M36.68,133.58c0.24-3.59,3.23-6.44,6.89-6.44c2.14,0,4.05,0.97,5.31,2.5c1.08-1.03,2.54-1.66,4.15-1.66
			c1.55,0,2.96,0.59,4.03,1.55c0.94-2.1,3.04-3.57,5.49-3.57c3.32,0,6.01,2.69,6.01,6.01c0,0.56-0.08,1.1-0.22,1.61L36.68,133.58z"
			/>
		<path class="st11" d="M-103.5,134.31c0-0.05,0-0.11,0-0.16c0-1.63-0.87-3.05-2.17-3.83c0.1-0.27,0.16-0.57,0.16-0.87
			c0-1.15-0.78-2.11-1.84-2.39c0.09-0.33,0.14-0.68,0.14-1.05c0-2.15-1.74-3.9-3.9-3.9c-0.48,0-0.93,0.09-1.35,0.24
			c-0.06-1.46-1.26-2.63-2.74-2.63c-1.51,0-2.74,1.23-2.74,2.74c0,0.04,0,0.08,0,0.12c-0.01,0-0.03,0-0.04,0
			c-2.15,0-3.9,1.75-3.9,3.9c0,0.98,0.36,1.87,0.95,2.55c-0.79,0.41-1.34,1.24-1.34,2.2c0,0.29,0.05,0.58,0.15,0.84
			c-0.89,0.47-1.58,1.28-1.89,2.25H-103.5z"/>
		<path class="st11" d="M-177.32,134.31c0-0.05,0-0.11,0-0.16c0-1.63-0.87-3.05-2.17-3.83c0.1-0.27,0.16-0.57,0.16-0.87
			c0-1.15-0.78-2.11-1.84-2.39c0.09-0.33,0.14-0.68,0.14-1.05c0-2.15-1.75-3.9-3.9-3.9c-0.48,0-0.93,0.09-1.35,0.24
			c-0.06-1.46-1.26-2.63-2.74-2.63c-1.51,0-2.74,1.23-2.74,2.74c0,0.04,0,0.08,0,0.12c-0.01,0-0.03,0-0.04,0
			c-2.15,0-3.9,1.75-3.9,3.9c0,0.98,0.36,1.87,0.95,2.55c-0.79,0.41-1.34,1.24-1.34,2.2c0,0.29,0.05,0.58,0.15,0.84
			c-0.89,0.47-1.58,1.28-1.89,2.25H-177.32z"/>
		<path class="st11" d="M-90.08,134.31c0-0.04,0-0.08,0-0.13c0-1.29-0.69-2.43-1.72-3.05c0.08-0.22,0.13-0.45,0.13-0.69
			c0-0.91-0.62-1.68-1.46-1.9c0.07-0.26,0.11-0.54,0.11-0.83c0-1.71-1.39-3.1-3.1-3.1c-0.38,0-0.74,0.07-1.08,0.19
			c-0.04-1.16-1-2.09-2.18-2.09c-1.2,0-2.18,0.98-2.18,2.18c0,0.03,0,0.06,0,0.09c-0.01,0-0.02,0-0.03,0c-1.71,0-3.1,1.39-3.1,3.1
			c0,0.78,0.29,1.48,0.76,2.03c-0.63,0.33-1.06,0.99-1.06,1.75c0,0.23,0.04,0.46,0.12,0.67c-0.71,0.38-1.25,1.02-1.5,1.79H-90.08z"
			/>
		<path class="st11" d="M-3.34,133.29c0,0.25-0.04,0.5-0.1,0.74h-16.09c-0.21-0.43-0.33-0.91-0.33-1.42c0-0.22,0.02-0.44,0.07-0.66
			c-0.63-0.51-1.04-1.29-1.04-2.16c0-1.53,1.24-2.77,2.77-2.77c0.03,0,0.07,0,0.1,0c0.31-0.79,0.88-1.45,1.61-1.87
			c-0.01-0.06-0.01-0.12-0.01-0.18c0-1.07,0.87-1.94,1.94-1.94c0.13,0,0.26,0.01,0.39,0.04c0.49-1.44,1.85-2.47,3.45-2.47
			c1.73,0,3.17,1.2,3.55,2.81c0.25-0.12,0.53-0.19,0.82-0.19c1.05,0,1.89,0.85,1.89,1.89c0,0.37-0.11,0.72-0.29,1.01
			c1.07,0.46,1.85,1.46,2.01,2.65c0.66,0.39,1.1,1.11,1.1,1.93c0,1.11-0.81,2.03-1.87,2.21C-3.35,133.04-3.34,133.17-3.34,133.29z"
			/>
		<path class="st11" d="M52.91,128.02c0-2.17,1.76-3.93,3.93-3.93c0.05,0,0.09,0,0.14,0c0.43-1.13,1.25-2.06,2.29-2.65
			c-0.01-0.08-0.01-0.17-0.01-0.25c0-1.52,1.23-2.76,2.76-2.76c0.19,0,0.37,0.02,0.55,0.06c0.69-2.04,2.62-3.5,4.89-3.5
			c0.38,0,0.74,0.05,1.1,0.13v18.91H54.77c-0.3-0.6-0.48-1.29-0.48-2.01c0-0.32,0.03-0.63,0.1-0.93
			C53.49,130.37,52.91,129.26,52.91,128.02z"/>
		<path class="st11" d="M-259.03,133.29c0,0.25-0.04,0.5-0.1,0.74h-16.09c-0.21-0.43-0.33-0.91-0.33-1.42
			c0-0.22,0.02-0.44,0.07-0.66c-0.63-0.51-1.04-1.29-1.04-2.16c0-1.53,1.24-2.77,2.77-2.77c0.03,0,0.07,0,0.1,0
			c0.31-0.79,0.88-1.45,1.61-1.87c-0.01-0.06-0.01-0.12-0.01-0.18c0-1.07,0.87-1.94,1.94-1.94c0.13,0,0.26,0.01,0.39,0.04
			c0.49-1.44,1.85-2.47,3.45-2.47c1.73,0,3.17,1.2,3.55,2.81c0.25-0.12,0.53-0.19,0.82-0.19c1.05,0,1.89,0.85,1.89,1.89
			c0,0.37-0.11,0.72-0.29,1.01c1.07,0.46,1.85,1.46,2.01,2.65c0.66,0.39,1.1,1.11,1.1,1.93c0,1.11-0.81,2.03-1.87,2.21
			C-259.04,133.04-259.03,133.17-259.03,133.29z"/>
		<path class="st11" d="M-347.94,113.99c1.07-1.98,3.16-3.33,5.57-3.33c3.01,0,5.53,2.09,6.18,4.9c0.43-0.21,0.92-0.33,1.44-0.33
			c1.82,0,3.3,1.48,3.3,3.3c0,0.65-0.19,1.25-0.51,1.76c1.86,0.81,3.22,2.54,3.5,4.62c1.15,0.68,1.92,1.93,1.92,3.35
			c0,1.93-1.41,3.54-3.26,3.84c0.03,0.21,0.04,0.43,0.04,0.64c0,0.44-0.06,0.87-0.17,1.28h-18.01V113.99z"/>
		<path class="st11" d="M-314.56,133.29c0,0.25-0.04,0.5-0.1,0.74h-16.09c-0.21-0.43-0.34-0.91-0.34-1.42
			c0-0.22,0.02-0.44,0.07-0.66c-0.63-0.51-1.04-1.29-1.04-2.16c0-1.53,1.24-2.77,2.77-2.77c0.03,0,0.07,0,0.1,0
			c0.31-0.79,0.88-1.45,1.61-1.87c-0.01-0.06-0.01-0.12-0.01-0.18c0-1.07,0.87-1.94,1.94-1.94c0.13,0,0.26,0.01,0.39,0.04
			c0.49-1.44,1.85-2.47,3.45-2.47c1.73,0,3.17,1.2,3.55,2.81c0.25-0.12,0.53-0.19,0.82-0.19c1.05,0,1.89,0.85,1.89,1.89
			c0,0.37-0.11,0.72-0.29,1.01c1.07,0.46,1.85,1.46,2.01,2.65c0.66,0.39,1.1,1.11,1.1,1.93c0,1.11-0.81,2.03-1.87,2.21
			C-314.57,133.04-314.56,133.17-314.56,133.29z"/>
		<path class="st11" d="M-275.51,132.54c0,0.33-0.05,0.64-0.13,0.94h-20.62c-0.27-0.55-0.43-1.16-0.43-1.81
			c0-0.29,0.03-0.57,0.09-0.84c-0.81-0.65-1.33-1.65-1.33-2.77c0-1.96,1.59-3.55,3.55-3.55c0.04,0,0.08,0,0.13,0
			c0.39-1.02,1.13-1.86,2.07-2.39c-0.01-0.08-0.01-0.15-0.01-0.23c0-1.38,1.12-2.49,2.49-2.49c0.17,0,0.34,0.02,0.5,0.05
			c0.63-1.84,2.37-3.16,4.42-3.16c2.21,0,4.07,1.54,4.55,3.61c0.32-0.16,0.68-0.24,1.06-0.24c1.34,0,2.43,1.09,2.43,2.43
			c0,0.48-0.14,0.92-0.38,1.3c1.37,0.6,2.37,1.87,2.58,3.4c0.85,0.5,1.41,1.42,1.41,2.47c0,1.42-1.04,2.6-2.4,2.83
			C-275.52,132.22-275.51,132.38-275.51,132.54z"/>
		<path class="st12" d="M-39.91,44.45c0.64,0,1.26,0.06,1.87,0.17c1.23-5.71,6.31-9.99,12.38-9.99c0.14,0,0.29,0.01,0.43,0.01
			c1.94-3.05,5.35-5.08,9.23-5.08c3.25,0,6.17,1.42,8.17,3.67c1.29-0.33,2.64-0.51,4.02-0.51c7.46,0,13.74,5.06,15.59,11.94
			c0.69-0.14,1.41-0.22,2.14-0.22c5.77,0,10.45,4.68,10.45,10.45S19.7,65.35,13.93,65.35c-3.17,0-6.01-1.41-7.92-3.64
			c-2.72,2.08-6.12,3.32-9.81,3.32c-0.84,0-1.67-0.06-2.47-0.19c-2.33,2.09-5.4,3.36-8.77,3.36c-5.56,0-10.32-3.46-12.24-8.34
			c-1.06-0.14-2.08-0.4-3.05-0.79c-1.61,3.69-5.29,6.28-9.58,6.28c-5.77,0-10.45-4.68-10.45-10.45S-45.68,44.45-39.91,44.45z"/>
		<path class="st13" d="M23.61,19.5c0.31,0,0.62,0.03,0.92,0.08c0.61-2.81,3.1-4.91,6.09-4.91c0.07,0,0.14,0,0.21,0.01
			c0.95-1.5,2.63-2.5,4.54-2.5c1.6,0,3.03,0.7,4.02,1.81c0.63-0.16,1.3-0.25,1.98-0.25c3.67,0,6.76,2.49,7.67,5.87
			c0.34-0.07,0.69-0.11,1.05-0.11c2.84,0,5.14,2.3,5.14,5.14s-2.3,5.14-5.14,5.14c-1.56,0-2.96-0.7-3.9-1.79
			c-1.34,1.03-3.01,1.64-4.83,1.64c-0.41,0-0.82-0.03-1.22-0.09c-1.14,1.03-2.66,1.65-4.31,1.65c-2.74,0-5.08-1.7-6.02-4.1
			c-0.52-0.07-1.02-0.2-1.5-0.39c-0.79,1.82-2.6,3.09-4.71,3.09c-2.84,0-5.14-2.3-5.14-5.14S20.77,19.5,23.61,19.5z"/>
		<path class="st13" d="M-79.1,15.01c0.48,0,0.94,0.05,1.39,0.13c0.92-4.26,4.7-7.45,9.23-7.45c0.11,0,0.21,0,0.32,0.01
			c1.45-2.28,3.99-3.79,6.88-3.79c2.42,0,4.6,1.06,6.09,2.74c0.96-0.25,1.97-0.38,3-0.38c5.57,0,10.25,3.78,11.63,8.9
			c0.52-0.11,1.05-0.16,1.6-0.16c4.31,0,7.79,3.49,7.79,7.79s-3.49,7.79-7.79,7.79c-2.36,0-4.48-1.05-5.91-2.72
			c-2.03,1.55-4.56,2.48-7.32,2.48c-0.63,0-1.24-0.05-1.84-0.14c-1.74,1.56-4.03,2.5-6.54,2.5c-4.15,0-7.69-2.58-9.12-6.22
			c-0.79-0.1-1.55-0.3-2.27-0.59c-1.2,2.75-3.95,4.68-7.15,4.68c-4.31,0-7.79-3.49-7.79-7.79S-83.4,15.01-79.1,15.01z"/>
		<path class="st13" d="M6.21,17.86c0.64,0,1.26,0.06,1.87,0.17c1.23-5.71,6.31-9.99,12.38-9.99c0.14,0,0.29,0.01,0.43,0.01
			c1.94-3.05,5.35-5.08,9.23-5.08c3.25,0,6.17,1.42,8.17,3.67c1.29-0.33,2.64-0.51,4.02-0.51c7.46,0,13.74,5.06,15.59,11.94
			c0.69-0.14,1.41-0.22,2.14-0.22c5.77,0,10.45,4.68,10.45,10.45s-4.68,10.45-10.45,10.45c-3.17,0-6.01-1.41-7.92-3.64
			c-2.72,2.08-6.12,3.32-9.81,3.32c-0.84,0-1.67-0.06-2.47-0.19c-2.33,2.09-5.4,3.36-8.77,3.36c-5.56,0-10.32-3.46-12.24-8.34
			c-1.06-0.14-2.08-0.4-3.05-0.79c-1.61,3.69-5.29,6.28-9.58,6.28c-5.77,0-10.45-4.68-10.45-10.45S0.44,17.86,6.21,17.86z"/>
		<path class="st14" d="M14.63,18.18c0.44,0,0.87,0.04,1.29,0.12c0.85-3.94,4.35-6.89,8.54-6.89c0.1,0,0.2,0,0.3,0.01
			c1.34-2.1,3.68-3.5,6.36-3.5c2.24,0,4.25,0.98,5.63,2.53c0.89-0.23,1.82-0.35,2.77-0.35c5.14,0,9.47,3.49,10.75,8.23
			c0.48-0.1,0.97-0.15,1.48-0.15c3.98,0,7.2,3.23,7.2,7.2s-3.23,7.2-7.2,7.2c-2.19,0-4.14-0.97-5.46-2.51
			c-1.88,1.44-4.22,2.29-6.76,2.29c-0.58,0-1.15-0.04-1.71-0.13c-1.6,1.44-3.72,2.31-6.05,2.31c-3.84,0-7.11-2.38-8.43-5.75
			c-0.73-0.09-1.44-0.28-2.1-0.54c-1.11,2.55-3.65,4.33-6.61,4.33c-3.98,0-7.2-3.23-7.2-7.2S10.65,18.18,14.63,18.18z"/>
		<g class="st0">
			<rect x="-347.94" y="133.36" class="st15" width="416.5" height="7.71"/>
			<rect x="-347.94" y="159.89" class="st15" width="416.5" height="7.71"/>
			<g class="st2">
				<rect x="-347.94" y="140.91" class="st16" width="416.5" height="19.9"/>
				<rect x="-347.94" y="140.91" class="st17" width="416.5" height="1.24"/>
				<rect x="-347.94" y="159.63" class="st17" width="416.5" height="1.24"/>
				<path class="st17" d="M55.15,149h13.41v1.24H55.15V149z M34.08,150.23h13.41V149H34.08V150.23z M13.01,150.23h13.41V149H13.01
					V150.23z M-8.05,150.23H5.35V149H-8.05V150.23z M-29.12,150.23h13.41V149h-13.41V150.23z M-50.19,150.23h13.41V149h-13.41
					V150.23z M-71.26,150.23h13.41V149h-13.41V150.23z M-92.33,150.23h13.41V149h-13.41V150.23z M-113.4,150.23h13.41V149h-13.41
					V150.23z M-134.47,150.23h13.41V149h-13.41V150.23z M-155.54,150.23h13.41V149h-13.41V150.23z M-176.61,150.23h13.41V149h-13.41
					V150.23z M-197.68,150.23h13.41V149h-13.41V150.23z M-218.75,150.23h13.41V149h-13.41V150.23z M-239.82,150.23h13.41V149h-13.41
					V150.23z M-260.89,150.23h13.41V149h-13.41V150.23z M-281.95,150.23h13.41V149h-13.41V150.23z M-303.02,150.23h13.41V149h-13.41
					V150.23z M-324.09,150.23h13.41V149h-13.41V150.23z M-345.16,150.23h13.41V149h-13.41V150.23z"/>
			</g>
		</g>
		<path class="st13" d="M-124.75,32.12c0.28,0,0.55,0.03,0.82,0.09c0.99-2.69,3.57-4.62,6.61-4.62c1.01,0,1.96,0.21,2.83,0.59
			c0.01-0.01,0.02-0.01,0.02-0.02c-0.05-0.27-0.08-0.55-0.08-0.83c0-2.5,2.03-4.53,4.53-4.53c1.91,0,3.54,1.18,4.21,2.86
			c0.35-0.05,0.71-0.09,1.08-0.09c3.31,0,6.1,2.21,7,5.23c0.71-0.44,1.55-0.7,2.44-0.7c2.57,0,4.66,2.09,4.66,4.66
			c0,2.57-2.09,4.66-4.66,4.66c-0.2,0-0.4-0.02-0.59-0.04c-0.66,1.22-1.95,2.06-3.44,2.06c-0.28,0-0.56-0.03-0.82-0.09
			c-0.78,0.97-1.99,1.6-3.33,1.6c-0.09,0-0.18-0.01-0.27-0.01c-1.25,1.25-2.98,2.03-4.9,2.03c-1.29,0-2.5-0.36-3.53-0.98
			c-0.59,0.45-1.33,0.72-2.13,0.72c-1.78,0-3.25-1.33-3.49-3.04c-1.92-0.13-3.63-1.02-4.82-2.38c-0.61,0.4-1.35,0.64-2.14,0.64
			c-2.16,0-3.9-1.75-3.9-3.9S-126.91,32.12-124.75,32.12z"/>
		<path class="st12" d="M-183.99,10.53c0.28,0,0.55,0.03,0.82,0.09c0.99-2.69,3.57-4.62,6.61-4.62c1.01,0,1.96,0.21,2.83,0.59
			c0.01-0.01,0.02-0.01,0.02-0.02c-0.05-0.27-0.08-0.55-0.08-0.83c0-2.5,2.03-4.53,4.53-4.53c1.91,0,3.54,1.18,4.21,2.86
			c0.35-0.05,0.71-0.09,1.08-0.09c3.31,0,6.1,2.21,7,5.23c0.71-0.44,1.55-0.7,2.44-0.7c2.57,0,4.66,2.09,4.66,4.66
			c0,2.57-2.09,4.66-4.66,4.66c-0.2,0-0.4-0.02-0.59-0.04c-0.66,1.22-1.95,2.06-3.44,2.06c-0.28,0-0.56-0.03-0.82-0.09
			c-0.78,0.97-1.99,1.6-3.33,1.6c-0.09,0-0.18-0.01-0.27-0.01c-1.25,1.25-2.98,2.03-4.9,2.03c-1.29,0-2.5-0.36-3.53-0.98
			c-0.59,0.45-1.33,0.72-2.13,0.72c-1.78,0-3.25-1.33-3.49-3.04c-1.92-0.13-3.63-1.02-4.82-2.38c-0.61,0.4-1.35,0.64-2.14,0.64
			c-2.16,0-3.9-1.75-3.9-3.9S-186.14,10.53-183.99,10.53z"/>
		<path class="st13" d="M-318.63,46.59c0.42,0,0.82,0.05,1.21,0.13c1.47-4,5.3-6.85,9.8-6.85c1.49,0,2.91,0.32,4.19,0.88
			c0.01-0.01,0.02-0.02,0.03-0.03c-0.07-0.4-0.12-0.81-0.12-1.23c0-3.71,3.01-6.72,6.72-6.72c2.83,0,5.25,1.76,6.24,4.24
			c0.52-0.08,1.05-0.13,1.6-0.13c4.91,0,9.05,3.27,10.38,7.76c1.05-0.65,2.29-1.03,3.62-1.03c3.82,0,6.91,3.09,6.91,6.91
			s-3.09,6.91-6.91,6.91c-0.3,0-0.59-0.03-0.88-0.06c-0.98,1.81-2.89,3.05-5.1,3.05c-0.42,0-0.82-0.05-1.22-0.13
			c-1.16,1.44-2.94,2.37-4.94,2.37c-0.13,0-0.26-0.01-0.39-0.02c-1.86,1.86-4.43,3.01-7.26,3.01c-1.92,0-3.7-0.53-5.24-1.45
			c-0.88,0.67-1.97,1.07-3.16,1.07c-2.64,0-4.83-1.97-5.17-4.52c-2.85-0.19-5.38-1.51-7.15-3.53c-0.91,0.6-2,0.95-3.17,0.95
			c-3.2,0-5.79-2.59-5.79-5.79C-324.42,49.18-321.83,46.59-318.63,46.59z"/>
	</g>
</g>
<g class="st0">
	<g class="st2">
		<path class="st18" d="M-219.52,113.23L-219.52,113.23l0-47.58c-0.41-0.14-0.73-0.46-0.88-0.86h2.7c-0.16,0.43-0.51,0.76-0.96,0.89
			v47.55l-1.16,3.8l-0.8-0.24L-219.52,113.23z"/>
		<polygon class="st19" points="-218.5,66.25 -218.5,66.31 -217.15,66.31 -217.15,65.84 -217.05,65.84 -217.05,67.29 -217.15,67.29 
			-217.15,66.4 -218.5,66.4 -218.5,66.64 -219.63,66.64 -219.63,66.25 		"/>
		<polygon class="st19" points="-218.5,89.83 -218.5,89.89 -217.15,89.89 -217.15,89.42 -217.05,89.42 -217.05,90.86 -217.15,90.86 
			-217.15,89.98 -218.5,89.98 -218.5,90.22 -219.63,90.22 -219.63,89.83 		"/>
		<polygon class="st19" points="-218.5,112.26 -218.5,112.32 -217.15,112.32 -217.15,111.85 -217.05,111.85 -217.05,113.3 
			-217.15,113.3 -217.15,112.41 -218.5,112.41 -218.5,112.65 -219.63,112.65 -219.63,112.26 		"/>
	</g>
	<polygon class="st20" points="-151.59,64.2 -151.59,63.1 -185.18,43.71 -218.78,63.1 -218.78,64.2 	"/>
	<polygon class="st21" points="-153.32,119.02 -153.32,64.1 -185.18,45.71 -217.05,64.1 -217.05,119.02 	"/>
	<polygon class="st22" points="-185.17,119.02 -153.32,119.02 -153.32,64.1 -185.17,45.71 	"/>
	<polygon class="st23" points="-185.17,45.72 -185.18,45.71 -217.05,64.1 -217.05,73.27 -185.18,54.87 -185.17,47.02 	"/>
	<polygon class="st24" points="-155.86,67.27 -180.72,52.92 -180.72,87.08 -155.86,87.08 	"/>
	<polygon class="st25" points="-179.85,86.21 -179.85,54.42 -156.73,67.77 -156.73,86.21 	"/>
	<polygon class="st26" points="-178.98,56.49 -156.73,69.33 -156.73,67.77 -179.85,54.42 -179.85,86.21 -178.98,86.21 	"/>
	<g class="st2">
		<polygon class="st19" points="-185.19,87.63 -217.1,87.63 -222.27,93.98 -185.19,93.98 		"/>
		<rect x="-222.26" y="93.97" class="st27" width="37.09" height="1.08"/>
		<rect x="-217.04" y="95.05" class="st28" width="31.87" height="1.08"/>
	</g>
	<rect x="-174.78" y="56.64" class="st24" width="0.93" height="29.97"/>
	<rect x="-162.62" y="64.08" class="st24" width="0.93" height="22.54"/>
	<rect x="-180.34" y="67.8" class="st24" width="24.41" height="0.93"/>
	<rect x="-180.72" y="93.05" class="st24" width="24.86" height="23.54"/>
	<rect x="-179.85" y="93.85" class="st29" width="23.12" height="21.87"/>
	<polygon class="st26" points="-178.98,94.87 -156.73,94.87 -156.73,93.85 -179.85,93.85 -179.85,115.72 -178.98,115.72 	"/>
	<rect x="-174.78" y="93.42" class="st24" width="0.93" height="22.71"/>
	<rect x="-162.62" y="93.58" class="st24" width="0.93" height="22.54"/>
	<rect x="-180.34" y="98.45" class="st24" width="24.41" height="0.93"/>
	<rect x="-212.83" y="68.02" class="st24" width="24.86" height="16.02"/>
	<polygon class="st25" points="-211.96,68.82 -211.96,83.17 -203.92,83.17 -203.81,87.09 -195.94,87.2 -195.67,83.17 -188.84,83.17 
		-188.84,68.82 	"/>
	<polygon class="st26" points="-211.09,69.84 -188.84,69.84 -188.84,68.82 -211.96,68.82 -211.96,83.17 -211.09,83.17 	"/>
	<rect x="-204.17" y="68.39" class="st24" width="0.93" height="19.24"/>
	<rect x="-196.25" y="68.6" class="st24" width="0.93" height="19.03"/>
	<rect x="-214.21" y="98.25" class="st24" width="8.16" height="16.02"/>
	<rect x="-213.41" y="99.12" class="st29" width="6.6" height="14.35"/>
	<rect x="-204.11" y="86.73" class="st24" width="8.16" height="0.93"/>
	<path class="st24" d="M-217.04,78.52v9.22h31.82v-9.22H-217.04z M-214.02,86.76h-2.27v-6.73h2.27V86.76z M-210.93,86.76h-2.27
		v-6.73h2.27V86.76z M-207.84,86.76h-2.27v-6.73h2.27V86.76z M-204.75,86.76h-2.27v-6.73h2.27V86.76z M-201.65,86.76h-2.27v-6.73
		h2.27V86.76z M-198.56,86.76h-2.27v-6.73h2.27V86.76z M-195.47,86.76h-2.27v-6.73h2.27V86.76z M-192.38,86.76h-2.27v-6.73h2.27
		V86.76z M-189.28,86.76h-2.27v-6.73h2.27V86.76z M-186.19,86.76h-2.27v-6.73h2.27V86.76z"/>
	<polygon class="st26" points="-212.9,99.88 -206.81,99.88 -206.81,99.12 -213.41,99.12 -213.41,113.48 -212.9,113.48 	"/>
	<rect x="-204.08" y="98.25" class="st24" width="8.16" height="20.63"/>
	<rect x="-203.29" y="99.12" class="st29" width="6.6" height="18.96"/>
	<polygon class="st26" points="-202.78,99.88 -196.68,99.88 -196.68,99.12 -203.29,99.12 -203.29,118.08 -202.78,118.08 	"/>
	<rect x="-195.92" y="98.25" class="st24" width="8.16" height="20.63"/>
	<rect x="-195.12" y="99.12" class="st29" width="6.6" height="18.96"/>
	<polygon class="st26" points="-194.62,99.88 -188.52,99.88 -188.52,99.12 -195.12,99.12 -195.12,118.08 -194.62,118.08 	"/>
	<rect x="-203.7" y="114.03" class="st24" width="15.59" height="0.81"/>
	<rect x="-203.7" y="101.95" class="st24" width="15.59" height="0.81"/>
	<rect x="-218.56" y="118.98" class="st30" width="66.5" height="0.76"/>
	<rect x="-218.56" y="118.98" class="st31" width="32.93" height="0.76"/>
	<g class="st2">
		<path class="st18" d="M-150.86,113.23L-150.86,113.23l0-47.58c0.41-0.14,0.73-0.46,0.88-0.86h-2.7c0.16,0.43,0.51,0.76,0.96,0.89
			v47.55l1.16,3.8l0.8-0.24L-150.86,113.23z"/>
		<polygon class="st19" points="-151.88,66.25 -151.88,66.31 -153.22,66.31 -153.22,65.84 -153.33,65.84 -153.33,67.29 
			-153.22,67.29 -153.22,66.4 -151.88,66.4 -151.88,66.64 -150.74,66.64 -150.74,66.25 		"/>
		<polygon class="st19" points="-151.88,89.83 -151.88,89.89 -153.22,89.89 -153.22,89.42 -153.33,89.42 -153.33,90.86 
			-153.22,90.86 -153.22,89.98 -151.88,89.98 -151.88,90.22 -150.74,90.22 -150.74,89.83 		"/>
		<polygon class="st19" points="-151.88,112.26 -151.88,112.32 -153.22,112.32 -153.22,111.85 -153.33,111.85 -153.33,113.3 
			-153.22,113.3 -153.22,112.41 -151.88,112.41 -151.88,112.65 -150.74,112.65 -150.74,112.26 		"/>
	</g>
</g>
<g class="st0">
	<g class="st2">
		<rect x="-63.59" y="88.17" class="st32" width="28.51" height="31.83"/>
		<rect x="-58.91" y="101.63" class="st33" width="20.75" height="18.32"/>
		<rect x="-57.48" y="103.1" class="st34" width="17.89" height="1.45"/>
		<rect x="-57.48" y="105.21" class="st34" width="17.89" height="1.45"/>
		<rect x="-57.48" y="107.32" class="st34" width="17.89" height="1.45"/>
		<rect x="-57.48" y="109.43" class="st34" width="17.89" height="1.45"/>
		<rect x="-57.48" y="111.53" class="st34" width="17.89" height="1.45"/>
		<rect x="-57.48" y="113.64" class="st34" width="17.89" height="1.45"/>
		<rect x="-57.48" y="115.75" class="st34" width="17.89" height="1.45"/>
		<rect x="-57.48" y="117.86" class="st34" width="17.89" height="1.45"/>
		<polygon class="st35" points="-58.09,102.8 -38.17,102.8 -38.17,101.63 -58.91,101.63 -58.91,119.95 -58.09,119.95 		"/>
	</g>
	<rect x="-142.04" y="74.31" class="st36" width="17.09" height="44.36"/>
	<rect x="-131.62" y="94.21" class="st37" width="68.7" height="24.46"/>
	<polygon class="st36" points="-79.75,73.56 -79.75,63.31 -131.62,63.31 -131.62,94.57 -62.81,94.57 -62.81,73.56 	"/>
	<rect x="-131.62" y="94.21" class="st38" width="34.2" height="1.53"/>
	<polygon class="st39" points="-92.32,94.55 -97.42,94.55 -97.42,95.7 -131.62,95.7 -131.62,99.49 -90.76,103.97 	"/>
	<rect x="-131.62" y="63.31" class="st40" width="34.18" height="31.26"/>
	<polygon class="st41" points="-92.34,94.57 -97.37,94.57 -97.37,63.31 -96.38,63.31 	"/>
	<rect x="-144.15" y="117.64" class="st42" width="12.47" height="2.34"/>
	<rect x="-98.02" y="117.64" class="st42" width="38.49" height="2.34"/>
	<rect x="-37.4" y="117.64" class="st42" width="3.72" height="2.34"/>
	<rect x="-132.15" y="117.64" class="st21" width="35.42" height="2.34"/>
	<g class="st2">
		<rect x="-111.92" y="100.89" class="st43" width="5.19" height="16.7"/>
		<rect x="-111.28" y="101.6" class="st44" width="3.93" height="15.34"/>
		<polygon class="st45" points="-110.87,102.22 -107.35,102.22 -107.35,101.6 -111.28,101.6 -111.28,116.95 -110.87,116.95 		"/>
		<rect x="-106.73" y="100.89" class="st43" width="5.36" height="16.7"/>
		<rect x="-106.08" y="101.6" class="st44" width="4.1" height="15.34"/>
		<polygon class="st45" points="-105.67,102.22 -101.98,102.22 -101.98,101.6 -106.08,101.6 -106.08,116.95 -105.67,116.95 		"/>
		<rect x="-111.61" y="113.67" class="st43" width="9.96" height="0.66"/>
		<rect x="-111.61" y="103.89" class="st43" width="9.96" height="0.66"/>
	</g>
	<g class="st2">
		<rect x="-92.69" y="100.89" class="st43" width="4.57" height="13.11"/>
		<rect x="-91.99" y="101.6" class="st44" width="3.16" height="11.71"/>
		<polygon class="st45" points="-91.45,102.25 -88.83,102.25 -88.83,101.6 -91.99,101.6 -91.99,113.3 -91.45,113.3 		"/>
	</g>
	<g class="st2">
		<rect x="-92.69" y="73.85" class="st43" width="4.57" height="13.11"/>
		<rect x="-91.99" y="74.55" class="st44" width="3.16" height="11.71"/>
		<polygon class="st45" points="-91.45,75.2 -88.83,75.2 -88.83,74.55 -91.99,74.55 -91.99,86.26 -91.45,86.26 		"/>
	</g>
	<g class="st2">
		<rect x="-78.52" y="79.35" class="st43" width="13.11" height="4.57"/>
		<rect x="-77.82" y="80.05" class="st44" width="11.71" height="3.16"/>
		<polygon class="st45" points="-77.17,80.59 -77.17,83.21 -77.82,83.21 -77.82,80.05 -66.11,80.05 -66.11,80.59 		"/>
	</g>
	<g class="st2">
		<rect x="-58.92" y="94.45" class="st43" width="5.5" height="4.57"/>
		<rect x="-58.22" y="95.16" class="st44" width="4.1" height="3.16"/>
		<polygon class="st45" points="-57.57,95.7 -57.57,98.32 -58.22,98.32 -58.22,95.16 -54.12,95.16 -54.12,95.7 		"/>
	</g>
	<g class="st2">
		<rect x="-51.3" y="94.45" class="st43" width="5.5" height="4.57"/>
		<rect x="-50.6" y="95.16" class="st44" width="4.1" height="3.16"/>
		<polygon class="st45" points="-49.95,95.7 -49.95,98.32 -50.6,98.32 -50.6,95.16 -46.5,95.16 -46.5,95.7 		"/>
	</g>
	<g class="st2">
		<rect x="-43.69" y="94.45" class="st43" width="5.5" height="4.57"/>
		<rect x="-42.99" y="95.16" class="st44" width="4.1" height="3.16"/>
		<polygon class="st45" points="-42.34,95.7 -42.34,98.32 -42.99,98.32 -42.99,95.16 -38.89,95.16 -38.89,95.7 		"/>
	</g>
	<g class="st2">
		<rect x="-106.39" y="73.85" class="st43" width="4.57" height="13.11"/>
		<rect x="-105.69" y="74.55" class="st46" width="3.16" height="11.71"/>
		<polygon class="st45" points="-105.14,75.2 -102.53,75.2 -102.53,74.55 -105.69,74.55 -105.69,86.26 -105.14,86.26 		"/>
	</g>
	<g class="st2">
		<rect x="-113.41" y="73.85" class="st43" width="4.57" height="13.11"/>
		<rect x="-112.71" y="74.55" class="st46" width="3.16" height="11.71"/>
		<polygon class="st45" points="-112.17,75.2 -109.55,75.2 -109.55,74.55 -112.71,74.55 -112.71,86.26 -112.17,86.26 		"/>
	</g>
	<g class="st2">
		<rect x="-120.44" y="73.85" class="st43" width="4.57" height="13.11"/>
		<rect x="-119.74" y="74.55" class="st46" width="3.16" height="11.71"/>
		<polygon class="st45" points="-119.19,75.2 -116.58,75.2 -116.58,74.55 -119.74,74.55 -119.74,86.26 -119.19,86.26 		"/>
	</g>
	<g class="st2">
		<rect x="-127.46" y="73.85" class="st43" width="4.57" height="13.11"/>
		<rect x="-126.76" y="74.55" class="st46" width="3.16" height="11.71"/>
		<polygon class="st45" points="-126.22,75.2 -123.6,75.2 -123.6,74.55 -126.76,74.55 -126.76,86.26 -126.22,86.26 		"/>
	</g>
	<g class="st2">
		<rect x="-84" y="100.89" class="st43" width="4.57" height="13.11"/>
		<rect x="-83.29" y="101.6" class="st46" width="3.16" height="11.71"/>
		<polygon class="st45" points="-82.75,102.25 -80.13,102.25 -80.13,101.6 -83.29,101.6 -83.29,113.3 -82.75,113.3 		"/>
	</g>
	<g class="st2">
		<rect x="-75.3" y="100.89" class="st43" width="4.57" height="13.11"/>
		<rect x="-74.6" y="101.6" class="st44" width="3.16" height="11.71"/>
		<polygon class="st45" points="-74.06,102.25 -71.44,102.25 -71.44,101.6 -74.6,101.6 -74.6,113.3 -74.06,113.3 		"/>
	</g>
</g>
<g class="st0">
	<g class="st2">
		<polygon class="st47" points="87.5,84.25 87.5,83.39 29.71,54.97 -28.08,83.39 -28.08,84.25 		"/>
		<polygon class="st48" points="84.51,118.87 84.51,84.17 29.71,57.83 -25.1,84.17 -25.1,118.87 		"/>
		<rect x="-25.1" y="95.16" class="st49" width="109.61" height="23.71"/>
		<polygon class="st47" points="-24.37,95.71 -24.37,118.87 -18.87,118.87 -18.87,101.8 6.22,101.8 6.22,118.87 58.12,118.87 
			58.12,101.43 81.79,101.43 81.79,118.3 83.88,118.3 83.88,95.71 		"/>
		<polygon class="st50" points="80.77,118.87 84.51,118.87 84.51,95.16 51.64,95.16 51.64,98.9 80.77,98.9 		"/>
		<polygon class="st50" points="-21.36,118.87 -21.36,98.9 7.19,98.9 7.19,95.16 -25.1,95.16 -25.1,118.87 		"/>
		<g>
			<g>
				<polygon class="st51" points="5.6,71.54 -21.29,84.46 -21.29,93.27 5.6,93.27 				"/>
				<polygon class="st44" points="-20.67,92.64 -20.67,84.86 4.97,72.53 4.97,92.64 				"/>
			</g>
			<polygon class="st52" points="-20.07,85.75 4.97,73.71 4.97,72.53 -20.67,84.86 -20.67,92.64 -20.07,92.64 			"/>
			<polygon class="st51" points="-2.78,93.01 -2.78,75.82 -3.44,76.15 -3.44,93.01 			"/>
			<polygon class="st51" points="-12.33,80.37 -12.33,93.01 -11.67,93.01 -11.67,80.09 			"/>
			<polygon class="st51" points="-20.69,84.31 -20.9,84.97 5.38,84.97 5.38,84.31 			"/>
		</g>
		<g>
			<g>
				<polygon class="st51" points="54.28,71.54 81.16,84.46 81.16,93.27 54.28,93.27 				"/>
				<polygon class="st44" points="80.54,92.64 80.54,84.86 54.9,72.53 54.9,92.64 				"/>
				<polygon class="st52" points="55.55,74.07 80.54,86.09 80.54,84.86 54.9,72.53 54.9,92.64 55.55,92.64 				"/>
			</g>
			<polygon class="st51" points="62.65,93.01 62.65,75.82 63.31,76.15 63.31,93.01 			"/>
			<polygon class="st51" points="72.2,80.37 72.2,93.01 71.54,93.01 71.54,80.09 			"/>
			<polygon class="st51" points="80.56,84.31 80.78,84.97 54.49,84.97 54.49,84.31 			"/>
		</g>
		<polygon class="st28" points="84.51,86.04 84.51,84.17 29.71,57.83 -25.1,84.17 -25.1,86.04 29.71,59.7 		"/>
		<g>
			<rect x="5.6" y="70.29" class="st50" width="48.58" height="48.58"/>
			<rect x="10.58" y="75.27" class="st51" width="38.61" height="38.61"/>
			<rect x="11.2" y="75.89" class="st44" width="37.37" height="37.37"/>
			<polygon class="st52" points="11.93,77.03 48.57,77.03 48.57,75.89 11.2,75.89 11.2,113.26 11.93,113.26 			"/>
			<rect x="29.49" y="75.33" class="st51" width="0.66" height="38.17"/>
			<rect x="10.75" y="94.16" class="st51" width="38.17" height="0.66"/>
			<rect x="10.75" y="84.3" class="st51" width="38.17" height="0.66"/>
			<rect x="10.75" y="103.94" class="st51" width="38.17" height="0.66"/>
			<rect x="39.31" y="75.33" class="st51" width="0.66" height="38.17"/>
			<rect x="19.68" y="75.33" class="st51" width="0.66" height="38.17"/>
		</g>
		<rect x="-18.69" y="101.84" class="st51" width="24.08" height="12.04"/>
		<rect x="-18.07" y="102.46" class="st46" width="22.84" height="10.8"/>
		<polygon class="st52" points="-17.47,103.46 4.77,103.46 4.77,102.46 -18.07,102.46 -18.07,113.26 -17.47,113.26 		"/>
		<rect x="-11.19" y="102.17" class="st51" width="0.66" height="11.39"/>
		<rect x="-2.67" y="102.17" class="st51" width="0.66" height="11.39"/>
		<g>
			<rect x="61.44" y="101.73" class="st51" width="15.36" height="16.92"/>
			<rect x="62.06" y="102.35" class="st46" width="14.12" height="15.67"/>
			<polygon class="st52" points="62.66,103.35 76.18,103.35 76.18,102.35 62.06,102.35 62.06,118.03 62.66,118.03 			"/>
			<rect x="68.42" y="102.06" class="st51" width="1.72" height="16.28"/>
		</g>
	</g>
	<rect x="-26.01" y="118.74" class="st53" width="111.47" height="1.59"/>
</g>
<g class="st0">
	<rect x="-311.64" y="65.09" class="st21" width="58.23" height="55.29"/>
	<rect x="-313.91" y="118.82" class="st54" width="60.51" height="1.73"/>
	<polygon class="st55" points="-256.53,66.51 -314.76,66.51 -294.57,51.44 -256.53,51.44 	"/>
	<polygon class="st54" points="-235.91,66.68 -235.91,64.52 -260.66,42.33 -285.4,64.52 -285.4,66.68 	"/>
	<polygon class="st56" points="-237.19,120.38 -284.12,120.38 -284.12,65.09 -260.66,44.04 -237.19,65.09 	"/>
	<g class="st2">
		<rect x="-278.67" y="71.33" class="st14" width="15.73" height="15.5"/>
		<rect x="-278.04" y="71.91" class="st46" width="14.47" height="14.29"/>
		<polygon class="st45" points="-277.41,72.65 -263.57,72.65 -263.57,71.91 -278.04,71.91 -278.04,86.2 -277.41,86.2 		"/>
		<rect x="-271.18" y="71.59" class="st14" width="0.68" height="14.9"/>
		<rect x="-278.4" y="75.24" class="st14" width="15.41" height="0.68"/>
	</g>
	<g class="st2">
		<rect x="-308.11" y="71.33" class="st14" width="15.73" height="15.5"/>
		<rect x="-307.48" y="71.91" class="st44" width="14.47" height="14.29"/>
		<polygon class="st45" points="-306.85,72.65 -293,72.65 -293,71.91 -307.48,71.91 -307.48,86.2 -306.85,86.2 		"/>
		<rect x="-300.62" y="71.59" class="st14" width="0.68" height="14.9"/>
		<rect x="-307.84" y="75.24" class="st14" width="15.41" height="0.68"/>
	</g>
	<g class="st2">
		<rect x="-265.87" y="51.7" class="st14" width="9.7" height="10.47"/>
		<rect x="-265.24" y="52.28" class="st46" width="8.44" height="9.26"/>
		<polygon class="st45" points="-264.62,53.02 -256.81,53.02 -256.81,52.28 -265.24,52.28 -265.24,61.55 -264.62,61.55 		"/>
	</g>
	<g class="st2">
		<rect x="-307.29" y="96.21" class="st14" width="4.68" height="17.87"/>
		<rect x="-306.75" y="96.72" class="st44" width="3.59" height="16.82"/>
		<polygon class="st45" points="-306.2,97.36 -303.16,97.36 -303.16,96.72 -306.75,96.72 -306.75,113.53 -306.2,113.53 		"/>
	</g>
	<g class="st2">
		<rect x="-290.55" y="96.21" class="st14" width="4.68" height="17.87"/>
		<rect x="-290" y="96.72" class="st44" width="3.59" height="16.82"/>
		<polygon class="st45" points="-289.46,97.36 -286.42,97.36 -286.42,96.72 -290,96.72 -290,113.53 -289.46,113.53 		"/>
	</g>
	<g class="st2">
		<rect x="-258.09" y="71.33" class="st14" width="15.73" height="15.5"/>
		<rect x="-257.46" y="71.91" class="st44" width="14.47" height="14.29"/>
		<polygon class="st45" points="-256.83,72.65 -242.98,72.65 -242.98,71.91 -257.46,71.91 -257.46,86.2 -256.83,86.2 		"/>
		<rect x="-250.6" y="71.59" class="st14" width="0.68" height="14.9"/>
		<rect x="-257.82" y="75.24" class="st14" width="15.41" height="0.68"/>
	</g>
	<g class="st2">
		<rect x="-278.67" y="95.86" class="st14" width="15.73" height="15.5"/>
		<rect x="-278.04" y="96.44" class="st44" width="14.47" height="14.29"/>
		<polygon class="st45" points="-277.41,97.18 -263.57,97.18 -263.57,96.44 -278.04,96.44 -278.04,110.73 -277.41,110.73 		"/>
		<rect x="-271.18" y="96.12" class="st14" width="0.68" height="14.9"/>
		<rect x="-278.4" y="99.77" class="st14" width="15.41" height="0.68"/>
	</g>
	<g class="st2">
		<rect x="-258.09" y="95.86" class="st14" width="15.73" height="15.5"/>
		<rect x="-257.46" y="96.44" class="st44" width="14.47" height="14.29"/>
		<polygon class="st45" points="-256.83,97.18 -242.98,97.18 -242.98,96.44 -257.46,96.44 -257.46,110.73 -256.83,110.73 		"/>
		<rect x="-250.6" y="96.12" class="st14" width="0.68" height="14.9"/>
		<rect x="-257.82" y="99.77" class="st14" width="15.41" height="0.68"/>
	</g>
	<rect x="-314.83" y="66.51" class="st54" width="30.73" height="1.07"/>
	<rect x="-284.26" y="118.27" class="st55" width="47.92" height="2.28"/>
	<polygon class="st55" points="-284.12,87.06 -312.49,87.06 -318.19,93.14 -284.12,93.14 	"/>
	<rect x="-318.25" y="93.14" class="st54" width="34.13" height="0.84"/>
	<rect x="-311.64" y="93.99" class="st57" width="27.52" height="0.84"/>
	<rect x="-311.64" y="67.6" class="st57" width="27.52" height="0.84"/>
	<g class="st2">
		<g>
			<rect x="-301.2" y="96.18" class="st14" width="8.7" height="17.98"/>
			<rect x="-300.78" y="96.57" class="st44" width="2.25" height="3.54"/>
			<rect x="-298.02" y="96.57" class="st44" width="2.3" height="3.54"/>
			<rect x="-295.2" y="96.57" class="st44" width="2.3" height="3.54"/>
			<rect x="-300.78" y="100.5" class="st44" width="2.25" height="2.05"/>
			<rect x="-298.02" y="100.5" class="st44" width="2.3" height="2.05"/>
			<rect x="-295.2" y="100.5" class="st44" width="2.3" height="2.05"/>
			<polygon class="st45" points="-300.44,97.12 -298.53,97.12 -298.53,96.57 -300.78,96.57 -300.78,100.11 -300.44,100.11 			"/>
			<polygon class="st45" points="-297.67,97.12 -295.71,97.12 -295.71,96.57 -298.02,96.57 -298.02,100.11 -297.67,100.11 			"/>
			<polygon class="st45" points="-294.85,97.12 -292.9,97.12 -292.9,96.57 -295.2,96.57 -295.2,100.11 -294.85,100.11 			"/>
			<polygon class="st45" points="-300.44,101.06 -298.53,101.06 -298.53,100.5 -300.78,100.5 -300.78,102.55 -300.44,102.55 			"/>
			<polygon class="st45" points="-297.67,101.06 -295.71,101.06 -295.71,100.5 -298.02,100.5 -298.02,102.55 -297.67,102.55 			"/>
			<polygon class="st45" points="-294.85,101.06 -292.9,101.06 -292.9,100.5 -295.2,100.5 -295.2,102.55 -294.85,102.55 			"/>
			<rect x="-300.78" y="102.99" class="st44" width="2.25" height="2.05"/>
			<rect x="-298.02" y="102.99" class="st44" width="2.3" height="2.05"/>
			<rect x="-295.2" y="102.99" class="st44" width="2.3" height="2.05"/>
			<polygon class="st45" points="-300.44,103.55 -298.53,103.55 -298.53,102.99 -300.78,102.99 -300.78,105.04 -300.44,105.04 			
				"/>
			<polygon class="st45" points="-297.67,103.55 -295.71,103.55 -295.71,102.99 -298.02,102.99 -298.02,105.04 -297.67,105.04 			
				"/>
			<polygon class="st45" points="-294.85,103.55 -292.9,103.55 -292.9,102.99 -295.2,102.99 -295.2,105.04 -294.85,105.04 			"/>
			<rect x="-300.78" y="105.48" class="st44" width="2.25" height="2.05"/>
			<rect x="-298.02" y="105.48" class="st44" width="2.3" height="2.05"/>
			<rect x="-295.2" y="105.48" class="st44" width="2.3" height="2.05"/>
			<polygon class="st45" points="-300.44,106.03 -298.53,106.03 -298.53,105.48 -300.78,105.48 -300.78,107.52 -300.44,107.52 			
				"/>
			<polygon class="st45" points="-297.67,106.03 -295.71,106.03 -295.71,105.48 -298.02,105.48 -298.02,107.52 -297.67,107.52 			
				"/>
			<polygon class="st45" points="-294.85,106.03 -292.9,106.03 -292.9,105.48 -295.2,105.48 -295.2,107.52 -294.85,107.52 			"/>
			<rect x="-300.78" y="107.98" class="st44" width="2.25" height="5.77"/>
			<rect x="-298.02" y="107.98" class="st44" width="2.3" height="5.77"/>
			<rect x="-295.2" y="107.98" class="st44" width="2.3" height="5.77"/>
			<polygon class="st45" points="-300.44,108.53 -298.53,108.53 -298.53,107.98 -300.78,107.98 -300.78,113.75 -300.44,113.75 			
				"/>
			<polygon class="st45" points="-297.67,108.53 -295.71,108.53 -295.71,107.98 -298.02,107.98 -298.02,113.75 -297.67,113.75 			
				"/>
			<polygon class="st45" points="-294.85,108.53 -292.9,108.53 -292.9,107.98 -295.2,107.98 -295.2,113.75 -294.85,113.75 			"/>
		</g>
	</g>
	<rect x="-307.44" y="114.29" class="st55" width="23.18" height="1.56"/>
	<rect x="-310" y="115.79" class="st58" width="25.74" height="1.56"/>
	<rect x="-312.4" y="117.33" class="st59" width="28.14" height="1.56"/>
	<polygon class="st57" points="-260.66,44.04 -284.12,65.09 -284.12,67.01 -260.66,45.96 -237.19,67.01 -237.19,65.09 	"/>
</g>
</svg>
