<?xml version="1.0" encoding="utf-8"?>
<!-- Generator: Adobe Illustrator 24.3.0, SVG Export Plug-In . SVG Version: 6.00 Build 0)  -->
<svg version="1.1" id="layer" xmlns="http://www.w3.org/2000/svg" xmlns:xlink="http://www.w3.org/1999/xlink" x="0px" y="0px"
	 viewBox="0 0 93.62 91.23" style="enable-background:new 0 0 93.62 91.23;" xml:space="preserve">
<style type="text/css">
	.st0{fill:#FFE6BB;}
	.st1{fill:#FDC345;}
	.st2{fill:#FFD788;}
	.st3{display:none;}
	.st4{display:inline;fill:#1E2323;}
	.st5{display:inline;}
	.st6{fill:#C95B3D;}
	.st7{fill:#343D18;}
	.st8{display:inline;fill:#475429;}
	.st9{display:inline;fill:#31381C;}
	.st10{display:inline;fill:#313A1C;}
	.st11{display:none;fill:#242D0F;}
	.st12{display:none;fill:#FFFFFF;}
	.st13{display:none;fill:#D9F6FF;}
	.st14{fill:#FFFFFF;}
	.st15{display:inline;fill:#36421A;}
	.st16{fill:#363838;}
	.st17{fill:#A5A5A5;}
	.st18{fill:#59698B;}
	.st19{fill:#465572;}
	.st20{display:inline;fill:#59698B;}
	.st21{display:inline;fill:#A5A5A5;}
	.st22{display:inline;fill:#A0A5AA;}
	.st23{display:inline;fill:#B5B5B5;}
	.st24{display:inline;fill:#FFFFFF;}
	.st25{display:inline;fill:#233F3E;}
	.st26{display:inline;fill:#258E88;}
	.st27{fill:#5B6B8D;}
	.st28{fill:#B5B5B5;}
	.st29{display:inline;fill:#F7F7D2;}
	.st30{display:inline;fill:#5B6B8D;}
	.st31{display:inline;fill:#465572;}
	.st32{fill:#89847D;}
	.st33{fill:#968B77;}
	.st34{fill:#A59E92;}
	.st35{fill:#847863;}
	.st36{display:inline;fill:#89847D;}
	.st37{display:inline;fill:#986435;}
	.st38{display:inline;fill:#B37E52;}
	.st39{display:inline;fill:#8C562A;}
	.st40{display:inline;fill:#969289;}
	.st41{display:inline;fill:#A59E92;}
	.st42{display:inline;fill:#81AC41;}
	.st43{fill:#D3986C;}
	.st44{fill:#233F3E;}
	.st45{fill:#258E88;}
	.st46{fill:#F7F7D2;}
	.st47{fill:#626868;}
	.st48{fill:#999999;}
	.st49{fill:#707676;}
	.st50{fill:#A0A5AA;}
	.st51{fill:#523D38;}
	.st52{fill:#4B9694;}
	.st53{display:inline;fill:#626868;}
	.st54{display:inline;fill:#3A3442;}
	.st55{display:inline;fill:#4F4957;}
	.st56{display:inline;fill:#BFBFBF;}
	.st57{display:inline;fill:#D1D1D1;}
	.st58{display:inline;fill:#484351;}
	.st59{display:inline;fill:#403B49;}
</style>
<g>
	<polygon class="st0" points="45.32,8.14 48.25,27.32 54.51,8.95 52.76,28.28 63.23,11.95 56.91,30.29 70.99,16.94 60.46,33.24 
		77.32,23.64 63.2,36.95 81.87,31.67 64.97,41.21 84.37,40.55 65.67,45.76 84.66,49.76 65.27,50.36 82.75,58.79 63.77,54.72 
		78.73,67.09 61.27,58.6 72.83,74.19 57.92,61.77 65.42,79.67 53.91,64.04 56.9,83.21 49.47,65.29 47.79,84.62 44.86,65.44 
		38.6,83.81 40.35,64.48 29.87,80.81 36.2,62.47 22.12,75.82 32.65,59.52 15.78,69.12 29.91,55.81 11.23,61.09 28.14,51.55 
		8.74,52.21 27.43,47 8.44,43 27.84,42.4 10.36,33.97 29.34,38.04 14.38,25.67 31.83,34.16 20.27,18.57 35.18,30.99 27.69,13.09 
		39.2,28.72 36.2,9.55 43.64,27.47 	"/>
	<g>
		<circle class="st1" cx="46.55" cy="46.38" r="16.45"/>
		<path class="st2" d="M49.02,41.65c5.17,0,9.72,2.61,12.42,6.59c0.08-0.61,0.12-1.23,0.12-1.86c0-8.29-6.72-15.01-15.01-15.01
			c-8.29,0-15.01,6.72-15.01,15.01c0,3.12,0.95,6.02,2.59,8.42C35.04,47.39,41.36,41.65,49.02,41.65z"/>
	</g>
</g>
<g class="st3">
	<g>
		<polygon class="st4" points="189.14,135.36 173.99,135.36 160.12,143.12 160.12,144.67 161.23,144.67 161.23,145.44 
			161.23,168.55 153.26,171.82 153.26,172.8 154.37,172.8 154.37,173.34 154.37,189.53 153.41,189.53 153.41,191.43 175.75,191.43 
			199.39,191.43 203.51,191.43 203.51,191.44 219.2,191.44 219.2,191.43 221.72,191.43 221.72,189.53 220.95,189.53 220.95,145.59 
			220.95,144.38 223.63,145.92 223.63,144.08 198.83,129.77 		"/>
		<path class="st4" d="M114.91,189.58h-1.58v-0.78h-0.8v-23.62h0.64v-0.94h0.07l-7.5-13H88.04v-5.68h-0.13v-0.24h0.73v-0.04
			l-1.04-0.6l-1.04,0.6v0.04h0.68v0.24h-0.16v5.68h-0.97v-3.94h-0.13v-0.24h0.73v-0.04l-1.04-0.6l-1.04,0.6v0.04h0.68v0.24h-0.16
			v3.94H52.71l-7.48,12.96h-0.01v0.02l-0.01,0.02h0.01v0.94h0.98v0.9v24.4h-0.93v0.96h70.3v-0.96h-0.65V189.58z M87.46,145.32h0.24
			v0.24h-0.24V145.32z M85.53,147.06h0.24v0.24h-0.24V147.06z"/>
		<path class="st4" d="M-49.77,189.58h-0.89v-0.78h-0.45v-23.62h0.36v-0.94h0.04l-4.24-13h-10v-5.68h-0.08v-0.24h0.41v-0.04
			l-0.59-0.6l-0.59,0.6v0.04h0.39v0.24h-0.09v5.68h-0.55v-3.94h-0.08v-0.24h0.41v-0.04l-0.59-0.6l-0.59,0.6v0.04h0.39v0.24h-0.09
			v3.94h-18.35l-4.23,12.96h-0.01v0.02l-0.01,0.02h0.01v0.94h0.55v0.9v24.4h-0.53v0.96h39.74v-0.96h-0.37V189.58z M-65.3,145.32
			h0.13v0.24h-0.13V145.32z M-66.38,147.06h0.13v0.24h-0.13V147.06z"/>
		<polygon class="st4" points="-4.95,132.17 -4.96,132.17 -4.96,132.17 -40.55,144.29 -40.55,145.92 -38.66,145.92 -38.66,146.82 
			-38.66,160.19 -54.12,165.45 -54.12,166.72 -52.77,166.72 -52.77,167.79 -52.77,190.06 -54.57,190.06 -54.57,191.42 29.82,191.42 
			29.82,190.06 28.64,190.06 28.64,166.49 29.55,166.49 29.55,165.2 28.64,165.2 28.64,146.82 28.64,145.92 30.63,145.92 
			30.63,144.29 -4.95,132.18 		"/>
		<polygon class="st4" points="300.43,132.17 300.42,132.17 300.42,132.17 277.28,144.29 277.28,145.92 278.51,145.92 
			278.51,146.82 278.51,160.19 268.46,165.45 268.46,166.72 269.34,166.72 269.34,167.79 269.34,190.06 268.17,190.06 
			268.17,191.42 323.04,191.42 323.04,190.06 322.27,190.06 322.27,166.49 322.86,166.49 322.86,165.2 322.27,165.2 322.27,146.82 
			322.27,145.92 323.56,145.92 323.56,144.29 300.43,132.18 		"/>
		<polygon class="st4" points="-18.85,164.93 -17.24,164.93 -17.24,163.06 -40.54,149.39 -63.84,163.06 -63.84,164.93 
			-62.23,164.93 -62.23,190.56 -63.02,190.56 -63.02,191.45 -38.71,191.45 -38.71,191.58 -15.64,191.58 -15.64,189.87 
			-18.85,189.87 		"/>
		<polygon class="st4" points="298.73,190.02 298.73,166.25 298.73,164.58 300.1,164.58 300.1,163.4 300.07,163.4 293.78,143.72 
			253.24,143.72 246.24,163.4 246.2,163.4 246.2,164.58 247.63,164.58 247.63,166.25 247.63,190.02 246.23,190.02 246.23,191.26 
			300.87,191.26 300.87,190.02 		"/>
	</g>
	<g class="st5">
		<g class="st3">
			<g class="st5">
				<rect x="302.57" y="163.67" class="st6" width="2.85" height="24.83"/>
				<path class="st7" d="M292.74,162.13c-0.13-0.37-0.21-0.77-0.21-1.19c0-1.35,0.77-2.52,1.89-3.11c-0.84-0.97-1.35-2.23-1.35-3.61
					c0-3.05,2.47-5.51,5.51-5.51c0.02,0,0.04,0,0.06,0c0-0.05,0-0.11,0-0.17c0-2.14,1.74-3.88,3.88-3.88c2.09,0,3.79,1.66,3.87,3.73
					c0.6-0.22,1.24-0.34,1.91-0.34c3.05,0,5.51,2.47,5.51,5.51c0,0.51-0.07,1.01-0.2,1.48c1.5,0.39,2.6,1.76,2.6,3.38
					c0,0.44-0.08,0.85-0.23,1.24c1.84,1.11,3.06,3.12,3.06,5.42c0,0.05,0.09,3.12-3.13,3.27c-0.2,2.67-2.43,4.77-5.15,4.77h-0.01
					c-0.76,1.95-2.65,3.34-4.88,3.34h-2.7c-2.22,0-4.12-1.39-4.88-3.34c-2.71-0.03-4.91-2.14-5.09-4.81
					C290.94,167.76,291.75,162.65,292.74,162.13z"/>
			</g>
			<path class="st8" d="M315.2,163.89L315.2,163.89c0-2.73-2.1-4.95-4.77-5.16c-0.15-3.22-3.22-3.13-3.27-3.13
				c-2.3,0-4.32,1.23-5.42,3.06c-0.38-0.15-0.8-0.23-1.24-0.23c-1.62,0-2.99,1.11-3.38,2.6c-0.47-0.13-0.97-0.2-1.48-0.2
				c-1.1,0-2.13,0.33-2.99,0.89c-0.06-0.25-0.1-0.52-0.1-0.79c0-1.35,0.77-2.52,1.89-3.11c-0.84-0.97-1.35-2.23-1.35-3.61
				c0-3.05,2.47-5.51,5.51-5.51c0.02,0,0.04,0,0.06,0c0-0.05,0-0.11,0-0.17c0-2.14,1.74-3.88,3.88-3.88c2.09,0,3.79,1.66,3.87,3.73
				c0.6-0.22,1.24-0.34,1.91-0.34c3.05,0,5.51,2.47,5.51,5.51c0,0.51-0.07,1.01-0.2,1.48c1.5,0.39,2.6,1.76,2.6,3.38
				c0,0.44-0.08,0.85-0.23,1.24c1.84,1.11,3.06,3.12,3.06,5.42c0,0.03,0.03,1.27-0.75,2.21C317.86,165.74,316.7,164.47,315.2,163.89
				z"/>
		</g>
		<g class="st3">
			<g class="st5">
				<rect x="224.2" y="157.03" class="st6" width="3.61" height="31.47"/>
				<path class="st7" d="M211.74,155.08c-0.17-0.47-0.26-0.97-0.26-1.5c0-1.71,0.97-3.2,2.4-3.94c-1.06-1.23-1.71-2.82-1.71-4.57
					c0-3.86,3.13-6.99,6.99-6.99c0.02,0,0.05,0,0.07,0c0-0.07-0.01-0.14-0.01-0.21c0-2.71,2.2-4.91,4.91-4.91
					c2.65,0,4.81,2.1,4.91,4.72c0.76-0.28,1.57-0.43,2.43-0.43c3.86,0,6.99,3.13,6.99,6.99c0,0.65-0.09,1.28-0.26,1.87
					c1.9,0.5,3.3,2.23,3.3,4.28c0,0.55-0.1,1.08-0.29,1.57c2.33,1.41,3.88,3.96,3.88,6.87c0,0.07,0.11,3.96-3.97,4.15
					c-0.26,3.38-3.08,6.05-6.53,6.05h-0.01c-0.96,2.48-3.36,4.23-6.18,4.23h-3.42c-2.82,0-5.22-1.76-6.18-4.24
					c-3.43-0.04-6.23-2.72-6.45-6.1C209.46,162.21,210.48,155.74,211.74,155.08z"/>
			</g>
			<path class="st9" d="M240.2,157.31L240.2,157.31c0-3.46-2.67-6.28-6.05-6.53c-0.19-4.08-4.08-3.96-4.15-3.96
				c-2.92,0-5.47,1.56-6.88,3.88c-0.49-0.18-1.01-0.29-1.57-0.29c-2.06,0-3.78,1.4-4.28,3.3c-0.6-0.17-1.23-0.26-1.88-0.26
				c-1.4,0-2.7,0.42-3.79,1.12c-0.07-0.32-0.13-0.65-0.13-1c0-1.71,0.97-3.2,2.4-3.94c-1.06-1.23-1.71-2.82-1.71-4.57
				c0-3.86,3.13-6.99,6.99-6.99c0.02,0,0.05,0,0.07,0c0-0.07-0.01-0.14-0.01-0.21c0-2.71,2.2-4.91,4.91-4.91
				c2.65,0,4.81,2.1,4.91,4.72c0.76-0.28,1.57-0.43,2.43-0.43c3.86,0,6.99,3.13,6.99,6.99c0,0.65-0.09,1.28-0.26,1.87
				c1.9,0.5,3.3,2.23,3.3,4.28c0,0.55-0.1,1.08-0.29,1.57c2.33,1.41,3.88,3.96,3.88,6.87c0,0.04,0.04,1.6-0.95,2.8
				C243.58,159.65,242.11,158.05,240.2,157.31z"/>
		</g>
		<g class="st3">
			<g class="st5">
				<rect x="90.12" y="174.75" class="st6" width="1.58" height="13.76"/>
				<path class="st7" d="M84.67,173.89c-0.07-0.21-0.11-0.43-0.11-0.66c0-0.75,0.43-1.4,1.05-1.72c-0.46-0.54-0.75-1.23-0.75-2
					c0-1.69,1.37-3.05,3.05-3.05c0.01,0,0.02,0,0.03,0c0-0.03,0-0.06,0-0.09c0-1.19,0.96-2.15,2.15-2.15c1.16,0,2.1,0.92,2.15,2.06
					c0.33-0.12,0.69-0.19,1.06-0.19c1.69,0,3.05,1.37,3.05,3.05c0,0.28-0.04,0.56-0.11,0.82c0.83,0.22,1.44,0.97,1.44,1.87
					c0,0.24-0.04,0.47-0.12,0.68c1.02,0.61,1.7,1.73,1.7,3.01c0,0.03,0.05,1.73-1.73,1.81c-0.11,1.48-1.35,2.65-2.85,2.65h0
					c-0.42,1.08-1.47,1.85-2.7,1.85h-1.49c-1.23,0-2.28-0.77-2.7-1.85c-1.5-0.02-2.72-1.19-2.82-2.67
					C83.68,177.01,84.12,174.18,84.67,173.89z"/>
			</g>
			<path class="st9" d="M97.11,174.87L97.11,174.87c0-1.51-1.17-2.74-2.65-2.86c-0.08-1.78-1.78-1.73-1.81-1.73
				c-1.28,0-2.39,0.68-3.01,1.7c-0.21-0.08-0.44-0.12-0.68-0.12c-0.9,0-1.65,0.61-1.87,1.44c-0.26-0.07-0.54-0.11-0.82-0.11
				c-0.61,0-1.18,0.18-1.66,0.49c-0.03-0.14-0.06-0.29-0.06-0.44c0-0.75,0.43-1.4,1.05-1.72c-0.46-0.54-0.75-1.23-0.75-2
				c0-1.69,1.37-3.05,3.05-3.05c0.01,0,0.02,0,0.03,0c0-0.03,0-0.06,0-0.09c0-1.19,0.96-2.15,2.15-2.15c1.16,0,2.1,0.92,2.15,2.06
				c0.33-0.12,0.69-0.19,1.06-0.19c1.69,0,3.05,1.37,3.05,3.05c0,0.28-0.04,0.56-0.11,0.82c0.83,0.22,1.44,0.97,1.44,1.87
				c0,0.24-0.04,0.47-0.12,0.68c1.02,0.61,1.7,1.73,1.7,3.01c0,0.02,0.02,0.7-0.41,1.22C98.59,175.89,97.94,175.19,97.11,174.87z"/>
		</g>
		<g class="st3">
			<g class="st5">
				<rect x="-67.93" y="168.14" class="st6" width="2.33" height="20.36"/>
				<path class="st7" d="M-75.99,166.87c-0.11-0.3-0.17-0.63-0.17-0.97c0-1.11,0.63-2.07,1.55-2.55c-0.69-0.79-1.11-1.83-1.11-2.96
					c0-2.5,2.02-4.52,4.52-4.52c0.02,0,0.03,0,0.05,0c0-0.04,0-0.09,0-0.14c0-1.76,1.42-3.18,3.18-3.18c1.71,0,3.11,1.36,3.18,3.06
					c0.49-0.18,1.02-0.28,1.57-0.28c2.5,0,4.52,2.02,4.52,4.52c0,0.42-0.06,0.83-0.17,1.21c1.23,0.32,2.14,1.44,2.14,2.77
					c0,0.36-0.07,0.7-0.18,1.01c1.51,0.91,2.51,2.56,2.51,4.45c0,0.04,0.07,2.56-2.57,2.69c-0.17,2.19-1.99,3.92-4.22,3.92h0
					c-0.62,1.6-2.18,2.74-4,2.74h-2.21c-1.82,0-3.38-1.14-4-2.74c-2.22-0.03-4.03-1.76-4.18-3.95
					C-77.46,171.49-76.8,167.3-75.99,166.87z"/>
			</g>
			<path class="st9" d="M-57.57,168.32L-57.57,168.32c0-2.24-1.73-4.06-3.92-4.23c-0.12-2.64-2.64-2.57-2.69-2.57
				c-1.89,0-3.54,1.01-4.45,2.51c-0.32-0.12-0.66-0.19-1.01-0.19c-1.33,0-2.45,0.91-2.77,2.14c-0.39-0.11-0.79-0.17-1.21-0.17
				c-0.91,0-1.75,0.27-2.45,0.73c-0.05-0.21-0.08-0.42-0.08-0.65c0-1.11,0.63-2.07,1.55-2.55c-0.69-0.79-1.11-1.83-1.11-2.96
				c0-2.5,2.02-4.52,4.52-4.52c0.02,0,0.03,0,0.05,0c0-0.04,0-0.09,0-0.14c0-1.76,1.42-3.18,3.18-3.18c1.71,0,3.11,1.36,3.18,3.06
				c0.49-0.18,1.02-0.28,1.57-0.28c2.5,0,4.52,2.02,4.52,4.52c0,0.42-0.06,0.83-0.17,1.21c1.23,0.32,2.14,1.44,2.14,2.77
				c0,0.36-0.07,0.7-0.18,1.01c1.51,0.91,2.51,2.56,2.51,4.45c0,0.03,0.03,1.04-0.61,1.81C-55.39,169.83-56.34,168.8-57.57,168.32z"
				/>
		</g>
		<g class="st3">
			<g class="st5">
				<rect x="-0.85" y="164.56" class="st6" width="2.7" height="23.55"/>
				<path class="st7" d="M-10.17,163.09c-0.13-0.35-0.2-0.73-0.2-1.12c0-1.28,0.73-2.39,1.8-2.95c-0.8-0.92-1.28-2.11-1.28-3.42
					c0-2.89,2.34-5.23,5.23-5.23c0.02,0,0.04,0,0.06,0c0-0.05,0-0.1,0-0.16c0-2.03,1.65-3.68,3.68-3.68c1.98,0,3.6,1.57,3.67,3.53
					c0.57-0.21,1.18-0.32,1.82-0.32c2.89,0,5.23,2.34,5.23,5.23c0,0.49-0.07,0.96-0.19,1.4c1.42,0.37,2.47,1.67,2.47,3.21
					c0,0.41-0.08,0.81-0.21,1.17c1.74,1.05,2.91,2.96,2.91,5.15c0,0.05,0.08,2.96-2.97,3.11c-0.19,2.53-2.3,4.53-4.89,4.53H6.94
					c-0.72,1.85-2.52,3.17-4.62,3.17h-2.56c-2.11,0-3.91-1.32-4.63-3.17c-2.57-0.03-4.66-2.03-4.83-4.57
					C-11.88,168.43-11.11,163.59-10.17,163.09z"/>
			</g>
			<path class="st9" d="M11.13,164.76L11.13,164.76c0-2.59-2-4.7-4.53-4.89c-0.14-3.05-3.06-2.97-3.11-2.97
				c-2.18,0-4.09,1.16-5.15,2.91c-0.36-0.14-0.76-0.21-1.17-0.21c-1.54,0-2.83,1.05-3.21,2.47c-0.45-0.12-0.92-0.19-1.4-0.19
				c-1.05,0-2.02,0.31-2.84,0.84c-0.06-0.24-0.1-0.49-0.1-0.75c0-1.28,0.73-2.39,1.8-2.95c-0.8-0.92-1.28-2.11-1.28-3.42
				c0-2.89,2.34-5.23,5.23-5.23c0.02,0,0.04,0,0.06,0c0-0.05,0-0.1,0-0.16c0-2.03,1.65-3.68,3.68-3.68c1.98,0,3.6,1.57,3.67,3.53
				c0.57-0.21,1.18-0.32,1.82-0.32c2.89,0,5.23,2.34,5.23,5.23c0,0.49-0.07,0.96-0.19,1.4c1.42,0.37,2.47,1.67,2.47,3.21
				c0,0.41-0.08,0.81-0.21,1.17c1.74,1.05,2.91,2.96,2.91,5.15c0,0.03,0.03,1.2-0.71,2.1C13.66,166.51,12.55,165.32,11.13,164.76z"
				/>
		</g>
		<g class="st3">
			<g class="st5">
				<rect x="76.79" y="165.21" class="st6" width="2.67" height="23.29"/>
				<path class="st7" d="M88.68,163.76c0.13-0.35,0.19-0.72,0.19-1.11c0-1.27-0.72-2.37-1.78-2.91c0.79-0.91,1.26-2.09,1.26-3.39
					c0-2.86-2.32-5.17-5.17-5.17c-0.02,0-0.04,0-0.06,0c0-0.05,0-0.1,0-0.15c0-2.01-1.63-3.64-3.64-3.64c-1.96,0-3.56,1.55-3.63,3.5
					c-0.56-0.21-1.16-0.32-1.8-0.32c-2.86,0-5.17,2.32-5.17,5.17c0,0.48,0.07,0.95,0.19,1.39c-1.41,0.37-2.44,1.65-2.44,3.17
					c0,0.41,0.08,0.8,0.21,1.16c-1.72,1.04-2.87,2.93-2.87,5.09c0,0.05-0.08,2.93,2.93,3.07c0.19,2.5,2.28,4.48,4.83,4.48h0.01
					c0.71,1.83,2.49,3.13,4.57,3.13h2.53c2.09,0,3.86-1.3,4.57-3.14c2.54-0.03,4.61-2.01,4.78-4.52
					C90.37,169.04,89.61,164.25,88.68,163.76z"/>
			</g>
			<path class="st10" d="M67.62,165.41L67.62,165.41c0-2.56,1.97-4.65,4.48-4.84c0.14-3.02,3.02-2.93,3.07-2.93
				c2.16,0,4.05,1.15,5.09,2.87c0.36-0.14,0.75-0.21,1.16-0.21c1.52,0,2.8,1.04,3.17,2.44c0.44-0.12,0.91-0.19,1.39-0.19
				c1.04,0,2,0.31,2.81,0.83c0.06-0.24,0.09-0.48,0.09-0.74c0-1.27-0.72-2.37-1.78-2.91c0.79-0.91,1.26-2.09,1.26-3.39
				c0-2.86-2.32-5.17-5.17-5.17c-0.02,0-0.04,0-0.06,0c0-0.05,0-0.1,0-0.15c0-2.01-1.63-3.64-3.64-3.64c-1.96,0-3.56,1.55-3.63,3.5
				c-0.56-0.21-1.16-0.32-1.8-0.32c-2.86,0-5.17,2.32-5.17,5.17c0,0.48,0.07,0.95,0.19,1.39c-1.41,0.37-2.44,1.65-2.44,3.17
				c0,0.41,0.08,0.8,0.21,1.16c-1.72,1.04-2.87,2.93-2.87,5.09c0,0.03-0.03,1.19,0.7,2.07C65.11,167.15,66.2,165.96,67.62,165.41z"
				/>
		</g>
		<g class="st3">
			<g class="st5">
				<rect x="23.02" y="158.26" class="st6" width="3.47" height="30.24"/>
				<path class="st7" d="M38.46,156.38c0.16-0.45,0.25-0.94,0.25-1.44c0-1.65-0.94-3.08-2.31-3.78c1.02-1.18,1.64-2.71,1.64-4.4
					c0-3.71-3.01-6.72-6.72-6.72c-0.02,0-0.05,0-0.07,0c0-0.07,0.01-0.13,0.01-0.2c0-2.61-2.11-4.72-4.72-4.72
					c-2.55,0-4.62,2.02-4.72,4.54c-0.73-0.27-1.51-0.42-2.33-0.42c-3.71,0-6.72,3.01-6.72,6.72c0,0.62,0.09,1.23,0.25,1.8
					c-1.83,0.48-3.17,2.14-3.17,4.12c0,0.53,0.1,1.04,0.27,1.5c-2.24,1.35-3.73,3.8-3.73,6.61c0,0.06-0.11,3.81,3.81,3.99
					c0.25,3.25,2.96,5.82,6.27,5.82h0.01c0.93,2.38,3.23,4.07,5.94,4.07h3.29c2.71,0,5.02-1.69,5.94-4.07
					c3.3-0.04,5.98-2.61,6.2-5.86C40.65,163.24,39.67,157.02,38.46,156.38z"/>
			</g>
			<path class="st10" d="M11.11,158.52L11.11,158.52c0-3.32,2.56-6.03,5.82-6.28c0.18-3.92,3.92-3.81,3.99-3.81
				c2.8,0,5.26,1.5,6.61,3.73c0.47-0.18,0.97-0.27,1.5-0.27c1.98,0,3.64,1.35,4.12,3.17c0.57-0.16,1.18-0.25,1.8-0.25
				c1.34,0,2.59,0.4,3.64,1.08c0.07-0.31,0.12-0.63,0.12-0.96c0-1.65-0.94-3.08-2.31-3.78c1.02-1.18,1.64-2.71,1.64-4.4
				c0-3.71-3.01-6.72-6.72-6.72c-0.02,0-0.05,0-0.07,0c0-0.07,0.01-0.13,0.01-0.2c0-2.61-2.11-4.72-4.72-4.72
				c-2.55,0-4.62,2.02-4.72,4.54c-0.73-0.27-1.51-0.42-2.33-0.42c-3.71,0-6.72,3.01-6.72,6.72c0,0.62,0.09,1.23,0.25,1.8
				c-1.83,0.48-3.17,2.14-3.17,4.12c0,0.53,0.1,1.04,0.27,1.5c-2.24,1.35-3.73,3.8-3.73,6.61c0,0.04-0.04,1.54,0.91,2.69
				C7.86,160.77,9.28,159.23,11.11,158.52z"/>
		</g>
		<g class="st3">
			<g class="st5">
				<rect x="167.49" y="158.26" class="st6" width="3.47" height="30.24"/>
				<path class="st7" d="M182.93,156.38c0.16-0.45,0.25-0.94,0.25-1.44c0-1.65-0.94-3.08-2.31-3.78c1.02-1.18,1.64-2.71,1.64-4.4
					c0-3.71-3.01-6.72-6.72-6.72c-0.02,0-0.05,0-0.07,0c0-0.07,0.01-0.13,0.01-0.2c0-2.61-2.11-4.72-4.72-4.72
					c-2.55,0-4.62,2.02-4.72,4.54c-0.73-0.27-1.51-0.42-2.33-0.42c-3.71,0-6.72,3.01-6.72,6.72c0,0.62,0.09,1.23,0.25,1.8
					c-1.83,0.48-3.17,2.14-3.17,4.12c0,0.53,0.1,1.04,0.27,1.5c-2.24,1.35-3.73,3.8-3.73,6.61c0,0.06-0.11,3.81,3.81,3.99
					c0.25,3.25,2.96,5.82,6.27,5.82h0.01c0.93,2.38,3.23,4.07,5.94,4.07h3.29c2.71,0,5.02-1.69,5.94-4.07
					c3.3-0.04,5.98-2.61,6.2-5.86C185.12,163.24,184.14,157.02,182.93,156.38z"/>
			</g>
			<path class="st10" d="M155.58,158.52L155.58,158.52c0-3.32,2.56-6.03,5.82-6.28c0.18-3.92,3.92-3.81,3.99-3.81
				c2.8,0,5.26,1.5,6.61,3.73c0.47-0.18,0.97-0.27,1.5-0.27c1.98,0,3.64,1.35,4.12,3.17c0.57-0.16,1.18-0.25,1.8-0.25
				c1.34,0,2.59,0.4,3.64,1.08c0.07-0.31,0.12-0.63,0.12-0.96c0-1.65-0.94-3.08-2.31-3.78c1.02-1.18,1.64-2.71,1.64-4.4
				c0-3.71-3.01-6.72-6.72-6.72c-0.02,0-0.05,0-0.07,0c0-0.07,0.01-0.13,0.01-0.2c0-2.61-2.11-4.72-4.72-4.72
				c-2.55,0-4.62,2.02-4.72,4.54c-0.73-0.27-1.51-0.42-2.33-0.42c-3.71,0-6.72,3.01-6.72,6.72c0,0.62,0.09,1.23,0.25,1.8
				c-1.83,0.48-3.17,2.14-3.17,4.12c0,0.53,0.1,1.04,0.27,1.5c-2.24,1.35-3.73,3.8-3.73,6.61c0,0.04-0.04,1.54,0.91,2.69
				C152.33,160.77,153.75,159.23,155.58,158.52z"/>
		</g>
		<g class="st3">
			<g class="st5">
				<rect x="201.5" y="164.64" class="st6" width="2.74" height="23.86"/>
				<path class="st7" d="M213.68,163.16c0.13-0.36,0.2-0.74,0.2-1.14c0-1.3-0.74-2.43-1.82-2.98c0.81-0.93,1.29-2.14,1.29-3.47
					c0-2.93-2.37-5.3-5.3-5.3c-0.02,0-0.04,0-0.06,0c0-0.05,0-0.11,0-0.16c0-2.06-1.67-3.72-3.72-3.72c-2.01,0-3.65,1.59-3.72,3.58
					c-0.57-0.21-1.19-0.33-1.84-0.33c-2.93,0-5.3,2.37-5.3,5.3c0,0.49,0.07,0.97,0.19,1.42c-1.44,0.38-2.5,1.69-2.5,3.25
					c0,0.42,0.08,0.82,0.22,1.19c-1.76,1.07-2.94,3-2.94,5.21c0,0.05-0.08,3,3.01,3.15c0.19,2.57,2.33,4.59,4.95,4.59h0.01
					c0.73,1.88,2.55,3.21,4.69,3.21h2.59c2.14,0,3.96-1.33,4.69-3.21c2.6-0.03,4.72-2.06,4.89-4.63
					C215.41,168.57,214.63,163.66,213.68,163.16z"/>
			</g>
			<path class="st10" d="M192.1,164.85L192.1,164.85c0-2.62,2.02-4.76,4.59-4.96c0.14-3.09,3.1-3.01,3.15-3.01
				c2.21,0,4.15,1.18,5.21,2.94c0.37-0.14,0.77-0.22,1.19-0.22c1.56,0,2.87,1.06,3.25,2.5c0.45-0.13,0.93-0.19,1.42-0.19
				c1.06,0,2.05,0.32,2.88,0.85c0.06-0.24,0.1-0.5,0.1-0.76c0-1.3-0.74-2.43-1.82-2.98c0.81-0.93,1.29-2.14,1.29-3.47
				c0-2.93-2.37-5.3-5.3-5.3c-0.02,0-0.04,0-0.06,0c0-0.05,0-0.11,0-0.16c0-2.06-1.67-3.72-3.72-3.72c-2.01,0-3.65,1.59-3.72,3.58
				c-0.57-0.21-1.19-0.33-1.84-0.33c-2.93,0-5.3,2.37-5.3,5.3c0,0.49,0.07,0.97,0.19,1.42c-1.44,0.38-2.5,1.69-2.5,3.25
				c0,0.42,0.08,0.82,0.22,1.19c-1.76,1.07-2.94,3-2.94,5.21c0,0.03-0.03,1.22,0.72,2.12C189.54,166.62,190.66,165.41,192.1,164.85z
				"/>
		</g>
		<path class="st11" d="M293.36,188.73c0.24-3.59,3.23-6.44,6.89-6.44c2.14,0,4.05,0.97,5.31,2.5c1.08-1.03,2.54-1.66,4.15-1.66
			c1.55,0,2.96,0.59,4.03,1.55c0.94-2.1,3.04-3.57,5.49-3.57c3.32,0,6.01,2.69,6.01,6.01c0,0.56-0.08,1.1-0.22,1.61L293.36,188.73z"
			/>
		<path class="st11" d="M153.18,189.46c0-0.05,0-0.11,0-0.16c0-1.63-0.87-3.05-2.17-3.83c0.1-0.27,0.16-0.57,0.16-0.87
			c0-1.15-0.78-2.11-1.84-2.39c0.09-0.33,0.14-0.68,0.14-1.05c0-2.15-1.74-3.9-3.9-3.9c-0.48,0-0.93,0.09-1.35,0.24
			c-0.06-1.46-1.26-2.63-2.74-2.63c-1.51,0-2.74,1.23-2.74,2.74c0,0.04,0,0.08,0,0.12c-0.01,0-0.03,0-0.04,0
			c-2.15,0-3.9,1.75-3.9,3.9c0,0.98,0.36,1.87,0.95,2.55c-0.79,0.41-1.34,1.24-1.34,2.2c0,0.29,0.05,0.58,0.15,0.84
			c-0.89,0.47-1.58,1.28-1.89,2.25H153.18z"/>
		<path class="st11" d="M79.37,189.46c0-0.05,0-0.11,0-0.16c0-1.63-0.87-3.05-2.17-3.83c0.1-0.27,0.16-0.57,0.16-0.87
			c0-1.15-0.78-2.11-1.84-2.39c0.09-0.33,0.14-0.68,0.14-1.05c0-2.15-1.75-3.9-3.9-3.9c-0.48,0-0.93,0.09-1.35,0.24
			c-0.06-1.46-1.26-2.63-2.74-2.63c-1.51,0-2.74,1.23-2.74,2.74c0,0.04,0,0.08,0,0.12c-0.01,0-0.03,0-0.04,0
			c-2.15,0-3.9,1.75-3.9,3.9c0,0.98,0.36,1.87,0.95,2.55c-0.79,0.41-1.34,1.24-1.34,2.2c0,0.29,0.05,0.58,0.15,0.84
			c-0.89,0.47-1.58,1.28-1.89,2.25H79.37z"/>
		<path class="st11" d="M166.6,189.46c0-0.04,0-0.08,0-0.13c0-1.29-0.69-2.43-1.72-3.05c0.08-0.22,0.13-0.45,0.13-0.69
			c0-0.91-0.62-1.68-1.46-1.9c0.07-0.26,0.11-0.54,0.11-0.83c0-1.71-1.39-3.1-3.1-3.1c-0.38,0-0.74,0.07-1.08,0.19
			c-0.04-1.16-1-2.09-2.18-2.09c-1.2,0-2.18,0.98-2.18,2.18c0,0.03,0,0.06,0,0.09c-0.01,0-0.02,0-0.03,0c-1.71,0-3.1,1.39-3.1,3.1
			c0,0.78,0.29,1.48,0.76,2.03c-0.63,0.33-1.06,0.98-1.06,1.75c0,0.23,0.04,0.46,0.12,0.67c-0.71,0.38-1.25,1.02-1.5,1.79H166.6z"/>
		<path class="st11" d="M253.34,188.44c0,0.25-0.03,0.5-0.1,0.74h-16.09c-0.21-0.43-0.34-0.91-0.34-1.42c0-0.22,0.02-0.44,0.07-0.66
			c-0.63-0.51-1.04-1.29-1.04-2.16c0-1.53,1.24-2.77,2.77-2.77c0.03,0,0.07,0,0.1,0c0.31-0.79,0.88-1.45,1.61-1.87
			c-0.01-0.06-0.01-0.12-0.01-0.18c0-1.07,0.87-1.94,1.94-1.94c0.13,0,0.26,0.01,0.39,0.04c0.49-1.44,1.85-2.47,3.45-2.47
			c1.73,0,3.17,1.2,3.55,2.81c0.25-0.12,0.53-0.19,0.82-0.19c1.05,0,1.89,0.85,1.89,1.89c0,0.37-0.11,0.72-0.29,1.01
			c1.07,0.46,1.85,1.46,2.01,2.65c0.66,0.39,1.1,1.11,1.1,1.93c0,1.11-0.81,2.03-1.87,2.21
			C253.33,188.19,253.34,188.31,253.34,188.44z"/>
		<path class="st11" d="M309.59,183.17c0-2.17,1.76-3.93,3.93-3.93c0.05,0,0.09,0,0.14,0c0.43-1.13,1.25-2.06,2.29-2.65
			c-0.01-0.08-0.01-0.17-0.01-0.25c0-1.52,1.23-2.76,2.76-2.76c0.19,0,0.37,0.02,0.55,0.06c0.69-2.04,2.62-3.5,4.89-3.5
			c0.38,0,0.74,0.05,1.1,0.13v18.91h-13.79c-0.3-0.6-0.48-1.29-0.48-2.01c0-0.32,0.03-0.63,0.1-0.93
			C310.17,185.52,309.59,184.41,309.59,183.17z"/>
		<path class="st11" d="M-2.35,188.44c0,0.25-0.04,0.5-0.1,0.74h-16.09c-0.21-0.43-0.33-0.91-0.33-1.42c0-0.22,0.02-0.44,0.07-0.66
			c-0.63-0.51-1.04-1.29-1.04-2.16c0-1.53,1.24-2.77,2.77-2.77c0.03,0,0.07,0,0.1,0c0.31-0.79,0.88-1.45,1.61-1.87
			c-0.01-0.06-0.01-0.12-0.01-0.18c0-1.07,0.87-1.94,1.94-1.94c0.13,0,0.26,0.01,0.39,0.04c0.49-1.44,1.85-2.47,3.45-2.47
			c1.73,0,3.17,1.2,3.55,2.81c0.25-0.12,0.53-0.19,0.82-0.19c1.05,0,1.89,0.85,1.89,1.89c0,0.37-0.11,0.72-0.29,1.01
			c1.07,0.46,1.85,1.46,2.01,2.65c0.66,0.39,1.1,1.11,1.1,1.93c0,1.11-0.81,2.03-1.87,2.21C-2.36,188.19-2.35,188.31-2.35,188.44z"
			/>
		<path class="st11" d="M-91.26,169.13c1.07-1.98,3.16-3.33,5.57-3.33c3.01,0,5.53,2.09,6.18,4.9c0.43-0.21,0.92-0.33,1.44-0.33
			c1.82,0,3.3,1.48,3.3,3.3c0,0.65-0.19,1.25-0.51,1.76c1.86,0.81,3.22,2.54,3.5,4.62c1.15,0.68,1.92,1.93,1.92,3.35
			c0,1.93-1.41,3.54-3.26,3.84c0.03,0.21,0.04,0.43,0.04,0.64c0,0.44-0.06,0.87-0.17,1.28h-18.01V169.13z"/>
		<path class="st11" d="M-57.88,188.44c0,0.25-0.03,0.5-0.1,0.74h-16.09c-0.21-0.43-0.34-0.91-0.34-1.42c0-0.22,0.02-0.44,0.07-0.66
			c-0.63-0.51-1.04-1.29-1.04-2.16c0-1.53,1.24-2.77,2.77-2.77c0.03,0,0.07,0,0.1,0c0.31-0.79,0.88-1.45,1.61-1.87
			c-0.01-0.06-0.01-0.12-0.01-0.18c0-1.07,0.87-1.94,1.94-1.94c0.13,0,0.26,0.01,0.39,0.04c0.49-1.44,1.85-2.47,3.45-2.47
			c1.73,0,3.17,1.2,3.55,2.81c0.25-0.12,0.53-0.19,0.82-0.19c1.05,0,1.89,0.85,1.89,1.89c0,0.37-0.11,0.72-0.29,1.01
			c1.07,0.46,1.85,1.46,2.01,2.65c0.66,0.39,1.1,1.11,1.1,1.93c0,1.11-0.81,2.03-1.87,2.21C-57.89,188.19-57.88,188.31-57.88,188.44
			z"/>
		<path class="st11" d="M-18.83,187.69c0,0.33-0.05,0.64-0.13,0.94h-20.62c-0.27-0.55-0.43-1.16-0.43-1.81
			c0-0.29,0.03-0.57,0.09-0.84c-0.81-0.65-1.33-1.65-1.33-2.77c0-1.96,1.59-3.55,3.55-3.55c0.04,0,0.08,0,0.13,0
			c0.39-1.02,1.13-1.86,2.07-2.39c-0.01-0.08-0.01-0.15-0.01-0.23c0-1.38,1.12-2.49,2.49-2.49c0.17,0,0.34,0.02,0.5,0.05
			c0.63-1.84,2.37-3.16,4.42-3.16c2.21,0,4.07,1.54,4.55,3.61c0.32-0.16,0.68-0.24,1.06-0.24c1.34,0,2.43,1.09,2.43,2.43
			c0,0.48-0.14,0.92-0.38,1.3c1.37,0.6,2.37,1.87,2.58,3.4c0.85,0.5,1.41,1.42,1.41,2.47c0,1.42-1.04,2.6-2.4,2.83
			C-18.84,187.37-18.83,187.53-18.83,187.69z"/>
		<path class="st12" d="M216.77,99.6c0.64,0,1.26,0.06,1.87,0.17c1.23-5.71,6.31-9.99,12.38-9.99c0.14,0,0.29,0.01,0.43,0.01
			c1.94-3.05,5.35-5.08,9.23-5.08c3.25,0,6.17,1.42,8.17,3.67c1.29-0.33,2.64-0.51,4.02-0.51c7.46,0,13.74,5.06,15.59,11.94
			c0.69-0.14,1.41-0.22,2.14-0.22c5.77,0,10.45,4.68,10.45,10.45s-4.68,10.45-10.45,10.45c-3.17,0-6.01-1.41-7.92-3.64
			c-2.72,2.08-6.12,3.32-9.81,3.32c-0.84,0-1.67-0.06-2.47-0.19c-2.33,2.09-5.4,3.36-8.77,3.36c-5.56,0-10.32-3.46-12.24-8.34
			c-1.06-0.14-2.08-0.4-3.05-0.79c-1.61,3.69-5.29,6.28-9.58,6.28c-5.77,0-10.45-4.68-10.45-10.45S211,99.6,216.77,99.6z"/>
		<path class="st13" d="M280.29,74.64c0.31,0,0.62,0.03,0.92,0.08c0.61-2.81,3.1-4.91,6.09-4.91c0.07,0,0.14,0,0.21,0.01
			c0.95-1.5,2.63-2.5,4.54-2.5c1.6,0,3.03,0.7,4.02,1.81c0.63-0.16,1.3-0.25,1.98-0.25c3.67,0,6.76,2.49,7.67,5.87
			c0.34-0.07,0.69-0.11,1.05-0.11c2.84,0,5.14,2.3,5.14,5.14c0,2.84-2.3,5.14-5.14,5.14c-1.56,0-2.96-0.7-3.9-1.79
			c-1.34,1.03-3.01,1.64-4.83,1.64c-0.41,0-0.82-0.03-1.22-0.09c-1.14,1.03-2.66,1.65-4.31,1.65c-2.74,0-5.08-1.7-6.02-4.1
			c-0.52-0.07-1.02-0.2-1.5-0.39c-0.79,1.82-2.6,3.09-4.71,3.09c-2.84,0-5.14-2.3-5.14-5.14C275.14,76.95,277.45,74.64,280.29,74.64
			z"/>
		<path class="st13" d="M177.58,70.16c0.48,0,0.94,0.05,1.39,0.13c0.92-4.26,4.7-7.45,9.23-7.45c0.11,0,0.21,0,0.32,0.01
			c1.45-2.28,3.99-3.79,6.88-3.79c2.42,0,4.6,1.06,6.09,2.74c0.96-0.25,1.97-0.38,3-0.38c5.57,0,10.25,3.78,11.63,8.9
			c0.52-0.11,1.05-0.16,1.6-0.16c4.3,0,7.79,3.49,7.79,7.79s-3.49,7.79-7.79,7.79c-2.36,0-4.48-1.05-5.91-2.72
			c-2.03,1.55-4.56,2.48-7.32,2.48c-0.63,0-1.24-0.05-1.84-0.14c-1.74,1.56-4.03,2.5-6.54,2.5c-4.15,0-7.69-2.58-9.12-6.22
			c-0.79-0.1-1.55-0.3-2.27-0.59c-1.2,2.75-3.95,4.68-7.15,4.68c-4.3,0-7.79-3.49-7.79-7.79S173.28,70.16,177.58,70.16z"/>
		<path class="st13" d="M262.89,73.01c0.64,0,1.26,0.06,1.87,0.17c1.23-5.71,6.31-9.99,12.38-9.99c0.14,0,0.29,0.01,0.43,0.01
			c1.94-3.05,5.35-5.08,9.23-5.08c3.25,0,6.17,1.42,8.17,3.67c1.29-0.33,2.64-0.51,4.02-0.51c7.46,0,13.74,5.06,15.59,11.94
			c0.69-0.14,1.41-0.22,2.14-0.22c5.77,0,10.45,4.68,10.45,10.45s-4.68,10.45-10.45,10.45c-3.17,0-6.01-1.41-7.92-3.64
			c-2.72,2.08-6.12,3.32-9.81,3.32c-0.84,0-1.67-0.06-2.47-0.19c-2.33,2.09-5.4,3.36-8.77,3.36c-5.56,0-10.32-3.46-12.24-8.34
			c-1.06-0.14-2.08-0.4-3.05-0.79c-1.61,3.69-5.29,6.28-9.58,6.28c-5.77,0-10.45-4.68-10.45-10.45S257.12,73.01,262.89,73.01z"/>
		<path class="st14" d="M271.31,73.33c0.44,0,0.87,0.04,1.29,0.12c0.85-3.94,4.35-6.89,8.54-6.89c0.1,0,0.2,0,0.3,0.01
			c1.34-2.1,3.68-3.5,6.36-3.5c2.24,0,4.25,0.98,5.63,2.53c0.89-0.23,1.82-0.35,2.77-0.35c5.14,0,9.47,3.49,10.75,8.23
			c0.48-0.1,0.97-0.15,1.48-0.15c3.98,0,7.2,3.23,7.2,7.2c0,3.98-3.23,7.2-7.2,7.2c-2.19,0-4.14-0.97-5.46-2.51
			c-1.88,1.44-4.22,2.29-6.76,2.29c-0.58,0-1.15-0.04-1.71-0.13c-1.6,1.44-3.72,2.31-6.05,2.31c-3.84,0-7.11-2.38-8.43-5.75
			c-0.73-0.09-1.44-0.28-2.1-0.54c-1.11,2.55-3.65,4.33-6.61,4.33c-3.98,0-7.2-3.23-7.2-7.2C264.11,76.55,267.34,73.33,271.31,73.33
			z"/>
		<g class="st3">
			<rect x="-91.26" y="188.5" class="st15" width="416.5" height="7.71"/>
			<rect x="-91.26" y="215.04" class="st15" width="416.5" height="7.71"/>
			<g class="st5">
				<rect x="-91.26" y="196.06" class="st16" width="416.5" height="19.9"/>
				<rect x="-91.26" y="196.06" class="st17" width="416.5" height="1.24"/>
				<rect x="-91.26" y="214.78" class="st17" width="416.5" height="1.24"/>
				<path class="st17" d="M311.83,204.15h13.41v1.24h-13.41V204.15z M290.77,205.38h13.41v-1.24h-13.41V205.38z M269.7,205.38h13.41
					v-1.24H269.7V205.38z M248.63,205.38h13.41v-1.24h-13.41V205.38z M227.56,205.38h13.41v-1.24h-13.41V205.38z M206.49,205.38
					h13.41v-1.24h-13.41V205.38z M185.42,205.38h13.41v-1.24h-13.41V205.38z M164.35,205.38h13.41v-1.24h-13.41V205.38z
					 M143.28,205.38h13.41v-1.24h-13.41V205.38z M122.21,205.38h13.41v-1.24h-13.41V205.38z M101.14,205.38h13.41v-1.24h-13.41
					V205.38z M80.07,205.38h13.41v-1.24H80.07V205.38z M59,205.38h13.41v-1.24H59V205.38z M37.93,205.38h13.41v-1.24H37.93V205.38z
					 M16.86,205.38h13.41v-1.24H16.86V205.38z M-4.2,205.38H9.2v-1.24H-4.2V205.38z M-25.27,205.38h13.41v-1.24h-13.41V205.38z
					 M-46.34,205.38h13.41v-1.24h-13.41V205.38z M-67.41,205.38H-54v-1.24h-13.41V205.38z M-88.48,205.38h13.41v-1.24h-13.41V205.38
					z"/>
			</g>
		</g>
		<path class="st13" d="M131.93,87.27c0.28,0,0.55,0.03,0.82,0.09c0.99-2.69,3.57-4.62,6.61-4.62c1.01,0,1.96,0.21,2.83,0.59
			c0.01-0.01,0.02-0.01,0.02-0.02c-0.05-0.27-0.08-0.55-0.08-0.83c0-2.5,2.03-4.53,4.53-4.53c1.91,0,3.54,1.18,4.21,2.86
			c0.35-0.05,0.71-0.09,1.08-0.09c3.31,0,6.1,2.21,7,5.23c0.71-0.44,1.55-0.7,2.44-0.7c2.57,0,4.66,2.09,4.66,4.66
			c0,2.57-2.09,4.66-4.66,4.66c-0.2,0-0.4-0.02-0.59-0.04c-0.66,1.22-1.95,2.06-3.44,2.06c-0.28,0-0.56-0.03-0.82-0.09
			c-0.78,0.97-1.99,1.6-3.33,1.6c-0.09,0-0.18-0.01-0.27-0.01c-1.25,1.25-2.98,2.03-4.9,2.03c-1.29,0-2.5-0.36-3.53-0.98
			c-0.59,0.45-1.33,0.72-2.13,0.72c-1.78,0-3.25-1.33-3.49-3.04c-1.92-0.13-3.63-1.02-4.82-2.38c-0.61,0.4-1.35,0.64-2.14,0.64
			c-2.16,0-3.9-1.75-3.9-3.9C128.03,89.02,129.78,87.27,131.93,87.27z"/>
		<path class="st12" d="M72.7,65.68c0.28,0,0.55,0.03,0.82,0.09c0.99-2.69,3.57-4.62,6.61-4.62c1.01,0,1.96,0.21,2.83,0.59
			c0.01-0.01,0.02-0.01,0.02-0.02c-0.05-0.27-0.08-0.55-0.08-0.83c0-2.5,2.03-4.53,4.53-4.53c1.91,0,3.54,1.18,4.21,2.86
			c0.35-0.05,0.71-0.09,1.08-0.09c3.31,0,6.1,2.21,7,5.23c0.71-0.44,1.55-0.7,2.44-0.7c2.57,0,4.66,2.09,4.66,4.66
			c0,2.57-2.09,4.66-4.66,4.66c-0.2,0-0.4-0.02-0.59-0.04c-0.66,1.22-1.95,2.06-3.44,2.06c-0.28,0-0.56-0.03-0.82-0.09
			c-0.78,0.97-1.99,1.6-3.33,1.6c-0.09,0-0.18-0.01-0.27-0.01c-1.25,1.25-2.98,2.03-4.9,2.03c-1.29,0-2.5-0.36-3.53-0.98
			c-0.59,0.45-1.33,0.72-2.13,0.72c-1.78,0-3.25-1.33-3.49-3.04c-1.92-0.13-3.63-1.02-4.82-2.38c-0.61,0.4-1.35,0.64-2.14,0.64
			c-2.16,0-3.9-1.75-3.9-3.9S70.54,65.68,72.7,65.68z"/>
		<path class="st13" d="M-61.95,101.74c0.42,0,0.82,0.05,1.21,0.13c1.47-4,5.3-6.85,9.8-6.85c1.49,0,2.91,0.32,4.19,0.88
			c0.01-0.01,0.02-0.02,0.03-0.03c-0.07-0.4-0.12-0.81-0.12-1.23c0-3.71,3.01-6.72,6.72-6.72c2.83,0,5.25,1.76,6.24,4.24
			c0.52-0.08,1.05-0.13,1.6-0.13c4.91,0,9.05,3.27,10.38,7.76c1.05-0.65,2.29-1.03,3.62-1.03c3.82,0,6.91,3.09,6.91,6.91
			s-3.09,6.91-6.91,6.91c-0.3,0-0.59-0.03-0.88-0.06c-0.98,1.81-2.89,3.05-5.1,3.05c-0.42,0-0.82-0.05-1.22-0.13
			c-1.16,1.44-2.94,2.37-4.94,2.37c-0.13,0-0.26-0.01-0.39-0.02c-1.86,1.86-4.43,3.01-7.26,3.01c-1.92,0-3.7-0.53-5.24-1.45
			c-0.88,0.67-1.97,1.07-3.16,1.07c-2.65,0-4.83-1.97-5.17-4.52c-2.85-0.19-5.38-1.51-7.15-3.53c-0.91,0.6-2,0.95-3.17,0.95
			c-3.2,0-5.79-2.59-5.79-5.79C-67.74,104.33-65.14,101.74-61.95,101.74z"/>
	</g>
</g>
<g class="st3">
	<g class="st5">
		<path class="st18" d="M37.16,168.38L37.16,168.38l0-47.58c-0.41-0.14-0.73-0.46-0.88-0.86h2.7c-0.16,0.43-0.51,0.76-0.96,0.89
			v47.55l-1.16,3.8l-0.8-0.24L37.16,168.38z"/>
		<polygon class="st19" points="38.18,121.4 38.18,121.46 39.53,121.46 39.53,120.99 39.63,120.99 39.63,122.43 39.53,122.43 
			39.53,121.55 38.18,121.55 38.18,121.79 37.05,121.79 37.05,121.4 		"/>
		<polygon class="st19" points="38.18,144.98 38.18,145.04 39.53,145.04 39.53,144.57 39.63,144.57 39.63,146.01 39.53,146.01 
			39.53,145.12 38.18,145.12 38.18,145.37 37.05,145.37 37.05,144.98 		"/>
		<polygon class="st19" points="38.18,167.41 38.18,167.47 39.53,167.47 39.53,167 39.63,167 39.63,168.44 39.53,168.44 
			39.53,167.55 38.18,167.55 38.18,167.8 37.05,167.8 37.05,167.41 		"/>
	</g>
	<polygon class="st20" points="105.09,119.35 105.09,118.25 71.5,98.85 37.9,118.25 37.9,119.35 	"/>
	<polygon class="st21" points="103.36,174.17 103.36,119.25 71.5,100.86 39.64,119.25 39.64,174.17 	"/>
	<polygon class="st22" points="71.51,174.17 103.36,174.17 103.36,119.25 71.51,100.86 	"/>
	<polygon class="st23" points="71.51,100.87 71.5,100.86 39.64,119.25 39.64,128.41 71.5,110.02 71.51,102.17 	"/>
	<polygon class="st24" points="100.82,122.42 75.96,108.07 75.96,142.23 100.82,142.23 	"/>
	<polygon class="st25" points="76.83,141.36 76.83,109.57 99.95,122.92 99.95,141.36 	"/>
	<polygon class="st26" points="77.7,111.63 99.95,124.48 99.95,122.92 76.83,109.57 76.83,141.36 77.7,141.36 	"/>
	<g class="st5">
		<polygon class="st19" points="71.49,142.78 39.58,142.78 34.41,149.13 71.49,149.13 		"/>
		<rect x="34.42" y="149.12" class="st27" width="37.09" height="1.08"/>
		<rect x="39.64" y="150.2" class="st28" width="31.87" height="1.08"/>
	</g>
	<rect x="81.91" y="111.79" class="st24" width="0.93" height="29.97"/>
	<rect x="94.06" y="119.23" class="st24" width="0.93" height="22.54"/>
	<rect x="76.34" y="122.95" class="st24" width="24.41" height="0.93"/>
	<rect x="75.96" y="148.2" class="st24" width="24.86" height="23.54"/>
	<rect x="76.83" y="149" class="st29" width="23.12" height="21.87"/>
	<polygon class="st26" points="77.7,150.02 99.95,150.02 99.95,149 76.83,149 76.83,170.87 77.7,170.87 	"/>
	<rect x="81.91" y="148.57" class="st24" width="0.93" height="22.71"/>
	<rect x="94.06" y="148.73" class="st24" width="0.93" height="22.54"/>
	<rect x="76.34" y="153.59" class="st24" width="24.41" height="0.93"/>
	<rect x="43.85" y="123.17" class="st24" width="24.86" height="16.02"/>
	<polygon class="st25" points="44.72,123.97 44.72,138.32 52.76,138.32 52.87,142.24 60.74,142.35 61.01,138.32 67.84,138.32 
		67.84,123.97 	"/>
	<polygon class="st26" points="45.59,124.99 67.84,124.99 67.84,123.97 44.72,123.97 44.72,138.32 45.59,138.32 	"/>
	<rect x="52.51" y="123.54" class="st24" width="0.93" height="19.24"/>
	<rect x="60.43" y="123.75" class="st24" width="0.93" height="19.03"/>
	<rect x="42.48" y="153.4" class="st24" width="8.16" height="16.02"/>
	<rect x="43.27" y="154.27" class="st29" width="6.6" height="14.35"/>
	<rect x="52.58" y="141.88" class="st24" width="8.16" height="0.93"/>
	<path class="st24" d="M39.64,133.67v9.22h31.82v-9.22H39.64z M42.66,141.91h-2.27v-6.73h2.27V141.91z M45.75,141.91h-2.27v-6.73
		h2.27V141.91z M48.84,141.91h-2.27v-6.73h2.27V141.91z M51.94,141.91h-2.27v-6.73h2.27V141.91z M55.03,141.91h-2.27v-6.73h2.27
		V141.91z M58.12,141.91h-2.27v-6.73h2.27V141.91z M61.21,141.91h-2.27v-6.73h2.27V141.91z M64.3,141.91h-2.27v-6.73h2.27V141.91z
		 M67.4,141.91h-2.27v-6.73h2.27V141.91z M70.49,141.91h-2.27v-6.73h2.27V141.91z"/>
	<polygon class="st26" points="43.78,155.03 49.87,155.03 49.87,154.27 43.27,154.27 43.27,168.62 43.78,168.62 	"/>
	<rect x="52.6" y="153.4" class="st24" width="8.16" height="20.63"/>
	<rect x="53.4" y="154.27" class="st29" width="6.6" height="18.96"/>
	<polygon class="st26" points="53.9,155.03 60,155.03 60,154.27 53.4,154.27 53.4,173.23 53.9,173.23 	"/>
	<rect x="60.76" y="153.4" class="st24" width="8.16" height="20.63"/>
	<rect x="61.56" y="154.27" class="st29" width="6.6" height="18.96"/>
	<polygon class="st26" points="62.06,155.03 68.16,155.03 68.16,154.27 61.56,154.27 61.56,173.23 62.06,173.23 	"/>
	<rect x="52.98" y="169.18" class="st24" width="15.59" height="0.81"/>
	<rect x="52.98" y="157.1" class="st24" width="15.59" height="0.81"/>
	<rect x="38.12" y="174.13" class="st30" width="66.5" height="0.76"/>
	<rect x="38.12" y="174.13" class="st31" width="32.93" height="0.76"/>
	<g class="st5">
		<path class="st18" d="M105.82,168.38L105.82,168.38l0-47.58c0.41-0.14,0.73-0.46,0.88-0.86H104c0.16,0.43,0.51,0.76,0.96,0.89
			v47.55l1.16,3.8l0.8-0.24L105.82,168.38z"/>
		<polygon class="st19" points="104.8,121.4 104.8,121.46 103.46,121.46 103.46,120.99 103.35,120.99 103.35,122.43 103.46,122.43 
			103.46,121.55 104.8,121.55 104.8,121.79 105.94,121.79 105.94,121.4 		"/>
		<polygon class="st19" points="104.8,144.98 104.8,145.04 103.46,145.04 103.46,144.57 103.35,144.57 103.35,146.01 103.46,146.01 
			103.46,145.12 104.8,145.12 104.8,145.37 105.94,145.37 105.94,144.98 		"/>
		<polygon class="st19" points="104.8,167.41 104.8,167.47 103.46,167.47 103.46,167 103.35,167 103.35,168.44 103.46,168.44 
			103.46,167.55 104.8,167.55 104.8,167.8 105.94,167.8 105.94,167.41 		"/>
	</g>
</g>
<g class="st3">
	<g class="st5">
		<rect x="193.09" y="143.31" class="st32" width="28.51" height="31.83"/>
		<rect x="197.77" y="156.78" class="st33" width="20.75" height="18.32"/>
		<rect x="199.2" y="158.25" class="st34" width="17.89" height="1.45"/>
		<rect x="199.2" y="160.36" class="st34" width="17.89" height="1.45"/>
		<rect x="199.2" y="162.47" class="st34" width="17.89" height="1.45"/>
		<rect x="199.2" y="164.57" class="st34" width="17.89" height="1.45"/>
		<rect x="199.2" y="166.68" class="st34" width="17.89" height="1.45"/>
		<rect x="199.2" y="168.79" class="st34" width="17.89" height="1.45"/>
		<rect x="199.2" y="170.9" class="st34" width="17.89" height="1.45"/>
		<rect x="199.2" y="173.01" class="st34" width="17.89" height="1.45"/>
		<polygon class="st35" points="198.59,157.95 218.52,157.95 218.52,156.78 197.77,156.78 197.77,175.1 198.59,175.1 		"/>
	</g>
	<rect x="114.64" y="129.46" class="st36" width="17.09" height="44.36"/>
	<rect x="125.06" y="149.36" class="st37" width="68.7" height="24.46"/>
	<polygon class="st36" points="176.93,128.71 176.93,118.46 125.06,118.46 125.06,149.72 193.87,149.72 193.87,128.71 	"/>
	<rect x="125.06" y="149.36" class="st38" width="34.2" height="1.53"/>
	<polygon class="st39" points="164.36,149.7 159.26,149.7 159.26,150.85 125.06,150.85 125.06,154.64 165.92,159.12 	"/>
	<rect x="125.06" y="118.46" class="st40" width="34.18" height="31.26"/>
	<polygon class="st41" points="164.34,149.72 159.31,149.72 159.31,118.46 160.3,118.46 	"/>
	<rect x="112.53" y="172.78" class="st42" width="12.47" height="2.34"/>
	<rect x="158.66" y="172.78" class="st42" width="38.49" height="2.34"/>
	<rect x="219.28" y="172.78" class="st42" width="3.72" height="2.34"/>
	<rect x="124.53" y="172.78" class="st21" width="35.42" height="2.34"/>
	<g class="st5">
		<rect x="144.76" y="156.04" class="st43" width="5.19" height="16.7"/>
		<rect x="145.4" y="156.75" class="st44" width="3.93" height="15.34"/>
		<polygon class="st45" points="145.81,157.36 149.33,157.36 149.33,156.75 145.4,156.75 145.4,172.09 145.81,172.09 		"/>
		<rect x="149.95" y="156.04" class="st43" width="5.36" height="16.7"/>
		<rect x="150.6" y="156.75" class="st44" width="4.1" height="15.34"/>
		<polygon class="st45" points="151.01,157.36 154.7,157.36 154.7,156.75 150.6,156.75 150.6,172.09 151.01,172.09 		"/>
		<rect x="145.07" y="168.82" class="st43" width="9.96" height="0.66"/>
		<rect x="145.07" y="159.04" class="st43" width="9.96" height="0.66"/>
	</g>
	<g class="st5">
		<rect x="163.99" y="156.04" class="st43" width="4.57" height="13.11"/>
		<rect x="164.69" y="156.74" class="st44" width="3.16" height="11.71"/>
		<polygon class="st45" points="165.24,157.39 167.85,157.39 167.85,156.74 164.69,156.74 164.69,168.45 165.24,168.45 		"/>
	</g>
	<g class="st5">
		<rect x="163.99" y="129" class="st43" width="4.57" height="13.11"/>
		<rect x="164.69" y="129.7" class="st44" width="3.16" height="11.71"/>
		<polygon class="st45" points="165.24,130.35 167.85,130.35 167.85,129.7 164.69,129.7 164.69,141.41 165.24,141.41 		"/>
	</g>
	<g class="st5">
		<rect x="178.16" y="134.5" class="st43" width="13.11" height="4.57"/>
		<rect x="178.86" y="135.2" class="st44" width="11.71" height="3.16"/>
		<polygon class="st45" points="179.51,135.74 179.51,138.36 178.86,138.36 178.86,135.2 190.57,135.2 190.57,135.74 		"/>
	</g>
	<g class="st5">
		<rect x="197.76" y="149.6" class="st43" width="5.5" height="4.57"/>
		<rect x="198.46" y="150.3" class="st44" width="4.1" height="3.16"/>
		<polygon class="st45" points="199.11,150.85 199.11,153.47 198.46,153.47 198.46,150.3 202.56,150.3 202.56,150.85 		"/>
	</g>
	<g class="st5">
		<rect x="205.38" y="149.6" class="st43" width="5.5" height="4.57"/>
		<rect x="206.08" y="150.3" class="st44" width="4.1" height="3.16"/>
		<polygon class="st45" points="206.73,150.85 206.73,153.47 206.08,153.47 206.08,150.3 210.18,150.3 210.18,150.85 		"/>
	</g>
	<g class="st5">
		<rect x="212.99" y="149.6" class="st43" width="5.5" height="4.57"/>
		<rect x="213.69" y="150.3" class="st44" width="4.1" height="3.16"/>
		<polygon class="st45" points="214.34,150.85 214.34,153.47 213.69,153.47 213.69,150.3 217.79,150.3 217.79,150.85 		"/>
	</g>
	<g class="st5">
		<rect x="150.29" y="129" class="st43" width="4.57" height="13.11"/>
		<rect x="150.99" y="129.7" class="st46" width="3.16" height="11.71"/>
		<polygon class="st45" points="151.54,130.35 154.16,130.35 154.16,129.7 150.99,129.7 150.99,141.41 151.54,141.41 		"/>
	</g>
	<g class="st5">
		<rect x="143.27" y="129" class="st43" width="4.57" height="13.11"/>
		<rect x="143.97" y="129.7" class="st46" width="3.16" height="11.71"/>
		<polygon class="st45" points="144.51,130.35 147.13,130.35 147.13,129.7 143.97,129.7 143.97,141.41 144.51,141.41 		"/>
	</g>
	<g class="st5">
		<rect x="136.24" y="129" class="st43" width="4.57" height="13.11"/>
		<rect x="136.94" y="129.7" class="st46" width="3.16" height="11.71"/>
		<polygon class="st45" points="137.49,130.35 140.11,130.35 140.11,129.7 136.94,129.7 136.94,141.41 137.49,141.41 		"/>
	</g>
	<g class="st5">
		<rect x="129.22" y="129" class="st43" width="4.57" height="13.11"/>
		<rect x="129.92" y="129.7" class="st46" width="3.16" height="11.71"/>
		<polygon class="st45" points="130.46,130.35 133.08,130.35 133.08,129.7 129.92,129.7 129.92,141.41 130.46,141.41 		"/>
	</g>
	<g class="st5">
		<rect x="172.68" y="156.04" class="st43" width="4.57" height="13.11"/>
		<rect x="173.39" y="156.74" class="st46" width="3.16" height="11.71"/>
		<polygon class="st45" points="173.93,157.39 176.55,157.39 176.55,156.74 173.39,156.74 173.39,168.45 173.93,168.45 		"/>
	</g>
	<g class="st5">
		<rect x="181.38" y="156.04" class="st43" width="4.57" height="13.11"/>
		<rect x="182.08" y="156.74" class="st44" width="3.16" height="11.71"/>
		<polygon class="st45" points="182.62,157.39 185.24,157.39 185.24,156.74 182.08,156.74 182.08,168.45 182.62,168.45 		"/>
	</g>
</g>
<g class="st3">
	<g class="st5">
		<polygon class="st47" points="344.18,139.4 344.18,138.54 286.39,110.12 228.6,138.54 228.6,139.4 		"/>
		<polygon class="st48" points="341.19,174.01 341.19,139.32 286.39,112.98 231.58,139.32 231.58,174.01 		"/>
		<rect x="231.58" y="150.31" class="st49" width="109.61" height="23.71"/>
		<polygon class="st47" points="232.31,150.86 232.31,174.01 237.81,174.01 237.81,156.95 262.9,156.95 262.9,174.01 314.8,174.01 
			314.8,156.58 338.47,156.58 338.47,173.45 340.56,173.45 340.56,150.86 		"/>
		<polygon class="st50" points="337.45,174.01 341.19,174.01 341.19,150.31 308.33,150.31 308.33,154.04 337.45,154.04 		"/>
		<polygon class="st50" points="235.32,174.01 235.32,154.04 263.87,154.04 263.87,150.31 231.58,150.31 231.58,174.01 		"/>
		<g>
			<g>
				<polygon class="st51" points="262.28,126.69 235.39,139.61 235.39,148.42 262.28,148.42 				"/>
				<polygon class="st44" points="236.01,147.79 236.01,140.01 261.66,127.68 261.66,147.79 				"/>
			</g>
			<polygon class="st52" points="236.61,140.9 261.66,128.86 261.66,127.68 236.01,140.01 236.01,147.79 236.61,147.79 			"/>
			<polygon class="st51" points="253.9,148.16 253.9,130.97 253.24,131.3 253.24,148.16 			"/>
			<polygon class="st51" points="244.35,135.51 244.35,148.16 245.01,148.16 245.01,135.24 			"/>
			<polygon class="st51" points="236,139.46 235.78,140.12 262.06,140.12 262.06,139.46 			"/>
		</g>
		<g>
			<g>
				<polygon class="st51" points="310.96,126.69 337.84,139.61 337.84,148.42 310.96,148.42 				"/>
				<polygon class="st44" points="337.22,147.79 337.22,140.01 311.58,127.68 311.58,147.79 				"/>
				<polygon class="st52" points="312.23,129.22 337.22,141.24 337.22,140.01 311.58,127.68 311.58,147.79 312.23,147.79 				"/>
			</g>
			<polygon class="st51" points="319.33,148.16 319.33,130.97 319.99,131.3 319.99,148.16 			"/>
			<polygon class="st51" points="328.88,135.51 328.88,148.16 328.22,148.16 328.22,135.24 			"/>
			<polygon class="st51" points="337.24,139.46 337.46,140.12 311.17,140.12 311.17,139.46 			"/>
		</g>
		<polygon class="st28" points="341.19,141.19 341.19,139.32 286.39,112.98 231.58,139.32 231.58,141.19 286.39,114.85 		"/>
		<g>
			<rect x="262.28" y="125.44" class="st50" width="48.58" height="48.58"/>
			<rect x="267.26" y="130.42" class="st51" width="38.61" height="38.61"/>
			<rect x="267.88" y="131.04" class="st44" width="37.37" height="37.37"/>
			<polygon class="st52" points="268.61,132.18 305.25,132.18 305.25,131.04 267.88,131.04 267.88,168.41 268.61,168.41 			"/>
			<rect x="286.18" y="130.48" class="st51" width="0.66" height="38.17"/>
			<rect x="267.43" y="149.31" class="st51" width="38.17" height="0.66"/>
			<rect x="267.43" y="139.45" class="st51" width="38.17" height="0.66"/>
			<rect x="267.43" y="159.09" class="st51" width="38.17" height="0.66"/>
			<rect x="295.99" y="130.48" class="st51" width="0.66" height="38.17"/>
			<rect x="276.36" y="130.48" class="st51" width="0.66" height="38.17"/>
		</g>
		<rect x="237.99" y="156.99" class="st51" width="24.08" height="12.04"/>
		<rect x="238.61" y="157.61" class="st46" width="22.84" height="10.8"/>
		<polygon class="st52" points="239.21,158.61 261.45,158.61 261.45,157.61 238.61,157.61 238.61,168.41 239.21,168.41 		"/>
		<rect x="245.49" y="157.32" class="st51" width="0.66" height="11.39"/>
		<rect x="254.01" y="157.32" class="st51" width="0.66" height="11.39"/>
		<g>
			<rect x="318.12" y="156.88" class="st51" width="15.36" height="16.92"/>
			<rect x="318.75" y="157.5" class="st46" width="14.12" height="15.67"/>
			<polygon class="st52" points="319.34,158.5 332.86,158.5 332.86,157.5 318.75,157.5 318.75,173.17 319.34,173.17 			"/>
			<rect x="325.1" y="157.21" class="st51" width="1.72" height="16.28"/>
		</g>
	</g>
	<rect x="230.67" y="173.89" class="st53" width="111.47" height="1.59"/>
</g>
<g class="st3">
	<rect x="-54.96" y="120.24" class="st21" width="58.23" height="55.29"/>
	<rect x="-57.23" y="173.97" class="st54" width="60.51" height="1.73"/>
	<polygon class="st55" points="0.15,121.66 -58.08,121.66 -37.89,106.59 0.15,106.59 	"/>
	<polygon class="st54" points="20.77,121.83 20.77,119.67 -3.98,97.47 -28.72,119.67 -28.72,121.83 	"/>
	<polygon class="st56" points="19.49,175.53 -27.44,175.53 -27.44,120.24 -3.98,99.19 19.49,120.24 	"/>
	<g class="st5">
		<rect x="-21.99" y="126.48" class="st14" width="15.73" height="15.5"/>
		<rect x="-21.36" y="127.06" class="st46" width="14.47" height="14.29"/>
		<polygon class="st45" points="-20.73,127.8 -6.89,127.8 -6.89,127.06 -21.36,127.06 -21.36,141.35 -20.73,141.35 		"/>
		<rect x="-14.5" y="126.74" class="st14" width="0.68" height="14.9"/>
		<rect x="-21.72" y="130.39" class="st14" width="15.41" height="0.68"/>
	</g>
	<g class="st5">
		<rect x="-51.43" y="126.48" class="st14" width="15.73" height="15.5"/>
		<rect x="-50.8" y="127.06" class="st44" width="14.47" height="14.29"/>
		<polygon class="st45" points="-50.17,127.8 -36.32,127.8 -36.32,127.06 -50.8,127.06 -50.8,141.35 -50.17,141.35 		"/>
		<rect x="-43.93" y="126.74" class="st14" width="0.68" height="14.9"/>
		<rect x="-51.16" y="130.39" class="st14" width="15.41" height="0.68"/>
	</g>
	<g class="st5">
		<rect x="-9.19" y="106.85" class="st14" width="9.7" height="10.47"/>
		<rect x="-8.56" y="107.43" class="st46" width="8.44" height="9.26"/>
		<polygon class="st45" points="-7.93,108.17 -0.13,108.17 -0.13,107.43 -8.56,107.43 -8.56,116.7 -7.93,116.7 		"/>
	</g>
	<g class="st5">
		<rect x="-50.61" y="151.36" class="st14" width="4.68" height="17.87"/>
		<rect x="-50.07" y="151.87" class="st44" width="3.59" height="16.82"/>
		<polygon class="st45" points="-49.52,152.51 -46.48,152.51 -46.48,151.87 -50.07,151.87 -50.07,168.68 -49.52,168.68 		"/>
	</g>
	<g class="st5">
		<rect x="-33.87" y="151.36" class="st14" width="4.68" height="17.87"/>
		<rect x="-33.32" y="151.87" class="st44" width="3.59" height="16.82"/>
		<polygon class="st45" points="-32.78,152.51 -29.74,152.51 -29.74,151.87 -33.32,151.87 -33.32,168.68 -32.78,168.68 		"/>
	</g>
	<g class="st5">
		<rect x="-1.41" y="126.48" class="st14" width="15.73" height="15.5"/>
		<rect x="-0.78" y="127.06" class="st44" width="14.47" height="14.29"/>
		<polygon class="st45" points="-0.15,127.8 13.7,127.8 13.7,127.06 -0.78,127.06 -0.78,141.35 -0.15,141.35 		"/>
		<rect x="6.08" y="126.74" class="st14" width="0.68" height="14.9"/>
		<rect x="-1.14" y="130.39" class="st14" width="15.41" height="0.68"/>
	</g>
	<g class="st5">
		<rect x="-21.99" y="151.01" class="st14" width="15.73" height="15.5"/>
		<rect x="-21.36" y="151.59" class="st44" width="14.47" height="14.29"/>
		<polygon class="st45" points="-20.73,152.33 -6.89,152.33 -6.89,151.59 -21.36,151.59 -21.36,165.88 -20.73,165.88 		"/>
		<rect x="-14.5" y="151.27" class="st14" width="0.68" height="14.9"/>
		<rect x="-21.72" y="154.92" class="st14" width="15.41" height="0.68"/>
	</g>
	<g class="st5">
		<rect x="-1.41" y="151.01" class="st14" width="15.73" height="15.5"/>
		<rect x="-0.78" y="151.59" class="st44" width="14.47" height="14.29"/>
		<polygon class="st45" points="-0.15,152.33 13.7,152.33 13.7,151.59 -0.78,151.59 -0.78,165.88 -0.15,165.88 		"/>
		<rect x="6.08" y="151.27" class="st14" width="0.68" height="14.9"/>
		<rect x="-1.14" y="154.92" class="st14" width="15.41" height="0.68"/>
	</g>
	<rect x="-58.15" y="121.66" class="st54" width="30.73" height="1.07"/>
	<rect x="-27.58" y="173.42" class="st55" width="47.92" height="2.28"/>
	<polygon class="st55" points="-27.44,142.21 -55.81,142.21 -61.5,148.29 -27.44,148.29 	"/>
	<rect x="-61.57" y="148.28" class="st54" width="34.13" height="0.84"/>
	<rect x="-54.96" y="149.14" class="st57" width="27.52" height="0.84"/>
	<rect x="-54.96" y="122.75" class="st57" width="27.52" height="0.84"/>
	<g class="st5">
		<g>
			<rect x="-44.52" y="151.33" class="st14" width="8.7" height="17.98"/>
			<rect x="-44.1" y="151.72" class="st44" width="2.25" height="3.54"/>
			<rect x="-41.33" y="151.72" class="st44" width="2.3" height="3.54"/>
			<rect x="-38.52" y="151.72" class="st44" width="2.3" height="3.54"/>
			<rect x="-44.1" y="155.65" class="st44" width="2.25" height="2.05"/>
			<rect x="-41.33" y="155.65" class="st44" width="2.3" height="2.05"/>
			<rect x="-38.52" y="155.65" class="st44" width="2.3" height="2.05"/>
			<polygon class="st45" points="-43.76,152.27 -41.85,152.27 -41.85,151.72 -44.1,151.72 -44.1,155.26 -43.76,155.26 			"/>
			<polygon class="st45" points="-40.99,152.27 -39.03,152.27 -39.03,151.72 -41.33,151.72 -41.33,155.26 -40.99,155.26 			"/>
			<polygon class="st45" points="-38.17,152.27 -36.22,152.27 -36.22,151.72 -38.52,151.72 -38.52,155.26 -38.17,155.26 			"/>
			<polygon class="st45" points="-43.76,156.21 -41.85,156.21 -41.85,155.65 -44.1,155.65 -44.1,157.7 -43.76,157.7 			"/>
			<polygon class="st45" points="-40.99,156.21 -39.03,156.21 -39.03,155.65 -41.33,155.65 -41.33,157.7 -40.99,157.7 			"/>
			<polygon class="st45" points="-38.17,156.21 -36.22,156.21 -36.22,155.65 -38.52,155.65 -38.52,157.7 -38.17,157.7 			"/>
			<rect x="-44.1" y="158.14" class="st44" width="2.25" height="2.05"/>
			<rect x="-41.33" y="158.14" class="st44" width="2.3" height="2.05"/>
			<rect x="-38.52" y="158.14" class="st44" width="2.3" height="2.05"/>
			<polygon class="st45" points="-43.76,158.7 -41.85,158.7 -41.85,158.14 -44.1,158.14 -44.1,160.19 -43.76,160.19 			"/>
			<polygon class="st45" points="-40.99,158.7 -39.03,158.7 -39.03,158.14 -41.33,158.14 -41.33,160.19 -40.99,160.19 			"/>
			<polygon class="st45" points="-38.17,158.7 -36.22,158.7 -36.22,158.14 -38.52,158.14 -38.52,160.19 -38.17,160.19 			"/>
			<rect x="-44.1" y="160.63" class="st44" width="2.25" height="2.05"/>
			<rect x="-41.33" y="160.63" class="st44" width="2.3" height="2.05"/>
			<rect x="-38.52" y="160.63" class="st44" width="2.3" height="2.05"/>
			<polygon class="st45" points="-43.76,161.18 -41.85,161.18 -41.85,160.63 -44.1,160.63 -44.1,162.67 -43.76,162.67 			"/>
			<polygon class="st45" points="-40.99,161.18 -39.03,161.18 -39.03,160.63 -41.33,160.63 -41.33,162.67 -40.99,162.67 			"/>
			<polygon class="st45" points="-38.17,161.18 -36.22,161.18 -36.22,160.63 -38.52,160.63 -38.52,162.67 -38.17,162.67 			"/>
			<rect x="-44.1" y="163.13" class="st44" width="2.25" height="5.77"/>
			<rect x="-41.33" y="163.13" class="st44" width="2.3" height="5.77"/>
			<rect x="-38.52" y="163.13" class="st44" width="2.3" height="5.77"/>
			<polygon class="st45" points="-43.76,163.68 -41.85,163.68 -41.85,163.13 -44.1,163.13 -44.1,168.9 -43.76,168.9 			"/>
			<polygon class="st45" points="-40.99,163.68 -39.03,163.68 -39.03,163.13 -41.33,163.13 -41.33,168.9 -40.99,168.9 			"/>
			<polygon class="st45" points="-38.17,163.68 -36.22,163.68 -36.22,163.13 -38.52,163.13 -38.52,168.9 -38.17,168.9 			"/>
		</g>
	</g>
	<rect x="-50.76" y="169.44" class="st55" width="23.18" height="1.56"/>
	<rect x="-53.32" y="170.94" class="st58" width="25.74" height="1.56"/>
	<rect x="-55.72" y="172.47" class="st59" width="28.14" height="1.56"/>
	<polygon class="st57" points="-3.98,99.19 -27.44,120.24 -27.44,122.16 -3.98,101.11 19.49,122.16 19.49,120.24 	"/>
</g>
</svg>
