<?xml version="1.0" encoding="utf-8"?>
<!-- Generator: Adobe Illustrator 24.3.0, SVG Export Plug-In . SVG Version: 6.00 Build 0)  -->
<svg version="1.1" id="layer" xmlns="http://www.w3.org/2000/svg" xmlns:xlink="http://www.w3.org/1999/xlink" x="0px" y="0px"
	 viewBox="0 0 414.82 206.99" style="enable-background:new 0 0 414.82 206.99;" xml:space="preserve">
<style type="text/css">
	.st0{display:none;}
	.st1{display:inline;fill:#FFE6BB;}
	.st2{display:inline;}
	.st3{fill:#FDC345;}
	.st4{fill:#FFD788;}
	.st5{fill:#1E2323;}
	.st6{fill:#C95B3D;}
	.st7{fill:#343D18;}
	.st8{fill:#475429;}
	.st9{fill:#31381C;}
	.st10{fill:#313A1C;}
	.st11{fill:#242D0F;}
	.st12{display:none;fill:#FFFFFF;}
	.st13{display:none;fill:#D9F6FF;}
	.st14{fill:#36421A;}
	.st15{fill:#363838;}
	.st16{fill:#A5A5A5;}
	.st17{fill:#59698B;}
	.st18{fill:#465572;}
	.st19{fill:#A0A5AA;}
	.st20{fill:#B5B5B5;}
	.st21{fill:#FFFFFF;}
	.st22{fill:#233F3E;}
	.st23{fill:#258E88;}
	.st24{fill:#5B6B8D;}
	.st25{fill:#F7F7D2;}
	.st26{fill:#89847D;}
	.st27{fill:#968B77;}
	.st28{fill:#A59E92;}
	.st29{fill:#847863;}
	.st30{fill:#986435;}
	.st31{fill:#B37E52;}
	.st32{fill:#8C562A;}
	.st33{fill:#969289;}
	.st34{fill:#81AC41;}
	.st35{fill:#D3986C;}
	.st36{fill:#626868;}
	.st37{fill:#999999;}
	.st38{fill:#707676;}
	.st39{fill:#523D38;}
	.st40{fill:#4B9694;}
	.st41{fill:#3A3442;}
	.st42{fill:#4F4957;}
	.st43{fill:#BFBFBF;}
	.st44{fill:#D1D1D1;}
	.st45{fill:#484351;}
	.st46{fill:#403B49;}
</style>
<g class="st0">
	<polygon class="st1" points="111.41,9.75 114.33,28.93 120.59,10.56 118.84,29.89 129.32,13.55 122.99,31.9 137.08,18.55 
		126.54,34.85 143.41,25.25 129.28,38.56 147.96,33.27 131.06,42.81 150.45,42.15 131.76,47.37 150.75,51.37 131.35,51.96 
		148.83,60.39 129.86,56.33 144.81,68.7 127.36,60.2 138.92,75.79 124.01,63.37 131.5,81.27 120,65.65 122.99,84.82 115.56,66.89 
		113.87,86.23 110.95,67.04 104.69,85.41 106.44,66.08 95.96,82.42 102.29,64.07 88.21,77.43 98.74,61.13 81.87,70.73 96,57.42 
		77.32,62.7 94.22,53.16 74.83,53.82 93.52,48.6 74.53,44.6 93.93,44.01 76.45,35.58 95.42,39.65 80.47,27.28 97.92,35.77 
		86.36,20.18 101.27,32.6 93.78,14.7 105.28,30.33 102.29,11.15 109.72,29.08 	"/>
	<g class="st2">
		<circle class="st3" cx="112.64" cy="47.99" r="16.45"/>
		<path class="st4" d="M115.11,43.26c5.17,0,9.72,2.61,12.42,6.59c0.08-0.61,0.12-1.23,0.12-1.86c0-8.29-6.72-15.01-15.01-15.01
			c-8.29,0-15.01,6.72-15.01,15.01c0,3.12,0.95,6.02,2.59,8.42C101.13,49,107.45,43.26,115.11,43.26z"/>
	</g>
</g>
<g>
	<g>
		<polygon class="st5" points="279.4,119.61 264.25,119.61 250.38,127.37 250.38,128.92 251.49,128.92 251.49,129.69 251.49,152.8 
			243.52,156.07 243.52,157.05 244.63,157.05 244.63,157.58 244.63,173.78 243.67,173.78 243.67,175.67 266.01,175.67 
			289.65,175.67 293.77,175.67 293.77,175.68 309.46,175.68 309.46,175.67 311.98,175.67 311.98,173.78 311.21,173.78 
			311.21,129.84 311.21,128.62 313.89,130.17 313.89,128.33 289.09,114.01 		"/>
		<path class="st5" d="M205.17,173.82h-1.58v-0.78h-0.8v-23.62h0.64v-0.94h0.07l-7.5-13H178.3v-5.68h-0.13v-0.24h0.73v-0.04
			l-1.04-0.6l-1.04,0.6v0.04h0.68v0.24h-0.16v5.68h-0.97v-3.94h-0.13v-0.24h0.73v-0.04l-1.04-0.6l-1.04,0.6v0.04h0.68v0.24h-0.16
			v3.94h-32.45l-7.48,12.96h-0.01v0.02l-0.01,0.02h0.01v0.94h0.98v0.9v24.4h-0.93v0.96h70.3v-0.96h-0.65V173.82z M177.71,129.56
			h0.24v0.24h-0.24V129.56z M175.79,131.31h0.24v0.24h-0.24V131.31z"/>
		<path class="st5" d="M40.49,173.82h-0.89v-0.78h-0.45v-23.62h0.36v-0.94h0.04l-4.24-13h-10v-5.68h-0.08v-0.24h0.41v-0.04
			l-0.59-0.6l-0.59,0.6v0.04h0.39v0.24h-0.09v5.68h-0.55v-3.94h-0.08v-0.24h0.41v-0.04l-0.59-0.6l-0.59,0.6v0.04h0.39v0.24h-0.09
			v3.94H5.32l-4.23,12.96H1.08v0.02l-0.01,0.02h0.01v0.94h0.55v0.9v24.4H1.11v0.96h39.74v-0.96h-0.37V173.82z M24.96,129.56h0.13
			v0.24h-0.13V129.56z M23.88,131.31h0.13v0.24h-0.13V131.31z"/>
		<polygon class="st5" points="85.3,116.42 85.3,116.42 85.3,116.42 49.71,128.53 49.71,130.16 51.6,130.16 51.6,131.07 
			51.6,144.44 36.14,149.7 36.14,150.97 37.48,150.97 37.48,152.03 37.48,174.3 35.69,174.3 35.69,175.66 120.08,175.66 
			120.08,174.3 118.9,174.3 118.9,150.74 119.81,150.74 119.81,149.45 118.9,149.45 118.9,131.07 118.9,130.16 120.89,130.16 
			120.89,128.53 85.31,116.42 		"/>
		<polygon class="st5" points="390.68,116.42 390.68,116.42 390.68,116.42 367.54,128.53 367.54,130.16 368.77,130.16 
			368.77,131.07 368.77,144.44 358.72,149.7 358.72,150.97 359.59,150.97 359.59,152.03 359.59,174.3 358.43,174.3 358.43,175.66 
			413.29,175.66 413.29,174.3 412.52,174.3 412.52,150.74 413.12,150.74 413.12,149.45 412.52,149.45 412.52,131.07 412.52,130.16 
			413.82,130.16 413.82,128.53 390.69,116.42 		"/>
		<polygon class="st5" points="71.41,149.18 73.02,149.18 73.02,147.31 49.72,133.63 26.41,147.31 26.41,149.18 28.02,149.18 
			28.02,174.81 27.24,174.81 27.24,175.69 51.55,175.69 51.55,175.83 74.62,175.83 74.62,174.11 71.41,174.11 		"/>
		<polygon class="st5" points="388.99,174.27 388.99,150.5 388.99,148.83 390.36,148.83 390.36,147.64 390.33,147.64 384.04,127.96 
			343.49,127.96 336.5,147.64 336.46,147.64 336.46,148.83 337.89,148.83 337.89,150.5 337.89,174.27 336.49,174.27 336.49,175.5 
			391.13,175.5 391.13,174.27 		"/>
	</g>
	<g>
		<g>
			<g>
				<rect x="392.83" y="147.92" class="st6" width="2.85" height="24.83"/>
				<path class="st7" d="M383,146.37c-0.13-0.37-0.21-0.77-0.21-1.19c0-1.35,0.77-2.52,1.89-3.11c-0.84-0.97-1.35-2.23-1.35-3.61
					c0-3.05,2.47-5.51,5.51-5.51c0.02,0,0.04,0,0.06,0c0-0.05,0-0.11,0-0.17c0-2.14,1.74-3.88,3.88-3.88c2.09,0,3.79,1.66,3.87,3.73
					c0.6-0.22,1.24-0.34,1.91-0.34c3.05,0,5.51,2.47,5.51,5.51c0,0.51-0.07,1.01-0.2,1.48c1.5,0.39,2.6,1.76,2.6,3.38
					c0,0.44-0.08,0.85-0.23,1.24c1.84,1.11,3.06,3.12,3.06,5.42c0,0.05,0.09,3.12-3.13,3.27c-0.2,2.67-2.43,4.77-5.15,4.77h-0.01
					c-0.76,1.95-2.65,3.34-4.88,3.34h-2.7c-2.22,0-4.12-1.39-4.88-3.34c-2.71-0.03-4.91-2.14-5.09-4.81
					C381.2,152,382.01,146.9,383,146.37z"/>
			</g>
			<path class="st8" d="M405.45,148.13L405.45,148.13c0-2.73-2.1-4.95-4.77-5.16c-0.15-3.22-3.22-3.13-3.27-3.13
				c-2.3,0-4.32,1.23-5.42,3.06c-0.38-0.15-0.8-0.23-1.24-0.23c-1.62,0-2.99,1.11-3.38,2.6c-0.47-0.13-0.97-0.2-1.48-0.2
				c-1.1,0-2.13,0.33-2.99,0.89c-0.06-0.25-0.1-0.52-0.1-0.79c0-1.35,0.77-2.52,1.89-3.11c-0.84-0.97-1.35-2.23-1.35-3.61
				c0-3.05,2.47-5.51,5.51-5.51c0.02,0,0.04,0,0.06,0c0-0.05,0-0.11,0-0.17c0-2.14,1.74-3.88,3.88-3.88c2.09,0,3.79,1.66,3.87,3.73
				c0.6-0.22,1.24-0.34,1.91-0.34c3.05,0,5.51,2.47,5.51,5.51c0,0.51-0.07,1.01-0.2,1.48c1.5,0.39,2.6,1.76,2.6,3.38
				c0,0.44-0.08,0.85-0.23,1.24c1.84,1.11,3.06,3.12,3.06,5.42c0,0.03,0.03,1.27-0.75,2.21
				C408.12,149.98,406.96,148.72,405.45,148.13z"/>
		</g>
		<g>
			<g>
				<rect x="314.45" y="141.28" class="st6" width="3.61" height="31.47"/>
				<path class="st7" d="M302,139.32c-0.17-0.47-0.26-0.97-0.26-1.5c0-1.71,0.97-3.2,2.4-3.94c-1.06-1.23-1.71-2.82-1.71-4.57
					c0-3.86,3.13-6.99,6.99-6.99c0.03,0,0.05,0,0.07,0c0-0.07-0.01-0.14-0.01-0.21c0-2.71,2.2-4.91,4.91-4.91
					c2.65,0,4.81,2.1,4.91,4.72c0.76-0.28,1.57-0.43,2.43-0.43c3.86,0,6.99,3.13,6.99,6.99c0,0.65-0.09,1.28-0.26,1.87
					c1.9,0.5,3.3,2.23,3.3,4.28c0,0.55-0.1,1.08-0.29,1.57c2.33,1.41,3.88,3.96,3.88,6.87c0,0.07,0.11,3.96-3.97,4.15
					c-0.26,3.38-3.08,6.05-6.53,6.05h-0.01c-0.96,2.48-3.36,4.23-6.18,4.23h-3.42c-2.82,0-5.22-1.76-6.18-4.24
					c-3.43-0.04-6.23-2.72-6.45-6.1C299.72,146.46,300.74,139.99,302,139.32z"/>
			</g>
			<path class="st9" d="M330.46,141.55L330.46,141.55c0-3.46-2.67-6.28-6.05-6.53c-0.19-4.08-4.08-3.96-4.15-3.96
				c-2.92,0-5.47,1.56-6.88,3.88c-0.49-0.18-1.01-0.29-1.57-0.29c-2.06,0-3.78,1.4-4.28,3.3c-0.6-0.17-1.23-0.26-1.88-0.26
				c-1.4,0-2.7,0.42-3.79,1.12c-0.07-0.32-0.13-0.65-0.13-1c0-1.71,0.97-3.2,2.4-3.94c-1.06-1.23-1.71-2.82-1.71-4.57
				c0-3.86,3.13-6.99,6.99-6.99c0.03,0,0.05,0,0.07,0c0-0.07-0.01-0.14-0.01-0.21c0-2.71,2.2-4.91,4.91-4.91
				c2.65,0,4.81,2.1,4.91,4.72c0.76-0.28,1.57-0.43,2.43-0.43c3.86,0,6.99,3.13,6.99,6.99c0,0.65-0.09,1.28-0.26,1.87
				c1.9,0.5,3.3,2.23,3.3,4.28c0,0.55-0.1,1.08-0.29,1.57c2.33,1.41,3.88,3.96,3.88,6.87c0,0.04,0.04,1.6-0.95,2.8
				C333.84,143.9,332.36,142.29,330.46,141.55z"/>
		</g>
		<g>
			<g>
				<rect x="180.37" y="158.99" class="st6" width="1.58" height="13.76"/>
				<path class="st7" d="M174.93,158.14c-0.07-0.21-0.11-0.43-0.11-0.66c0-0.75,0.43-1.4,1.05-1.72c-0.46-0.54-0.75-1.23-0.75-2
					c0-1.69,1.37-3.05,3.05-3.05c0.01,0,0.02,0,0.03,0c0-0.03,0-0.06,0-0.09c0-1.19,0.96-2.15,2.15-2.15c1.16,0,2.1,0.92,2.15,2.06
					c0.33-0.12,0.69-0.19,1.06-0.19c1.69,0,3.05,1.37,3.05,3.05c0,0.28-0.04,0.56-0.11,0.82c0.83,0.22,1.44,0.97,1.44,1.87
					c0,0.24-0.04,0.47-0.12,0.68c1.02,0.61,1.7,1.73,1.7,3.01c0,0.03,0.05,1.73-1.73,1.81c-0.11,1.48-1.35,2.65-2.85,2.65h0
					c-0.42,1.08-1.47,1.85-2.7,1.85h-1.49c-1.23,0-2.28-0.77-2.7-1.85c-1.5-0.02-2.72-1.19-2.82-2.67
					C173.93,161.26,174.38,158.43,174.93,158.14z"/>
			</g>
			<path class="st9" d="M187.37,159.11L187.37,159.11c0-1.51-1.17-2.74-2.65-2.86c-0.08-1.78-1.79-1.73-1.81-1.73
				c-1.28,0-2.39,0.68-3.01,1.7c-0.21-0.08-0.44-0.12-0.68-0.12c-0.9,0-1.65,0.61-1.87,1.44c-0.26-0.07-0.54-0.11-0.82-0.11
				c-0.61,0-1.18,0.18-1.66,0.49c-0.03-0.14-0.06-0.29-0.06-0.44c0-0.75,0.43-1.4,1.05-1.72c-0.46-0.54-0.75-1.23-0.75-2
				c0-1.69,1.37-3.05,3.05-3.05c0.01,0,0.02,0,0.03,0c0-0.03,0-0.06,0-0.09c0-1.19,0.96-2.15,2.15-2.15c1.16,0,2.1,0.92,2.15,2.06
				c0.33-0.12,0.69-0.19,1.06-0.19c1.69,0,3.05,1.37,3.05,3.05c0,0.28-0.04,0.56-0.11,0.82c0.83,0.22,1.44,0.97,1.44,1.87
				c0,0.24-0.04,0.47-0.12,0.68c1.02,0.61,1.7,1.73,1.7,3.01c0,0.02,0.02,0.7-0.41,1.22C188.85,160.14,188.2,159.44,187.37,159.11z"
				/>
		</g>
		<g>
			<g>
				<rect x="22.33" y="152.38" class="st6" width="2.33" height="20.36"/>
				<path class="st7" d="M14.27,151.12c-0.11-0.3-0.17-0.63-0.17-0.97c0-1.11,0.63-2.07,1.55-2.55c-0.69-0.79-1.11-1.83-1.11-2.96
					c0-2.5,2.02-4.52,4.52-4.52c0.02,0,0.03,0,0.05,0c0-0.04,0-0.09,0-0.14c0-1.76,1.42-3.18,3.18-3.18c1.71,0,3.11,1.36,3.18,3.06
					c0.49-0.18,1.02-0.28,1.57-0.28c2.5,0,4.52,2.02,4.52,4.52c0,0.42-0.06,0.83-0.17,1.21c1.23,0.32,2.14,1.44,2.14,2.77
					c0,0.36-0.07,0.7-0.19,1.01c1.51,0.91,2.51,2.56,2.51,4.45c0,0.04,0.07,2.56-2.57,2.69c-0.17,2.19-1.99,3.92-4.22,3.92h0
					c-0.62,1.6-2.18,2.74-4,2.74h-2.21c-1.82,0-3.38-1.14-4-2.74c-2.22-0.03-4.03-1.76-4.18-3.95
					C12.79,155.74,13.45,151.55,14.27,151.12z"/>
			</g>
			<path class="st9" d="M32.68,152.56L32.68,152.56c0-2.24-1.73-4.06-3.92-4.23c-0.12-2.64-2.64-2.57-2.69-2.57
				c-1.89,0-3.54,1.01-4.45,2.51c-0.32-0.12-0.66-0.18-1.01-0.18c-1.33,0-2.45,0.91-2.77,2.14c-0.39-0.11-0.79-0.17-1.21-0.17
				c-0.91,0-1.75,0.27-2.45,0.73c-0.05-0.21-0.08-0.42-0.08-0.65c0-1.11,0.63-2.07,1.55-2.55c-0.69-0.79-1.11-1.83-1.11-2.96
				c0-2.5,2.02-4.52,4.52-4.52c0.02,0,0.03,0,0.05,0c0-0.04,0-0.09,0-0.14c0-1.76,1.42-3.18,3.18-3.18c1.71,0,3.11,1.36,3.18,3.06
				c0.49-0.18,1.02-0.28,1.57-0.28c2.5,0,4.52,2.02,4.52,4.52c0,0.42-0.06,0.83-0.17,1.21c1.23,0.32,2.14,1.44,2.14,2.77
				c0,0.36-0.07,0.7-0.19,1.01c1.51,0.91,2.51,2.56,2.51,4.45c0,0.03,0.03,1.04-0.61,1.81C34.87,154.08,33.92,153.04,32.68,152.56z"
				/>
		</g>
		<g>
			<g>
				<rect x="89.41" y="148.8" class="st6" width="2.7" height="23.55"/>
				<path class="st7" d="M80.09,147.34c-0.13-0.35-0.2-0.73-0.2-1.12c0-1.28,0.73-2.39,1.8-2.95c-0.8-0.92-1.28-2.11-1.28-3.42
					c0-2.89,2.34-5.23,5.23-5.23c0.02,0,0.04,0,0.06,0c0-0.05,0-0.1,0-0.16c0-2.03,1.65-3.68,3.68-3.68c1.98,0,3.6,1.57,3.67,3.53
					c0.57-0.21,1.18-0.32,1.82-0.32c2.89,0,5.23,2.34,5.23,5.23c0,0.49-0.07,0.96-0.19,1.4c1.42,0.37,2.47,1.67,2.47,3.21
					c0,0.41-0.08,0.81-0.21,1.17c1.74,1.05,2.91,2.96,2.91,5.15c0,0.05,0.08,2.96-2.97,3.11c-0.19,2.53-2.3,4.53-4.89,4.53H97.2
					c-0.72,1.85-2.52,3.17-4.62,3.17h-2.56c-2.11,0-3.91-1.32-4.63-3.17c-2.57-0.03-4.66-2.03-4.83-4.57
					C78.38,152.68,79.14,147.83,80.09,147.34z"/>
			</g>
			<path class="st9" d="M101.38,149L101.38,149c0-2.59-2-4.7-4.53-4.89c-0.14-3.05-3.06-2.97-3.11-2.97c-2.18,0-4.09,1.16-5.15,2.91
				c-0.36-0.14-0.76-0.21-1.17-0.21c-1.54,0-2.83,1.05-3.21,2.47c-0.45-0.12-0.92-0.19-1.4-0.19c-1.05,0-2.02,0.31-2.84,0.84
				c-0.06-0.24-0.1-0.49-0.1-0.75c0-1.28,0.73-2.39,1.8-2.95c-0.8-0.92-1.28-2.11-1.28-3.42c0-2.89,2.34-5.23,5.23-5.23
				c0.02,0,0.04,0,0.06,0c0-0.05,0-0.1,0-0.16c0-2.03,1.65-3.68,3.68-3.68c1.98,0,3.6,1.57,3.67,3.53c0.57-0.21,1.18-0.32,1.82-0.32
				c2.89,0,5.23,2.34,5.23,5.23c0,0.49-0.07,0.96-0.19,1.4c1.42,0.37,2.47,1.67,2.47,3.21c0,0.41-0.08,0.81-0.21,1.17
				c1.74,1.05,2.91,2.96,2.91,5.15c0,0.03,0.03,1.2-0.71,2.1C103.91,150.76,102.81,149.56,101.38,149z"/>
		</g>
		<g>
			<g>
				<rect x="167.05" y="149.46" class="st6" width="2.67" height="23.29"/>
				<path class="st7" d="M178.94,148.01c0.13-0.35,0.19-0.72,0.19-1.11c0-1.27-0.72-2.37-1.78-2.91c0.79-0.91,1.26-2.09,1.26-3.39
					c0-2.86-2.32-5.17-5.17-5.17c-0.02,0-0.04,0-0.06,0c0-0.05,0-0.1,0-0.15c0-2.01-1.63-3.64-3.64-3.64c-1.96,0-3.56,1.55-3.63,3.5
					c-0.56-0.21-1.16-0.32-1.8-0.32c-2.86,0-5.17,2.32-5.17,5.17c0,0.48,0.07,0.95,0.19,1.39c-1.41,0.37-2.44,1.65-2.44,3.17
					c0,0.41,0.08,0.8,0.21,1.16c-1.72,1.04-2.87,2.93-2.87,5.09c0,0.05-0.08,2.93,2.93,3.07c0.19,2.5,2.28,4.48,4.83,4.48h0.01
					c0.71,1.83,2.49,3.13,4.57,3.13h2.53c2.09,0,3.86-1.3,4.57-3.14c2.54-0.03,4.61-2.01,4.78-4.52
					C180.62,153.29,179.87,148.5,178.94,148.01z"/>
			</g>
			<path class="st10" d="M157.87,149.66L157.87,149.66c0-2.56,1.97-4.65,4.48-4.84c0.14-3.02,3.02-2.93,3.07-2.93
				c2.16,0,4.05,1.15,5.09,2.87c0.36-0.14,0.75-0.21,1.16-0.21c1.52,0,2.8,1.04,3.17,2.44c0.44-0.12,0.91-0.19,1.39-0.19
				c1.04,0,2,0.31,2.81,0.83c0.06-0.24,0.09-0.48,0.09-0.74c0-1.27-0.72-2.37-1.78-2.91c0.79-0.91,1.26-2.09,1.26-3.39
				c0-2.86-2.32-5.17-5.17-5.17c-0.02,0-0.04,0-0.06,0c0-0.05,0-0.1,0-0.15c0-2.01-1.63-3.64-3.64-3.64c-1.96,0-3.56,1.55-3.63,3.5
				c-0.56-0.21-1.16-0.32-1.8-0.32c-2.86,0-5.17,2.32-5.17,5.17c0,0.48,0.07,0.95,0.19,1.39c-1.41,0.37-2.44,1.65-2.44,3.17
				c0,0.41,0.08,0.8,0.21,1.16c-1.72,1.04-2.87,2.93-2.87,5.09c0,0.03-0.03,1.19,0.7,2.07
				C155.37,151.39,156.46,150.21,157.87,149.66z"/>
		</g>
		<g>
			<g>
				<rect x="113.28" y="142.51" class="st6" width="3.47" height="30.24"/>
				<path class="st7" d="M128.72,140.62c0.16-0.45,0.25-0.94,0.25-1.44c0-1.65-0.94-3.08-2.31-3.78c1.02-1.18,1.64-2.71,1.64-4.4
					c0-3.71-3.01-6.72-6.72-6.72c-0.02,0-0.05,0-0.07,0c0-0.07,0.01-0.13,0.01-0.2c0-2.61-2.11-4.72-4.72-4.72
					c-2.55,0-4.62,2.02-4.72,4.54c-0.73-0.27-1.51-0.42-2.33-0.42c-3.71,0-6.72,3.01-6.72,6.72c0,0.62,0.09,1.23,0.25,1.8
					c-1.83,0.48-3.17,2.14-3.17,4.12c0,0.53,0.1,1.04,0.27,1.5c-2.24,1.35-3.73,3.8-3.73,6.61c0,0.06-0.11,3.81,3.81,3.99
					c0.25,3.25,2.96,5.82,6.27,5.82h0.01c0.93,2.38,3.23,4.07,5.94,4.07h3.29c2.71,0,5.02-1.69,5.94-4.07
					c3.3-0.04,5.98-2.61,6.2-5.86C130.91,147.48,129.93,141.26,128.72,140.62z"/>
			</g>
			<path class="st10" d="M101.37,142.77L101.37,142.77c0-3.32,2.56-6.03,5.82-6.28c0.18-3.92,3.92-3.81,3.99-3.81
				c2.8,0,5.26,1.5,6.61,3.73c0.47-0.18,0.97-0.27,1.5-0.27c1.98,0,3.64,1.35,4.12,3.17c0.57-0.16,1.18-0.25,1.8-0.25
				c1.34,0,2.59,0.4,3.64,1.08c0.07-0.31,0.12-0.63,0.12-0.96c0-1.65-0.94-3.08-2.31-3.78c1.02-1.18,1.64-2.71,1.64-4.4
				c0-3.71-3.01-6.72-6.72-6.72c-0.02,0-0.05,0-0.07,0c0-0.07,0.01-0.13,0.01-0.2c0-2.61-2.11-4.72-4.72-4.72
				c-2.55,0-4.62,2.02-4.72,4.54c-0.73-0.27-1.51-0.42-2.33-0.42c-3.71,0-6.72,3.01-6.72,6.72c0,0.62,0.09,1.23,0.25,1.8
				c-1.83,0.48-3.17,2.14-3.17,4.12c0,0.53,0.1,1.04,0.27,1.5c-2.24,1.35-3.73,3.8-3.73,6.61c0,0.04-0.04,1.54,0.91,2.69
				C98.12,145.02,99.54,143.48,101.37,142.77z"/>
		</g>
		<g>
			<g>
				<rect x="257.75" y="142.51" class="st6" width="3.47" height="30.24"/>
				<path class="st7" d="M273.19,140.62c0.16-0.45,0.25-0.94,0.25-1.44c0-1.65-0.94-3.08-2.31-3.78c1.02-1.18,1.64-2.71,1.64-4.4
					c0-3.71-3.01-6.72-6.72-6.72c-0.02,0-0.05,0-0.07,0c0-0.07,0.01-0.13,0.01-0.2c0-2.61-2.11-4.72-4.72-4.72
					c-2.55,0-4.62,2.02-4.72,4.54c-0.73-0.27-1.51-0.42-2.33-0.42c-3.71,0-6.72,3.01-6.72,6.72c0,0.62,0.09,1.23,0.25,1.8
					c-1.83,0.48-3.17,2.14-3.17,4.12c0,0.53,0.1,1.04,0.27,1.5c-2.24,1.35-3.73,3.8-3.73,6.61c0,0.06-0.11,3.81,3.81,3.99
					c0.25,3.25,2.96,5.82,6.27,5.82h0.01c0.93,2.38,3.23,4.07,5.94,4.07h3.29c2.71,0,5.02-1.69,5.94-4.07
					c3.3-0.04,5.98-2.61,6.2-5.86C275.38,147.48,274.4,141.26,273.19,140.62z"/>
			</g>
			<path class="st10" d="M245.84,142.77L245.84,142.77c0-3.32,2.56-6.03,5.82-6.28c0.18-3.92,3.92-3.81,3.99-3.81
				c2.8,0,5.26,1.5,6.61,3.73c0.47-0.18,0.97-0.27,1.5-0.27c1.98,0,3.64,1.35,4.12,3.17c0.57-0.16,1.18-0.25,1.8-0.25
				c1.34,0,2.59,0.4,3.64,1.08c0.07-0.31,0.12-0.63,0.12-0.96c0-1.65-0.94-3.08-2.31-3.78c1.02-1.18,1.64-2.71,1.64-4.4
				c0-3.71-3.01-6.72-6.72-6.72c-0.02,0-0.05,0-0.07,0c0-0.07,0.01-0.13,0.01-0.2c0-2.61-2.11-4.72-4.72-4.72
				c-2.55,0-4.62,2.02-4.72,4.54c-0.73-0.27-1.51-0.42-2.33-0.42c-3.71,0-6.72,3.01-6.72,6.72c0,0.62,0.09,1.23,0.25,1.8
				c-1.83,0.48-3.17,2.14-3.17,4.12c0,0.53,0.1,1.04,0.27,1.5c-2.24,1.35-3.73,3.8-3.73,6.61c0,0.04-0.04,1.54,0.91,2.69
				C242.59,145.02,244.01,143.48,245.84,142.77z"/>
		</g>
		<g>
			<g>
				<rect x="291.76" y="148.89" class="st6" width="2.74" height="23.86"/>
				<path class="st7" d="M303.94,147.4c0.13-0.36,0.2-0.74,0.2-1.14c0-1.3-0.74-2.43-1.82-2.98c0.81-0.93,1.3-2.14,1.3-3.47
					c0-2.93-2.37-5.3-5.3-5.3c-0.02,0-0.04,0-0.06,0c0-0.05,0-0.11,0-0.16c0-2.06-1.67-3.72-3.72-3.72c-2.01,0-3.65,1.59-3.72,3.58
					c-0.57-0.21-1.19-0.33-1.84-0.33c-2.93,0-5.3,2.37-5.3,5.3c0,0.49,0.07,0.97,0.19,1.42c-1.44,0.38-2.5,1.69-2.5,3.25
					c0,0.42,0.08,0.82,0.22,1.19c-1.76,1.07-2.94,3-2.94,5.21c0,0.05-0.08,3,3.01,3.15c0.19,2.57,2.33,4.59,4.95,4.59h0.01
					c0.73,1.88,2.55,3.21,4.69,3.21h2.59c2.14,0,3.96-1.33,4.69-3.21c2.6-0.03,4.72-2.06,4.89-4.63
					C305.67,152.81,304.89,147.91,303.94,147.4z"/>
			</g>
			<path class="st10" d="M282.36,149.09L282.36,149.09c0-2.62,2.02-4.76,4.59-4.96c0.14-3.09,3.1-3.01,3.15-3.01
				c2.21,0,4.15,1.18,5.21,2.94c0.37-0.14,0.77-0.22,1.19-0.22c1.56,0,2.87,1.06,3.25,2.5c0.45-0.13,0.93-0.19,1.42-0.19
				c1.06,0,2.05,0.32,2.88,0.85c0.06-0.24,0.1-0.5,0.1-0.76c0-1.3-0.74-2.43-1.82-2.98c0.81-0.93,1.3-2.14,1.3-3.47
				c0-2.93-2.37-5.3-5.3-5.3c-0.02,0-0.04,0-0.06,0c0-0.05,0-0.11,0-0.16c0-2.06-1.67-3.72-3.72-3.72c-2.01,0-3.65,1.59-3.72,3.58
				c-0.57-0.21-1.19-0.33-1.84-0.33c-2.93,0-5.3,2.37-5.3,5.3c0,0.49,0.07,0.97,0.19,1.42c-1.44,0.38-2.5,1.69-2.5,3.25
				c0,0.42,0.08,0.82,0.22,1.19c-1.76,1.07-2.94,3-2.94,5.21c0,0.03-0.03,1.22,0.72,2.12C279.8,150.87,280.91,149.66,282.36,149.09z
				"/>
		</g>
		<path class="st11" d="M383.62,172.98c0.24-3.59,3.23-6.44,6.89-6.44c2.14,0,4.05,0.97,5.31,2.5c1.08-1.03,2.54-1.66,4.15-1.66
			c1.55,0,2.96,0.59,4.03,1.55c0.94-2.1,3.04-3.57,5.49-3.57c3.32,0,6.01,2.69,6.01,6.01c0,0.56-0.08,1.1-0.22,1.61L383.62,172.98z"
			/>
		<path class="st11" d="M243.44,173.71c0-0.05,0-0.11,0-0.16c0-1.63-0.87-3.05-2.17-3.83c0.1-0.27,0.16-0.57,0.16-0.87
			c0-1.15-0.78-2.11-1.84-2.39c0.09-0.33,0.14-0.68,0.14-1.05c0-2.15-1.74-3.9-3.9-3.9c-0.48,0-0.93,0.09-1.35,0.24
			c-0.06-1.46-1.26-2.63-2.74-2.63c-1.51,0-2.74,1.23-2.74,2.74c0,0.04,0,0.08,0,0.12c-0.01,0-0.03,0-0.04,0
			c-2.15,0-3.9,1.75-3.9,3.9c0,0.98,0.36,1.87,0.95,2.55c-0.79,0.41-1.34,1.24-1.34,2.2c0,0.29,0.05,0.58,0.15,0.84
			c-0.89,0.47-1.58,1.28-1.89,2.25H243.44z"/>
		<path class="st11" d="M169.62,173.71c0-0.05,0-0.11,0-0.16c0-1.63-0.87-3.05-2.17-3.83c0.1-0.27,0.16-0.57,0.16-0.87
			c0-1.15-0.78-2.11-1.84-2.39c0.09-0.33,0.14-0.68,0.14-1.05c0-2.15-1.74-3.9-3.9-3.9c-0.48,0-0.93,0.09-1.35,0.24
			c-0.06-1.46-1.26-2.63-2.74-2.63c-1.51,0-2.74,1.23-2.74,2.74c0,0.04,0,0.08,0,0.12c-0.01,0-0.03,0-0.04,0
			c-2.15,0-3.9,1.75-3.9,3.9c0,0.98,0.36,1.87,0.95,2.55c-0.79,0.41-1.34,1.24-1.34,2.2c0,0.29,0.05,0.58,0.15,0.84
			c-0.89,0.47-1.58,1.28-1.89,2.25H169.62z"/>
		<path class="st11" d="M256.86,173.71c0-0.04,0-0.08,0-0.13c0-1.29-0.69-2.43-1.72-3.05c0.08-0.22,0.13-0.45,0.13-0.69
			c0-0.91-0.62-1.68-1.46-1.9c0.07-0.26,0.11-0.54,0.11-0.83c0-1.71-1.39-3.1-3.1-3.1c-0.38,0-0.74,0.07-1.08,0.19
			c-0.04-1.16-1-2.09-2.18-2.09c-1.2,0-2.18,0.98-2.18,2.18c0,0.03,0,0.06,0,0.09c-0.01,0-0.02,0-0.03,0c-1.71,0-3.1,1.39-3.1,3.1
			c0,0.78,0.29,1.48,0.76,2.03c-0.63,0.33-1.06,0.99-1.06,1.75c0,0.23,0.04,0.46,0.12,0.67c-0.71,0.38-1.25,1.02-1.5,1.79H256.86z"
			/>
		<path class="st11" d="M343.59,172.68c0,0.25-0.03,0.5-0.1,0.74h-16.09c-0.21-0.43-0.33-0.91-0.33-1.42c0-0.22,0.02-0.44,0.07-0.66
			c-0.63-0.51-1.04-1.29-1.04-2.16c0-1.53,1.24-2.77,2.77-2.77c0.03,0,0.07,0,0.1,0c0.31-0.79,0.88-1.45,1.61-1.87
			c-0.01-0.06-0.01-0.12-0.01-0.18c0-1.07,0.87-1.94,1.94-1.94c0.13,0,0.26,0.01,0.39,0.04c0.49-1.44,1.85-2.47,3.45-2.47
			c1.73,0,3.17,1.2,3.55,2.81c0.25-0.12,0.53-0.19,0.82-0.19c1.05,0,1.89,0.85,1.89,1.89c0,0.37-0.11,0.72-0.29,1.01
			c1.07,0.46,1.85,1.46,2.01,2.65c0.66,0.39,1.1,1.11,1.1,1.93c0,1.11-0.81,2.03-1.87,2.21
			C343.59,172.44,343.59,172.56,343.59,172.68z"/>
		<path class="st11" d="M399.85,167.41c0-2.17,1.76-3.93,3.93-3.93c0.05,0,0.09,0,0.14,0c0.43-1.13,1.25-2.06,2.29-2.65
			c-0.01-0.08-0.01-0.17-0.01-0.25c0-1.52,1.23-2.76,2.76-2.76c0.19,0,0.37,0.02,0.55,0.06c0.69-2.04,2.62-3.5,4.89-3.5
			c0.38,0,0.74,0.05,1.1,0.13v18.91h-13.79c-0.3-0.6-0.48-1.29-0.48-2.01c0-0.32,0.03-0.63,0.1-0.93
			C400.43,169.76,399.85,168.65,399.85,167.41z"/>
		<path class="st11" d="M87.91,172.68c0,0.25-0.04,0.5-0.1,0.74H71.72c-0.21-0.43-0.33-0.91-0.33-1.42c0-0.22,0.02-0.44,0.07-0.66
			c-0.63-0.51-1.04-1.29-1.04-2.16c0-1.53,1.24-2.77,2.77-2.77c0.03,0,0.07,0,0.1,0c0.31-0.79,0.88-1.45,1.61-1.87
			c-0.01-0.06-0.01-0.12-0.01-0.18c0-1.07,0.87-1.94,1.94-1.94c0.13,0,0.26,0.01,0.39,0.04c0.49-1.44,1.85-2.47,3.45-2.47
			c1.73,0,3.17,1.2,3.55,2.81c0.25-0.12,0.53-0.19,0.82-0.19c1.05,0,1.89,0.85,1.89,1.89c0,0.37-0.11,0.72-0.29,1.01
			c1.07,0.46,1.85,1.46,2.01,2.65c0.66,0.39,1.1,1.11,1.1,1.93c0,1.11-0.81,2.03-1.87,2.21C87.9,172.44,87.91,172.56,87.91,172.68z"
			/>
		<path class="st11" d="M-1,153.38c1.07-1.98,3.16-3.33,5.57-3.33c3.01,0,5.53,2.09,6.18,4.9c0.43-0.21,0.92-0.33,1.44-0.33
			c1.82,0,3.3,1.48,3.3,3.3c0,0.65-0.19,1.25-0.51,1.76c1.86,0.81,3.22,2.54,3.5,4.62c1.15,0.68,1.92,1.93,1.92,3.35
			c0,1.93-1.41,3.54-3.26,3.84c0.03,0.21,0.04,0.43,0.04,0.64c0,0.44-0.06,0.87-0.17,1.28H-1V153.38z"/>
		<path class="st11" d="M32.38,172.68c0,0.25-0.03,0.5-0.1,0.74H16.19c-0.21-0.43-0.34-0.91-0.34-1.42c0-0.22,0.02-0.44,0.07-0.66
			c-0.63-0.51-1.04-1.29-1.04-2.16c0-1.53,1.24-2.77,2.77-2.77c0.03,0,0.07,0,0.1,0c0.31-0.79,0.88-1.45,1.61-1.87
			c-0.01-0.06-0.01-0.12-0.01-0.18c0-1.07,0.87-1.94,1.94-1.94c0.13,0,0.26,0.01,0.39,0.04c0.49-1.44,1.85-2.47,3.45-2.47
			c1.73,0,3.17,1.2,3.55,2.81c0.25-0.12,0.53-0.19,0.82-0.19c1.05,0,1.89,0.85,1.89,1.89c0,0.37-0.11,0.72-0.29,1.01
			c1.07,0.46,1.85,1.46,2.01,2.65c0.66,0.39,1.1,1.11,1.1,1.93c0,1.11-0.81,2.03-1.87,2.21C32.37,172.44,32.38,172.56,32.38,172.68z
			"/>
		<path class="st11" d="M71.43,171.93c0,0.33-0.05,0.64-0.13,0.94H50.69c-0.27-0.55-0.43-1.16-0.43-1.81c0-0.29,0.03-0.57,0.09-0.84
			c-0.81-0.65-1.33-1.65-1.33-2.77c0-1.96,1.59-3.55,3.55-3.55c0.04,0,0.08,0,0.13,0c0.39-1.02,1.13-1.86,2.07-2.39
			c-0.01-0.08-0.01-0.15-0.01-0.23c0-1.38,1.12-2.49,2.49-2.49c0.17,0,0.34,0.02,0.5,0.05c0.63-1.84,2.37-3.16,4.42-3.16
			c2.21,0,4.07,1.54,4.55,3.61c0.32-0.16,0.68-0.24,1.06-0.24c1.34,0,2.43,1.09,2.43,2.43c0,0.48-0.14,0.92-0.38,1.3
			c1.37,0.6,2.37,1.87,2.58,3.4c0.84,0.5,1.41,1.42,1.41,2.47c0,1.42-1.04,2.6-2.4,2.83C71.42,171.61,71.43,171.77,71.43,171.93z"/>
		<path class="st12" d="M307.03,83.84c0.64,0,1.26,0.06,1.87,0.17c1.23-5.71,6.31-9.99,12.38-9.99c0.14,0,0.29,0.01,0.43,0.01
			c1.94-3.05,5.35-5.08,9.23-5.08c3.25,0,6.17,1.42,8.17,3.67c1.29-0.33,2.64-0.51,4.02-0.51c7.46,0,13.74,5.06,15.59,11.94
			c0.69-0.14,1.41-0.22,2.14-0.22c5.77,0,10.45,4.68,10.45,10.45s-4.68,10.45-10.45,10.45c-3.17,0-6.01-1.41-7.92-3.64
			c-2.72,2.08-6.12,3.32-9.81,3.32c-0.84,0-1.67-0.06-2.47-0.19c-2.33,2.09-5.4,3.36-8.77,3.36c-5.56,0-10.32-3.46-12.23-8.34
			c-1.06-0.14-2.08-0.4-3.05-0.79c-1.61,3.69-5.29,6.28-9.58,6.28c-5.77,0-10.45-4.68-10.45-10.45S301.26,83.84,307.03,83.84z"/>
		<path class="st13" d="M370.54,58.89c0.31,0,0.62,0.03,0.92,0.08c0.61-2.81,3.1-4.91,6.09-4.91c0.07,0,0.14,0,0.21,0.01
			c0.95-1.5,2.63-2.5,4.54-2.5c1.6,0,3.03,0.7,4.02,1.81c0.63-0.16,1.3-0.25,1.98-0.25c3.67,0,6.76,2.49,7.67,5.87
			c0.34-0.07,0.69-0.11,1.05-0.11c2.84,0,5.14,2.3,5.14,5.14c0,2.84-2.3,5.14-5.14,5.14c-1.56,0-2.96-0.7-3.9-1.79
			c-1.34,1.03-3.01,1.64-4.83,1.64c-0.41,0-0.82-0.03-1.22-0.09c-1.14,1.03-2.66,1.65-4.31,1.65c-2.74,0-5.08-1.7-6.02-4.1
			c-0.52-0.07-1.02-0.2-1.5-0.39c-0.79,1.82-2.6,3.09-4.71,3.09c-2.84,0-5.14-2.3-5.14-5.14C365.4,61.19,367.7,58.89,370.54,58.89z"
			/>
		<path class="st13" d="M267.84,54.4c0.48,0,0.94,0.05,1.39,0.13c0.92-4.26,4.7-7.45,9.23-7.45c0.11,0,0.21,0,0.32,0.01
			c1.45-2.28,3.99-3.79,6.88-3.79c2.42,0,4.6,1.06,6.09,2.74c0.96-0.25,1.97-0.38,3-0.38c5.57,0,10.25,3.78,11.63,8.9
			c0.52-0.11,1.05-0.16,1.6-0.16c4.3,0,7.79,3.49,7.79,7.79s-3.49,7.79-7.79,7.79c-2.36,0-4.48-1.05-5.91-2.72
			c-2.03,1.55-4.56,2.48-7.32,2.48c-0.63,0-1.24-0.05-1.84-0.14c-1.73,1.56-4.03,2.5-6.54,2.5c-4.15,0-7.69-2.58-9.12-6.22
			c-0.79-0.1-1.55-0.3-2.27-0.59c-1.2,2.75-3.95,4.68-7.15,4.68c-4.3,0-7.79-3.49-7.79-7.79S263.53,54.4,267.84,54.4z"/>
		<path class="st13" d="M124.39,77.83c0.64,0,1.26,0.06,1.87,0.17c1.23-5.71,6.31-9.99,12.38-9.99c0.14,0,0.29,0.01,0.43,0.01
			c1.94-3.05,5.35-5.08,9.23-5.08c3.25,0,6.17,1.42,8.17,3.67c1.29-0.33,2.64-0.51,4.02-0.51c7.46,0,13.74,5.06,15.59,11.94
			c0.69-0.14,1.41-0.22,2.14-0.22c5.77,0,10.45,4.68,10.45,10.45S184,98.73,178.23,98.73c-3.17,0-6.01-1.41-7.92-3.64
			c-2.72,2.08-6.12,3.32-9.81,3.32c-0.84,0-1.67-0.06-2.47-0.19c-2.33,2.09-5.4,3.36-8.77,3.36c-5.56,0-10.32-3.46-12.24-8.34
			c-1.06-0.14-2.08-0.4-3.05-0.79c-1.61,3.69-5.29,6.28-9.58,6.28c-5.77,0-10.45-4.68-10.45-10.45S118.61,77.83,124.39,77.83z"/>
		<path class="st12" d="M55.03,55.53c0.44,0,0.87,0.04,1.29,0.12c0.85-3.94,4.35-6.89,8.54-6.89c0.1,0,0.2,0,0.3,0.01
			c1.34-2.1,3.68-3.5,6.36-3.5c2.24,0,4.25,0.98,5.63,2.53c0.89-0.23,1.82-0.35,2.77-0.35c5.14,0,9.47,3.49,10.75,8.23
			c0.48-0.1,0.97-0.15,1.48-0.15c3.98,0,7.2,3.23,7.2,7.2s-3.23,7.2-7.2,7.2c-2.19,0-4.14-0.97-5.46-2.51
			c-1.88,1.44-4.22,2.29-6.76,2.29c-0.58,0-1.15-0.04-1.71-0.13c-1.6,1.44-3.72,2.31-6.05,2.31c-3.84,0-7.11-2.38-8.43-5.75
			c-0.73-0.09-1.44-0.28-2.1-0.54c-1.11,2.55-3.65,4.33-6.61,4.33c-3.98,0-7.2-3.23-7.2-7.2S51.05,55.53,55.03,55.53z"/>
		<g>
			<rect x="-1" y="172.75" class="st14" width="416.5" height="7.71"/>
			<rect x="-1" y="199.28" class="st14" width="416.5" height="7.71"/>
			<g>
				<rect x="-1" y="180.31" class="st15" width="416.5" height="19.9"/>
				<rect x="-1" y="180.31" class="st16" width="416.5" height="1.24"/>
				<rect x="-1" y="199.03" class="st16" width="416.5" height="1.24"/>
				<path class="st16" d="M402.09,188.39h13.41v1.24h-13.41V188.39z M381.02,189.63h13.41v-1.24h-13.41V189.63z M359.95,189.63
					h13.41v-1.24h-13.41V189.63z M338.88,189.63h13.41v-1.24h-13.41V189.63z M317.82,189.63h13.41v-1.24h-13.41V189.63z
					 M296.75,189.63h13.41v-1.24h-13.41V189.63z M275.68,189.63h13.41v-1.24h-13.41V189.63z M254.61,189.63h13.41v-1.24h-13.41
					V189.63z M233.54,189.63h13.41v-1.24h-13.41V189.63z M212.47,189.63h13.41v-1.24h-13.41V189.63z M191.4,189.63h13.41v-1.24
					H191.4V189.63z M170.33,189.63h13.41v-1.24h-13.41V189.63z M149.26,189.63h13.41v-1.24h-13.41V189.63z M128.19,189.63h13.41
					v-1.24h-13.41V189.63z M107.12,189.63h13.41v-1.24h-13.41V189.63z M86.05,189.63h13.41v-1.24H86.05V189.63z M64.98,189.63h13.41
					v-1.24H64.98V189.63z M43.92,189.63h13.41v-1.24H43.92V189.63z M22.85,189.63h13.41v-1.24H22.85V189.63z M1.78,189.63h13.41
					v-1.24H1.78V189.63z"/>
			</g>
		</g>
		<path class="st13" d="M222.19,71.52c0.28,0,0.55,0.03,0.82,0.09c0.99-2.69,3.57-4.62,6.61-4.62c1.01,0,1.96,0.21,2.83,0.59
			c0.01-0.01,0.02-0.01,0.02-0.02c-0.05-0.27-0.08-0.54-0.08-0.83c0-2.5,2.03-4.53,4.53-4.53c1.91,0,3.54,1.18,4.21,2.86
			c0.35-0.05,0.71-0.09,1.08-0.09c3.31,0,6.1,2.21,7,5.23c0.71-0.44,1.55-0.7,2.44-0.7c2.57,0,4.66,2.09,4.66,4.66
			c0,2.57-2.09,4.66-4.66,4.66c-0.2,0-0.4-0.02-0.59-0.04c-0.66,1.22-1.95,2.06-3.44,2.06c-0.28,0-0.56-0.03-0.82-0.09
			c-0.78,0.97-1.99,1.6-3.33,1.6c-0.09,0-0.18-0.01-0.27-0.01c-1.25,1.25-2.98,2.03-4.9,2.03c-1.29,0-2.5-0.36-3.53-0.98
			c-0.59,0.45-1.33,0.72-2.13,0.72c-1.78,0-3.25-1.33-3.49-3.04c-1.92-0.13-3.63-1.02-4.82-2.38c-0.61,0.4-1.35,0.64-2.14,0.64
			c-2.16,0-3.9-1.75-3.9-3.9S220.03,71.52,222.19,71.52z"/>
		<path class="st12" d="M162.95,49.92c0.28,0,0.55,0.03,0.82,0.09c0.99-2.69,3.57-4.62,6.61-4.62c1.01,0,1.96,0.21,2.83,0.59
			c0.01-0.01,0.02-0.01,0.02-0.02c-0.05-0.27-0.08-0.54-0.08-0.83c0-2.5,2.03-4.53,4.53-4.53c1.91,0,3.54,1.18,4.21,2.86
			c0.35-0.05,0.71-0.09,1.08-0.09c3.31,0,6.1,2.21,7,5.23c0.71-0.44,1.55-0.7,2.44-0.7c2.57,0,4.66,2.09,4.66,4.66
			c0,2.57-2.09,4.66-4.66,4.66c-0.2,0-0.4-0.02-0.59-0.04c-0.66,1.22-1.95,2.06-3.44,2.06c-0.28,0-0.56-0.03-0.82-0.09
			c-0.78,0.97-1.99,1.6-3.33,1.6c-0.09,0-0.18-0.01-0.27-0.01c-1.25,1.25-2.98,2.03-4.9,2.03c-1.29,0-2.5-0.36-3.53-0.98
			c-0.59,0.45-1.33,0.72-2.13,0.72c-1.78,0-3.25-1.33-3.49-3.04c-1.92-0.13-3.63-1.02-4.82-2.38c-0.61,0.4-1.35,0.64-2.14,0.64
			c-2.16,0-3.9-1.75-3.9-3.9C159.05,51.67,160.8,49.92,162.95,49.92z"/>
		<path class="st13" d="M28.31,85.99c0.42,0,0.82,0.05,1.21,0.13c1.47-4,5.3-6.85,9.8-6.85c1.49,0,2.91,0.32,4.19,0.88
			c0.01-0.01,0.02-0.02,0.03-0.03c-0.07-0.4-0.12-0.81-0.12-1.23c0-3.71,3.01-6.72,6.72-6.72c2.83,0,5.25,1.76,6.24,4.24
			c0.52-0.08,1.05-0.13,1.6-0.13c4.91,0,9.05,3.27,10.38,7.76C69.43,83.38,70.67,83,72,83c3.82,0,6.91,3.09,6.91,6.91
			s-3.09,6.91-6.91,6.91c-0.3,0-0.59-0.03-0.88-0.06c-0.98,1.81-2.89,3.05-5.1,3.05c-0.42,0-0.82-0.05-1.22-0.13
			c-1.16,1.44-2.94,2.37-4.94,2.37c-0.13,0-0.26-0.01-0.39-0.02c-1.86,1.86-4.43,3.01-7.26,3.01c-1.92,0-3.7-0.53-5.24-1.45
			c-0.88,0.67-1.97,1.07-3.16,1.07c-2.65,0-4.83-1.97-5.17-4.52c-2.85-0.19-5.38-1.51-7.15-3.53c-0.91,0.6-2,0.95-3.17,0.95
			c-3.2,0-5.79-2.59-5.79-5.79C22.52,88.58,25.11,85.99,28.31,85.99z"/>
	</g>
</g>
<g>
	<g>
		<path class="st17" d="M103.25,169.99L103.25,169.99l0-47.58c-0.41-0.14-0.73-0.46-0.88-0.86h2.7c-0.16,0.43-0.51,0.76-0.96,0.89
			v47.55l-1.16,3.8l-0.8-0.24L103.25,169.99z"/>
		<polygon class="st18" points="104.27,123.01 104.27,123.07 105.62,123.07 105.62,122.59 105.72,122.59 105.72,124.04 
			105.62,124.04 105.62,123.15 104.27,123.15 104.27,123.4 103.13,123.4 103.13,123.01 		"/>
		<polygon class="st18" points="104.27,146.59 104.27,146.65 105.62,146.65 105.62,146.17 105.72,146.17 105.72,147.62 
			105.62,147.62 105.62,146.73 104.27,146.73 104.27,146.98 103.13,146.98 103.13,146.59 		"/>
		<polygon class="st18" points="104.27,169.02 104.27,169.08 105.62,169.08 105.62,168.6 105.72,168.6 105.72,170.05 105.62,170.05 
			105.62,169.16 104.27,169.16 104.27,169.41 103.13,169.41 103.13,169.02 		"/>
	</g>
	<polygon class="st17" points="171.18,120.96 171.18,119.86 137.58,100.46 103.99,119.86 103.99,120.96 	"/>
	<polygon class="st16" points="169.45,175.77 169.45,120.86 137.58,102.47 105.72,120.86 105.72,175.77 	"/>
	<polygon class="st19" points="137.6,175.77 169.45,175.77 169.45,120.86 137.6,102.47 	"/>
	<polygon class="st20" points="137.6,102.48 137.58,102.47 105.72,120.86 105.72,130.02 137.58,111.63 137.6,103.78 	"/>
	<polygon class="st21" points="166.91,124.03 142.05,109.68 142.05,143.83 166.91,143.83 	"/>
	<polygon class="st22" points="142.92,142.97 142.92,111.18 166.04,124.53 166.04,142.97 	"/>
	<polygon class="st23" points="143.79,113.24 166.04,126.09 166.04,124.53 142.92,111.18 142.92,142.97 143.79,142.97 	"/>
	<g>
		<polygon class="st18" points="137.58,144.39 105.67,144.39 100.5,150.73 137.58,150.73 		"/>
		<rect x="100.51" y="150.73" class="st24" width="37.09" height="1.08"/>
		<rect x="105.73" y="151.81" class="st20" width="31.87" height="1.08"/>
	</g>
	<rect x="147.99" y="113.4" class="st21" width="0.93" height="29.97"/>
	<rect x="160.15" y="120.83" class="st21" width="0.93" height="22.54"/>
	<rect x="142.42" y="124.55" class="st21" width="24.41" height="0.93"/>
	<rect x="142.05" y="149.8" class="st21" width="24.86" height="23.54"/>
	<rect x="142.92" y="150.61" class="st25" width="23.12" height="21.87"/>
	<polygon class="st23" points="143.79,151.63 166.04,151.63 166.04,150.61 142.92,150.61 142.92,172.47 143.79,172.47 	"/>
	<rect x="147.99" y="150.17" class="st21" width="0.93" height="22.71"/>
	<rect x="160.15" y="150.34" class="st21" width="0.93" height="22.54"/>
	<rect x="142.42" y="155.2" class="st21" width="24.41" height="0.93"/>
	<rect x="109.94" y="124.77" class="st21" width="24.86" height="16.02"/>
	<polygon class="st22" points="110.81,125.58 110.81,139.93 118.85,139.93 118.96,143.84 126.83,143.95 127.1,139.93 133.93,139.93 
		133.93,125.58 	"/>
	<polygon class="st23" points="111.68,126.6 133.93,126.6 133.93,125.58 110.81,125.58 110.81,139.93 111.68,139.93 	"/>
	<rect x="118.59" y="125.14" class="st21" width="0.93" height="19.24"/>
	<rect x="126.52" y="125.35" class="st21" width="0.93" height="19.03"/>
	<rect x="108.56" y="155" class="st21" width="8.16" height="16.02"/>
	<rect x="109.36" y="155.88" class="st25" width="6.6" height="14.35"/>
	<rect x="118.66" y="143.49" class="st21" width="8.16" height="0.93"/>
	<path class="st21" d="M105.73,135.27v9.22h31.82v-9.22H105.73z M108.75,143.52h-2.27v-6.73h2.27V143.52z M111.84,143.52h-2.27
		v-6.73h2.27V143.52z M114.93,143.52h-2.27v-6.73h2.27V143.52z M118.02,143.52h-2.27v-6.73h2.27V143.52z M121.12,143.52h-2.27v-6.73
		h2.27V143.52z M124.21,143.52h-2.27v-6.73h2.27V143.52z M127.3,143.52h-2.27v-6.73h2.27V143.52z M130.39,143.52h-2.27v-6.73h2.27
		V143.52z M133.48,143.52h-2.27v-6.73h2.27V143.52z M136.58,143.52h-2.27v-6.73h2.27V143.52z"/>
	<polygon class="st23" points="109.86,156.64 115.96,156.64 115.96,155.88 109.36,155.88 109.36,170.23 109.86,170.23 	"/>
	<rect x="118.69" y="155" class="st21" width="8.16" height="20.63"/>
	<rect x="119.48" y="155.88" class="st25" width="6.6" height="18.96"/>
	<polygon class="st23" points="119.99,156.64 126.08,156.64 126.08,155.88 119.48,155.88 119.48,174.83 119.99,174.83 	"/>
	<rect x="126.85" y="155" class="st21" width="8.16" height="20.63"/>
	<rect x="127.64" y="155.88" class="st25" width="6.6" height="18.96"/>
	<polygon class="st23" points="128.15,156.64 134.25,156.64 134.25,155.88 127.64,155.88 127.64,174.83 128.15,174.83 	"/>
	<rect x="119.07" y="170.78" class="st21" width="15.59" height="0.81"/>
	<rect x="119.07" y="158.71" class="st21" width="15.59" height="0.81"/>
	<rect x="104.21" y="175.74" class="st24" width="66.5" height="0.76"/>
	<rect x="104.21" y="175.74" class="st18" width="32.93" height="0.76"/>
	<g>
		<path class="st17" d="M171.91,169.99L171.91,169.99l0-47.58c0.41-0.14,0.73-0.46,0.88-0.86h-2.7c0.16,0.43,0.51,0.76,0.96,0.89
			v47.55l1.16,3.8l0.8-0.24L171.91,169.99z"/>
		<polygon class="st18" points="170.89,123.01 170.89,123.07 169.54,123.07 169.54,122.59 169.44,122.59 169.44,124.04 
			169.54,124.04 169.54,123.15 170.89,123.15 170.89,123.4 172.03,123.4 172.03,123.01 		"/>
		<polygon class="st18" points="170.89,146.59 170.89,146.65 169.54,146.65 169.54,146.17 169.44,146.17 169.44,147.62 
			169.54,147.62 169.54,146.73 170.89,146.73 170.89,146.98 172.03,146.98 172.03,146.59 		"/>
		<polygon class="st18" points="170.89,169.02 170.89,169.08 169.54,169.08 169.54,168.6 169.44,168.6 169.44,170.05 169.54,170.05 
			169.54,169.16 170.89,169.16 170.89,169.41 172.03,169.41 172.03,169.02 		"/>
	</g>
</g>
<g>
	<g>
		<rect x="259.18" y="144.92" class="st26" width="28.51" height="31.83"/>
		<rect x="263.86" y="158.39" class="st27" width="20.75" height="18.32"/>
		<rect x="265.28" y="159.86" class="st28" width="17.89" height="1.45"/>
		<rect x="265.28" y="161.97" class="st28" width="17.89" height="1.45"/>
		<rect x="265.28" y="164.07" class="st28" width="17.89" height="1.45"/>
		<rect x="265.28" y="166.18" class="st28" width="17.89" height="1.45"/>
		<rect x="265.28" y="168.29" class="st28" width="17.89" height="1.45"/>
		<rect x="265.28" y="170.4" class="st28" width="17.89" height="1.45"/>
		<rect x="265.28" y="172.51" class="st28" width="17.89" height="1.45"/>
		<rect x="265.28" y="174.61" class="st28" width="17.89" height="1.45"/>
		<polygon class="st29" points="264.68,159.56 284.6,159.56 284.6,158.39 263.86,158.39 263.86,176.71 264.68,176.71 		"/>
	</g>
	<rect x="180.73" y="131.07" class="st26" width="17.09" height="44.36"/>
	<rect x="191.15" y="150.97" class="st30" width="68.7" height="24.46"/>
	<polygon class="st26" points="243.02,130.32 243.02,120.06 191.15,120.06 191.15,151.33 259.95,151.33 259.95,130.32 	"/>
	<rect x="191.15" y="150.97" class="st31" width="34.2" height="1.53"/>
	<polygon class="st32" points="230.44,151.31 225.35,151.31 225.35,152.46 191.15,152.46 191.15,156.24 232.01,160.73 	"/>
	<rect x="191.15" y="120.06" class="st33" width="34.18" height="31.26"/>
	<polygon class="st28" points="230.43,151.33 225.4,151.33 225.4,120.06 226.39,120.06 	"/>
	<rect x="178.62" y="174.39" class="st34" width="12.47" height="2.34"/>
	<rect x="224.75" y="174.39" class="st34" width="38.49" height="2.34"/>
	<rect x="285.37" y="174.39" class="st34" width="3.72" height="2.34"/>
	<rect x="190.62" y="174.39" class="st16" width="35.42" height="2.34"/>
	<g>
		<rect x="210.85" y="157.65" class="st35" width="5.19" height="16.7"/>
		<rect x="211.49" y="158.36" class="st22" width="3.93" height="15.34"/>
		<polygon class="st23" points="211.9,158.97 215.42,158.97 215.42,158.36 211.49,158.36 211.49,173.7 211.9,173.7 		"/>
		<rect x="216.04" y="157.65" class="st35" width="5.36" height="16.7"/>
		<rect x="216.69" y="158.36" class="st22" width="4.1" height="15.34"/>
		<polygon class="st23" points="217.09,158.97 220.79,158.97 220.79,158.36 216.69,158.36 216.69,173.7 217.09,173.7 		"/>
		<rect x="211.15" y="170.42" class="st35" width="9.96" height="0.66"/>
		<rect x="211.15" y="160.65" class="st35" width="9.96" height="0.66"/>
	</g>
	<g>
		<rect x="230.08" y="157.65" class="st35" width="4.57" height="13.11"/>
		<rect x="230.78" y="158.35" class="st22" width="3.16" height="11.71"/>
		<polygon class="st23" points="231.32,159 233.94,159 233.94,158.35 230.78,158.35 230.78,170.06 231.32,170.06 		"/>
	</g>
	<g>
		<rect x="230.08" y="130.6" class="st35" width="4.57" height="13.11"/>
		<rect x="230.78" y="131.3" class="st22" width="3.16" height="11.71"/>
		<polygon class="st23" points="231.32,131.96 233.94,131.96 233.94,131.3 230.78,131.3 230.78,143.01 231.32,143.01 		"/>
	</g>
	<g>
		<rect x="244.25" y="136.11" class="st35" width="13.11" height="4.57"/>
		<rect x="244.95" y="136.81" class="st22" width="11.71" height="3.16"/>
		<polygon class="st23" points="245.6,137.35 245.6,139.97 244.95,139.97 244.95,136.81 256.66,136.81 256.66,137.35 		"/>
	</g>
	<g>
		<rect x="263.85" y="151.21" class="st35" width="5.5" height="4.57"/>
		<rect x="264.55" y="151.91" class="st22" width="4.1" height="3.16"/>
		<polygon class="st23" points="265.2,152.45 265.2,155.07 264.55,155.07 264.55,151.91 268.65,151.91 268.65,152.45 		"/>
	</g>
	<g>
		<rect x="271.46" y="151.21" class="st35" width="5.5" height="4.57"/>
		<rect x="272.17" y="151.91" class="st22" width="4.1" height="3.16"/>
		<polygon class="st23" points="272.82,152.45 272.82,155.07 272.17,155.07 272.17,151.91 276.26,151.91 276.26,152.45 		"/>
	</g>
	<g>
		<rect x="279.08" y="151.21" class="st35" width="5.5" height="4.57"/>
		<rect x="279.78" y="151.91" class="st22" width="4.1" height="3.16"/>
		<polygon class="st23" points="280.43,152.45 280.43,155.07 279.78,155.07 279.78,151.91 283.88,151.91 283.88,152.45 		"/>
	</g>
	<g>
		<rect x="216.38" y="130.6" class="st35" width="4.57" height="13.11"/>
		<rect x="217.08" y="131.3" class="st25" width="3.16" height="11.71"/>
		<polygon class="st23" points="217.62,131.96 220.24,131.96 220.24,131.3 217.08,131.3 217.08,143.01 217.62,143.01 		"/>
	</g>
	<g>
		<rect x="209.35" y="130.6" class="st35" width="4.57" height="13.11"/>
		<rect x="210.06" y="131.3" class="st25" width="3.16" height="11.71"/>
		<polygon class="st23" points="210.6,131.96 213.22,131.96 213.22,131.3 210.06,131.3 210.06,143.01 210.6,143.01 		"/>
	</g>
	<g>
		<rect x="202.33" y="130.6" class="st35" width="4.57" height="13.11"/>
		<rect x="203.03" y="131.3" class="st25" width="3.16" height="11.71"/>
		<polygon class="st23" points="203.57,131.96 206.19,131.96 206.19,131.3 203.03,131.3 203.03,143.01 203.57,143.01 		"/>
	</g>
	<g>
		<rect x="195.3" y="130.6" class="st35" width="4.57" height="13.11"/>
		<rect x="196.01" y="131.3" class="st25" width="3.16" height="11.71"/>
		<polygon class="st23" points="196.55,131.96 199.17,131.96 199.17,131.3 196.01,131.3 196.01,143.01 196.55,143.01 		"/>
	</g>
	<g>
		<rect x="238.77" y="157.65" class="st35" width="4.57" height="13.11"/>
		<rect x="239.47" y="158.35" class="st25" width="3.16" height="11.71"/>
		<polygon class="st23" points="240.02,159 242.64,159 242.64,158.35 239.47,158.35 239.47,170.06 240.02,170.06 		"/>
	</g>
	<g>
		<rect x="247.47" y="157.65" class="st35" width="4.57" height="13.11"/>
		<rect x="248.17" y="158.35" class="st22" width="3.16" height="11.71"/>
		<polygon class="st23" points="248.71,159 251.33,159 251.33,158.35 248.17,158.35 248.17,170.06 248.71,170.06 		"/>
	</g>
</g>
<g>
	<g>
		<polygon class="st36" points="410.26,141 410.26,140.14 352.47,111.73 294.69,140.14 294.69,141 		"/>
		<polygon class="st37" points="407.28,175.62 407.28,140.93 352.47,114.59 297.67,140.93 297.67,175.62 		"/>
		<rect x="297.67" y="151.92" class="st38" width="109.61" height="23.71"/>
		<polygon class="st36" points="298.4,152.46 298.4,175.62 303.9,175.62 303.9,158.56 328.99,158.56 328.99,175.62 380.89,175.62 
			380.89,158.18 404.55,158.18 404.55,175.05 406.65,175.05 406.65,152.46 		"/>
		<polygon class="st19" points="403.54,175.62 407.28,175.62 407.28,151.92 374.41,151.92 374.41,155.65 403.54,155.65 		"/>
		<polygon class="st19" points="301.41,175.62 301.41,155.65 329.96,155.65 329.96,151.92 297.67,151.92 297.67,175.62 		"/>
		<g>
			<g>
				<polygon class="st39" points="328.37,128.3 301.48,141.22 301.48,150.02 328.37,150.02 				"/>
				<polygon class="st22" points="302.1,149.4 302.1,141.61 327.74,129.29 327.74,149.4 				"/>
			</g>
			<polygon class="st40" points="302.7,142.51 327.74,130.47 327.74,129.29 302.1,141.61 302.1,149.4 302.7,149.4 			"/>
			<polygon class="st39" points="319.99,149.76 319.99,132.58 319.33,132.91 319.33,149.76 			"/>
			<polygon class="st39" points="310.44,137.12 310.44,149.76 311.1,149.76 311.1,136.85 			"/>
			<polygon class="st39" points="302.08,141.06 301.86,141.72 328.15,141.72 328.15,141.06 			"/>
		</g>
		<g>
			<g>
				<polygon class="st39" points="377.04,128.3 403.93,141.22 403.93,150.02 377.04,150.02 				"/>
				<polygon class="st22" points="403.31,149.4 403.31,141.61 377.67,129.29 377.67,149.4 				"/>
				<polygon class="st40" points="378.31,130.83 403.31,142.84 403.31,141.61 377.67,129.29 377.67,149.4 378.31,149.4 				"/>
			</g>
			<polygon class="st39" points="385.42,149.76 385.42,132.58 386.08,132.91 386.08,149.76 			"/>
			<polygon class="st39" points="394.97,137.12 394.97,149.76 394.31,149.76 394.31,136.85 			"/>
			<polygon class="st39" points="403.33,141.06 403.55,141.72 377.26,141.72 377.26,141.06 			"/>
		</g>
		<polygon class="st20" points="407.28,142.8 407.28,140.93 352.47,114.59 297.67,140.93 297.67,142.8 352.47,116.46 		"/>
		<g>
			<rect x="328.37" y="127.04" class="st19" width="48.58" height="48.58"/>
			<rect x="333.35" y="132.03" class="st39" width="38.61" height="38.61"/>
			<rect x="333.97" y="132.65" class="st22" width="37.37" height="37.37"/>
			<polygon class="st40" points="334.7,133.79 371.34,133.79 371.34,132.65 333.97,132.65 333.97,170.02 334.7,170.02 			"/>
			<rect x="352.26" y="132.09" class="st39" width="0.66" height="38.17"/>
			<rect x="333.52" y="150.92" class="st39" width="38.17" height="0.66"/>
			<rect x="333.52" y="141.06" class="st39" width="38.17" height="0.66"/>
			<rect x="333.52" y="160.7" class="st39" width="38.17" height="0.66"/>
			<rect x="362.08" y="132.09" class="st39" width="0.66" height="38.17"/>
			<rect x="342.44" y="132.09" class="st39" width="0.66" height="38.17"/>
		</g>
		<rect x="304.08" y="158.6" class="st39" width="24.08" height="12.04"/>
		<rect x="304.7" y="159.22" class="st25" width="22.84" height="10.8"/>
		<polygon class="st40" points="305.3,160.22 327.54,160.22 327.54,159.22 304.7,159.22 304.7,170.02 305.3,170.02 		"/>
		<rect x="311.58" y="158.93" class="st39" width="0.66" height="11.39"/>
		<rect x="320.09" y="158.93" class="st39" width="0.66" height="11.39"/>
		<g>
			<rect x="384.21" y="158.48" class="st39" width="15.36" height="16.92"/>
			<rect x="384.83" y="159.11" class="st25" width="14.12" height="15.67"/>
			<polygon class="st40" points="385.43,160.1 398.95,160.1 398.95,159.11 384.83,159.11 384.83,174.78 385.43,174.78 			"/>
			<rect x="391.18" y="158.82" class="st39" width="1.72" height="16.28"/>
		</g>
	</g>
	<rect x="296.76" y="175.5" class="st36" width="111.47" height="1.59"/>
</g>
<g>
	<rect x="11.13" y="121.85" class="st16" width="58.23" height="55.29"/>
	<rect x="8.86" y="175.58" class="st41" width="60.51" height="1.73"/>
	<polygon class="st42" points="66.24,123.27 8,123.27 28.2,108.19 66.24,108.19 	"/>
	<polygon class="st41" points="86.86,123.44 86.86,121.28 62.11,99.08 37.37,121.28 37.37,123.44 	"/>
	<polygon class="st43" points="85.58,177.13 38.65,177.13 38.65,121.85 62.11,100.8 85.58,121.85 	"/>
	<g>
		<rect x="44.1" y="128.08" class="st21" width="15.73" height="15.5"/>
		<rect x="44.73" y="128.66" class="st25" width="14.47" height="14.29"/>
		<polygon class="st23" points="45.36,129.4 59.2,129.4 59.2,128.66 44.73,128.66 44.73,142.96 45.36,142.96 		"/>
		<rect x="51.59" y="128.35" class="st21" width="0.68" height="14.9"/>
		<rect x="44.37" y="132" class="st21" width="15.41" height="0.68"/>
	</g>
	<g>
		<rect x="14.66" y="128.08" class="st21" width="15.73" height="15.5"/>
		<rect x="15.29" y="128.66" class="st22" width="14.47" height="14.29"/>
		<polygon class="st23" points="15.92,129.4 29.76,129.4 29.76,128.66 15.29,128.66 15.29,142.96 15.92,142.96 		"/>
		<rect x="22.15" y="128.35" class="st21" width="0.68" height="14.9"/>
		<rect x="14.93" y="132" class="st21" width="15.41" height="0.68"/>
	</g>
	<g>
		<rect x="56.9" y="108.46" class="st21" width="9.7" height="10.47"/>
		<rect x="57.52" y="109.04" class="st25" width="8.44" height="9.26"/>
		<polygon class="st23" points="58.15,109.78 65.96,109.78 65.96,109.04 57.52,109.04 57.52,118.3 58.15,118.3 		"/>
	</g>
	<g>
		<rect x="15.48" y="152.97" class="st21" width="4.68" height="17.87"/>
		<rect x="16.02" y="153.47" class="st22" width="3.59" height="16.82"/>
		<polygon class="st23" points="16.57,154.12 19.61,154.12 19.61,153.47 16.02,153.47 16.02,170.29 16.57,170.29 		"/>
	</g>
	<g>
		<rect x="32.22" y="152.97" class="st21" width="4.68" height="17.87"/>
		<rect x="32.77" y="153.47" class="st22" width="3.59" height="16.82"/>
		<polygon class="st23" points="33.31,154.12 36.35,154.12 36.35,153.47 32.77,153.47 32.77,170.29 33.31,170.29 		"/>
	</g>
	<g>
		<rect x="64.68" y="128.08" class="st21" width="15.73" height="15.5"/>
		<rect x="65.31" y="128.66" class="st22" width="14.47" height="14.29"/>
		<polygon class="st23" points="65.94,129.4 79.78,129.4 79.78,128.66 65.31,128.66 65.31,142.96 65.94,142.96 		"/>
		<rect x="72.17" y="128.35" class="st21" width="0.68" height="14.9"/>
		<rect x="64.95" y="132" class="st21" width="15.41" height="0.68"/>
	</g>
	<g>
		<rect x="44.1" y="152.61" class="st21" width="15.73" height="15.5"/>
		<rect x="44.73" y="153.19" class="st22" width="14.47" height="14.29"/>
		<polygon class="st23" points="45.36,153.93 59.2,153.93 59.2,153.19 44.73,153.19 44.73,167.49 45.36,167.49 		"/>
		<rect x="51.59" y="152.88" class="st21" width="0.68" height="14.9"/>
		<rect x="44.37" y="156.53" class="st21" width="15.41" height="0.68"/>
	</g>
	<g>
		<rect x="64.68" y="152.61" class="st21" width="15.73" height="15.5"/>
		<rect x="65.31" y="153.19" class="st22" width="14.47" height="14.29"/>
		<polygon class="st23" points="65.94,153.93 79.78,153.93 79.78,153.19 65.31,153.19 65.31,167.49 65.94,167.49 		"/>
		<rect x="72.17" y="152.88" class="st21" width="0.68" height="14.9"/>
		<rect x="64.95" y="156.53" class="st21" width="15.41" height="0.68"/>
	</g>
	<rect x="7.94" y="123.27" class="st41" width="30.73" height="1.07"/>
	<rect x="38.51" y="175.03" class="st42" width="47.92" height="2.28"/>
	<polygon class="st42" points="38.65,143.82 10.28,143.82 4.58,149.89 38.65,149.89 	"/>
	<rect x="4.52" y="149.89" class="st41" width="34.13" height="0.84"/>
	<rect x="11.13" y="150.75" class="st44" width="27.52" height="0.84"/>
	<rect x="11.13" y="124.35" class="st44" width="27.52" height="0.84"/>
	<g>
		<g>
			<rect x="21.57" y="152.94" class="st21" width="8.7" height="17.98"/>
			<rect x="21.98" y="153.32" class="st22" width="2.25" height="3.54"/>
			<rect x="24.75" y="153.32" class="st22" width="2.3" height="3.54"/>
			<rect x="27.57" y="153.32" class="st22" width="2.3" height="3.54"/>
			<rect x="21.98" y="157.26" class="st22" width="2.25" height="2.05"/>
			<rect x="24.75" y="157.26" class="st22" width="2.3" height="2.05"/>
			<rect x="27.57" y="157.26" class="st22" width="2.3" height="2.05"/>
			<polygon class="st23" points="22.33,153.88 24.24,153.88 24.24,153.32 21.98,153.32 21.98,156.87 22.33,156.87 			"/>
			<polygon class="st23" points="25.1,153.88 27.06,153.88 27.06,153.32 24.75,153.32 24.75,156.87 25.1,156.87 			"/>
			<polygon class="st23" points="27.92,153.88 29.87,153.88 29.87,153.32 27.57,153.32 27.57,156.87 27.92,156.87 			"/>
			<polygon class="st23" points="22.33,157.82 24.24,157.82 24.24,157.26 21.98,157.26 21.98,159.31 22.33,159.31 			"/>
			<polygon class="st23" points="25.1,157.82 27.06,157.82 27.06,157.26 24.75,157.26 24.75,159.31 25.1,159.31 			"/>
			<polygon class="st23" points="27.92,157.82 29.87,157.82 29.87,157.26 27.57,157.26 27.57,159.31 27.92,159.31 			"/>
			<rect x="21.98" y="159.75" class="st22" width="2.25" height="2.05"/>
			<rect x="24.75" y="159.75" class="st22" width="2.3" height="2.05"/>
			<rect x="27.57" y="159.75" class="st22" width="2.3" height="2.05"/>
			<polygon class="st23" points="22.33,160.3 24.24,160.3 24.24,159.75 21.98,159.75 21.98,161.79 22.33,161.79 			"/>
			<polygon class="st23" points="25.1,160.3 27.06,160.3 27.06,159.75 24.75,159.75 24.75,161.79 25.1,161.79 			"/>
			<polygon class="st23" points="27.92,160.3 29.87,160.3 29.87,159.75 27.57,159.75 27.57,161.79 27.92,161.79 			"/>
			<rect x="21.98" y="162.23" class="st22" width="2.25" height="2.05"/>
			<rect x="24.75" y="162.23" class="st22" width="2.3" height="2.05"/>
			<rect x="27.57" y="162.23" class="st22" width="2.3" height="2.05"/>
			<polygon class="st23" points="22.33,162.79 24.24,162.79 24.24,162.23 21.98,162.23 21.98,164.28 22.33,164.28 			"/>
			<polygon class="st23" points="25.1,162.79 27.06,162.79 27.06,162.23 24.75,162.23 24.75,164.28 25.1,164.28 			"/>
			<polygon class="st23" points="27.92,162.79 29.87,162.79 29.87,162.23 27.57,162.23 27.57,164.28 27.92,164.28 			"/>
			<rect x="21.98" y="164.73" class="st22" width="2.25" height="5.77"/>
			<rect x="24.75" y="164.73" class="st22" width="2.3" height="5.77"/>
			<rect x="27.57" y="164.73" class="st22" width="2.3" height="5.77"/>
			<polygon class="st23" points="22.33,165.29 24.24,165.29 24.24,164.73 21.98,164.73 21.98,170.5 22.33,170.5 			"/>
			<polygon class="st23" points="25.1,165.29 27.06,165.29 27.06,164.73 24.75,164.73 24.75,170.5 25.1,170.5 			"/>
			<polygon class="st23" points="27.92,165.29 29.87,165.29 29.87,164.73 27.57,164.73 27.57,170.5 27.92,170.5 			"/>
		</g>
	</g>
	<rect x="15.33" y="171.05" class="st42" width="23.18" height="1.56"/>
	<rect x="12.77" y="172.55" class="st45" width="25.74" height="1.56"/>
	<rect x="10.37" y="174.08" class="st46" width="28.14" height="1.56"/>
	<polygon class="st44" points="62.11,100.8 38.65,121.85 38.65,123.77 62.11,102.72 85.58,123.77 85.58,121.85 	"/>
</g>
</svg>
