<?xml version="1.0" encoding="utf-8"?>
<!-- Generator: Adobe Illustrator 24.3.0, SVG Export Plug-In . SVG Version: 6.00 Build 0)  -->
<svg version="1.1" id="layer" xmlns="http://www.w3.org/2000/svg" xmlns:xlink="http://www.w3.org/1999/xlink" x="0px" y="0px"
	 viewBox="0 0 415.53 206.99" style="enable-background:new 0 0 415.53 206.99;" xml:space="preserve">
<style type="text/css">
	.st0{display:none;fill:#8FD7EF;}
	.st1{display:none;}
	.st2{display:inline;fill:#FFE6BB;}
	.st3{display:inline;}
	.st4{fill:#FDC345;}
	.st5{fill:#FFD788;}
	.st6{fill:#4DA7BC;}
	.st7{fill:#C95B3D;}
	.st8{fill:#9EBF4C;}
	.st9{fill:#B1D665;}
	.st10{fill:#729632;}
	.st11{display:none;fill:#FFFFFF;}
	.st12{display:none;fill:#D9F6FF;}
	.st13{fill:#81AC41;}
	.st14{fill:#686C6D;}
	.st15{fill:#FFFFFF;}
	.st16{fill:#59698B;}
	.st17{fill:#465572;}
	.st18{fill:#E5E6E8;}
	.st19{fill:#F5F6F8;}
	.st20{fill:#D3D3D3;}
	.st21{fill:#5DA9A9;}
	.st22{fill:#258E88;}
	.st23{fill:#5B6B8D;}
	.st24{fill:#D3CAB2;}
	.st25{fill:#968B77;}
	.st26{fill:#C6BAA1;}
	.st27{fill:#847863;}
	.st28{fill:#986435;}
	.st29{fill:#B37E52;}
	.st30{fill:#8C562A;}
	.st31{fill:#E7DFC8;}
	.st32{fill:#CCCCCC;}
	.st33{fill:#D3986C;}
	.st34{fill:#626868;}
	.st35{fill:#E6E7E9;}
	.st36{fill:#707676;}
	.st37{fill:#523D38;}
	.st38{fill:#4B9694;}
	.st39{fill:#EFF4F0;}
	.st40{fill:#3A3442;}
	.st41{fill:#4F4957;}
	.st42{fill:#F9FEFA;}
	.st43{fill:#D1D1D1;}
	.st44{fill:#484351;}
	.st45{fill:#403B49;}
</style>
<rect class="st0" width="415.53" height="201.97"/>
<g class="st1">
	<polygon class="st2" points="112.15,9.75 115.08,28.93 121.34,10.56 119.59,29.89 130.06,13.55 123.74,31.9 137.82,18.55 
		127.29,34.85 144.15,25.25 130.03,38.56 148.7,33.27 131.8,42.81 151.2,42.15 132.5,47.37 151.49,51.37 132.1,51.96 149.58,60.39 
		130.6,56.33 145.56,68.7 128.1,60.2 139.67,75.79 124.75,63.37 132.25,81.27 120.74,65.65 123.73,84.82 116.3,66.89 114.62,86.23 
		111.69,67.04 105.43,85.41 107.18,66.08 96.7,82.42 103.03,64.07 88.95,77.43 99.48,61.13 82.61,70.73 96.74,57.42 78.06,62.7 
		94.97,53.16 75.57,53.82 94.26,48.6 75.27,44.6 94.67,44.01 77.19,35.58 96.17,39.65 81.21,27.28 98.66,35.77 87.1,20.18 
		102.01,32.6 94.52,14.7 106.03,30.33 103.03,11.15 110.47,29.08 	"/>
	<g class="st3">
		<circle class="st4" cx="113.38" cy="47.99" r="16.45"/>
		<path class="st5" d="M115.85,43.26c5.17,0,9.72,2.61,12.42,6.59c0.08-0.61,0.12-1.23,0.12-1.86c0-8.29-6.72-15.01-15.01-15.01
			c-8.29,0-15.01,6.72-15.01,15.01c0,3.12,0.95,6.02,2.59,8.42C101.88,49,108.19,43.26,115.85,43.26z"/>
	</g>
</g>
<g>
	<g>
		<polygon class="st6" points="280.14,119.61 264.99,119.61 251.12,127.37 251.12,128.92 252.23,128.92 252.23,129.69 252.23,152.8 
			244.27,156.07 244.27,157.05 245.37,157.05 245.37,157.58 245.37,173.78 244.42,173.78 244.42,175.67 266.75,175.67 
			290.39,175.67 294.51,175.67 294.51,175.68 310.2,175.68 310.2,175.67 312.73,175.67 312.73,173.78 311.95,173.78 311.95,129.84 
			311.95,128.62 314.63,130.17 314.63,128.33 289.83,114.01 		"/>
		<path class="st6" d="M205.91,173.82h-1.58v-0.78h-0.8v-23.62h0.64v-0.94h0.07l-7.5-13h-17.69v-5.68h-0.13v-0.24h0.73v-0.04
			l-1.04-0.6l-1.04,0.6v0.04h0.68v0.24h-0.16v5.68h-0.97v-3.94h-0.13v-0.24h0.73v-0.04l-1.04-0.6l-1.04,0.6v0.04h0.68v0.24h-0.16
			v3.94h-32.45l-7.48,12.96h-0.01v0.02l-0.01,0.02h0.01v0.94h0.98v0.9v24.4h-0.93v0.96h70.3v-0.96h-0.65V173.82z M178.46,129.56
			h0.24v0.24h-0.24V129.56z M176.53,131.31h0.24v0.24h-0.24V131.31z"/>
		<path class="st6" d="M41.23,173.82h-0.89v-0.78h-0.45v-23.62h0.36v-0.94h0.04l-4.24-13h-10v-5.68h-0.08v-0.24h0.41v-0.04
			l-0.59-0.6l-0.59,0.6v0.04h0.39v0.24H25.5v5.68h-0.55v-3.94h-0.08v-0.24h0.41v-0.04l-0.59-0.6l-0.59,0.6v0.04h0.39v0.24h-0.09
			v3.94H6.06l-4.23,12.96H1.83v0.02l-0.01,0.02h0.01v0.94h0.55v0.9v24.4H1.85v0.96H41.6v-0.96h-0.37V173.82z M25.7,129.56h0.13v0.24
			H25.7V129.56z M24.62,131.31h0.13v0.24h-0.13V131.31z"/>
		<polygon class="st6" points="86.05,116.42 86.04,116.42 86.04,116.42 50.45,128.53 50.45,130.16 52.34,130.16 52.34,131.07 
			52.34,144.44 36.88,149.7 36.88,150.97 38.23,150.97 38.23,152.03 38.23,174.3 36.43,174.3 36.43,175.66 120.82,175.66 
			120.82,174.3 119.64,174.3 119.64,150.74 120.55,150.74 120.55,149.45 119.64,149.45 119.64,131.07 119.64,130.16 121.63,130.16 
			121.63,128.53 86.05,116.42 		"/>
		<polygon class="st6" points="391.43,116.42 391.43,116.42 391.42,116.42 368.28,128.53 368.28,130.16 369.51,130.16 
			369.51,131.07 369.51,144.44 359.46,149.7 359.46,150.97 360.34,150.97 360.34,152.03 360.34,174.3 359.17,174.3 359.17,175.66 
			414.04,175.66 414.04,174.3 413.27,174.3 413.27,150.74 413.86,150.74 413.86,149.45 413.27,149.45 413.27,131.07 413.27,130.16 
			414.56,130.16 414.56,128.53 391.43,116.42 		"/>
		<polygon class="st6" points="72.15,149.18 73.76,149.18 73.76,147.31 50.46,133.63 27.16,147.31 27.16,149.18 28.77,149.18 
			28.77,174.81 27.98,174.81 27.98,175.69 52.29,175.69 52.29,175.83 75.36,175.83 75.36,174.11 72.15,174.11 		"/>
		<polygon class="st6" points="389.73,174.27 389.73,150.5 389.73,148.83 391.1,148.83 391.1,147.64 391.07,147.64 384.78,127.96 
			344.24,127.96 337.24,147.64 337.2,147.64 337.2,148.83 338.63,148.83 338.63,150.5 338.63,174.27 337.23,174.27 337.23,175.5 
			391.87,175.5 391.87,174.27 		"/>
	</g>
	<g>
		<g>
			<g>
				<rect x="393.57" y="147.92" class="st7" width="2.85" height="24.83"/>
				<path class="st8" d="M383.74,146.37c-0.13-0.37-0.21-0.77-0.21-1.19c0-1.35,0.77-2.52,1.89-3.11c-0.84-0.97-1.35-2.23-1.35-3.61
					c0-3.05,2.47-5.51,5.51-5.51c0.02,0,0.04,0,0.06,0c0-0.05,0-0.11,0-0.17c0-2.14,1.74-3.88,3.88-3.88c2.09,0,3.79,1.66,3.87,3.73
					c0.6-0.22,1.24-0.34,1.91-0.34c3.05,0,5.51,2.47,5.51,5.51c0,0.51-0.07,1.01-0.2,1.48c1.5,0.39,2.6,1.76,2.6,3.38
					c0,0.44-0.08,0.85-0.23,1.24c1.84,1.11,3.06,3.12,3.06,5.42c0,0.05,0.09,3.12-3.13,3.27c-0.2,2.67-2.43,4.77-5.15,4.77h-0.01
					c-0.76,1.95-2.65,3.34-4.88,3.34h-2.7c-2.22,0-4.12-1.39-4.88-3.34c-2.71-0.03-4.91-2.14-5.09-4.81
					C381.94,152,382.75,146.9,383.74,146.37z"/>
			</g>
			<path class="st9" d="M406.2,148.13L406.2,148.13c0-2.73-2.1-4.95-4.77-5.16c-0.15-3.22-3.22-3.13-3.27-3.13
				c-2.3,0-4.32,1.23-5.42,3.06c-0.38-0.15-0.8-0.23-1.24-0.23c-1.62,0-2.99,1.11-3.38,2.6c-0.47-0.13-0.97-0.2-1.48-0.2
				c-1.1,0-2.13,0.33-2.99,0.89c-0.06-0.25-0.1-0.52-0.1-0.79c0-1.35,0.77-2.52,1.89-3.11c-0.84-0.97-1.35-2.23-1.35-3.61
				c0-3.05,2.47-5.51,5.51-5.51c0.02,0,0.04,0,0.06,0c0-0.05,0-0.11,0-0.17c0-2.14,1.74-3.88,3.88-3.88c2.09,0,3.79,1.66,3.87,3.73
				c0.6-0.22,1.24-0.34,1.91-0.34c3.05,0,5.51,2.47,5.51,5.51c0,0.51-0.07,1.01-0.2,1.48c1.5,0.39,2.6,1.76,2.6,3.38
				c0,0.44-0.08,0.85-0.23,1.24c1.84,1.11,3.06,3.12,3.06,5.42c0,0.03,0.03,1.27-0.75,2.21C408.86,149.98,407.7,148.72,406.2,148.13
				z"/>
		</g>
		<g>
			<g>
				<rect x="315.2" y="141.28" class="st7" width="3.61" height="31.47"/>
				<path class="st8" d="M302.74,139.32c-0.17-0.47-0.26-0.97-0.26-1.5c0-1.71,0.97-3.2,2.4-3.94c-1.06-1.23-1.71-2.82-1.71-4.57
					c0-3.86,3.13-6.99,6.99-6.99c0.03,0,0.05,0,0.07,0c0-0.07-0.01-0.14-0.01-0.21c0-2.71,2.2-4.91,4.91-4.91
					c2.65,0,4.81,2.1,4.91,4.72c0.76-0.28,1.57-0.43,2.43-0.43c3.86,0,6.99,3.13,6.99,6.99c0,0.65-0.09,1.28-0.26,1.87
					c1.9,0.5,3.3,2.23,3.3,4.28c0,0.55-0.1,1.08-0.29,1.57c2.33,1.41,3.88,3.96,3.88,6.87c0,0.07,0.11,3.96-3.96,4.15
					c-0.26,3.38-3.08,6.05-6.53,6.05h-0.01c-0.96,2.48-3.36,4.23-6.18,4.23h-3.42c-2.82,0-5.22-1.76-6.18-4.24
					c-3.43-0.04-6.23-2.72-6.45-6.1C300.46,146.46,301.48,139.99,302.74,139.32z"/>
			</g>
			<path class="st9" d="M331.2,141.55L331.2,141.55c0-3.46-2.67-6.28-6.05-6.53c-0.19-4.08-4.08-3.96-4.15-3.96
				c-2.92,0-5.47,1.56-6.88,3.88c-0.49-0.18-1.01-0.29-1.57-0.29c-2.06,0-3.78,1.4-4.28,3.3c-0.6-0.17-1.23-0.26-1.88-0.26
				c-1.4,0-2.7,0.42-3.79,1.12c-0.07-0.32-0.13-0.65-0.13-1c0-1.71,0.97-3.2,2.4-3.94c-1.06-1.23-1.71-2.82-1.71-4.57
				c0-3.86,3.13-6.99,6.99-6.99c0.03,0,0.05,0,0.07,0c0-0.07-0.01-0.14-0.01-0.21c0-2.71,2.2-4.91,4.91-4.91
				c2.65,0,4.81,2.1,4.91,4.72c0.76-0.28,1.57-0.43,2.43-0.43c3.86,0,6.99,3.13,6.99,6.99c0,0.65-0.09,1.28-0.26,1.87
				c1.9,0.5,3.3,2.23,3.3,4.28c0,0.55-0.1,1.08-0.29,1.57c2.33,1.41,3.88,3.96,3.88,6.87c0,0.04,0.04,1.6-0.95,2.8
				C334.58,143.9,333.11,142.29,331.2,141.55z"/>
		</g>
		<g>
			<g>
				<rect x="181.12" y="158.99" class="st7" width="1.58" height="13.76"/>
				<path class="st8" d="M175.67,158.14c-0.07-0.21-0.11-0.43-0.11-0.66c0-0.75,0.43-1.4,1.05-1.72c-0.46-0.54-0.75-1.23-0.75-2
					c0-1.69,1.37-3.05,3.05-3.05c0.01,0,0.02,0,0.03,0c0-0.03,0-0.06,0-0.09c0-1.19,0.96-2.15,2.15-2.15c1.16,0,2.1,0.92,2.15,2.06
					c0.33-0.12,0.69-0.19,1.06-0.19c1.69,0,3.05,1.37,3.05,3.05c0,0.28-0.04,0.56-0.11,0.82c0.83,0.22,1.44,0.97,1.44,1.87
					c0,0.24-0.04,0.47-0.12,0.68c1.02,0.61,1.7,1.73,1.7,3.01c0,0.03,0.05,1.73-1.73,1.81c-0.11,1.48-1.35,2.65-2.85,2.65h0
					c-0.42,1.08-1.47,1.85-2.7,1.85h-1.49c-1.23,0-2.28-0.77-2.7-1.85c-1.5-0.02-2.72-1.19-2.82-2.67
					C174.68,161.26,175.12,158.43,175.67,158.14z"/>
			</g>
			<path class="st9" d="M188.11,159.11L188.11,159.11c0-1.51-1.17-2.74-2.65-2.86c-0.08-1.78-1.79-1.73-1.81-1.73
				c-1.28,0-2.39,0.68-3.01,1.7c-0.21-0.08-0.44-0.12-0.68-0.12c-0.9,0-1.65,0.61-1.87,1.44c-0.26-0.07-0.54-0.11-0.82-0.11
				c-0.61,0-1.18,0.18-1.66,0.49c-0.03-0.14-0.06-0.29-0.06-0.44c0-0.75,0.43-1.4,1.05-1.72c-0.46-0.54-0.75-1.23-0.75-2
				c0-1.69,1.37-3.05,3.05-3.05c0.01,0,0.02,0,0.03,0c0-0.03,0-0.06,0-0.09c0-1.19,0.96-2.15,2.15-2.15c1.16,0,2.1,0.92,2.15,2.06
				c0.33-0.12,0.69-0.19,1.06-0.19c1.69,0,3.05,1.37,3.05,3.05c0,0.28-0.04,0.56-0.11,0.82c0.83,0.22,1.44,0.97,1.44,1.87
				c0,0.24-0.04,0.47-0.12,0.68c1.02,0.61,1.7,1.73,1.7,3.01c0,0.02,0.02,0.7-0.41,1.22C189.59,160.14,188.95,159.44,188.11,159.11z
				"/>
		</g>
		<g>
			<g>
				<rect x="23.07" y="152.38" class="st7" width="2.33" height="20.36"/>
				<path class="st8" d="M15.01,151.12c-0.11-0.3-0.17-0.63-0.17-0.97c0-1.11,0.63-2.07,1.55-2.55c-0.69-0.79-1.11-1.83-1.11-2.96
					c0-2.5,2.02-4.52,4.52-4.52c0.02,0,0.03,0,0.05,0c0-0.04,0-0.09,0-0.14c0-1.76,1.42-3.18,3.18-3.18c1.71,0,3.11,1.36,3.18,3.06
					c0.49-0.18,1.02-0.28,1.57-0.28c2.5,0,4.52,2.02,4.52,4.52c0,0.42-0.06,0.83-0.17,1.21c1.23,0.32,2.14,1.44,2.14,2.77
					c0,0.36-0.07,0.7-0.19,1.01c1.51,0.91,2.51,2.56,2.51,4.45c0,0.04,0.07,2.56-2.57,2.69c-0.17,2.19-1.99,3.92-4.22,3.92h0
					c-0.62,1.6-2.18,2.74-4,2.74H23.6c-1.82,0-3.38-1.14-4-2.74c-2.22-0.03-4.03-1.76-4.18-3.95
					C13.54,155.74,14.2,151.55,15.01,151.12z"/>
			</g>
			<path class="st9" d="M33.43,152.56L33.43,152.56c0-2.24-1.73-4.06-3.92-4.23c-0.12-2.64-2.64-2.57-2.69-2.57
				c-1.89,0-3.54,1.01-4.45,2.51c-0.32-0.12-0.66-0.18-1.01-0.18c-1.33,0-2.45,0.91-2.77,2.14c-0.39-0.11-0.79-0.17-1.21-0.17
				c-0.91,0-1.75,0.27-2.45,0.73c-0.05-0.21-0.08-0.42-0.08-0.65c0-1.11,0.63-2.07,1.55-2.55c-0.69-0.79-1.11-1.83-1.11-2.96
				c0-2.5,2.02-4.52,4.52-4.52c0.02,0,0.03,0,0.05,0c0-0.04,0-0.09,0-0.14c0-1.76,1.42-3.18,3.18-3.18c1.71,0,3.11,1.36,3.18,3.06
				c0.49-0.18,1.02-0.28,1.57-0.28c2.5,0,4.52,2.02,4.52,4.52c0,0.42-0.06,0.83-0.17,1.21c1.23,0.32,2.14,1.44,2.14,2.77
				c0,0.36-0.07,0.7-0.19,1.01c1.51,0.91,2.51,2.56,2.51,4.45c0,0.03,0.03,1.04-0.61,1.81C35.61,154.08,34.66,153.04,33.43,152.56z"
				/>
		</g>
		<g>
			<g>
				<rect x="90.15" y="148.8" class="st7" width="2.7" height="23.55"/>
				<path class="st8" d="M80.83,147.34c-0.13-0.35-0.2-0.73-0.2-1.12c0-1.28,0.73-2.39,1.8-2.95c-0.8-0.92-1.28-2.11-1.28-3.42
					c0-2.89,2.34-5.23,5.23-5.23c0.02,0,0.04,0,0.06,0c0-0.05,0-0.1,0-0.16c0-2.03,1.65-3.68,3.68-3.68c1.98,0,3.6,1.57,3.67,3.53
					c0.57-0.21,1.18-0.32,1.82-0.32c2.89,0,5.23,2.34,5.23,5.23c0,0.49-0.07,0.96-0.19,1.4c1.42,0.37,2.47,1.67,2.47,3.21
					c0,0.41-0.08,0.81-0.21,1.17c1.74,1.05,2.91,2.96,2.91,5.15c0,0.05,0.08,2.96-2.97,3.11c-0.19,2.53-2.3,4.53-4.89,4.53h-0.01
					c-0.72,1.85-2.52,3.17-4.62,3.17h-2.56c-2.11,0-3.91-1.32-4.63-3.17c-2.57-0.03-4.66-2.03-4.83-4.57
					C79.12,152.68,79.89,147.83,80.83,147.34z"/>
			</g>
			<path class="st9" d="M102.13,149L102.13,149c0-2.59-2-4.7-4.53-4.89c-0.14-3.05-3.06-2.97-3.11-2.97c-2.18,0-4.09,1.16-5.15,2.91
				c-0.36-0.14-0.76-0.21-1.17-0.21c-1.54,0-2.83,1.05-3.21,2.47c-0.45-0.12-0.92-0.19-1.4-0.19c-1.05,0-2.02,0.31-2.84,0.84
				c-0.06-0.24-0.1-0.49-0.1-0.75c0-1.28,0.73-2.39,1.8-2.95c-0.8-0.92-1.28-2.11-1.28-3.42c0-2.89,2.34-5.23,5.23-5.23
				c0.02,0,0.04,0,0.06,0c0-0.05,0-0.1,0-0.16c0-2.03,1.65-3.68,3.68-3.68c1.98,0,3.6,1.57,3.67,3.53c0.57-0.21,1.18-0.32,1.82-0.32
				c2.89,0,5.23,2.34,5.23,5.23c0,0.49-0.07,0.96-0.19,1.4c1.42,0.37,2.47,1.67,2.47,3.21c0,0.41-0.08,0.81-0.21,1.17
				c1.74,1.05,2.91,2.96,2.91,5.15c0,0.03,0.03,1.2-0.71,2.1C104.66,150.76,103.56,149.56,102.13,149z"/>
		</g>
		<g>
			<g>
				<rect x="167.79" y="149.46" class="st7" width="2.67" height="23.29"/>
				<path class="st8" d="M179.68,148.01c0.13-0.35,0.19-0.72,0.19-1.11c0-1.27-0.72-2.37-1.78-2.91c0.79-0.91,1.26-2.09,1.26-3.39
					c0-2.86-2.32-5.17-5.17-5.17c-0.02,0-0.04,0-0.06,0c0-0.05,0-0.1,0-0.15c0-2.01-1.63-3.64-3.64-3.64c-1.96,0-3.56,1.55-3.63,3.5
					c-0.56-0.21-1.16-0.32-1.8-0.32c-2.86,0-5.17,2.32-5.17,5.17c0,0.48,0.07,0.95,0.19,1.39c-1.41,0.37-2.44,1.65-2.44,3.17
					c0,0.41,0.08,0.8,0.21,1.16c-1.72,1.04-2.87,2.93-2.87,5.09c0,0.05-0.08,2.93,2.93,3.07c0.19,2.5,2.28,4.48,4.83,4.48h0.01
					c0.71,1.83,2.49,3.13,4.57,3.13h2.53c2.09,0,3.86-1.3,4.57-3.14c2.54-0.03,4.61-2.01,4.78-4.52
					C181.37,153.29,180.61,148.5,179.68,148.01z"/>
			</g>
			<path class="st9" d="M158.62,149.66L158.62,149.66c0-2.56,1.97-4.65,4.48-4.84c0.14-3.02,3.02-2.93,3.07-2.93
				c2.16,0,4.05,1.15,5.09,2.87c0.36-0.14,0.75-0.21,1.16-0.21c1.52,0,2.8,1.04,3.17,2.44c0.44-0.12,0.91-0.19,1.39-0.19
				c1.04,0,2,0.31,2.81,0.83c0.06-0.24,0.09-0.48,0.09-0.74c0-1.27-0.72-2.37-1.78-2.91c0.79-0.91,1.26-2.09,1.26-3.39
				c0-2.86-2.32-5.17-5.17-5.17c-0.02,0-0.04,0-0.06,0c0-0.05,0-0.1,0-0.15c0-2.01-1.63-3.64-3.64-3.64c-1.96,0-3.56,1.55-3.63,3.5
				c-0.56-0.21-1.16-0.32-1.8-0.32c-2.86,0-5.17,2.32-5.17,5.17c0,0.48,0.07,0.95,0.19,1.39c-1.41,0.37-2.44,1.65-2.44,3.17
				c0,0.41,0.08,0.8,0.21,1.16c-1.72,1.04-2.87,2.93-2.87,5.09c0,0.03-0.03,1.19,0.7,2.07C156.12,151.39,157.2,150.21,158.62,149.66
				z"/>
		</g>
		<g>
			<g>
				<rect x="114.03" y="142.51" class="st7" width="3.47" height="30.24"/>
				<path class="st8" d="M129.46,140.62c0.16-0.45,0.25-0.94,0.25-1.44c0-1.65-0.94-3.08-2.31-3.78c1.02-1.18,1.64-2.71,1.64-4.4
					c0-3.71-3.01-6.72-6.72-6.72c-0.02,0-0.05,0-0.07,0c0-0.07,0.01-0.13,0.01-0.2c0-2.61-2.11-4.72-4.72-4.72
					c-2.55,0-4.62,2.02-4.72,4.54c-0.73-0.27-1.51-0.42-2.33-0.42c-3.71,0-6.72,3.01-6.72,6.72c0,0.62,0.09,1.23,0.25,1.8
					c-1.83,0.48-3.17,2.14-3.17,4.12c0,0.53,0.1,1.04,0.27,1.5c-2.24,1.35-3.73,3.8-3.73,6.61c0,0.06-0.11,3.81,3.81,3.99
					c0.25,3.25,2.96,5.82,6.27,5.82h0.01c0.93,2.38,3.23,4.07,5.94,4.07h3.29c2.71,0,5.02-1.69,5.94-4.07
					c3.3-0.04,5.98-2.61,6.2-5.86C131.65,147.48,130.67,141.26,129.46,140.62z"/>
			</g>
			<path class="st9" d="M102.11,142.77L102.11,142.77c0-3.32,2.56-6.03,5.82-6.28c0.18-3.92,3.92-3.81,3.99-3.81
				c2.8,0,5.26,1.5,6.61,3.73c0.47-0.18,0.97-0.27,1.5-0.27c1.98,0,3.64,1.35,4.12,3.17c0.57-0.16,1.18-0.25,1.8-0.25
				c1.34,0,2.59,0.4,3.64,1.08c0.07-0.31,0.12-0.63,0.12-0.96c0-1.65-0.94-3.08-2.31-3.78c1.02-1.18,1.64-2.71,1.64-4.4
				c0-3.71-3.01-6.72-6.72-6.72c-0.02,0-0.05,0-0.07,0c0-0.07,0.01-0.13,0.01-0.2c0-2.61-2.11-4.72-4.72-4.72
				c-2.55,0-4.62,2.02-4.72,4.54c-0.73-0.27-1.51-0.42-2.33-0.42c-3.71,0-6.72,3.01-6.72,6.72c0,0.62,0.09,1.23,0.25,1.8
				c-1.83,0.48-3.17,2.14-3.17,4.12c0,0.53,0.1,1.04,0.27,1.5c-2.24,1.35-3.73,3.8-3.73,6.61c0,0.04-0.04,1.54,0.91,2.69
				C98.86,145.02,100.28,143.48,102.11,142.77z"/>
		</g>
		<g>
			<g>
				<rect x="258.5" y="142.51" class="st7" width="3.47" height="30.24"/>
				<path class="st8" d="M273.93,140.62c0.16-0.45,0.25-0.94,0.25-1.44c0-1.65-0.94-3.08-2.31-3.78c1.02-1.18,1.64-2.71,1.64-4.4
					c0-3.71-3.01-6.72-6.72-6.72c-0.02,0-0.05,0-0.07,0c0-0.07,0.01-0.13,0.01-0.2c0-2.61-2.11-4.72-4.72-4.72
					c-2.55,0-4.62,2.02-4.72,4.54c-0.73-0.27-1.51-0.42-2.33-0.42c-3.71,0-6.72,3.01-6.72,6.72c0,0.62,0.09,1.23,0.25,1.8
					c-1.83,0.48-3.17,2.14-3.17,4.12c0,0.53,0.1,1.04,0.27,1.5c-2.24,1.35-3.73,3.8-3.73,6.61c0,0.06-0.11,3.81,3.81,3.99
					c0.25,3.25,2.96,5.82,6.27,5.82h0.01c0.93,2.38,3.23,4.07,5.94,4.07h3.29c2.71,0,5.02-1.69,5.94-4.07
					c3.3-0.04,5.98-2.61,6.2-5.86C276.12,147.48,275.14,141.26,273.93,140.62z"/>
			</g>
			<path class="st9" d="M246.58,142.77L246.58,142.77c0-3.32,2.56-6.03,5.82-6.28c0.18-3.92,3.92-3.81,3.99-3.81
				c2.8,0,5.26,1.5,6.61,3.73c0.47-0.18,0.97-0.27,1.5-0.27c1.98,0,3.64,1.35,4.12,3.17c0.57-0.16,1.18-0.25,1.8-0.25
				c1.34,0,2.59,0.4,3.64,1.08c0.07-0.31,0.12-0.63,0.12-0.96c0-1.65-0.94-3.08-2.31-3.78c1.02-1.18,1.64-2.71,1.64-4.4
				c0-3.71-3.01-6.72-6.72-6.72c-0.02,0-0.05,0-0.07,0c0-0.07,0.01-0.13,0.01-0.2c0-2.61-2.11-4.72-4.72-4.72
				c-2.55,0-4.62,2.02-4.72,4.54c-0.73-0.27-1.51-0.42-2.33-0.42c-3.71,0-6.72,3.01-6.72,6.72c0,0.62,0.09,1.23,0.25,1.8
				c-1.83,0.48-3.17,2.14-3.17,4.12c0,0.53,0.1,1.04,0.27,1.5c-2.24,1.35-3.73,3.8-3.73,6.61c0,0.04-0.04,1.54,0.91,2.69
				C243.33,145.02,244.75,143.48,246.58,142.77z"/>
		</g>
		<g>
			<g>
				<rect x="292.5" y="148.89" class="st7" width="2.74" height="23.86"/>
				<path class="st8" d="M304.68,147.4c0.13-0.36,0.2-0.74,0.2-1.14c0-1.3-0.74-2.43-1.82-2.98c0.81-0.93,1.3-2.14,1.3-3.47
					c0-2.93-2.37-5.3-5.3-5.3c-0.02,0-0.04,0-0.06,0c0-0.05,0-0.11,0-0.16c0-2.06-1.67-3.72-3.72-3.72c-2.01,0-3.65,1.59-3.72,3.58
					c-0.57-0.21-1.19-0.33-1.84-0.33c-2.93,0-5.3,2.37-5.3,5.3c0,0.49,0.07,0.97,0.19,1.42c-1.44,0.38-2.5,1.69-2.5,3.25
					c0,0.42,0.08,0.82,0.22,1.19c-1.76,1.07-2.94,3-2.94,5.21c0,0.05-0.08,3,3.01,3.15c0.19,2.57,2.33,4.59,4.95,4.59h0.01
					c0.73,1.88,2.55,3.21,4.69,3.21h2.59c2.14,0,3.96-1.33,4.69-3.21c2.6-0.03,4.72-2.06,4.89-4.63
					C306.41,152.81,305.64,147.91,304.68,147.4z"/>
			</g>
			<path class="st9" d="M283.1,149.09L283.1,149.09c0-2.62,2.02-4.76,4.59-4.96c0.14-3.09,3.1-3.01,3.15-3.01
				c2.21,0,4.15,1.18,5.21,2.94c0.37-0.14,0.77-0.22,1.19-0.22c1.56,0,2.87,1.06,3.25,2.5c0.45-0.13,0.93-0.19,1.42-0.19
				c1.06,0,2.05,0.32,2.88,0.85c0.06-0.24,0.1-0.5,0.1-0.76c0-1.3-0.74-2.43-1.82-2.98c0.81-0.93,1.3-2.14,1.3-3.47
				c0-2.93-2.37-5.3-5.3-5.3c-0.02,0-0.04,0-0.06,0c0-0.05,0-0.11,0-0.16c0-2.06-1.67-3.72-3.72-3.72c-2.01,0-3.65,1.59-3.72,3.58
				c-0.57-0.21-1.19-0.33-1.84-0.33c-2.93,0-5.3,2.37-5.3,5.3c0,0.49,0.07,0.97,0.19,1.42c-1.44,0.38-2.5,1.69-2.5,3.25
				c0,0.42,0.08,0.82,0.22,1.19c-1.76,1.07-2.94,3-2.94,5.21c0,0.03-0.03,1.22,0.72,2.12C280.54,150.87,281.66,149.66,283.1,149.09z
				"/>
		</g>
		<path class="st10" d="M384.36,172.98c0.24-3.59,3.23-6.44,6.89-6.44c2.14,0,4.05,0.97,5.31,2.5c1.08-1.03,2.54-1.66,4.15-1.66
			c1.55,0,2.96,0.59,4.03,1.55c0.94-2.1,3.04-3.57,5.49-3.57c3.32,0,6.01,2.69,6.01,6.01c0,0.56-0.08,1.1-0.22,1.61L384.36,172.98z"
			/>
		<path class="st10" d="M244.18,173.71c0-0.05,0-0.11,0-0.16c0-1.63-0.87-3.05-2.17-3.83c0.1-0.27,0.16-0.57,0.16-0.87
			c0-1.15-0.78-2.11-1.84-2.39c0.09-0.33,0.14-0.68,0.14-1.05c0-2.15-1.75-3.9-3.9-3.9c-0.48,0-0.93,0.09-1.35,0.24
			c-0.06-1.46-1.26-2.63-2.74-2.63c-1.51,0-2.74,1.23-2.74,2.74c0,0.04,0,0.08,0,0.12c-0.01,0-0.03,0-0.04,0
			c-2.15,0-3.9,1.75-3.9,3.9c0,0.98,0.36,1.87,0.95,2.55c-0.79,0.41-1.34,1.24-1.34,2.2c0,0.29,0.05,0.58,0.15,0.84
			c-0.89,0.47-1.58,1.28-1.89,2.25H244.18z"/>
		<path class="st10" d="M170.37,173.71c0-0.05,0-0.11,0-0.16c0-1.63-0.87-3.05-2.17-3.83c0.1-0.27,0.16-0.57,0.16-0.87
			c0-1.15-0.78-2.11-1.84-2.39c0.09-0.33,0.14-0.68,0.14-1.05c0-2.15-1.74-3.9-3.9-3.9c-0.48,0-0.93,0.09-1.35,0.24
			c-0.06-1.46-1.26-2.63-2.74-2.63c-1.51,0-2.74,1.23-2.74,2.74c0,0.04,0,0.08,0,0.12c-0.01,0-0.03,0-0.04,0
			c-2.15,0-3.9,1.75-3.9,3.9c0,0.98,0.36,1.87,0.95,2.55c-0.79,0.41-1.34,1.24-1.34,2.2c0,0.29,0.05,0.58,0.15,0.84
			c-0.89,0.47-1.58,1.28-1.89,2.25H170.37z"/>
		<path class="st10" d="M257.6,173.71c0-0.04,0-0.08,0-0.13c0-1.29-0.69-2.43-1.72-3.05c0.08-0.22,0.13-0.45,0.13-0.69
			c0-0.91-0.62-1.68-1.46-1.9c0.07-0.26,0.11-0.54,0.11-0.83c0-1.71-1.39-3.1-3.1-3.1c-0.38,0-0.74,0.07-1.08,0.19
			c-0.04-1.16-1-2.09-2.18-2.09c-1.2,0-2.18,0.98-2.18,2.18c0,0.03,0,0.06,0,0.09c-0.01,0-0.02,0-0.03,0c-1.71,0-3.1,1.39-3.1,3.1
			c0,0.78,0.29,1.48,0.76,2.03c-0.63,0.33-1.06,0.99-1.06,1.75c0,0.23,0.04,0.46,0.12,0.67c-0.71,0.38-1.25,1.02-1.5,1.79H257.6z"/>
		<path class="st10" d="M344.34,172.68c0,0.25-0.04,0.5-0.1,0.74h-16.09c-0.21-0.43-0.33-0.91-0.33-1.42c0-0.22,0.02-0.44,0.07-0.66
			c-0.63-0.51-1.04-1.29-1.04-2.16c0-1.53,1.24-2.77,2.77-2.77c0.03,0,0.07,0,0.1,0c0.31-0.79,0.88-1.45,1.61-1.87
			c-0.01-0.06-0.01-0.12-0.01-0.18c0-1.07,0.87-1.94,1.94-1.94c0.13,0,0.26,0.01,0.39,0.04c0.49-1.44,1.85-2.47,3.45-2.47
			c1.73,0,3.17,1.2,3.55,2.81c0.25-0.12,0.53-0.19,0.82-0.19c1.05,0,1.89,0.85,1.89,1.89c0,0.37-0.11,0.72-0.29,1.01
			c1.07,0.46,1.85,1.46,2.01,2.65c0.66,0.39,1.1,1.11,1.1,1.93c0,1.11-0.81,2.03-1.87,2.21
			C344.33,172.44,344.34,172.56,344.34,172.68z"/>
		<path class="st10" d="M400.6,167.41c0-2.17,1.76-3.93,3.93-3.93c0.05,0,0.09,0,0.14,0c0.43-1.13,1.25-2.06,2.29-2.65
			c-0.01-0.08-0.01-0.17-0.01-0.25c0-1.52,1.23-2.76,2.76-2.76c0.19,0,0.37,0.02,0.55,0.06c0.69-2.04,2.62-3.5,4.89-3.5
			c0.38,0,0.74,0.05,1.1,0.13v18.91h-13.79c-0.3-0.6-0.48-1.29-0.48-2.01c0-0.32,0.03-0.63,0.1-0.93
			C401.17,169.76,400.6,168.65,400.6,167.41z"/>
		<path class="st10" d="M88.65,172.68c0,0.25-0.04,0.5-0.1,0.74H72.47c-0.21-0.43-0.33-0.91-0.33-1.42c0-0.22,0.02-0.44,0.07-0.66
			c-0.63-0.51-1.04-1.29-1.04-2.16c0-1.53,1.24-2.77,2.77-2.77c0.03,0,0.07,0,0.1,0c0.31-0.79,0.88-1.45,1.61-1.87
			c-0.01-0.06-0.01-0.12-0.01-0.18c0-1.07,0.87-1.94,1.94-1.94c0.13,0,0.26,0.01,0.39,0.04c0.49-1.44,1.85-2.47,3.45-2.47
			c1.73,0,3.17,1.2,3.55,2.81c0.25-0.12,0.53-0.19,0.82-0.19c1.05,0,1.89,0.85,1.89,1.89c0,0.37-0.11,0.72-0.29,1.01
			c1.07,0.46,1.85,1.46,2.01,2.65c0.66,0.39,1.1,1.11,1.1,1.93c0,1.11-0.81,2.03-1.87,2.21C88.64,172.44,88.65,172.56,88.65,172.68z
			"/>
		<path class="st10" d="M-0.26,153.38c1.07-1.98,3.16-3.33,5.57-3.33c3.01,0,5.53,2.09,6.18,4.9c0.43-0.21,0.92-0.33,1.44-0.33
			c1.82,0,3.3,1.48,3.3,3.3c0,0.65-0.19,1.25-0.51,1.76c1.86,0.81,3.22,2.54,3.5,4.62c1.15,0.68,1.92,1.93,1.92,3.35
			c0,1.93-1.41,3.54-3.26,3.84c0.03,0.21,0.04,0.43,0.04,0.64c0,0.44-0.06,0.87-0.17,1.28H-0.26V153.38z"/>
		<path class="st10" d="M33.12,172.68c0,0.25-0.03,0.5-0.1,0.74H16.93c-0.21-0.43-0.33-0.91-0.33-1.42c0-0.22,0.02-0.44,0.07-0.66
			c-0.63-0.51-1.04-1.29-1.04-2.16c0-1.53,1.24-2.77,2.77-2.77c0.03,0,0.07,0,0.1,0c0.31-0.79,0.88-1.45,1.61-1.87
			c-0.01-0.06-0.01-0.12-0.01-0.18c0-1.07,0.87-1.94,1.94-1.94c0.13,0,0.26,0.01,0.39,0.04c0.49-1.44,1.85-2.47,3.45-2.47
			c1.73,0,3.17,1.2,3.55,2.81c0.25-0.12,0.53-0.19,0.82-0.19c1.05,0,1.89,0.85,1.89,1.89c0,0.37-0.11,0.72-0.29,1.01
			c1.07,0.46,1.85,1.46,2.01,2.65c0.66,0.39,1.1,1.11,1.1,1.93c0,1.11-0.81,2.03-1.87,2.21C33.11,172.44,33.12,172.56,33.12,172.68z
			"/>
		<path class="st10" d="M72.17,171.93c0,0.33-0.04,0.64-0.13,0.94H51.43c-0.27-0.55-0.43-1.16-0.43-1.81c0-0.29,0.03-0.57,0.09-0.84
			c-0.81-0.65-1.33-1.65-1.33-2.77c0-1.96,1.59-3.55,3.55-3.55c0.04,0,0.08,0,0.13,0c0.39-1.02,1.13-1.86,2.07-2.39
			c-0.01-0.08-0.01-0.15-0.01-0.23c0-1.38,1.12-2.49,2.49-2.49c0.17,0,0.34,0.02,0.5,0.05c0.63-1.84,2.37-3.16,4.42-3.16
			c2.21,0,4.07,1.54,4.55,3.61c0.32-0.16,0.68-0.24,1.06-0.24c1.34,0,2.43,1.09,2.43,2.43c0,0.48-0.14,0.92-0.38,1.3
			c1.37,0.6,2.37,1.87,2.58,3.4c0.85,0.5,1.41,1.42,1.41,2.47c0,1.42-1.04,2.6-2.4,2.83C72.16,171.61,72.17,171.77,72.17,171.93z"/>
		<path class="st11" d="M307.77,83.84c0.64,0,1.26,0.06,1.87,0.17c1.23-5.71,6.31-9.99,12.38-9.99c0.14,0,0.29,0.01,0.43,0.01
			c1.94-3.05,5.35-5.08,9.23-5.08c3.25,0,6.17,1.42,8.17,3.67c1.29-0.33,2.64-0.51,4.02-0.51c7.46,0,13.74,5.06,15.59,11.94
			c0.69-0.14,1.41-0.22,2.14-0.22c5.77,0,10.45,4.68,10.45,10.45s-4.68,10.45-10.45,10.45c-3.17,0-6.01-1.41-7.92-3.64
			c-2.72,2.08-6.12,3.32-9.81,3.32c-0.84,0-1.67-0.06-2.47-0.19c-2.33,2.09-5.4,3.36-8.77,3.36c-5.56,0-10.32-3.46-12.23-8.34
			c-1.06-0.14-2.08-0.4-3.05-0.79c-1.61,3.69-5.29,6.28-9.58,6.28c-5.77,0-10.45-4.68-10.45-10.45S302,83.84,307.77,83.84z"/>
		<path class="st12" d="M371.29,58.89c0.31,0,0.62,0.03,0.92,0.08c0.61-2.81,3.1-4.91,6.09-4.91c0.07,0,0.14,0,0.21,0.01
			c0.95-1.5,2.63-2.5,4.54-2.5c1.6,0,3.03,0.7,4.02,1.81c0.63-0.16,1.3-0.25,1.98-0.25c3.67,0,6.76,2.49,7.67,5.87
			c0.34-0.07,0.69-0.11,1.05-0.11c2.84,0,5.14,2.3,5.14,5.14c0,2.84-2.3,5.14-5.14,5.14c-1.56,0-2.96-0.7-3.9-1.79
			c-1.34,1.03-3.01,1.64-4.83,1.64c-0.41,0-0.82-0.03-1.22-0.09c-1.14,1.03-2.66,1.65-4.31,1.65c-2.74,0-5.08-1.7-6.02-4.1
			c-0.52-0.07-1.02-0.2-1.5-0.39c-0.79,1.82-2.6,3.09-4.71,3.09c-2.84,0-5.14-2.3-5.14-5.14C366.15,61.19,368.45,58.89,371.29,58.89
			z"/>
		<path class="st12" d="M268.58,54.4c0.48,0,0.94,0.05,1.39,0.13c0.92-4.26,4.7-7.45,9.23-7.45c0.11,0,0.22,0,0.32,0.01
			c1.45-2.28,3.99-3.79,6.88-3.79c2.42,0,4.6,1.06,6.09,2.74c0.96-0.25,1.97-0.38,3-0.38c5.57,0,10.25,3.78,11.63,8.9
			c0.52-0.11,1.05-0.16,1.6-0.16c4.3,0,7.79,3.49,7.79,7.79s-3.49,7.79-7.79,7.79c-2.36,0-4.48-1.05-5.91-2.72
			c-2.03,1.55-4.56,2.48-7.32,2.48c-0.63,0-1.24-0.05-1.84-0.14c-1.74,1.56-4.03,2.5-6.54,2.5c-4.15,0-7.69-2.58-9.12-6.22
			c-0.79-0.1-1.55-0.3-2.27-0.59c-1.2,2.75-3.95,4.68-7.15,4.68c-4.3,0-7.79-3.49-7.79-7.79S264.28,54.4,268.58,54.4z"/>
		<path class="st12" d="M125.13,77.83c0.64,0,1.26,0.06,1.87,0.17c1.23-5.71,6.31-9.99,12.38-9.99c0.14,0,0.29,0.01,0.43,0.01
			c1.94-3.05,5.35-5.08,9.23-5.08c3.25,0,6.17,1.42,8.17,3.67c1.29-0.33,2.64-0.51,4.02-0.51c7.46,0,13.74,5.06,15.59,11.94
			c0.69-0.14,1.41-0.22,2.14-0.22c5.77,0,10.45,4.68,10.45,10.45s-4.68,10.45-10.45,10.45c-3.17,0-6.01-1.41-7.92-3.64
			c-2.72,2.08-6.12,3.32-9.81,3.32c-0.84,0-1.67-0.06-2.47-0.19c-2.33,2.09-5.4,3.36-8.77,3.36c-5.56,0-10.32-3.46-12.24-8.34
			c-1.06-0.14-2.08-0.4-3.05-0.79c-1.61,3.69-5.29,6.28-9.58,6.28c-5.77,0-10.45-4.68-10.45-10.45S119.36,77.83,125.13,77.83z"/>
		<path class="st11" d="M55.77,55.53c0.44,0,0.87,0.04,1.29,0.12c0.85-3.94,4.35-6.89,8.54-6.89c0.1,0,0.2,0,0.3,0.01
			c1.34-2.1,3.68-3.5,6.36-3.5c2.24,0,4.25,0.98,5.63,2.53c0.89-0.23,1.82-0.35,2.77-0.35c5.14,0,9.47,3.49,10.75,8.23
			c0.48-0.1,0.97-0.15,1.48-0.15c3.98,0,7.2,3.23,7.2,7.2s-3.23,7.2-7.2,7.2c-2.19,0-4.14-0.97-5.46-2.51
			c-1.88,1.44-4.22,2.29-6.76,2.29c-0.58,0-1.15-0.04-1.71-0.13c-1.6,1.44-3.72,2.31-6.05,2.31c-3.84,0-7.11-2.38-8.43-5.75
			c-0.73-0.09-1.44-0.28-2.1-0.54c-1.11,2.55-3.65,4.33-6.61,4.33c-3.98,0-7.2-3.23-7.2-7.2S51.8,55.53,55.77,55.53z"/>
		<g>
			<rect x="-0.26" y="172.75" class="st13" width="416.5" height="7.71"/>
			<rect x="-0.26" y="199.28" class="st13" width="416.5" height="7.71"/>
			<g>
				<rect x="-0.26" y="180.31" class="st14" width="416.5" height="19.9"/>
				<rect x="-0.26" y="180.31" class="st15" width="416.5" height="1.24"/>
				<rect x="-0.26" y="199.03" class="st15" width="416.5" height="1.24"/>
				<path class="st15" d="M402.84,188.39h13.41v1.24h-13.41V188.39z M381.77,189.63h13.41v-1.24h-13.41V189.63z M360.7,189.63h13.41
					v-1.24H360.7V189.63z M339.63,189.63h13.41v-1.24h-13.41V189.63z M318.56,189.63h13.41v-1.24h-13.41V189.63z M297.49,189.63
					h13.41v-1.24h-13.41V189.63z M276.42,189.63h13.41v-1.24h-13.41V189.63z M255.35,189.63h13.41v-1.24h-13.41V189.63z
					 M234.28,189.63h13.41v-1.24h-13.41V189.63z M213.21,189.63h13.41v-1.24h-13.41V189.63z M192.14,189.63h13.41v-1.24h-13.41
					V189.63z M171.07,189.63h13.41v-1.24h-13.41V189.63z M150,189.63h13.41v-1.24H150V189.63z M128.93,189.63h13.41v-1.24h-13.41
					V189.63z M107.87,189.63h13.41v-1.24h-13.41V189.63z M86.8,189.63h13.41v-1.24H86.8V189.63z M65.73,189.63h13.41v-1.24H65.73
					V189.63z M44.66,189.63h13.41v-1.24H44.66V189.63z M23.59,189.63H37v-1.24H23.59V189.63z M2.52,189.63h13.41v-1.24H2.52V189.63z
					"/>
			</g>
		</g>
		<path class="st12" d="M222.93,71.52c0.28,0,0.55,0.03,0.82,0.09c0.99-2.69,3.57-4.62,6.61-4.62c1.01,0,1.96,0.21,2.83,0.59
			c0.01-0.01,0.02-0.01,0.02-0.02c-0.05-0.27-0.08-0.54-0.08-0.83c0-2.5,2.03-4.53,4.53-4.53c1.91,0,3.54,1.18,4.21,2.86
			c0.35-0.05,0.71-0.09,1.08-0.09c3.31,0,6.1,2.21,7,5.23c0.71-0.44,1.55-0.7,2.44-0.7c2.57,0,4.66,2.09,4.66,4.66
			c0,2.57-2.09,4.66-4.66,4.66c-0.2,0-0.4-0.02-0.59-0.04c-0.66,1.22-1.95,2.06-3.44,2.06c-0.28,0-0.56-0.03-0.82-0.09
			c-0.78,0.97-1.99,1.6-3.33,1.6c-0.09,0-0.18-0.01-0.27-0.01c-1.25,1.25-2.98,2.03-4.9,2.03c-1.29,0-2.5-0.36-3.53-0.98
			c-0.59,0.45-1.33,0.72-2.13,0.72c-1.78,0-3.25-1.33-3.49-3.04c-1.92-0.13-3.63-1.02-4.82-2.38c-0.61,0.4-1.35,0.64-2.14,0.64
			c-2.16,0-3.9-1.75-3.9-3.9S220.78,71.52,222.93,71.52z"/>
		<path class="st11" d="M163.7,49.92c0.28,0,0.55,0.03,0.82,0.09c0.99-2.69,3.57-4.62,6.61-4.62c1.01,0,1.96,0.21,2.83,0.59
			c0.01-0.01,0.02-0.01,0.02-0.02c-0.05-0.27-0.08-0.54-0.08-0.83c0-2.5,2.03-4.53,4.53-4.53c1.91,0,3.54,1.18,4.21,2.86
			c0.35-0.05,0.71-0.09,1.08-0.09c3.31,0,6.1,2.21,7,5.23c0.71-0.44,1.55-0.7,2.44-0.7c2.57,0,4.66,2.09,4.66,4.66
			c0,2.57-2.09,4.66-4.66,4.66c-0.2,0-0.4-0.02-0.59-0.04c-0.66,1.22-1.95,2.06-3.44,2.06c-0.28,0-0.56-0.03-0.82-0.09
			c-0.78,0.97-1.99,1.6-3.33,1.6c-0.09,0-0.18-0.01-0.27-0.01c-1.25,1.25-2.98,2.03-4.9,2.03c-1.29,0-2.5-0.36-3.53-0.98
			c-0.59,0.45-1.33,0.72-2.13,0.72c-1.78,0-3.25-1.33-3.49-3.04c-1.92-0.13-3.63-1.02-4.82-2.38c-0.61,0.4-1.35,0.64-2.14,0.64
			c-2.16,0-3.9-1.75-3.9-3.9C159.79,51.67,161.54,49.92,163.7,49.92z"/>
		<path class="st12" d="M29.05,85.99c0.42,0,0.82,0.05,1.21,0.13c1.47-4,5.3-6.85,9.8-6.85c1.49,0,2.91,0.32,4.19,0.88
			c0.01-0.01,0.02-0.02,0.03-0.03c-0.07-0.4-0.12-0.81-0.12-1.23c0-3.71,3.01-6.72,6.72-6.72c2.83,0,5.25,1.76,6.24,4.24
			c0.52-0.08,1.05-0.13,1.6-0.13c4.91,0,9.05,3.27,10.38,7.76c1.05-0.65,2.29-1.03,3.62-1.03c3.82,0,6.91,3.09,6.91,6.91
			s-3.09,6.91-6.91,6.91c-0.3,0-0.59-0.03-0.88-0.06c-0.98,1.81-2.89,3.05-5.1,3.05c-0.42,0-0.82-0.05-1.22-0.13
			c-1.16,1.44-2.94,2.37-4.94,2.37c-0.13,0-0.26-0.01-0.39-0.02c-1.86,1.86-4.43,3.01-7.26,3.01c-1.92,0-3.7-0.53-5.24-1.45
			c-0.88,0.67-1.97,1.07-3.16,1.07c-2.65,0-4.83-1.97-5.17-4.52c-2.85-0.19-5.38-1.51-7.15-3.53c-0.91,0.6-2,0.95-3.17,0.95
			c-3.2,0-5.79-2.59-5.79-5.79C23.27,88.58,25.86,85.99,29.05,85.99z"/>
	</g>
</g>
<g>
	<g>
		<path class="st16" d="M103.99,169.99L103.99,169.99l0-47.58c-0.41-0.14-0.73-0.46-0.88-0.86h2.7c-0.16,0.43-0.51,0.76-0.96,0.89
			v47.55l-1.16,3.8l-0.8-0.24L103.99,169.99z"/>
		<polygon class="st17" points="105.01,123.01 105.01,123.07 106.36,123.07 106.36,122.59 106.46,122.59 106.46,124.04 
			106.36,124.04 106.36,123.15 105.01,123.15 105.01,123.4 103.88,123.4 103.88,123.01 		"/>
		<polygon class="st17" points="105.01,146.59 105.01,146.65 106.36,146.65 106.36,146.17 106.46,146.17 106.46,147.62 
			106.36,147.62 106.36,146.73 105.01,146.73 105.01,146.98 103.88,146.98 103.88,146.59 		"/>
		<polygon class="st17" points="105.01,169.02 105.01,169.08 106.36,169.08 106.36,168.6 106.46,168.6 106.46,170.05 106.36,170.05 
			106.36,169.16 105.01,169.16 105.01,169.41 103.88,169.41 103.88,169.02 		"/>
	</g>
	<polygon class="st16" points="171.93,120.96 171.93,119.86 138.33,100.46 104.73,119.86 104.73,120.96 	"/>
	<polygon class="st18" points="170.19,175.77 170.19,120.86 138.33,102.47 106.47,120.86 106.47,175.77 	"/>
	<polygon class="st19" points="138.35,175.77 170.19,175.77 170.19,120.86 138.35,102.47 	"/>
	<polygon class="st20" points="138.35,102.48 138.33,102.47 106.47,120.86 106.47,130.02 138.33,111.63 138.35,103.78 	"/>
	<polygon class="st15" points="167.65,124.03 142.79,109.68 142.79,143.83 167.65,143.83 	"/>
	<polygon class="st21" points="143.66,142.97 143.66,111.18 166.78,124.53 166.78,142.97 	"/>
	<polygon class="st22" points="144.53,113.24 166.78,126.09 166.78,124.53 143.66,111.18 143.66,142.97 144.53,142.97 	"/>
	<g>
		<polygon class="st17" points="138.32,144.39 106.41,144.39 101.24,150.73 138.32,150.73 		"/>
		<rect x="101.25" y="150.73" class="st23" width="37.09" height="1.08"/>
		<rect x="106.47" y="151.81" class="st20" width="31.87" height="1.08"/>
	</g>
	<rect x="148.74" y="113.4" class="st15" width="0.93" height="29.97"/>
	<rect x="160.89" y="120.83" class="st15" width="0.93" height="22.54"/>
	<rect x="143.17" y="124.55" class="st15" width="24.41" height="0.93"/>
	<rect x="142.79" y="149.8" class="st15" width="24.86" height="23.54"/>
	<rect x="143.66" y="150.61" class="st21" width="23.12" height="21.87"/>
	<polygon class="st22" points="144.53,151.63 166.78,151.63 166.78,150.61 143.66,150.61 143.66,172.47 144.53,172.47 	"/>
	<rect x="148.74" y="150.17" class="st15" width="0.93" height="22.71"/>
	<rect x="160.89" y="150.34" class="st15" width="0.93" height="22.54"/>
	<rect x="143.17" y="155.2" class="st15" width="24.41" height="0.93"/>
	<rect x="110.68" y="124.77" class="st15" width="24.86" height="16.02"/>
	<polygon class="st21" points="111.55,125.58 111.55,139.93 119.59,139.93 119.7,143.84 127.57,143.95 127.84,139.93 134.67,139.93 
		134.67,125.58 	"/>
	<polygon class="st22" points="112.42,126.6 134.67,126.6 134.67,125.58 111.55,125.58 111.55,139.93 112.42,139.93 	"/>
	<rect x="119.34" y="125.14" class="st15" width="0.93" height="19.24"/>
	<rect x="127.26" y="125.35" class="st15" width="0.93" height="19.03"/>
	<rect x="109.31" y="155" class="st15" width="8.16" height="16.02"/>
	<rect x="110.1" y="155.88" class="st21" width="6.6" height="14.35"/>
	<rect x="119.41" y="143.49" class="st15" width="8.16" height="0.93"/>
	<path class="st15" d="M106.47,135.27v9.22h31.82v-9.22H106.47z M109.49,143.52h-2.27v-6.73h2.27V143.52z M112.58,143.52h-2.27
		v-6.73h2.27V143.52z M115.67,143.52h-2.27v-6.73h2.27V143.52z M118.77,143.52h-2.27v-6.73h2.27V143.52z M121.86,143.52h-2.27v-6.73
		h2.27V143.52z M124.95,143.52h-2.27v-6.73h2.27V143.52z M128.04,143.52h-2.27v-6.73h2.27V143.52z M131.14,143.52h-2.27v-6.73h2.27
		V143.52z M134.23,143.52h-2.27v-6.73h2.27V143.52z M137.32,143.52h-2.27v-6.73h2.27V143.52z"/>
	<polygon class="st22" points="110.61,156.64 116.7,156.64 116.7,155.88 110.1,155.88 110.1,170.23 110.61,170.23 	"/>
	<rect x="119.43" y="155" class="st15" width="8.16" height="20.63"/>
	<rect x="120.23" y="155.88" class="st21" width="6.6" height="18.96"/>
	<polygon class="st22" points="120.73,156.64 126.83,156.64 126.83,155.88 120.23,155.88 120.23,174.83 120.73,174.83 	"/>
	<rect x="127.59" y="155" class="st15" width="8.16" height="20.63"/>
	<rect x="128.39" y="155.88" class="st21" width="6.6" height="18.96"/>
	<polygon class="st22" points="128.89,156.64 134.99,156.64 134.99,155.88 128.39,155.88 128.39,174.83 128.89,174.83 	"/>
	<rect x="119.81" y="170.78" class="st15" width="15.59" height="0.81"/>
	<rect x="119.81" y="158.71" class="st15" width="15.59" height="0.81"/>
	<rect x="104.95" y="175.74" class="st23" width="66.5" height="0.76"/>
	<rect x="104.95" y="175.74" class="st17" width="32.93" height="0.76"/>
	<g>
		<path class="st16" d="M172.65,169.99L172.65,169.99l0-47.58c0.41-0.14,0.73-0.46,0.88-0.86h-2.7c0.16,0.43,0.51,0.76,0.96,0.89
			v47.55l1.16,3.8l0.8-0.24L172.65,169.99z"/>
		<polygon class="st17" points="171.63,123.01 171.63,123.07 170.29,123.07 170.29,122.59 170.18,122.59 170.18,124.04 
			170.29,124.04 170.29,123.15 171.63,123.15 171.63,123.4 172.77,123.4 172.77,123.01 		"/>
		<polygon class="st17" points="171.63,146.59 171.63,146.65 170.29,146.65 170.29,146.17 170.18,146.17 170.18,147.62 
			170.29,147.62 170.29,146.73 171.63,146.73 171.63,146.98 172.77,146.98 172.77,146.59 		"/>
		<polygon class="st17" points="171.63,169.02 171.63,169.08 170.29,169.08 170.29,168.6 170.18,168.6 170.18,170.05 170.29,170.05 
			170.29,169.16 171.63,169.16 171.63,169.41 172.77,169.41 172.77,169.02 		"/>
	</g>
</g>
<g>
	<g>
		<rect x="259.92" y="144.92" class="st24" width="28.51" height="31.83"/>
		<rect x="264.6" y="158.39" class="st25" width="20.75" height="18.32"/>
		<rect x="266.03" y="159.86" class="st26" width="17.89" height="1.45"/>
		<rect x="266.03" y="161.97" class="st26" width="17.89" height="1.45"/>
		<rect x="266.03" y="164.07" class="st26" width="17.89" height="1.45"/>
		<rect x="266.03" y="166.18" class="st26" width="17.89" height="1.45"/>
		<rect x="266.03" y="168.29" class="st26" width="17.89" height="1.45"/>
		<rect x="266.03" y="170.4" class="st26" width="17.89" height="1.45"/>
		<rect x="266.03" y="172.51" class="st26" width="17.89" height="1.45"/>
		<rect x="266.03" y="174.61" class="st26" width="17.89" height="1.45"/>
		<polygon class="st27" points="265.42,159.56 285.35,159.56 285.35,158.39 264.6,158.39 264.6,176.71 265.42,176.71 		"/>
	</g>
	<rect x="181.47" y="131.07" class="st24" width="17.09" height="44.36"/>
	<rect x="191.89" y="150.97" class="st28" width="68.7" height="24.46"/>
	<polygon class="st24" points="243.76,130.32 243.76,120.06 191.89,120.06 191.89,151.33 260.7,151.33 260.7,130.32 	"/>
	<rect x="191.89" y="150.97" class="st29" width="34.2" height="1.53"/>
	<polygon class="st30" points="231.19,151.31 226.09,151.31 226.09,152.46 191.89,152.46 191.89,156.24 232.75,160.73 	"/>
	<rect x="191.89" y="120.06" class="st31" width="34.18" height="31.26"/>
	<polygon class="st26" points="231.17,151.33 226.14,151.33 226.14,120.06 227.13,120.06 	"/>
	<rect x="179.36" y="174.39" class="st13" width="12.47" height="2.34"/>
	<rect x="225.49" y="174.39" class="st13" width="38.49" height="2.34"/>
	<rect x="286.11" y="174.39" class="st13" width="3.72" height="2.34"/>
	<rect x="191.36" y="174.39" class="st32" width="35.42" height="2.34"/>
	<g>
		<rect x="211.59" y="157.65" class="st33" width="5.19" height="16.7"/>
		<rect x="212.23" y="158.36" class="st21" width="3.93" height="15.34"/>
		<polygon class="st22" points="212.64,158.97 216.17,158.97 216.17,158.36 212.23,158.36 212.23,173.7 212.64,173.7 		"/>
		<rect x="216.78" y="157.65" class="st33" width="5.36" height="16.7"/>
		<rect x="217.43" y="158.36" class="st21" width="4.1" height="15.34"/>
		<polygon class="st22" points="217.84,158.97 221.53,158.97 221.53,158.36 217.43,158.36 217.43,173.7 217.84,173.7 		"/>
		<rect x="211.9" y="170.42" class="st33" width="9.96" height="0.66"/>
		<rect x="211.9" y="160.65" class="st33" width="9.96" height="0.66"/>
	</g>
	<g>
		<rect x="230.82" y="157.65" class="st33" width="4.57" height="13.11"/>
		<rect x="231.52" y="158.35" class="st21" width="3.16" height="11.71"/>
		<polygon class="st22" points="232.07,159 234.69,159 234.69,158.35 231.52,158.35 231.52,170.06 232.07,170.06 		"/>
	</g>
	<g>
		<rect x="230.82" y="130.6" class="st33" width="4.57" height="13.11"/>
		<rect x="231.52" y="131.3" class="st21" width="3.16" height="11.71"/>
		<polygon class="st22" points="232.07,131.96 234.69,131.96 234.69,131.3 231.52,131.3 231.52,143.01 232.07,143.01 		"/>
	</g>
	<g>
		<rect x="244.99" y="136.11" class="st33" width="13.11" height="4.57"/>
		<rect x="245.69" y="136.81" class="st21" width="11.71" height="3.16"/>
		<polygon class="st22" points="246.34,137.35 246.34,139.97 245.69,139.97 245.69,136.81 257.4,136.81 257.4,137.35 		"/>
	</g>
	<g>
		<rect x="264.59" y="151.21" class="st33" width="5.5" height="4.57"/>
		<rect x="265.29" y="151.91" class="st21" width="4.1" height="3.16"/>
		<polygon class="st22" points="265.95,152.45 265.95,155.07 265.29,155.07 265.29,151.91 269.39,151.91 269.39,152.45 		"/>
	</g>
	<g>
		<rect x="272.21" y="151.21" class="st33" width="5.5" height="4.57"/>
		<rect x="272.91" y="151.91" class="st21" width="4.1" height="3.16"/>
		<polygon class="st22" points="273.56,152.45 273.56,155.07 272.91,155.07 272.91,151.91 277.01,151.91 277.01,152.45 		"/>
	</g>
	<g>
		<rect x="279.82" y="151.21" class="st33" width="5.5" height="4.57"/>
		<rect x="280.52" y="151.91" class="st21" width="4.1" height="3.16"/>
		<polygon class="st22" points="281.17,152.45 281.17,155.07 280.52,155.07 280.52,151.91 284.62,151.91 284.62,152.45 		"/>
	</g>
	<g>
		<rect x="217.12" y="130.6" class="st33" width="4.57" height="13.11"/>
		<rect x="217.83" y="131.3" class="st21" width="3.16" height="11.71"/>
		<polygon class="st22" points="218.37,131.96 220.99,131.96 220.99,131.3 217.83,131.3 217.83,143.01 218.37,143.01 		"/>
	</g>
	<g>
		<rect x="210.1" y="130.6" class="st33" width="4.57" height="13.11"/>
		<rect x="210.8" y="131.3" class="st21" width="3.16" height="11.71"/>
		<polygon class="st22" points="211.34,131.96 213.96,131.96 213.96,131.3 210.8,131.3 210.8,143.01 211.34,143.01 		"/>
	</g>
	<g>
		<rect x="203.07" y="130.6" class="st33" width="4.57" height="13.11"/>
		<rect x="203.78" y="131.3" class="st21" width="3.16" height="11.71"/>
		<polygon class="st22" points="204.32,131.96 206.94,131.96 206.94,131.3 203.78,131.3 203.78,143.01 204.32,143.01 		"/>
	</g>
	<g>
		<rect x="196.05" y="130.6" class="st33" width="4.57" height="13.11"/>
		<rect x="196.75" y="131.3" class="st21" width="3.16" height="11.71"/>
		<polygon class="st22" points="197.29,131.96 199.91,131.96 199.91,131.3 196.75,131.3 196.75,143.01 197.29,143.01 		"/>
	</g>
	<g>
		<rect x="239.51" y="157.65" class="st33" width="4.57" height="13.11"/>
		<rect x="240.22" y="158.35" class="st21" width="3.16" height="11.71"/>
		<polygon class="st22" points="240.76,159 243.38,159 243.38,158.35 240.22,158.35 240.22,170.06 240.76,170.06 		"/>
	</g>
	<g>
		<rect x="248.21" y="157.65" class="st33" width="4.57" height="13.11"/>
		<rect x="248.91" y="158.35" class="st21" width="3.16" height="11.71"/>
		<polygon class="st22" points="249.45,159 252.07,159 252.07,158.35 248.91,158.35 248.91,170.06 249.45,170.06 		"/>
	</g>
</g>
<g>
	<g>
		<polygon class="st34" points="411.01,141 411.01,140.14 353.22,111.73 295.43,140.14 295.43,141 		"/>
		<polygon class="st35" points="408.02,175.62 408.02,140.93 353.22,114.59 298.41,140.93 298.41,175.62 		"/>
		<rect x="298.41" y="151.92" class="st36" width="109.61" height="23.71"/>
		<polygon class="st34" points="299.14,152.46 299.14,175.62 304.64,175.62 304.64,158.56 329.73,158.56 329.73,175.62 
			381.63,175.62 381.63,158.18 405.3,158.18 405.3,175.05 407.39,175.05 407.39,152.46 		"/>
		<polygon class="st19" points="404.28,175.62 408.02,175.62 408.02,151.92 375.16,151.92 375.16,155.65 404.28,155.65 		"/>
		<polygon class="st19" points="302.15,175.62 302.15,155.65 330.71,155.65 330.71,151.92 298.41,151.92 298.41,175.62 		"/>
		<g>
			<g>
				<polygon class="st37" points="329.11,128.3 302.22,141.22 302.22,150.02 329.11,150.02 				"/>
				<polygon class="st21" points="302.84,149.4 302.84,141.61 328.49,129.29 328.49,149.4 				"/>
			</g>
			<polygon class="st38" points="303.44,142.51 328.49,130.47 328.49,129.29 302.84,141.61 302.84,149.4 303.44,149.4 			"/>
			<polygon class="st37" points="320.73,149.76 320.73,132.58 320.07,132.91 320.07,149.76 			"/>
			<polygon class="st37" points="311.18,137.12 311.18,149.76 311.84,149.76 311.84,136.85 			"/>
			<polygon class="st37" points="302.83,141.06 302.61,141.72 328.89,141.72 328.89,141.06 			"/>
		</g>
		<g>
			<g>
				<polygon class="st37" points="377.79,128.3 404.67,141.22 404.67,150.02 377.79,150.02 				"/>
				<polygon class="st21" points="404.05,149.4 404.05,141.61 378.41,129.29 378.41,149.4 				"/>
				<polygon class="st38" points="379.06,130.83 404.05,142.84 404.05,141.61 378.41,129.29 378.41,149.4 379.06,149.4 				"/>
			</g>
			<polygon class="st37" points="386.16,149.76 386.16,132.58 386.83,132.91 386.83,149.76 			"/>
			<polygon class="st37" points="395.72,137.12 395.72,149.76 395.05,149.76 395.05,136.85 			"/>
			<polygon class="st37" points="404.07,141.06 404.29,141.72 378,141.72 378,141.06 			"/>
		</g>
		<polygon class="st20" points="408.02,142.8 408.02,140.93 353.22,114.59 298.41,140.93 298.41,142.8 353.22,116.46 		"/>
		<g>
			<rect x="329.11" y="127.04" class="st19" width="48.58" height="48.58"/>
			<rect x="334.09" y="132.03" class="st37" width="38.61" height="38.61"/>
			<rect x="334.71" y="132.65" class="st21" width="37.37" height="37.37"/>
			<polygon class="st38" points="335.44,133.79 372.08,133.79 372.08,132.65 334.71,132.65 334.71,170.02 335.44,170.02 			"/>
			<rect x="353.01" y="132.09" class="st37" width="0.66" height="38.17"/>
			<rect x="334.26" y="150.92" class="st37" width="38.17" height="0.66"/>
			<rect x="334.26" y="141.06" class="st37" width="38.17" height="0.66"/>
			<rect x="334.26" y="160.7" class="st37" width="38.17" height="0.66"/>
			<rect x="362.82" y="132.09" class="st37" width="0.66" height="38.17"/>
			<rect x="343.19" y="132.09" class="st37" width="0.66" height="38.17"/>
		</g>
		<rect x="304.82" y="158.6" class="st37" width="24.08" height="12.04"/>
		<rect x="305.44" y="159.22" class="st21" width="22.84" height="10.8"/>
		<polygon class="st38" points="306.04,160.22 328.28,160.22 328.28,159.22 305.44,159.22 305.44,170.02 306.04,170.02 		"/>
		<rect x="312.33" y="158.93" class="st37" width="0.66" height="11.39"/>
		<rect x="320.84" y="158.93" class="st37" width="0.66" height="11.39"/>
		<g>
			<rect x="384.95" y="158.48" class="st37" width="15.36" height="16.92"/>
			<rect x="385.58" y="159.11" class="st21" width="14.12" height="15.67"/>
			<polygon class="st38" points="386.17,160.1 399.69,160.1 399.69,159.11 385.58,159.11 385.58,174.78 386.17,174.78 			"/>
			<rect x="391.93" y="158.82" class="st37" width="1.72" height="16.28"/>
		</g>
	</g>
	<rect x="297.5" y="175.5" class="st34" width="111.47" height="1.59"/>
</g>
<g>
	<rect x="11.88" y="121.85" class="st39" width="58.23" height="55.29"/>
	<rect x="9.6" y="175.58" class="st40" width="60.51" height="1.73"/>
	<polygon class="st41" points="66.98,123.27 8.75,123.27 28.94,108.19 66.98,108.19 	"/>
	<polygon class="st40" points="87.6,123.44 87.6,121.28 62.85,99.08 38.11,121.28 38.11,123.44 	"/>
	<polygon class="st42" points="86.32,177.13 39.39,177.13 39.39,121.85 62.85,100.8 86.32,121.85 	"/>
	<g>
		<rect x="44.84" y="128.08" class="st15" width="15.73" height="15.5"/>
		<rect x="45.47" y="128.66" class="st21" width="14.47" height="14.29"/>
		<polygon class="st22" points="46.1,129.4 59.94,129.4 59.94,128.66 45.47,128.66 45.47,142.96 46.1,142.96 		"/>
		<rect x="52.33" y="128.35" class="st15" width="0.68" height="14.9"/>
		<rect x="45.11" y="132" class="st15" width="15.41" height="0.68"/>
	</g>
	<g>
		<rect x="15.4" y="128.08" class="st15" width="15.73" height="15.5"/>
		<rect x="16.03" y="128.66" class="st21" width="14.47" height="14.29"/>
		<polygon class="st22" points="16.66,129.4 30.51,129.4 30.51,128.66 16.03,128.66 16.03,142.96 16.66,142.96 		"/>
		<rect x="22.9" y="128.35" class="st15" width="0.68" height="14.9"/>
		<rect x="15.68" y="132" class="st15" width="15.41" height="0.68"/>
	</g>
	<g>
		<rect x="57.64" y="108.46" class="st15" width="9.7" height="10.47"/>
		<rect x="58.27" y="109.04" class="st21" width="8.44" height="9.26"/>
		<polygon class="st22" points="58.9,109.78 66.7,109.78 66.7,109.04 58.27,109.04 58.27,118.3 58.9,118.3 		"/>
	</g>
	<g>
		<rect x="16.22" y="152.97" class="st15" width="4.68" height="17.87"/>
		<rect x="16.76" y="153.47" class="st21" width="3.59" height="16.82"/>
		<polygon class="st22" points="17.31,154.12 20.35,154.12 20.35,153.47 16.76,153.47 16.76,170.29 17.31,170.29 		"/>
	</g>
	<g>
		<rect x="32.96" y="152.97" class="st15" width="4.68" height="17.87"/>
		<rect x="33.51" y="153.47" class="st21" width="3.59" height="16.82"/>
		<polygon class="st22" points="34.05,154.12 37.09,154.12 37.09,153.47 33.51,153.47 33.51,170.29 34.05,170.29 		"/>
	</g>
	<g>
		<rect x="65.42" y="128.08" class="st15" width="15.73" height="15.5"/>
		<rect x="66.05" y="128.66" class="st21" width="14.47" height="14.29"/>
		<polygon class="st22" points="66.68,129.4 80.53,129.4 80.53,128.66 66.05,128.66 66.05,142.96 66.68,142.96 		"/>
		<rect x="72.92" y="128.35" class="st15" width="0.68" height="14.9"/>
		<rect x="65.69" y="132" class="st15" width="15.41" height="0.68"/>
	</g>
	<g>
		<rect x="44.84" y="152.61" class="st15" width="15.73" height="15.5"/>
		<rect x="45.47" y="153.19" class="st21" width="14.47" height="14.29"/>
		<polygon class="st22" points="46.1,153.93 59.94,153.93 59.94,153.19 45.47,153.19 45.47,167.49 46.1,167.49 		"/>
		<rect x="52.33" y="152.88" class="st15" width="0.68" height="14.9"/>
		<rect x="45.11" y="156.53" class="st15" width="15.41" height="0.68"/>
	</g>
	<g>
		<rect x="65.42" y="152.61" class="st15" width="15.73" height="15.5"/>
		<rect x="66.05" y="153.19" class="st21" width="14.47" height="14.29"/>
		<polygon class="st22" points="66.68,153.93 80.53,153.93 80.53,153.19 66.05,153.19 66.05,167.49 66.68,167.49 		"/>
		<rect x="72.92" y="152.88" class="st15" width="0.68" height="14.9"/>
		<rect x="65.69" y="156.53" class="st15" width="15.41" height="0.68"/>
	</g>
	<rect x="8.68" y="123.27" class="st40" width="30.73" height="1.07"/>
	<rect x="39.25" y="175.03" class="st41" width="47.92" height="2.28"/>
	<polygon class="st41" points="39.39,143.82 11.02,143.82 5.33,149.89 39.39,149.89 	"/>
	<rect x="5.26" y="149.89" class="st40" width="34.13" height="0.84"/>
	<rect x="11.87" y="150.75" class="st43" width="27.52" height="0.84"/>
	<rect x="11.87" y="124.35" class="st43" width="27.52" height="0.84"/>
	<g>
		<g>
			<rect x="22.31" y="152.94" class="st15" width="8.7" height="17.98"/>
			<rect x="22.73" y="153.32" class="st21" width="2.25" height="3.54"/>
			<rect x="25.5" y="153.32" class="st21" width="2.3" height="3.54"/>
			<rect x="28.31" y="153.32" class="st21" width="2.3" height="3.54"/>
			<rect x="22.73" y="157.26" class="st21" width="2.25" height="2.05"/>
			<rect x="25.5" y="157.26" class="st21" width="2.3" height="2.05"/>
			<rect x="28.31" y="157.26" class="st21" width="2.3" height="2.05"/>
			<polygon class="st22" points="23.08,153.88 24.98,153.88 24.98,153.32 22.73,153.32 22.73,156.87 23.08,156.87 			"/>
			<polygon class="st22" points="25.84,153.88 27.8,153.88 27.8,153.32 25.5,153.32 25.5,156.87 25.84,156.87 			"/>
			<polygon class="st22" points="28.66,153.88 30.61,153.88 30.61,153.32 28.31,153.32 28.31,156.87 28.66,156.87 			"/>
			<polygon class="st22" points="23.08,157.82 24.98,157.82 24.98,157.26 22.73,157.26 22.73,159.31 23.08,159.31 			"/>
			<polygon class="st22" points="25.84,157.82 27.8,157.82 27.8,157.26 25.5,157.26 25.5,159.31 25.84,159.31 			"/>
			<polygon class="st22" points="28.66,157.82 30.61,157.82 30.61,157.26 28.31,157.26 28.31,159.31 28.66,159.31 			"/>
			<rect x="22.73" y="159.75" class="st21" width="2.25" height="2.05"/>
			<rect x="25.5" y="159.75" class="st21" width="2.3" height="2.05"/>
			<rect x="28.31" y="159.75" class="st21" width="2.3" height="2.05"/>
			<polygon class="st22" points="23.08,160.3 24.98,160.3 24.98,159.75 22.73,159.75 22.73,161.79 23.08,161.79 			"/>
			<polygon class="st22" points="25.84,160.3 27.8,160.3 27.8,159.75 25.5,159.75 25.5,161.79 25.84,161.79 			"/>
			<polygon class="st22" points="28.66,160.3 30.61,160.3 30.61,159.75 28.31,159.75 28.31,161.79 28.66,161.79 			"/>
			<rect x="22.73" y="162.23" class="st21" width="2.25" height="2.05"/>
			<rect x="25.5" y="162.23" class="st21" width="2.3" height="2.05"/>
			<rect x="28.31" y="162.23" class="st21" width="2.3" height="2.05"/>
			<polygon class="st22" points="23.08,162.79 24.98,162.79 24.98,162.23 22.73,162.23 22.73,164.28 23.08,164.28 			"/>
			<polygon class="st22" points="25.84,162.79 27.8,162.79 27.8,162.23 25.5,162.23 25.5,164.28 25.84,164.28 			"/>
			<polygon class="st22" points="28.66,162.79 30.61,162.79 30.61,162.23 28.31,162.23 28.31,164.28 28.66,164.28 			"/>
			<rect x="22.73" y="164.73" class="st21" width="2.25" height="5.77"/>
			<rect x="25.5" y="164.73" class="st21" width="2.3" height="5.77"/>
			<rect x="28.31" y="164.73" class="st21" width="2.3" height="5.77"/>
			<polygon class="st22" points="23.08,165.29 24.98,165.29 24.98,164.73 22.73,164.73 22.73,170.5 23.08,170.5 			"/>
			<polygon class="st22" points="25.84,165.29 27.8,165.29 27.8,164.73 25.5,164.73 25.5,170.5 25.84,170.5 			"/>
			<polygon class="st22" points="28.66,165.29 30.61,165.29 30.61,164.73 28.31,164.73 28.31,170.5 28.66,170.5 			"/>
		</g>
	</g>
	<rect x="16.07" y="171.05" class="st41" width="23.18" height="1.56"/>
	<rect x="13.51" y="172.55" class="st44" width="25.74" height="1.56"/>
	<rect x="11.11" y="174.08" class="st45" width="28.14" height="1.56"/>
	<polygon class="st43" points="62.85,100.8 39.39,121.85 39.39,123.77 62.85,102.72 86.32,123.77 86.32,121.85 	"/>
</g>
</svg>
